<?xml version="1.0" encoding="utf-8"?>
<!-- Generator: Adobe Illustrator 25.0.1, SVG Export Plug-In . SVG Version: 6.00 Build 0)  -->
<svg version="1.1" id="Layer_1" xmlns="http://www.w3.org/2000/svg" xmlns:xlink="http://www.w3.org/1999/xlink" x="0px" y="0px"
	 viewBox="0 0 792 612" style="enable-background:new 0 0 792 612;" xml:space="preserve">
<style type="text/css">
	.st0{fill:#231F20;}
	.st1{fill:#F03D57;}
</style>
<g>
	<path class="st0" d="M448.3,301.7v8.8h-1v-8.8H448.3z"/>
	<path class="st0" d="M450.1,310.5v-5.9h0.9l0.1,0.9c0.2-0.3,0.5-0.6,0.8-0.7s0.7-0.3,1.1-0.3c0.5,0,0.9,0.1,1.3,0.3
		s0.7,0.5,0.9,0.9s0.3,0.9,0.3,1.4v3.3h-1v-3.2c0-0.6-0.2-1-0.5-1.4s-0.7-0.5-1.2-0.5c-0.3,0-0.6,0.1-0.9,0.2s-0.5,0.4-0.6,0.7
		s-0.2,0.6-0.2,0.9v3.2H450.1z"/>
	<path class="st0" d="M456.9,309.9l0.5-0.8c0.5,0.4,1,0.6,1.5,0.6c0.3,0,0.6-0.1,0.7-0.2s0.3-0.3,0.3-0.6c0-0.3-0.1-0.5-0.4-0.7
		s-0.5-0.3-0.8-0.5c-0.2-0.1-0.5-0.2-0.7-0.4s-0.4-0.3-0.6-0.5c-0.2-0.2-0.2-0.5-0.2-0.8c0-0.5,0.2-0.9,0.5-1.2s0.8-0.4,1.4-0.4
		c0.3,0,0.6,0,0.9,0.1s0.5,0.2,0.8,0.3l-0.4,0.8c-0.2-0.1-0.4-0.2-0.6-0.3s-0.4-0.1-0.6-0.1c-0.3,0-0.5,0.1-0.7,0.2
		s-0.3,0.3-0.3,0.5c0,0.2,0.1,0.4,0.3,0.6s0.5,0.3,0.8,0.4c0.3,0.1,0.5,0.2,0.8,0.4s0.5,0.3,0.6,0.6s0.3,0.5,0.3,0.9
		c0,0.3-0.1,0.6-0.3,0.9s-0.4,0.5-0.7,0.6s-0.6,0.2-1,0.2c-0.3,0-0.7-0.1-1-0.2S457.1,310.2,456.9,309.9z"/>
	<path class="st0" d="M462.9,304.7v-1.5h1v1.5h1.6v0.9h-1.6v3.1c0,0.7,0.3,1.1,1,1.1c0.1,0,0.2,0,0.3,0s0.2-0.1,0.3-0.1v0.8
		c-0.1,0-0.2,0.1-0.4,0.1s-0.3,0-0.5,0c-0.6,0-1-0.2-1.3-0.5s-0.4-0.8-0.4-1.4v-3.2h-1v-0.9H462.9z"/>
	<path class="st0" d="M466.9,310.5v-5.9h0.9l0.1,0.9c0.2-0.3,0.4-0.6,0.8-0.8s0.7-0.3,1.1-0.3c0.2,0,0.4,0,0.6,0.1l-0.1,0.9
		c-0.2,0-0.4-0.1-0.5-0.1c-0.5,0-1,0.2-1.3,0.6s-0.4,0.9-0.4,1.5v3H466.9z"/>
	<path class="st0" d="M472.1,304.7v3.2c0,0.6,0.2,1,0.5,1.4s0.7,0.5,1.2,0.5c0.3,0,0.6-0.1,0.9-0.2s0.5-0.4,0.6-0.7s0.2-0.6,0.2-0.9
		v-3.2h1v5.9h-0.9l-0.1-0.9c-0.2,0.3-0.5,0.6-0.8,0.7s-0.7,0.3-1.1,0.3c-0.5,0-0.9-0.1-1.3-0.3s-0.7-0.5-0.9-0.9s-0.3-0.9-0.3-1.4
		v-3.3H472.1z"/>
	<path class="st0" d="M483.2,309.8c-0.3,0.3-0.6,0.5-1,0.6s-0.8,0.2-1.2,0.2c-0.6,0-1.1-0.1-1.6-0.4s-0.8-0.6-1.1-1.1
		s-0.4-1-0.4-1.6c0-0.6,0.1-1.1,0.4-1.6s0.6-0.8,1.1-1.1s1-0.4,1.6-0.4c0.4,0,0.8,0.1,1.2,0.2s0.7,0.4,1,0.6l-0.7,0.7
		c-0.2-0.2-0.4-0.4-0.7-0.5s-0.5-0.2-0.8-0.2c-0.4,0-0.7,0.1-1.1,0.3s-0.6,0.4-0.7,0.8s-0.3,0.7-0.3,1.1c0,0.4,0.1,0.8,0.3,1.1
		s0.4,0.6,0.7,0.8s0.7,0.3,1.1,0.3c0.3,0,0.6-0.1,0.8-0.2s0.5-0.3,0.7-0.5L483.2,309.8z"/>
	<path class="st0" d="M485.3,304.7v-1.5h1v1.5h1.6v0.9h-1.6v3.1c0,0.7,0.3,1.1,1,1.1c0.1,0,0.2,0,0.3,0s0.2-0.1,0.3-0.1v0.8
		c-0.1,0-0.2,0.1-0.4,0.1s-0.3,0-0.5,0c-0.6,0-1-0.2-1.3-0.5s-0.4-0.8-0.4-1.4v-3.2h-1v-0.9H485.3z"/>
	<path class="st0" d="M489.1,302.4c0-0.2,0.1-0.4,0.2-0.5s0.3-0.2,0.5-0.2c0.2,0,0.4,0.1,0.5,0.2s0.2,0.3,0.2,0.5
		c0,0.2-0.1,0.4-0.2,0.5s-0.3,0.2-0.5,0.2c-0.2,0-0.4-0.1-0.5-0.2S489.1,302.6,489.1,302.4z M489.3,310.5v-5.9h1v5.9H489.3z"/>
	<path class="st0" d="M491.7,307.6c0-0.6,0.1-1.1,0.4-1.6s0.6-0.8,1.1-1.1s1-0.4,1.6-0.4s1.1,0.1,1.6,0.4s0.8,0.6,1.1,1.1
		s0.4,1,0.4,1.6c0,0.6-0.1,1.1-0.4,1.6s-0.6,0.8-1.1,1.1s-1,0.4-1.6,0.4s-1.1-0.1-1.6-0.4s-0.8-0.6-1.1-1.1S491.7,308.2,491.7,307.6
		z M492.7,307.6c0,0.4,0.1,0.8,0.3,1.1s0.4,0.6,0.7,0.8s0.7,0.3,1.1,0.3s0.7-0.1,1.1-0.3s0.6-0.4,0.7-0.8s0.3-0.7,0.3-1.1
		c0-0.4-0.1-0.8-0.3-1.1s-0.4-0.6-0.7-0.8s-0.7-0.3-1.1-0.3s-0.7,0.1-1.1,0.3s-0.6,0.4-0.7,0.8S492.7,307.2,492.7,307.6z"/>
	<path class="st0" d="M499.3,310.5v-5.9h0.9l0.1,0.9c0.2-0.3,0.5-0.6,0.8-0.7s0.7-0.3,1.1-0.3c0.5,0,0.9,0.1,1.3,0.3
		s0.7,0.5,0.9,0.9s0.3,0.9,0.3,1.4v3.3h-1v-3.2c0-0.6-0.2-1-0.5-1.4s-0.7-0.5-1.2-0.5c-0.3,0-0.6,0.1-0.9,0.2s-0.5,0.4-0.6,0.7
		s-0.2,0.6-0.2,0.9v3.2H499.3z"/>
	<path class="st0" d="M506,309.9l0.5-0.8c0.5,0.4,1,0.6,1.5,0.6c0.3,0,0.6-0.1,0.7-0.2s0.3-0.3,0.3-0.6c0-0.3-0.1-0.5-0.4-0.7
		s-0.5-0.3-0.8-0.5c-0.2-0.1-0.5-0.2-0.7-0.4s-0.4-0.3-0.6-0.5c-0.2-0.2-0.2-0.5-0.2-0.8c0-0.5,0.2-0.9,0.5-1.2s0.8-0.4,1.4-0.4
		c0.3,0,0.6,0,0.9,0.1s0.5,0.2,0.8,0.3l-0.4,0.8c-0.2-0.1-0.4-0.2-0.6-0.3s-0.4-0.1-0.6-0.1c-0.3,0-0.5,0.1-0.7,0.2
		s-0.3,0.3-0.3,0.5c0,0.2,0.1,0.4,0.3,0.6s0.5,0.3,0.8,0.4c0.3,0.1,0.5,0.2,0.8,0.4s0.5,0.3,0.6,0.6s0.3,0.5,0.3,0.9
		c0,0.3-0.1,0.6-0.3,0.9s-0.4,0.5-0.7,0.6s-0.6,0.2-1,0.2c-0.3,0-0.7-0.1-1-0.2S506.3,310.2,506,309.9z"/>
</g>
<g>
	<path class="st1" d="M336.3,325.6h-51.1c-10.8,0-19.6-8.8-19.6-19.6c0-10.8,8.8-19.6,19.6-19.6h51.1c10.8,0,19.6,8.8,19.6,19.6
		C355.9,316.8,347.1,325.6,336.3,325.6z M285.2,288.4c-9.7,0-17.6,7.9-17.6,17.6c0,9.7,7.9,17.6,17.6,17.6h51.1
		c9.7,0,17.6-7.9,17.6-17.6c0-9.7-7.9-17.6-17.6-17.6H285.2z"/>
</g>
<rect x="354.9" y="305" class="st1" width="81.1" height="2"/>
<rect x="435" y="301.5" class="st1" width="2" height="9"/>
</svg>
