<?xml version="1.0" encoding="utf-8"?>
<!-- Generator: Adobe Illustrator 24.2.1, SVG Export Plug-In . SVG Version: 6.00 Build 0)  -->
<svg version="1.1" id="Layer_1" xmlns="http://www.w3.org/2000/svg" xmlns:xlink="http://www.w3.org/1999/xlink" x="0px" y="0px"
	 viewBox="0 0 360 226" style="enable-background:new 0 0 360 226;" xml:space="preserve">
<style type="text/css">
	.st0{fill:#322C2D;}
	.st1{fill:#EF3C57;}
</style>
<path class="st0" d="M108.9,129.4c-0.8-0.8-1.2-1.9-1.2-3.3V85c0-1.4,0.4-2.4,1.2-3.3c0.8-0.8,1.9-1.2,3.3-1.2s2.5,0.4,3.3,1.2
	c0.8,0.8,1.2,1.9,1.2,3.3v41.1c0,1.4-0.4,2.4-1.2,3.3c-0.8,0.8-1.9,1.3-3.3,1.3C110.8,130.6,109.7,130.2,108.9,129.4z"/>
<path class="st0" d="M168.4,127c0,1.1-0.4,2-1.3,2.7c-0.9,0.7-1.9,1.1-3,1.1c-0.7,0-1.5-0.2-2.1-0.5c-0.7-0.3-1.2-0.9-1.7-1.6
	l-9.3-14.1c-0.9-1.5-1.9-2.5-3-3.1c-1-0.6-2.4-0.9-4.1-0.9H137v15.7c0,1.4-0.4,2.5-1.2,3.3s-1.9,1.2-3.2,1.2c-1.4,0-2.4-0.4-3.3-1.2
	c-0.8-0.8-1.2-1.9-1.2-3.3v-41c0-1.4,0.4-2.4,1.2-3.1s1.8-1.1,3.2-1.1H150c5.6,0,9.9,1.2,12.8,3.7c2.9,2.5,4.4,6.1,4.4,10.8
	c0,3.8-1.1,7-3.3,9.4c-2.2,2.5-5.2,4-9.2,4.7c1.4,0.3,2.5,0.9,3.6,1.8c1,0.8,2,2,3,3.5l6.4,9.7C168.1,125.4,168.4,126.2,168.4,127z
	 M156.1,101.5c1.6-1.3,2.4-3.3,2.4-5.9c0-2.7-0.8-4.7-2.4-5.9c-1.6-1.2-4.1-1.9-7.5-1.9h-11.8v15.6h11.8
	C152.1,103.5,154.5,102.8,156.1,101.5z"/>
<path class="st0" d="M204.1,129.4c-3.2-1-5.8-2.3-7.8-3.9c-1.1-0.8-1.6-1.9-1.6-3.4c0-1,0.3-1.8,0.9-2.6c0.6-0.7,1.3-1.1,2.1-1.1
	s1.8,0.3,2.9,1c2,1.4,4.1,2.5,6.3,3.1c2.2,0.7,4.6,1,7.3,1c3.4,0,6-0.6,7.8-1.8c1.8-1.2,2.7-2.9,2.7-5.2c0-1.8-0.9-3.1-2.6-4.1
	c-1.7-1-4.5-1.9-8.5-2.8c-4.1-0.9-7.4-1.9-10-3.1s-4.5-2.7-5.8-4.5s-2-4.1-2-6.9c0-2.9,0.8-5.5,2.5-7.8c1.6-2.3,3.9-4.1,6.8-5.4
	c2.9-1.3,6.2-1.9,9.8-1.9c6.7,0,12.1,1.8,16.3,5.3c0.6,0.5,1,1,1.3,1.5s0.4,1.1,0.4,1.9c0,1-0.3,1.8-0.9,2.6
	c-0.6,0.7-1.3,1.1-2.1,1.1c-0.5,0-0.9-0.1-1.3-0.2c-0.4-0.1-0.9-0.4-1.6-0.8c-1.9-1.4-3.8-2.4-5.6-3.1s-4-1-6.6-1
	c-3.2,0-5.7,0.6-7.5,1.9s-2.8,3.1-2.8,5.4c0,1.9,0.8,3.4,2.5,4.4c1.6,1,4.4,2,8.3,2.9c4.2,0.9,7.5,2,10.1,3.1s4.6,2.6,6,4.4
	s2.1,4,2.1,6.7c0,2.9-0.8,5.4-2.4,7.7c-1.6,2.2-3.9,3.9-6.8,5.2c-2.9,1.2-6.3,1.9-10,1.9C210.7,130.8,207.3,130.4,204.1,129.4z"/>
<path class="st0" d="M181.4,98.3c-1.6,0-3.1-0.3-4.5-0.9V126c0,1.4,0.4,2.4,1.2,3.3c0.8,0.8,1.9,1.3,3.3,1.3c1.4,0,2.5-0.4,3.3-1.3
	c0.8-0.8,1.2-1.9,1.2-3.3V97.4C184.5,98,183,98.3,181.4,98.3z"/>
<circle class="st1" cx="181.4" cy="86.6" r="5.7"/>
</svg>
