<?xml version="1.0" encoding="utf-8"?>
<!-- Generator: Adobe Illustrator 25.1.0, SVG Export Plug-In . SVG Version: 6.00 Build 0)  -->
<!DOCTYPE svg PUBLIC "-//W3C//DTD SVG 1.1//EN" "http://www.w3.org/Graphics/SVG/1.1/DTD/svg11.dtd" [
	<!ENTITY ns_extend "http://ns.adobe.com/Extensibility/1.0/">
	<!ENTITY ns_ai "http://ns.adobe.com/AdobeIllustrator/10.0/">
	<!ENTITY ns_graphs "http://ns.adobe.com/Graphs/1.0/">
	<!ENTITY ns_vars "http://ns.adobe.com/Variables/1.0/">
	<!ENTITY ns_imrep "http://ns.adobe.com/ImageReplacement/1.0/">
	<!ENTITY ns_sfw "http://ns.adobe.com/SaveForWeb/1.0/">
	<!ENTITY ns_custom "http://ns.adobe.com/GenericCustomNamespace/1.0/">
	<!ENTITY ns_adobe_xpath "http://ns.adobe.com/XPath/1.0/">
]>
<svg version="1.1" id="Layer_1" xmlns:x="&ns_extend;" xmlns:i="&ns_ai;" xmlns:graph="&ns_graphs;"
	 xmlns="http://www.w3.org/2000/svg" xmlns:xlink="http://www.w3.org/1999/xlink" x="0px" y="0px" viewBox="0 0 125.8 50.9"
	 style="enable-background:new 0 0 125.8 50.9;" xml:space="preserve">
<style type="text/css">
	.st0{fill:#322C2D;}
	.st1{fill:#EF3C57;}
</style>
<metadata>
	<sfw  xmlns="&ns_sfw;">
		<slices></slices>
		<sliceSourceBounds  bottomLeftOrigin="true" height="50.9" width="125.8" x="107.7" y="95.1"></sliceSourceBounds>
	</sfw>
</metadata>
<path class="st0" d="M1.2,49.4C0.4,48.6,0,47.5,0,46.1V5c0-1.4,0.4-2.4,1.2-3.3C2,0.9,3.1,0.5,4.5,0.5S7,0.9,7.8,1.7
	C8.6,2.5,9,3.6,9,5v41.1c0,1.4-0.4,2.4-1.2,3.3c-0.8,0.8-1.9,1.3-3.3,1.3C3.1,50.6,2,50.2,1.2,49.4z"/>
<path class="st0" d="M60.7,47c0,1.1-0.4,2-1.3,2.7c-0.9,0.7-1.9,1.1-3,1.1c-0.7,0-1.5-0.2-2.1-0.5c-0.7-0.3-1.2-0.9-1.7-1.6
	l-9.3-14.1c-0.9-1.5-1.9-2.5-3-3.1c-1-0.6-2.4-0.9-4.1-0.9h-6.9v15.7c0,1.4-0.4,2.5-1.2,3.3s-1.9,1.2-3.2,1.2
	c-1.4,0-2.4-0.4-3.3-1.2c-0.8-0.8-1.2-1.9-1.2-3.3v-41c0-1.4,0.4-2.4,1.2-3.1s1.8-1.1,3.2-1.1h17.5c5.6,0,9.9,1.2,12.8,3.7
	c2.9,2.5,4.4,6.1,4.4,10.8c0,3.8-1.1,7-3.3,9.4C54,27.5,51,29,47,29.7c1.4,0.3,2.5,0.9,3.6,1.8c1,0.8,2,2,3,3.5l6.4,9.7
	C60.4,45.4,60.7,46.2,60.7,47z M48.4,21.5c1.6-1.3,2.4-3.3,2.4-5.9c0-2.7-0.8-4.7-2.4-5.9c-1.6-1.2-4.1-1.9-7.5-1.9H29.1v15.6h11.8
	C44.4,23.5,46.8,22.8,48.4,21.5z"/>
<path class="st0" d="M96.4,49.4c-3.2-1-5.8-2.3-7.8-3.9c-1.1-0.8-1.6-1.9-1.6-3.4c0-1,0.3-1.8,0.9-2.6c0.6-0.7,1.3-1.1,2.1-1.1
	s1.8,0.3,2.9,1c2,1.4,4.1,2.5,6.3,3.1c2.2,0.7,4.6,1,7.3,1c3.4,0,6-0.6,7.8-1.8c1.8-1.2,2.7-2.9,2.7-5.2c0-1.8-0.9-3.1-2.6-4.1
	c-1.7-1-4.5-1.9-8.5-2.8c-4.1-0.9-7.4-1.9-10-3.1s-4.5-2.7-5.8-4.5s-2-4.1-2-6.9c0-2.9,0.8-5.5,2.5-7.8c1.6-2.3,3.9-4.1,6.8-5.4
	c2.9-1.3,6.2-1.9,9.8-1.9c6.7,0,12.1,1.8,16.3,5.3c0.6,0.5,1,1,1.3,1.5s0.4,1.1,0.4,1.9c0,1-0.3,1.8-0.9,2.6
	c-0.6,0.7-1.3,1.1-2.1,1.1c-0.5,0-0.9-0.1-1.3-0.2c-0.4-0.1-0.9-0.4-1.6-0.8c-1.9-1.4-3.8-2.4-5.6-3.1s-4-1-6.6-1
	c-3.2,0-5.7,0.6-7.5,1.9s-2.8,3.1-2.8,5.4c0,1.9,0.8,3.4,2.5,4.4c1.6,1,4.4,2,8.3,2.9c4.2,0.9,7.5,2,10.1,3.1s4.6,2.6,6,4.4
	s2.1,4,2.1,6.7c0,2.9-0.8,5.4-2.4,7.7c-1.6,2.2-3.9,3.9-6.8,5.2c-2.9,1.2-6.3,1.9-10,1.9C103,50.8,99.6,50.4,96.4,49.4z"/>
<path class="st0" d="M73.7,18.3c-1.6,0-3.1-0.3-4.5-0.9V46c0,1.4,0.4,2.4,1.2,3.3c0.8,0.8,1.9,1.3,3.3,1.3c1.4,0,2.5-0.4,3.3-1.3
	c0.8-0.8,1.2-1.9,1.2-3.3V17.4C76.8,18,75.3,18.3,73.7,18.3z"/>
<circle class="st1" cx="73.7" cy="6.6" r="5.7"/>
</svg>
