<?xml version="1.0" encoding="utf-8"?>
<!-- Generator: Adobe Illustrator 25.0.1, SVG Export Plug-In . SVG Version: 6.00 Build 0)  -->
<svg version="1.1" id="Layer_1" xmlns="http://www.w3.org/2000/svg" xmlns:xlink="http://www.w3.org/1999/xlink" x="0px" y="0px"
	 viewBox="0 0 792 612" style="enable-background:new 0 0 792 612;" xml:space="preserve">
<style type="text/css">
	.st0{fill:#231F20;}
	.st1{fill:#F03D57;}
</style>
<g>
	<path class="st0" d="M265.1,401.7h3c1,0,1.7,0.2,2.2,0.7s0.8,1.1,0.8,1.9c0,0.8-0.3,1.4-0.8,1.9s-1.3,0.7-2.2,0.7h-2v3.5h-1V401.7z
		 M266.1,402.7v3.4h2c0.6,0,1.1-0.2,1.5-0.5s0.5-0.7,0.5-1.2c0-0.5-0.2-0.9-0.5-1.2s-0.8-0.5-1.5-0.5H266.1z"/>
	<path class="st0" d="M272.4,410.5v-5.9h0.9l0.1,0.9c0.2-0.3,0.4-0.6,0.8-0.8s0.7-0.3,1.1-0.3c0.2,0,0.4,0,0.6,0.1l-0.1,0.9
		c-0.2,0-0.4-0.1-0.5-0.1c-0.5,0-1,0.2-1.3,0.6s-0.4,0.9-0.4,1.5v3H272.4z"/>
	<path class="st0" d="M276.4,407.6c0-0.6,0.1-1.1,0.4-1.6s0.6-0.8,1.1-1.1s1-0.4,1.6-0.4s1.1,0.1,1.6,0.4s0.8,0.6,1.1,1.1
		s0.4,1,0.4,1.6s-0.1,1.1-0.4,1.6s-0.6,0.8-1.1,1.1s-1,0.4-1.6,0.4s-1.1-0.1-1.6-0.4s-0.8-0.6-1.1-1.1S276.4,408.2,276.4,407.6z
		 M277.4,407.6c0,0.4,0.1,0.8,0.3,1.1s0.4,0.6,0.7,0.8s0.7,0.3,1.1,0.3s0.7-0.1,1.1-0.3s0.6-0.4,0.7-0.8s0.3-0.7,0.3-1.1
		c0-0.4-0.1-0.8-0.3-1.1s-0.4-0.6-0.7-0.8s-0.7-0.3-1.1-0.3s-0.7,0.1-1.1,0.3s-0.6,0.4-0.7,0.8S277.4,407.2,277.4,407.6z"/>
	<path class="st0" d="M286.5,410.6c-0.6,0-1.1-0.1-1.5-0.4s-0.8-0.6-1.1-1.1s-0.4-1-0.4-1.6s0.1-1.1,0.4-1.6s0.6-0.8,1.1-1.1
		s1-0.4,1.5-0.4c0.4,0,0.8,0.1,1.2,0.2s0.7,0.4,1,0.7l0.1-0.8h0.9v5.3c0,0.7-0.1,1.4-0.4,1.9s-0.6,1-1.2,1.3s-1.1,0.5-1.9,0.5
		c-0.4,0-0.8-0.1-1.2-0.2s-0.7-0.3-1-0.5l0.5-0.8c0.2,0.2,0.5,0.3,0.8,0.4s0.6,0.2,0.9,0.2c0.8,0,1.4-0.2,1.8-0.7s0.6-1.1,0.6-1.9
		v-0.3c-0.3,0.3-0.6,0.5-0.9,0.7S286.9,410.6,286.5,410.6z M284.5,407.6c0,0.4,0.1,0.8,0.3,1.1s0.4,0.6,0.7,0.8s0.7,0.3,1.1,0.3
		s0.7-0.1,1.1-0.3s0.6-0.4,0.7-0.8s0.3-0.7,0.3-1.1c0-0.4-0.1-0.8-0.3-1.1s-0.4-0.6-0.7-0.8s-0.7-0.3-1.1-0.3s-0.7,0.1-1.1,0.3
		s-0.6,0.4-0.7,0.8S284.5,407.2,284.5,407.6z"/>
	<path class="st0" d="M291.5,410.5v-5.9h0.9l0.1,0.9c0.2-0.3,0.4-0.6,0.8-0.8s0.7-0.3,1.1-0.3c0.2,0,0.4,0,0.6,0.1l-0.1,0.9
		c-0.2,0-0.4-0.1-0.5-0.1c-0.5,0-1,0.2-1.3,0.6s-0.4,0.9-0.4,1.5v3H291.5z"/>
	<path class="st0" d="M301.4,407.6v0.4h-5c0.1,0.5,0.3,0.9,0.8,1.3s0.9,0.5,1.5,0.5c0.3,0,0.7-0.1,1-0.2s0.7-0.3,1-0.6l0.6,0.7
		c-0.4,0.4-0.9,0.6-1.3,0.7s-0.8,0.2-1.2,0.2c-0.6,0-1.2-0.1-1.7-0.4s-0.9-0.6-1.2-1.1s-0.4-1-0.4-1.6c0-0.6,0.1-1.1,0.4-1.5
		s0.6-0.8,1.1-1.1s1-0.4,1.6-0.4s1.1,0.1,1.5,0.4s0.8,0.6,1,1.1S301.4,407,301.4,407.6z M296.4,407.1h4c-0.1-0.5-0.3-0.9-0.7-1.3
		s-0.8-0.5-1.3-0.5c-0.5,0-1,0.2-1.3,0.5S296.5,406.6,296.4,407.1z"/>
	<path class="st0" d="M302.5,409.9l0.5-0.8c0.5,0.4,1,0.6,1.5,0.6c0.3,0,0.6-0.1,0.7-0.2s0.3-0.3,0.3-0.6c0-0.3-0.1-0.5-0.4-0.7
		s-0.5-0.3-0.8-0.5c-0.2-0.1-0.5-0.2-0.7-0.4s-0.4-0.3-0.6-0.5s-0.2-0.5-0.2-0.8c0-0.5,0.2-0.9,0.5-1.2s0.8-0.4,1.4-0.4
		c0.3,0,0.6,0,0.9,0.1s0.5,0.2,0.8,0.3l-0.4,0.8c-0.2-0.1-0.4-0.2-0.6-0.3s-0.4-0.1-0.6-0.1c-0.3,0-0.5,0.1-0.7,0.2
		s-0.3,0.3-0.3,0.5c0,0.2,0.1,0.4,0.3,0.6s0.5,0.3,0.8,0.4c0.3,0.1,0.5,0.2,0.8,0.4s0.5,0.3,0.6,0.6s0.3,0.5,0.3,0.9
		c0,0.3-0.1,0.6-0.3,0.9s-0.4,0.5-0.7,0.6s-0.6,0.2-1,0.2c-0.3,0-0.7-0.1-1-0.2S302.8,410.2,302.5,409.9z"/>
	<path class="st0" d="M307.6,409.9l0.5-0.8c0.5,0.4,1,0.6,1.5,0.6c0.3,0,0.6-0.1,0.7-0.2s0.3-0.3,0.3-0.6c0-0.3-0.1-0.5-0.4-0.7
		s-0.5-0.3-0.8-0.5c-0.2-0.1-0.5-0.2-0.7-0.4s-0.4-0.3-0.6-0.5s-0.2-0.5-0.2-0.8c0-0.5,0.2-0.9,0.5-1.2s0.8-0.4,1.4-0.4
		c0.3,0,0.6,0,0.9,0.1s0.5,0.2,0.8,0.3l-0.4,0.8c-0.2-0.1-0.4-0.2-0.6-0.3s-0.4-0.1-0.6-0.1c-0.3,0-0.5,0.1-0.7,0.2
		s-0.3,0.3-0.3,0.5c0,0.2,0.1,0.4,0.3,0.6s0.5,0.3,0.8,0.4c0.3,0.1,0.5,0.2,0.8,0.4s0.5,0.3,0.6,0.6s0.3,0.5,0.3,0.9
		c0,0.3-0.1,0.6-0.3,0.9s-0.4,0.5-0.7,0.6s-0.6,0.2-1,0.2c-0.3,0-0.7-0.1-1-0.2S307.9,410.2,307.6,409.9z"/>
	<path class="st0" d="M316.1,401.7h2.6c0.9,0,1.7,0.2,2.2,0.6s0.8,0.9,0.8,1.7c0,0.5-0.1,0.9-0.3,1.2s-0.5,0.6-0.9,0.8
		c0.5,0.2,0.9,0.4,1.2,0.8s0.4,0.8,0.4,1.4c0,0.8-0.3,1.4-0.8,1.8s-1.3,0.6-2.4,0.6h-2.7V401.7z M317.1,402.7v2.8h1.7
		c0.6,0,1-0.1,1.3-0.4s0.5-0.6,0.5-1s-0.2-0.8-0.5-1s-0.8-0.4-1.3-0.4H317.1z M318.9,409.6c0.6,0,1.1-0.1,1.5-0.4s0.5-0.7,0.5-1.2
		c0-0.5-0.2-0.9-0.5-1.2s-0.8-0.4-1.5-0.4h-1.8v3.2H318.9z"/>
	<path class="st0" d="M323.4,408.8c0-0.6,0.2-1.1,0.7-1.4s1.1-0.5,1.8-0.5c0.5,0,1,0.1,1.5,0.2V407c0-0.5-0.1-0.9-0.4-1.2
		s-0.7-0.4-1.2-0.4c-0.5,0-1.1,0.2-1.6,0.5l-0.4-0.8c0.4-0.2,0.8-0.4,1.1-0.4s0.7-0.1,1-0.1c0.8,0,1.3,0.2,1.8,0.7s0.7,1.1,0.7,1.8
		v3.5h-0.9l-0.1-0.9c-0.2,0.3-0.5,0.5-0.8,0.7s-0.7,0.3-1.2,0.3c-0.6,0-1.2-0.2-1.5-0.5S323.4,409.3,323.4,408.8z M326,407.7
		c-0.5,0-0.9,0.1-1.2,0.3s-0.4,0.4-0.4,0.8c0,0.3,0.1,0.5,0.3,0.7s0.5,0.3,0.9,0.3c0.3,0,0.7-0.1,0.9-0.2s0.5-0.3,0.7-0.6
		s0.2-0.5,0.2-0.8V408C327,407.8,326.5,407.7,326,407.7z"/>
	<path class="st0" d="M330.2,410.5v-5.9h0.9l0.1,0.9c0.2-0.3,0.4-0.6,0.8-0.8s0.7-0.3,1.1-0.3c0.2,0,0.4,0,0.6,0.1l-0.1,0.9
		c-0.2,0-0.4-0.1-0.5-0.1c-0.5,0-1,0.2-1.3,0.6s-0.4,0.9-0.4,1.5v3H330.2z"/>
</g>
<g>
	<path class="st1" d="M512.3,430.8h-40.7c-13.7,0-24.8-11.1-24.8-24.8s11.1-24.8,24.8-24.8h40.7c13.7,0,24.8,11.1,24.8,24.8
		S526,430.8,512.3,430.8z M471.6,383.2c-12.6,0-22.8,10.2-22.8,22.8s10.2,22.8,22.8,22.8h40.7c12.6,0,22.8-10.2,22.8-22.8
		s-10.2-22.8-22.8-22.8H471.6z"/>
</g>
<rect x="346.7" y="405" class="st1" width="101.1" height="2"/>
<rect x="345.7" y="401.5" class="st1" width="2" height="9"/>
</svg>
