<?xml version="1.0" encoding="utf-8"?>
<!-- Generator: Adobe Illustrator 25.1.0, SVG Export Plug-In . SVG Version: 6.00 Build 0)  -->
<!DOCTYPE svg PUBLIC "-//W3C//DTD SVG 1.1//EN" "http://www.w3.org/Graphics/SVG/1.1/DTD/svg11.dtd" [
	<!ENTITY ns_extend "http://ns.adobe.com/Extensibility/1.0/">
	<!ENTITY ns_ai "http://ns.adobe.com/AdobeIllustrator/10.0/">
	<!ENTITY ns_graphs "http://ns.adobe.com/Graphs/1.0/">
	<!ENTITY ns_vars "http://ns.adobe.com/Variables/1.0/">
	<!ENTITY ns_imrep "http://ns.adobe.com/ImageReplacement/1.0/">
	<!ENTITY ns_sfw "http://ns.adobe.com/SaveForWeb/1.0/">
	<!ENTITY ns_custom "http://ns.adobe.com/GenericCustomNamespace/1.0/">
	<!ENTITY ns_adobe_xpath "http://ns.adobe.com/XPath/1.0/">
]>
<svg version="1.1" id="Layer_1" xmlns:x="&ns_extend;" xmlns:i="&ns_ai;" xmlns:graph="&ns_graphs;"
	 xmlns="http://www.w3.org/2000/svg" xmlns:xlink="http://www.w3.org/1999/xlink" x="0px" y="0px" viewBox="0 0 329.2 329.2"
	 style="enable-background:new 0 0 329.2 329.2;" xml:space="preserve">
<style type="text/css">
	.st0{fill:#2D0302;}
	.st1{fill:#EF9E39;}
</style>
<metadata>
	<sfw  xmlns="&ns_sfw;">
		<slices></slices>
		<sliceSourceBounds  bottomLeftOrigin="true" height="329.2" width="329.2" x="340.4" y="237.5"></sliceSourceBounds>
	</sfw>
</metadata>
<g id="Adobe_outlines">
	<path class="st0" d="M72,0h185.3c39.7,0,72,32.2,72,72v185.3c0,39.7-32.2,72-72,72H72c-39.7,0-72-32.2-72-72V72C0,32.2,32.2,0,72,0
		z"/>
	<path class="st1" d="M164.6,218.6h-63.1L91.3,251H62.4l54.9-165.8h31.1l55,165.8h-28.8L164.6,218.6z M109,192.3h47.7L133,119.7
		L109,192.3z"/>
	<path class="st1" d="M217.2,96.2c0-10.6,7.2-18.1,17.7-18.1s17.8,7.3,17.8,18.1s-7.4,17.9-17.8,17.9S217.2,106.9,217.2,96.2z
		 M219.5,251V133.8h31V251H219.5z"/>
</g>
</svg>
