<?xml version="1.0" encoding="utf-8"?>
<!-- Generator: Adobe Illustrator 25.1.0, SVG Export Plug-In . SVG Version: 6.00 Build 0)  -->
<!DOCTYPE svg PUBLIC "-//W3C//DTD SVG 1.1//EN" "http://www.w3.org/Graphics/SVG/1.1/DTD/svg11.dtd" [
	<!ENTITY ns_extend "http://ns.adobe.com/Extensibility/1.0/">
	<!ENTITY ns_ai "http://ns.adobe.com/AdobeIllustrator/10.0/">
	<!ENTITY ns_graphs "http://ns.adobe.com/Graphs/1.0/">
	<!ENTITY ns_vars "http://ns.adobe.com/Variables/1.0/">
	<!ENTITY ns_imrep "http://ns.adobe.com/ImageReplacement/1.0/">
	<!ENTITY ns_sfw "http://ns.adobe.com/SaveForWeb/1.0/">
	<!ENTITY ns_custom "http://ns.adobe.com/GenericCustomNamespace/1.0/">
	<!ENTITY ns_adobe_xpath "http://ns.adobe.com/XPath/1.0/">
]>
<svg version="1.1" id="Layer_1" xmlns:x="&ns_extend;" xmlns:i="&ns_ai;" xmlns:graph="&ns_graphs;"
	 xmlns="http://www.w3.org/2000/svg" xmlns:xlink="http://www.w3.org/1999/xlink" x="0px" y="0px" viewBox="0 0 329.2 329.2"
	 style="enable-background:new 0 0 329.2 329.2;" xml:space="preserve">
<style type="text/css">
	.st0{fill:#41091F;}
	.st1{fill:#E84969;}
</style>
<metadata>
	<sfw  xmlns="&ns_sfw;">
		<slices></slices>
		<sliceSourceBounds  bottomLeftOrigin="true" height="329.2" width="329.2" x="261" y="231.4"></sliceSourceBounds>
	</sfw>
</metadata>
<g id="Adobe_outlines">
	<path class="st0" d="M71.9,0h185.3c39.7,0,72,32.2,72,71.9v185.3c0,39.7-32.2,72-72,72H71.9C32.2,329.2,0,297,0,257.3V71.9
		C0,32.2,32.2,0,71.9,0z"/>
	<path class="st1" d="M115.9,250.6H83V84.8h33L115.9,250.6z"/>
	<path class="st1" d="M137,192c0-66.8,78.5-65.5,78.5-65.5V78.6h30.8v163.6c0,0-31,13.3-63.7,6.3C161,244,137,229.8,137,192z
		 M215.3,159.1c0,0-43.7-7.3-43.7,32.7c0,40.5,43.7,33.2,43.7,33.2V159.1z"/>
</g>
</svg>
