<?xml version="1.0" encoding="utf-8"?>
<!-- Generator: Adobe Illustrator 25.1.0, SVG Export Plug-In . SVG Version: 6.00 Build 0)  -->
<!DOCTYPE svg PUBLIC "-//W3C//DTD SVG 1.1//EN" "http://www.w3.org/Graphics/SVG/1.1/DTD/svg11.dtd" [
	<!ENTITY ns_extend "http://ns.adobe.com/Extensibility/1.0/">
	<!ENTITY ns_ai "http://ns.adobe.com/AdobeIllustrator/10.0/">
	<!ENTITY ns_graphs "http://ns.adobe.com/Graphs/1.0/">
	<!ENTITY ns_vars "http://ns.adobe.com/Variables/1.0/">
	<!ENTITY ns_imrep "http://ns.adobe.com/ImageReplacement/1.0/">
	<!ENTITY ns_sfw "http://ns.adobe.com/SaveForWeb/1.0/">
	<!ENTITY ns_custom "http://ns.adobe.com/GenericCustomNamespace/1.0/">
	<!ENTITY ns_adobe_xpath "http://ns.adobe.com/XPath/1.0/">
]>
<svg version="1.1" id="Layer_1" xmlns:x="&ns_extend;" xmlns:i="&ns_ai;" xmlns:graph="&ns_graphs;"
	 xmlns="http://www.w3.org/2000/svg" xmlns:xlink="http://www.w3.org/1999/xlink" x="0px" y="0px" viewBox="0 0 329 329"
	 style="enable-background:new 0 0 329 329;" xml:space="preserve">
<style type="text/css">
	.st0{fill:#F1F2F2;}
	.st1{fill:#CD6B65;}
	.st2{fill:#5A3734;}
	.st3{fill:#9D5452;}
</style>
<metadata>
	<sfw  xmlns="&ns_sfw;">
		<slices></slices>
		<sliceSourceBounds  bottomLeftOrigin="true" height="329" width="329" x="306" y="223"></sliceSourceBounds>
	</sfw>
</metadata>
<g id="UsabilityHub_Outline">
	<path class="st0" d="M71.9,0H257c39.7,0,72,32.2,72,72v185c0,39.7-32.2,72-72,72H71.9C32.2,329,0,296.8,0,257.1V71.9
		C0,32.2,32.2,0,71.9,0z"/>
	<path class="st1" d="M258.8,153l-26.9,78.1c-1.7,4.9-5.9,8.5-10.9,9.5l-81.1,15.7c-5.1,1-10.3-0.8-13.7-4.7L72,189.2
		c-3.4-3.9-4.5-9.3-2.8-14.2l26.9-78.1c1.7-4.9,5.9-8.5,10.9-9.5l81.1-15.7c5.1-1,10.3,0.8,13.7,4.7l54.2,62.4
		C259.5,142.7,260.5,148.1,258.8,153z"/>
	<circle class="st2" cx="123.3" cy="159.6" r="10.8"/>
	<circle class="st2" cx="202" cy="145.6" r="10.8"/>
	<path class="st2" d="M200,178.4c-0.8-3.6-4.4-5.9-8.1-5.1L138.8,185c-3.5,0.8-5.8,4.3-5,7.9c3.4,15.4,18.6,25.1,33.9,21.7
		c0,0,0,0,0.1,0l10.6-2.3C193.7,208.8,203.4,193.7,200,178.4z"/>
	
		<ellipse transform="matrix(0.9817 -0.1903 0.1903 0.9817 -34.7904 36.086)" class="st3" cx="170.5" cy="199.2" rx="24.2" ry="12.1"/>
</g>
</svg>
