<?xml version="1.0" encoding="utf-8"?>
<!-- Generator: Adobe Illustrator 25.1.0, SVG Export Plug-In . SVG Version: 6.00 Build 0)  -->
<!DOCTYPE svg PUBLIC "-//W3C//DTD SVG 1.1//EN" "http://www.w3.org/Graphics/SVG/1.1/DTD/svg11.dtd" [
	<!ENTITY ns_extend "http://ns.adobe.com/Extensibility/1.0/">
	<!ENTITY ns_ai "http://ns.adobe.com/AdobeIllustrator/10.0/">
	<!ENTITY ns_graphs "http://ns.adobe.com/Graphs/1.0/">
	<!ENTITY ns_vars "http://ns.adobe.com/Variables/1.0/">
	<!ENTITY ns_imrep "http://ns.adobe.com/ImageReplacement/1.0/">
	<!ENTITY ns_sfw "http://ns.adobe.com/SaveForWeb/1.0/">
	<!ENTITY ns_custom "http://ns.adobe.com/GenericCustomNamespace/1.0/">
	<!ENTITY ns_adobe_xpath "http://ns.adobe.com/XPath/1.0/">
]>
<svg version="1.1" id="Layer_1" xmlns:x="&ns_extend;" xmlns:i="&ns_ai;" xmlns:graph="&ns_graphs;"
	 xmlns="http://www.w3.org/2000/svg" xmlns:xlink="http://www.w3.org/1999/xlink" x="0px" y="0px" viewBox="0 0 329.2 329.2"
	 style="enable-background:new 0 0 329.2 329.2;" xml:space="preserve">
<style type="text/css">
	.st0{fill:#EFF2FA;}
	.st1{fill:#F2F4FA;}
	.st2{fill:#5AB1F7;}
</style>
<metadata>
	<sfw  xmlns="&ns_sfw;">
		<slices></slices>
		<sliceSourceBounds  bottomLeftOrigin="true" height="329.2" width="329.2" x="141.4" y="186.2"></sliceSourceBounds>
	</sfw>
</metadata>
<g id="Marvel_Outlines">
	<path class="st0" d="M72,0h185.3c39.7,0,72,32.2,72,72v185.3c0,39.7-32.2,72-72,72H72c-39.7,0-72-32.2-72-72V72C0,32.2,32.2,0,72,0
		z"/>
	<path class="st1" d="M164.6,0C255.5,0,329.7,73.9,329.2,164.7C329,209.9,313,249,281,281s-71,48.3-116.3,48.2
		C71.2,329,11.5,257.7,2,191.3c-7.9-55,7.3-103.2,46.4-143.1C79.1,16.9,120.9,0,164.6,0z M171.2,118.1c-0.3-3-0.7-5.8-1.2-8.7
		c-0.7-5.2-1.7-10.3-4.6-14.8c-3.3-5.6-9.4-9-15.9-8.7c-6.7,0-12.3,2.9-17.3,7c-11,9-18,20.9-24,33.4c-7.5,15.7-13.2,32.2-17,49.2
		c-2.8,12.2-4.9,24.5-6.3,37c-1.1,10.2-1.5,20.5-1.2,30.8c0,1.6,0.2,3.1,0.6,4.6c2,7.6,8.4,11.8,16.3,10.7c7.3-1,12.6-7.4,12.2-14.8
		c-0.5-8.5-0.3-17,0.6-25.4c2.1-21.6,6.8-42.8,13.9-63.3c2.8-8,6-15.9,11.1-22.8c1.2-1.8,2.8-3.2,4.7-4.3c3.2-1.7,5.2-0.7,6,2.8
		c0.9,4,0.3,8-0.2,12c-1,8.1-2.6,16-4.3,24c-1,4.5-1.5,9.1-2.5,13.6c-2,8.9-2.9,18-2.8,27.1c0.1,4.4,0.7,8.7,2.9,12.6
		c5,9.1,18.5,9.8,24.5,1.3c1.4-1.9,2.1-4.2,1.9-6.5c-0.6-9.4-0.2-18.9,1.2-28.3c2.2-16.7,6-33.1,11.4-49c2.7-7.7,5.7-15.3,10.8-21.8
		c1.3-1.8,3-3.3,5.1-4.2c3.3-1.4,5.6-0.1,5.8,3.5c0.1,1.7,0.1,3.5-0.2,5.2c-2.2,15.1-6.8,29.7-9.6,44.7c-1.1,5.2-1.9,10.5-2.3,15.8
		c-0.4,5.7-0.3,11.4,0.3,17c0.8,6.2,2.9,11.8,9.1,14.5c6.1,2.6,12,1.8,17.3-2c3.5-2.2,5.1-6.4,3.9-10.4c-2.2-10.1-2.6-20.6-1.1-30.9
		c1.4-10,3.6-19.8,6.6-29.4c1.9-6.1,3.7-12.3,5.7-18.4c3.3-10.4,6-20.9,6.9-31.8c0.2-3.7-0.2-7.5-1-11.2
		c-2.1-10.8-11.1-17.3-20.5-15.6c-7,1.2-12.7,4.9-17.7,9.7c-10.5,9.9-17.6,22.1-24,34.8C174.6,110.7,172.9,114.4,171.2,118.1
		L171.2,118.1z"/>
	<path class="st2" d="M171.2,118.1c1.7-3.7,3.4-7.4,5.2-11c6.3-12.7,13.5-24.9,24-34.8c5-4.8,10.7-8.4,17.7-9.7
		c9.4-1.6,18.4,4.8,20.5,15.6c0.8,3.7,1.2,7.4,1,11.2c-0.9,10.9-3.6,21.4-6.9,31.8c-2,6.1-3.8,12.3-5.7,18.4
		c-3,9.6-5.2,19.4-6.6,29.4c-1.5,10.3-1.1,20.7,1.1,30.9c1.1,3.9-0.5,8.2-3.9,10.4c-5.4,3.8-11.3,4.6-17.3,2
		c-6.3-2.7-8.3-8.3-9.1-14.5c-0.7-5.6-0.8-11.3-0.3-17c0.5-5.3,1.2-10.6,2.3-15.8c2.9-15,7.4-29.6,9.6-44.7c0.2-1.7,0.3-3.4,0.2-5.2
		c-0.2-3.6-2.5-4.9-5.8-3.5c-2,1-3.8,2.4-5.1,4.2c-5.1,6.5-8.1,14.1-10.8,21.8c-5.4,15.9-9.3,32.3-11.4,49
		c-1.4,9.4-1.8,18.8-1.2,28.3c0.1,2.3-0.5,4.6-2,6.5c-6,8.5-19.5,7.8-24.5-1.3c-2.2-3.9-2.8-8.2-2.9-12.6
		c-0.1-9.1,0.9-18.2,2.9-27.1c0.9-4.5,1.5-9.1,2.5-13.6c1.8-7.9,3.3-15.9,4.3-24c0.5-4,1.1-8,0.2-12c-0.8-3.5-2.8-4.5-6-2.8
		c-1.9,1.1-3.5,2.5-4.7,4.3c-5.2,6.9-8.3,14.8-11.1,22.8c-7.1,20.5-11.8,41.7-13.9,63.3c-0.9,8.4-1.1,16.9-0.6,25.4
		c0.4,7.3-4.9,13.7-12.2,14.8c-7.9,1.2-14.3-3.1-16.3-10.7c-0.4-1.5-0.6-3.1-0.6-4.6c-0.3-10.3,0.1-20.6,1.2-30.8
		c1.3-12.5,3.4-24.8,6.3-37c3.8-17,9.5-33.5,17-49.2c6.1-12.5,13.1-24.4,24-33.4c5-4.1,10.6-7,17.3-7c6.5-0.2,12.6,3.1,15.9,8.7
		c2.9,4.5,3.9,9.6,4.6,14.8C170.4,112.3,170.8,115.1,171.2,118.1z"/>
</g>
</svg>
