<?xml version="1.0" encoding="utf-8"?>
<!-- Generator: Adobe Illustrator 25.1.0, SVG Export Plug-In . SVG Version: 6.00 Build 0)  -->
<!DOCTYPE svg PUBLIC "-//W3C//DTD SVG 1.1//EN" "http://www.w3.org/Graphics/SVG/1.1/DTD/svg11.dtd" [
	<!ENTITY ns_extend "http://ns.adobe.com/Extensibility/1.0/">
	<!ENTITY ns_ai "http://ns.adobe.com/AdobeIllustrator/10.0/">
	<!ENTITY ns_graphs "http://ns.adobe.com/Graphs/1.0/">
	<!ENTITY ns_vars "http://ns.adobe.com/Variables/1.0/">
	<!ENTITY ns_imrep "http://ns.adobe.com/ImageReplacement/1.0/">
	<!ENTITY ns_sfw "http://ns.adobe.com/SaveForWeb/1.0/">
	<!ENTITY ns_custom "http://ns.adobe.com/GenericCustomNamespace/1.0/">
	<!ENTITY ns_adobe_xpath "http://ns.adobe.com/XPath/1.0/">
]>
<svg version="1.1" id="Layer_1" xmlns:x="&ns_extend;" xmlns:i="&ns_ai;" xmlns:graph="&ns_graphs;"
	 xmlns="http://www.w3.org/2000/svg" xmlns:xlink="http://www.w3.org/1999/xlink" x="0px" y="0px" viewBox="0 0 329 329"
	 style="enable-background:new 0 0 329 329;" xml:space="preserve">
<style type="text/css">
	.st0{fill:#632F80;}
	.st1{fill:url(#SVGID_1_);}
	.st2{fill:url(#SVGID_2_);}
	.st3{fill:url(#SVGID_3_);}
	.st4{fill:url(#SVGID_4_);}
	.st5{fill:url(#SVGID_5_);}
	.st6{fill:url(#SVGID_6_);}
	.st7{fill:url(#SVGID_7_);}
	.st8{fill:url(#SVGID_8_);}
	.st9{fill:url(#SVGID_9_);}
	.st10{fill:url(#SVGID_10_);}
	.st11{fill:url(#SVGID_11_);}
	.st12{fill:url(#SVGID_12_);}
	.st13{fill:url(#SVGID_13_);}
	.st14{fill:url(#SVGID_14_);}
	.st15{fill:url(#SVGID_15_);}
	.st16{fill:url(#SVGID_16_);}
</style>
<metadata>
	<sfw  xmlns="&ns_sfw;">
		<slices></slices>
		<sliceSourceBounds  bottomLeftOrigin="true" height="329" width="329" x="49" y="24"></sliceSourceBounds>
	</sfw>
</metadata>
<g id="Sketch_Outlines_Version">
	<path class="st0" d="M257,0H72C32.3,0,0,32.2,0,72v185c0,39.7,32.2,72,72,72h185c39.7,0,72-32.2,72-72V72C329,32.2,296.8,0,257,0z"
		/>
	
		<linearGradient id="SVGID_1_" gradientUnits="userSpaceOnUse" x1="-908.65" y1="-83.9" x2="-837.55" y2="-83.9" gradientTransform="matrix(-1 0 0 1 -670.85 180)">
		<stop  offset="0" style="stop-color:#F3C546"/>
		<stop  offset="1" style="stop-color:#F5D151"/>
	</linearGradient>
	<polygon class="st1" points="166.7,55.5 237.6,65.1 237.8,136.7 	"/>
	
		<linearGradient id="SVGID_2_" gradientUnits="userSpaceOnUse" x1="-895.6934" y1="-123.6842" x2="-863.2067" y2="-67.4125" gradientTransform="matrix(-1 0 0 1 -670.85 180)">
		<stop  offset="0" style="stop-color:#FFCD46"/>
		<stop  offset="1" style="stop-color:#FCF6D7"/>
	</linearGradient>
	<path class="st2" d="M238.8,139.4l-74.6-85.3l74.3,10.1L238.8,139.4z M169.2,56.8l67.5,77.2l-0.2-68.1L169.2,56.8z"/>
	
		<linearGradient id="SVGID_3_" gradientUnits="userSpaceOnUse" x1="63.5664" y1="-78.0981" x2="88.3564" y2="-58.6082" gradientTransform="matrix(1 0 0 1 0 180)">
		<stop  offset="0.13" style="stop-color:#EB9535"/>
		<stop  offset="1" style="stop-color:#EEA93B"/>
	</linearGradient>
	<polygon class="st3" points="89.9,67.1 89.6,137.7 38.5,137.7 	"/>
	
		<linearGradient id="SVGID_4_" gradientUnits="userSpaceOnUse" x1="58.65" y1="-83.75" x2="95.89" y2="-46.51" gradientTransform="matrix(1 0 0 1 0 180)">
		<stop  offset="0" style="stop-color:#EDA03A"/>
		<stop  offset="1" style="stop-color:#F6D87B"/>
	</linearGradient>
	<path class="st4" d="M90.6,138.7h-54L90.9,64L90.6,138.7z M40.5,136.7h48.1l0.2-66.5L40.5,136.7z"/>
	
		<linearGradient id="SVGID_5_" gradientUnits="userSpaceOnUse" x1="67.5224" y1="-35.2313" x2="159.5024" y2="100.3588" gradientTransform="matrix(1 0 0 1 0 180)">
		<stop  offset="0" style="stop-color:#DF6429"/>
		<stop  offset="1" style="stop-color:#E47E30"/>
	</linearGradient>
	<polygon class="st5" points="38.5,139.6 160.2,282.9 89.6,139.7 	"/>
	
		<linearGradient id="SVGID_6_" gradientUnits="userSpaceOnUse" x1="36.4" y1="34.15" x2="164.7" y2="34.15" gradientTransform="matrix(1 0 0 1 0 180)">
		<stop  offset="0" style="stop-color:#DD7E36"/>
		<stop  offset="1" style="stop-color:#F28733"/>
	</linearGradient>
	<path class="st6" d="M164.7,289.7L36.4,138.6l53.9,0.2l0.3,0.6L164.7,289.7z M40.7,140.6l115.1,135.5L89,140.7L40.7,140.6z"/>
	
		<linearGradient id="SVGID_7_" gradientUnits="userSpaceOnUse" x1="91.6" y1="-83.9" x2="162.7" y2="-83.9" gradientTransform="matrix(1 0 0 1 0 180)">
		<stop  offset="0" style="stop-color:#F3C546"/>
		<stop  offset="1" style="stop-color:#F5D151"/>
	</linearGradient>
	<polygon class="st7" points="162.7,55.5 91.9,65.1 91.6,136.7 	"/>
	
		<linearGradient id="SVGID_8_" gradientUnits="userSpaceOnUse" x1="151.815" y1="-139.265" x2="71.965" y2="-59.415" gradientTransform="matrix(1 0 0 1 0 180)">
		<stop  offset="0" style="stop-color:#FFCD46"/>
		<stop  offset="1" style="stop-color:#FCF6D7"/>
	</linearGradient>
	<path class="st8" d="M90.6,139.4l0.2-75.1l74.3-10.1L90.6,139.4z M92.9,66l-0.2,68l67.5-77.2L92.9,66z"/>
	
		<radialGradient id="SVGID_9_" cx="164.65" cy="-46.73" r="48.8402" gradientTransform="matrix(1 0 0 1 0 180)" gradientUnits="userSpaceOnUse">
		<stop  offset="0" style="stop-color:#FCF2C9"/>
		<stop  offset="1" style="stop-color:#FAE9A5"/>
	</radialGradient>
	<polygon class="st9" points="236.7,137.7 92.6,137.7 164.7,55.5 	"/>
	
		<linearGradient id="SVGID_10_" gradientUnits="userSpaceOnUse" x1="164.65" y1="-41.3" x2="164.65" y2="-126.1" gradientTransform="matrix(1 0 0 1 0 180)">
		<stop  offset="0" style="stop-color:#FEF6E2"/>
		<stop  offset="1" style="stop-color:#F4DE80"/>
	</linearGradient>
	<path class="st10" d="M238.9,138.7H90.4l74.2-84.8L238.9,138.7z M94.8,136.7h139.7L164.7,57L94.8,136.7z"/>
	
		<linearGradient id="SVGID_11_" gradientUnits="userSpaceOnUse" x1="164.65" y1="88.87" x2="164.65" y2="-28.79" gradientTransform="matrix(1 0 0 1 0 180)">
		<stop  offset="0" style="stop-color:#F1CE4C"/>
		<stop  offset="1" style="stop-color:#EEAC3A"/>
	</linearGradient>
	<polygon class="st11" points="164.7,287.2 91.6,139.7 237.7,139.7 	"/>
	
		<linearGradient id="SVGID_12_" gradientUnits="userSpaceOnUse" x1="164.65" y1="-41.3" x2="164.65" y2="109.5" gradientTransform="matrix(1 0 0 1 0 180)">
		<stop  offset="0" style="stop-color:#F2BC48"/>
		<stop  offset="1" style="stop-color:#F8D44E"/>
	</linearGradient>
	<path class="st12" d="M164.7,289.5L90,138.7h149.3L164.7,289.5z M93.2,140.7L164.7,285l71.4-144.3H93.2z"/>
	
		<linearGradient id="SVGID_13_" gradientUnits="userSpaceOnUse" x1="-936.7151" y1="-78.0836" x2="-911.9251" y2="-58.5935" gradientTransform="matrix(-1 0 0 1 -670.85 180)">
		<stop  offset="0.13" style="stop-color:#EB9535"/>
		<stop  offset="1" style="stop-color:#EEA93B"/>
	</linearGradient>
	<polygon class="st13" points="239.6,67.1 239.8,137.7 290.9,137.7 	"/>
	
		<linearGradient id="SVGID_14_" gradientUnits="userSpaceOnUse" x1="-963.75" y1="-78.65" x2="-909.45" y2="-78.65" gradientTransform="matrix(-1 0 0 1 -670.85 180)">
		<stop  offset="0" style="stop-color:#EDA03A"/>
		<stop  offset="1" style="stop-color:#F6D87B"/>
	</linearGradient>
	<path class="st14" d="M292.9,138.7h-54.1L238.6,64L292.9,138.7z M240.8,136.7h48.1l-48.3-66.5L240.8,136.7z"/>
	
		<linearGradient id="SVGID_15_" gradientUnits="userSpaceOnUse" x1="-932.7339" y1="-35.2406" x2="-840.7539" y2="100.3495" gradientTransform="matrix(-1 0 0 1 -670.85 180)">
		<stop  offset="0" style="stop-color:#DF6429"/>
		<stop  offset="1" style="stop-color:#E47E30"/>
	</linearGradient>
	<polygon class="st15" points="290.9,139.6 169.2,282.9 239.8,139.7 	"/>
	
		<linearGradient id="SVGID_16_" gradientUnits="userSpaceOnUse" x1="-963.95" y1="34.1" x2="-835.55" y2="34.1" gradientTransform="matrix(-1 0 0 1 -670.85 180)">
		<stop  offset="0" style="stop-color:#DD7E36"/>
		<stop  offset="1" style="stop-color:#F28733"/>
	</linearGradient>
	<path class="st16" d="M164.7,289.7l74.5-151l53.9-0.2L164.7,289.7z M240.4,140.7l-66.8,135.4l115.1-135.5L240.4,140.7z"/>
</g>
</svg>
