<?xml version="1.0" encoding="utf-8"?>
<!-- Generator: Adobe Illustrator 25.0.1, SVG Export Plug-In . SVG Version: 6.00 Build 0)  -->
<svg version="1.1" id="Layer_1" xmlns="http://www.w3.org/2000/svg" xmlns:xlink="http://www.w3.org/1999/xlink" x="0px" y="0px"
	 viewBox="0 0 792 1293.9" style="enable-background:new 0 0 792 1293.9;" xml:space="preserve">
<style type="text/css">
	.st0{clip-path:url(#SVGID_2_);}
	.st1{fill:#E3E3E3;}
	.st2{opacity:0.2;}
	.st3{clip-path:url(#SVGID_4_);fill:#FFFFFF;}
	.st4{clip-path:url(#SVGID_6_);fill:#FFFFFF;}
	.st5{clip-path:url(#SVGID_8_);fill:#FFFFFF;}
	.st6{clip-path:url(#SVGID_10_);fill:#FFFFFF;}
</style>
<g>
	<defs>
		<rect id="SVGID_1_" x="0" width="792" height="1293.9"/>
	</defs>
	<clipPath id="SVGID_2_">
		<use xlink:href="#SVGID_1_"  style="overflow:visible;"/>
	</clipPath>
	<g class="st0">
		<path class="st1" d="M792,33.4c-18.5-3.4-47.3-5.6-91-5.6c-192.1,0-246,52.8-445.8,52.8C116.5,80.6,62.9,31.1,0,1.3v1277.4
			c25.5,3.4,58.9,5.7,102.8,5.7c165.7,0,270.1-52.8,445.6-52.8c137.7,0,216.1,36.3,243.5,51.9V33.4z"/>
		<g class="st2">
			<g>
				<defs>
					<rect id="SVGID_3_" x="280.2" y="502.7" width="376.2" height="368.5"/>
				</defs>
				<clipPath id="SVGID_4_">
					<use xlink:href="#SVGID_3_"  style="overflow:visible;"/>
				</clipPath>
				<path class="st3" d="M468.3,873.5c-101.6,0-184.3-82.7-184.3-184.3S366.7,505,468.3,505s184.3,82.7,184.3,184.3
					S569.9,873.5,468.3,873.5z M468.3,531C381,531,310,602,310,689.2c0,87.3,71,158.3,158.3,158.3c87.3,0,158.3-71,158.3-158.3
					C626.5,602,555.5,531,468.3,531z"/>
			</g>
		</g>
		<g class="st2">
			<g>
				<defs>
					<rect id="SVGID_5_" x="9.9" y="219" width="376.2" height="368.5"/>
				</defs>
				<clipPath id="SVGID_6_">
					<use xlink:href="#SVGID_5_"  style="overflow:visible;"/>
				</clipPath>
				<path class="st4" d="M198,589.8c-101.6,0-184.3-82.7-184.3-184.3S96.4,221.3,198,221.3S382.3,304,382.3,405.6
					S299.6,589.8,198,589.8z M198,247.3c-87.3,0-158.3,71-158.3,158.3s71,158.3,158.3,158.3s158.3-71,158.3-158.3
					S285.3,247.3,198,247.3z"/>
			</g>
		</g>
		<g class="st2">
			<g>
				<defs>
					<rect id="SVGID_7_" x="-53.4" y="748.8" width="292.2" height="284.5"/>
				</defs>
				<clipPath id="SVGID_8_">
					<use xlink:href="#SVGID_7_"  style="overflow:visible;"/>
				</clipPath>
				<path class="st5" d="M92.7,956.6c-34.9,0-63.2-28.4-63.2-63.2c0-34.9,28.4-63.2,63.2-63.2c34.9,0,63.2,28.4,63.2,63.2
					C155.9,928.2,127.5,956.6,92.7,956.6z M92.7,843.2c-27.7,0-50.2,22.5-50.2,50.2c0,27.7,22.5,50.2,50.2,50.2s50.2-22.5,50.2-50.2
					C142.9,865.7,120.4,843.2,92.7,843.2z"/>
				<path class="st5" d="M92.7,939C67.5,939,47,918.5,47,893.4c0-25.2,20.5-45.6,45.6-45.6c25.2,0,45.6,20.5,45.6,45.6
					C138.3,918.5,117.8,939,92.7,939z M92.7,852.1c-22.8,0-41.3,18.5-41.3,41.3s18.5,41.3,41.3,41.3c22.8,0,41.3-18.5,41.3-41.3
					S115.4,852.1,92.7,852.1z"/>
			</g>
		</g>
		<g class="st2">
			<g>
				<defs>
					<rect id="SVGID_9_" x="532.1" y="701.5" width="417.1" height="409.4"/>
				</defs>
				<clipPath id="SVGID_10_">
					<use xlink:href="#SVGID_9_"  style="overflow:visible;"/>
				</clipPath>
				<path class="st6" d="M740.7,1034.2c-69.3,0-125.6-56.4-125.6-125.6s56.4-125.6,125.6-125.6s125.6,56.4,125.6,125.6
					S809.9,1034.2,740.7,1034.2z M740.7,795.9c-62.1,0-112.6,50.5-112.6,112.6s50.5,112.6,112.6,112.6
					c62.1,0,112.6-50.5,112.6-112.6S802.8,795.9,740.7,795.9z"/>
				<path class="st6" d="M740.7,1016.6c-59.6,0-108.1-48.5-108.1-108.1c0-59.6,48.5-108.1,108.1-108.1S848.7,849,848.7,908.5
					C848.7,968.1,800.3,1016.6,740.7,1016.6z M740.7,804.8c-57.2,0-103.7,46.5-103.7,103.7c0,57.2,46.5,103.7,103.7,103.7
					s103.7-46.5,103.7-103.7C844.4,851.3,797.9,804.8,740.7,804.8z"/>
			</g>
		</g>
	</g>
</g>
</svg>
