<?xml version="1.0" encoding="utf-8"?>
<!-- Generator: Adobe Illustrator 25.1.0, SVG Export Plug-In . SVG Version: 6.00 Build 0)  -->
<!DOCTYPE svg PUBLIC "-//W3C//DTD SVG 1.1//EN" "http://www.w3.org/Graphics/SVG/1.1/DTD/svg11.dtd" [
	<!ENTITY ns_extend "http://ns.adobe.com/Extensibility/1.0/">
	<!ENTITY ns_ai "http://ns.adobe.com/AdobeIllustrator/10.0/">
	<!ENTITY ns_graphs "http://ns.adobe.com/Graphs/1.0/">
	<!ENTITY ns_vars "http://ns.adobe.com/Variables/1.0/">
	<!ENTITY ns_imrep "http://ns.adobe.com/ImageReplacement/1.0/">
	<!ENTITY ns_sfw "http://ns.adobe.com/SaveForWeb/1.0/">
	<!ENTITY ns_custom "http://ns.adobe.com/GenericCustomNamespace/1.0/">
	<!ENTITY ns_adobe_xpath "http://ns.adobe.com/XPath/1.0/">
]>
<svg version="1.1" id="Layer_1" xmlns:x="&ns_extend;" xmlns:i="&ns_ai;" xmlns:graph="&ns_graphs;"
	 xmlns="http://www.w3.org/2000/svg" xmlns:xlink="http://www.w3.org/1999/xlink" x="0px" y="0px" viewBox="0 0 405.6 1118.7"
	 style="enable-background:new 0 0 405.6 1118.7;" xml:space="preserve">
<style type="text/css">
	.st0{fill:none;}
	.st1{clip-path:url(#SVGID_2_);}
	.st2{fill:#FFFFFF;}
	.st3{enable-background:new    ;}
	.st4{fill:#9E9D9E;}
	.st5{clip-path:url(#SVGID_4_);}
	.st6{fill:none;stroke:#9E9D9E;stroke-width:2;}
	.st7{clip-path:url(#SVGID_6_);}
	.st8{fill:#7F8080;}
	.st9{clip-path:url(#SVGID_8_);}
	.st10{clip-path:url(#SVGID_10_);}
	.st11{font-family:'KumbhSans-Regular';}
	.st12{font-size:16px;}
	.st13{clip-path:url(#SVGID_12_);}
	.st14{clip-path:url(#SVGID_14_);}
	.st15{clip-path:url(#SVGID_16_);}
	.st16{clip-path:url(#SVGID_18_);}
	.st17{clip-path:url(#SVGID_20_);}
	.st18{clip-path:url(#SVGID_22_);}
	.st19{clip-path:url(#SVGID_24_);}
	.st20{clip-path:url(#SVGID_26_);}
	.st21{clip-path:url(#SVGID_28_);}
	.st22{clip-path:url(#SVGID_30_);}
	.st23{clip-path:url(#SVGID_32_);}
</style>
<metadata>
	<sfw  xmlns="&ns_sfw;">
		<slices></slices>
		<sliceSourceBounds  bottomLeftOrigin="true" height="1079.1" width="526.9" x="-32.7" y="19.8"></sliceSourceBounds>
	</sfw>
</metadata>
<rect x="-60.7" y="19.8" class="st0" width="526.9" height="647.9"/>
<g>
	<g>
		<defs>
			<rect id="SVGID_1_" x="-60.7" y="19.8" width="526.9" height="647.9"/>
		</defs>
		<clipPath id="SVGID_2_">
			<use xlink:href="#SVGID_1_"  style="overflow:visible;"/>
		</clipPath>
		<g class="st1">
			<path class="st2" d="M239.3,304h120.6c5.9,0,10.6,4.7,10.6,10.6v21c0,5.9-4.7,10.6-10.6,10.6H239.3c-5.9,0-10.6-4.7-10.6-10.6
				v-21C228.7,308.7,233.5,304,239.3,304z"/>
		</g>
	</g>
</g>
<g class="st3">
	<path class="st4" d="M271.2,328.9c0.4,0.4,0.9,0.7,1.4,0.9s1,0.3,1.5,0.3s0.9-0.1,1.3-0.2s0.7-0.4,1-0.7s0.4-0.7,0.4-1.1
		s-0.1-0.8-0.4-1.1s-0.6-0.6-1-0.8s-0.8-0.4-1.3-0.6c-0.4-0.2-0.8-0.4-1.1-0.5s-0.7-0.4-1-0.7s-0.5-0.5-0.7-0.9s-0.3-0.7-0.3-1.2
		c0-0.6,0.2-1.2,0.5-1.6s0.8-0.8,1.3-1s1.2-0.4,1.9-0.4c0.5,0,0.9,0.1,1.4,0.2s1,0.3,1.5,0.5l-0.6,1c-0.4-0.2-0.7-0.4-1.1-0.5
		s-0.8-0.1-1.1-0.1c-0.7,0-1.2,0.2-1.7,0.5s-0.7,0.7-0.7,1.3c0,0.4,0.1,0.7,0.4,1s0.6,0.5,0.9,0.7s0.8,0.4,1.2,0.6
		c0.4,0.2,0.8,0.4,1.2,0.6s0.7,0.4,1.1,0.7s0.6,0.6,0.8,0.9s0.3,0.8,0.3,1.3c0,0.7-0.2,1.2-0.5,1.8s-0.8,0.9-1.5,1.2
		s-1.3,0.4-2.1,0.4c-0.6,0-1.2-0.1-1.8-0.3s-1.2-0.5-1.7-0.9L271.2,328.9z"/>
	<path class="st4" d="M280.1,320.3c0-0.3,0.1-0.5,0.3-0.6s0.4-0.3,0.6-0.3c0.3,0,0.5,0.1,0.6,0.3s0.3,0.4,0.3,0.6
		c0,0.3-0.1,0.5-0.3,0.6s-0.4,0.3-0.6,0.3c-0.3,0-0.5-0.1-0.6-0.3S280.1,320.5,280.1,320.3z M280.3,331.1v-7.8h1.3v7.8H280.3z"/>
	<path class="st4" d="M287.5,331.3c-0.8,0-1.4-0.2-2-0.5s-1.1-0.8-1.4-1.4s-0.5-1.3-0.5-2.1s0.2-1.5,0.5-2.1s0.8-1.1,1.4-1.4
		s1.3-0.5,2-0.5c0.6,0,1.1,0.1,1.6,0.3s0.9,0.5,1.3,0.9l0.1-1.1h1.2v7c0,1-0.2,1.8-0.5,2.5s-0.9,1.3-1.5,1.7s-1.5,0.6-2.5,0.6
		c-0.5,0-1.1-0.1-1.5-0.2s-0.9-0.4-1.3-0.7l0.6-1.1c0.3,0.3,0.6,0.5,1,0.6s0.8,0.2,1.2,0.2c1.1,0,1.9-0.3,2.5-1s0.8-1.5,0.8-2.6V330
		c-0.3,0.4-0.8,0.7-1.3,0.9S288.1,331.3,287.5,331.3z M284.9,327.2c0,0.6,0.1,1,0.4,1.5s0.6,0.8,1,1s0.9,0.4,1.4,0.4s1-0.1,1.4-0.4
		s0.7-0.6,1-1s0.4-0.9,0.4-1.5s-0.1-1.1-0.4-1.5s-0.6-0.8-1-1s-0.9-0.4-1.4-0.4s-1,0.1-1.4,0.4s-0.7,0.6-1,1
		S284.9,326.6,284.9,327.2z"/>
	<path class="st4" d="M294.2,331.1v-7.8h1.2l0.1,1.2c0.3-0.4,0.7-0.8,1.1-1s0.9-0.4,1.5-0.4s1.2,0.2,1.7,0.5s0.9,0.7,1.1,1.3
		s0.4,1.2,0.4,1.8v4.4H300v-4.2c0-0.8-0.2-1.4-0.6-1.8s-0.9-0.7-1.6-0.7c-0.4,0-0.8,0.1-1.2,0.3s-0.6,0.5-0.8,0.9s-0.3,0.8-0.3,1.3
		v4.3L294.2,331.1L294.2,331.1z"/>
	<path class="st4" d="M307.7,326v-6.6h1.4v6.8c0,0.8,0.1,1.4,0.4,2s0.7,1,1.2,1.4s1.1,0.5,1.8,0.5c0.7,0,1.3-0.2,1.8-0.5
		s0.9-0.8,1.2-1.4s0.4-1.3,0.4-2v-6.8h1.4v6.6c0,1.1-0.2,2-0.6,2.9s-0.9,1.4-1.6,1.9s-1.6,0.7-2.6,0.7s-1.8-0.2-2.6-0.7
		s-1.3-1.1-1.6-1.9S307.7,327,307.7,326z"/>
	<path class="st4" d="M320.9,323.3l0.1,1.1c0.4-0.4,0.8-0.7,1.3-0.9s1-0.3,1.6-0.3c0.8,0,1.4,0.2,2,0.5s1.1,0.8,1.4,1.4
		s0.5,1.3,0.5,2.1s-0.2,1.5-0.5,2.1s-0.8,1.1-1.4,1.4s-1.3,0.5-2,0.5c-0.6,0-1.1-0.1-1.6-0.3s-0.9-0.5-1.3-0.9v4.9h-1.3v-11.7
		L320.9,323.3L320.9,323.3z M323.7,330.1c0.5,0,1-0.1,1.4-0.4s0.7-0.6,1-1s0.4-0.9,0.4-1.5s-0.1-1.1-0.4-1.5s-0.6-0.8-1-1
		s-0.9-0.4-1.4-0.4s-1,0.1-1.4,0.4s-0.7,0.6-1,1s-0.4,0.9-0.4,1.5s0.1,1,0.4,1.5s0.6,0.8,1,1S323.2,330.1,323.7,330.1z"/>
</g>
<g>
	<g>
		<defs>
			<rect id="SVGID_3_" x="-60.7" y="19.8" width="526.9" height="647.9"/>
		</defs>
		<clipPath id="SVGID_4_">
			<use xlink:href="#SVGID_3_"  style="overflow:visible;"/>
		</clipPath>
		<g class="st5">
			<path class="st6" d="M239.3,304h120.6c5.9,0,10.6,4.7,10.6,10.6v21c0,5.9-4.7,10.6-10.6,10.6H239.3c-5.9,0-10.6-4.7-10.6-10.6
				v-21C228.7,308.7,233.5,304,239.3,304z"/>
		</g>
	</g>
</g>
<line class="st6" x1="299.6" y1="348.2" x2="299.6" y2="390.7"/>
<polygon class="st4" points="299.6,397.6 303.5,386.9 299.6,390.7 295.7,386.9 "/>
<rect x="260.4" y="353.2" class="st2" width="78.4" height="18.7"/>
<g class="st3">
	<path class="st4" d="M280.7,356.9h6.7v1.2H282v3.8h5v1.2h-5v4.1h5.6v1.2h-7L280.7,356.9L280.7,356.9z"/>
</g>
<g class="st3">
	<path class="st4" d="M290.1,368.6v-7.8h1.2l0.1,1.2c0.3-0.4,0.7-0.8,1.1-1s0.9-0.4,1.5-0.4s1.2,0.2,1.7,0.5s0.9,0.7,1.1,1.3
		c0.3,0.5,0.4,1.2,0.4,1.8v4.4h-1.3v-4.2c0-0.8-0.2-1.4-0.6-1.8c-0.4-0.5-0.9-0.7-1.6-0.7c-0.4,0-0.8,0.1-1.2,0.3
		c-0.3,0.2-0.6,0.5-0.8,0.9s-0.3,0.8-0.3,1.3v4.3L290.1,368.6L290.1,368.6z"/>
</g>
<g class="st3">
	<path class="st4" d="M300.2,360.8v-2h1.3v2h2.1v1.2h-2.1v4.2c0,1,0.4,1.4,1.3,1.4c0.1,0,0.3,0,0.4,0s0.3-0.1,0.4-0.1v1.1
		c-0.1,0.1-0.3,0.1-0.5,0.1s-0.4,0.1-0.6,0.1c-0.7,0-1.3-0.2-1.7-0.6c-0.4-0.4-0.6-1-0.6-1.9V362h-1.3v-1.2L300.2,360.8L300.2,360.8
		z"/>
	<path class="st4" d="M313.3,364.7v0.5h-6.6c0.1,0.7,0.5,1.3,1,1.7s1.2,0.7,1.9,0.7c0.4,0,0.9-0.1,1.3-0.2s0.9-0.4,1.3-0.8l0.8,1
		c-0.6,0.5-1.1,0.8-1.7,1s-1.1,0.3-1.6,0.3c-0.8,0-1.6-0.2-2.2-0.5s-1.2-0.8-1.5-1.5c-0.4-0.6-0.6-1.3-0.6-2.1
		c0-0.8,0.2-1.5,0.5-2.1s0.8-1.1,1.4-1.4s1.3-0.5,2.1-0.5c0.8,0,1.5,0.2,2,0.5s1.1,0.8,1.4,1.4C313.1,363.2,313.3,363.9,313.3,364.7
		z M306.6,364.1h5.3c-0.1-0.7-0.4-1.2-0.9-1.7c-0.5-0.4-1.1-0.6-1.7-0.6c-0.7,0-1.3,0.2-1.8,0.7C307,362.9,306.7,363.4,306.6,364.1z
		"/>
	<path class="st4" d="M315.2,368.6v-7.8h1.2l0.1,1.2c0.3-0.4,0.6-0.8,1-1c0.4-0.3,0.9-0.4,1.5-0.4c0.2,0,0.5,0,0.7,0.1l-0.2,1.2
		c-0.3-0.1-0.5-0.1-0.7-0.1c-0.7,0-1.3,0.3-1.7,0.8c-0.4,0.5-0.6,1.2-0.6,2v4L315.2,368.6L315.2,368.6z"/>
</g>
<polyline class="st6" points="299.6,296.1 299.6,230.6 230.6,230.6 100.6,230.6 100.6,637 "/>
<polygon class="st4" points="299.6,303 303.5,292.3 299.6,296.1 295.7,292.3 "/>
<rect x="70.4" y="259.5" class="st2" width="58.4" height="18.7"/>
<g class="st3">
	<path class="st4" d="M80.7,263.2h6.7v1.2H82v3.8h5v1.2h-5v4.1h5.6v1.2h-7v-11.5H80.7z"/>
</g>
<g class="st3">
	<path class="st4" d="M90.1,274.9v-7.8h1.2l0.1,1.2c0.3-0.4,0.7-0.8,1.1-1s0.9-0.4,1.5-0.4s1.2,0.2,1.7,0.5s0.9,0.7,1.1,1.3
		c0.3,0.5,0.4,1.2,0.4,1.8v4.4h-1.3v-4.2c0-0.8-0.2-1.4-0.6-1.8c-0.4-0.5-0.9-0.7-1.6-0.7c-0.4,0-0.8,0.1-1.2,0.3
		c-0.3,0.2-0.6,0.5-0.8,0.9s-0.3,0.8-0.3,1.3v4.3L90.1,274.9L90.1,274.9z"/>
</g>
<g class="st3">
	<path class="st4" d="M100.2,267.1v-2h1.3v2h2.1v1.2h-2.1v4.2c0,1,0.4,1.4,1.3,1.4c0.1,0,0.3,0,0.4,0c0.1,0,0.3-0.1,0.4-0.1v1.1
		c-0.1,0.1-0.3,0.1-0.5,0.1s-0.4,0.1-0.6,0.1c-0.7,0-1.3-0.2-1.7-0.6s-0.6-1-0.6-1.9v-4.3h-1.3v-1.2L100.2,267.1L100.2,267.1z"/>
	<path class="st4" d="M113.2,271v0.5h-6.6c0.1,0.7,0.5,1.3,1,1.7s1.2,0.7,1.9,0.7c0.4,0,0.9-0.1,1.3-0.2s0.9-0.4,1.3-0.8l0.8,1
		c-0.6,0.5-1.1,0.8-1.7,1c-0.6,0.2-1.1,0.3-1.6,0.3c-0.8,0-1.6-0.2-2.2-0.5s-1.2-0.8-1.5-1.5c-0.4-0.6-0.6-1.3-0.6-2.1
		c0-0.8,0.2-1.5,0.5-2.1s0.8-1.1,1.4-1.4s1.3-0.5,2.1-0.5s1.5,0.2,2,0.5s1.1,0.8,1.4,1.4C113.1,269.5,113.2,270.2,113.2,271z
		 M106.6,270.4h5.3c-0.1-0.7-0.4-1.2-0.9-1.7c-0.5-0.4-1.1-0.6-1.7-0.6c-0.7,0-1.3,0.2-1.8,0.7C107,269.2,106.7,269.8,106.6,270.4z"
		/>
	<path class="st4" d="M115.2,274.9v-7.8h1.2l0.1,1.2c0.3-0.4,0.6-0.8,1-1c0.4-0.3,0.9-0.4,1.5-0.4c0.2,0,0.5,0,0.7,0.1l-0.2,1.2
		c-0.3-0.1-0.5-0.1-0.7-0.1c-0.7,0-1.3,0.3-1.7,0.8s-0.6,1.2-0.6,2v4L115.2,274.9L115.2,274.9z"/>
</g>
<g>
	<g>
		<defs>
			<rect id="SVGID_5_" x="-60.7" y="19.8" width="526.9" height="647.9"/>
		</defs>
		<clipPath id="SVGID_6_">
			<use xlink:href="#SVGID_5_"  style="overflow:visible;"/>
		</clipPath>
		<g class="st7">
			<path class="st8" d="M41.5,116.2h119.8c6.1,0,11,4.9,11,11v20.2c0,6.1-4.9,11-11,11H41.5c-6.1,0-11-4.9-11-11v-20.2
				C30.5,121.1,35.4,116.2,41.5,116.2z"/>
		</g>
	</g>
</g>
<g class="st3">
	<path class="st2" d="M53.1,141.3c0.5,0,0.9-0.1,1.2-0.4c0.3-0.3,0.5-0.6,0.5-1c0-0.3-0.1-0.6-0.3-0.8s-0.5-0.4-0.8-0.6
		s-0.7-0.3-1.1-0.5s-0.8-0.3-1.2-0.5s-0.8-0.4-1.1-0.7c-0.3-0.3-0.6-0.6-0.8-1s-0.3-0.8-0.3-1.4c0-0.7,0.2-1.2,0.5-1.7
		s0.8-0.9,1.4-1.1s1.3-0.4,2.1-0.4c1.3,0,2.5,0.3,3.6,0.9l-1,2c-0.5-0.3-1-0.5-1.5-0.7c-0.5-0.1-0.8-0.2-1.2-0.2
		c-0.5,0-0.8,0.1-1.1,0.3c-0.3,0.2-0.4,0.5-0.4,0.8s0.1,0.5,0.3,0.7c0.2,0.2,0.5,0.4,0.8,0.5c0.3,0.2,0.7,0.3,1.1,0.5
		s0.8,0.3,1.2,0.5c0.4,0.2,0.8,0.4,1.1,0.7c0.3,0.3,0.6,0.6,0.8,1s0.3,0.9,0.3,1.4c0,0.7-0.2,1.3-0.5,1.9s-0.9,1-1.5,1.3
		s-1.4,0.5-2.2,0.5c-0.8,0-1.5-0.1-2.3-0.4c-0.8-0.3-1.5-0.6-2.1-1.1l1.1-1.9c0.3,0.3,0.6,0.5,1,0.7s0.8,0.4,1.2,0.5
		C52.4,141.3,52.8,141.3,53.1,141.3z"/>
	<path class="st2" d="M59,135.4h2.1l0.1,0.8c0.3-0.3,0.7-0.6,1.1-0.7s0.9-0.3,1.4-0.3c0.7,0,1.4,0.2,2,0.5c0.6,0.4,1,0.8,1.4,1.4
		s0.5,1.3,0.5,2.1s-0.2,1.5-0.5,2.1s-0.8,1.1-1.4,1.4c-0.6,0.4-1.2,0.5-2,0.5c-0.5,0-0.9-0.1-1.4-0.2s-0.8-0.4-1.1-0.7v4.7H59V135.4
		z M63.2,137.2c-0.6,0-1,0.2-1.4,0.6s-0.6,0.9-0.6,1.5s0.2,1.1,0.6,1.5s0.8,0.6,1.4,0.6s1-0.2,1.4-0.6s0.6-0.9,0.6-1.5
		s-0.2-1.1-0.6-1.5S63.8,137.2,63.2,137.2z"/>
	<path class="st2" d="M71.2,131.2v12H69v-12H71.2z"/>
	<path class="st2" d="M73,141.1c0-0.5,0.1-1,0.4-1.4s0.7-0.7,1.2-1c0.5-0.2,1.1-0.4,1.8-0.4c0.2,0,0.4,0,0.7,0
		c0.2,0,0.5,0.1,0.7,0.1c-0.2-0.8-0.8-1.3-1.9-1.3c-0.6,0-1.3,0.2-1.9,0.7l-0.8-1.9c0.5-0.3,1.1-0.5,1.6-0.6s1-0.2,1.5-0.2
		c0.8,0,1.4,0.1,2,0.4s1,0.7,1.3,1.2s0.5,1.1,0.5,1.8v4.5h-1.9l-0.1-0.8c-0.3,0.3-0.6,0.5-1.1,0.7c-0.4,0.2-0.9,0.3-1.4,0.3
		c-0.8,0-1.4-0.2-1.9-0.6C73.3,142.3,73,141.7,73,141.1z M75.3,140.5c0,0.3,0.1,0.5,0.3,0.6c0.2,0.2,0.5,0.2,0.8,0.2
		c0.4,0,0.8-0.1,1.1-0.4s0.5-0.6,0.5-1v-0.2c-0.2-0.1-0.4-0.1-0.6-0.1s-0.4-0.1-0.7-0.1c-0.4,0-0.8,0.1-1,0.2
		C75.4,140,75.3,140.3,75.3,140.5z"/>
	<path class="st2" d="M81.6,142.2l1.1-1.7c0.4,0.3,0.9,0.5,1.2,0.7c0.4,0.2,0.7,0.3,1,0.3c0.2,0,0.4-0.1,0.6-0.2s0.2-0.2,0.2-0.4
		s-0.1-0.4-0.4-0.6c-0.3-0.1-0.6-0.3-0.9-0.4c-0.4-0.2-0.7-0.3-1.1-0.5s-0.7-0.4-0.9-0.7c-0.2-0.3-0.4-0.7-0.4-1.2
		c0-0.7,0.3-1.2,0.8-1.6s1.3-0.6,2.2-0.6c0.5,0,1,0.1,1.5,0.2c0.5,0.1,1,0.3,1.4,0.6l-1,1.7c-0.2-0.2-0.5-0.3-0.9-0.4
		s-0.7-0.2-0.9-0.2c-0.1,0-0.3,0-0.5,0.1s-0.3,0.2-0.3,0.3c0,0.2,0.1,0.4,0.4,0.5s0.5,0.3,0.9,0.4c0.4,0.1,0.7,0.3,1.1,0.5
		s0.7,0.4,1,0.8c0.3,0.3,0.4,0.7,0.4,1.2s-0.1,1-0.4,1.3s-0.7,0.7-1.1,0.8s-1,0.3-1.6,0.3c-0.5,0-1.1-0.1-1.7-0.3
		C82.7,142.9,82.1,142.6,81.6,142.2z"/>
	<path class="st2" d="M89.6,143.2v-11.7h2.2v4.7c0.6-0.6,1.4-0.9,2.3-0.9c2,0,3,1.3,3,3.8v4.2h-2.2V139c0-0.6-0.1-1-0.4-1.4
		c-0.2-0.3-0.6-0.5-1.1-0.5s-0.9,0.2-1.2,0.5s-0.5,0.8-0.5,1.3v4.2L89.6,143.2L89.6,143.2z"/>
	<path class="st2" d="M106.3,141.3c0.5,0,0.9-0.1,1.2-0.4c0.3-0.3,0.5-0.6,0.5-1c0-0.3-0.1-0.6-0.3-0.8s-0.5-0.4-0.8-0.6
		s-0.7-0.3-1.1-0.5c-0.4-0.2-0.8-0.3-1.2-0.5s-0.8-0.4-1.1-0.7s-0.6-0.6-0.8-1s-0.3-0.8-0.3-1.4c0-0.7,0.2-1.2,0.5-1.7
		s0.8-0.9,1.4-1.1s1.3-0.4,2.1-0.4c1.3,0,2.5,0.3,3.6,0.9l-1,2c-0.5-0.3-1-0.5-1.5-0.7c-0.5-0.1-0.8-0.2-1.2-0.2
		c-0.5,0-0.8,0.1-1.1,0.3s-0.4,0.5-0.4,0.8s0.1,0.5,0.3,0.7s0.5,0.4,0.8,0.5c0.3,0.2,0.7,0.3,1.1,0.5c0.4,0.2,0.8,0.3,1.2,0.5
		s0.8,0.4,1.1,0.7s0.6,0.6,0.8,1s0.3,0.9,0.3,1.4c0,0.7-0.2,1.3-0.5,1.9s-0.9,1-1.5,1.3s-1.4,0.5-2.2,0.5s-1.5-0.1-2.3-0.4
		c-0.8-0.3-1.5-0.6-2.1-1.1l1.1-1.9c0.3,0.3,0.6,0.5,1,0.7s0.8,0.4,1.2,0.5C105.6,141.3,106,141.3,106.3,141.3z"/>
	<path class="st2" d="M119,142.2c-0.4,0.4-0.8,0.6-1.4,0.9c-0.5,0.2-1.1,0.3-1.7,0.3c-0.8,0-1.6-0.2-2.2-0.5s-1.2-0.8-1.5-1.4
		s-0.6-1.3-0.6-2.1s0.2-1.5,0.6-2.1s0.9-1.1,1.5-1.4s1.4-0.5,2.2-0.5c0.6,0,1.2,0.1,1.7,0.3s1,0.5,1.4,0.9l-1.6,1.5
		c-0.4-0.5-0.9-0.7-1.5-0.7s-1,0.2-1.4,0.6s-0.6,0.9-0.6,1.5s0.2,1.1,0.6,1.5s0.8,0.6,1.4,0.6c0.6,0,1.1-0.2,1.5-0.7L119,142.2z"/>
	<path class="st2" d="M120.5,143.2v-7.8h2l0.1,1.1c0.6-0.8,1.3-1.3,2.3-1.3c0.3,0,0.7,0.1,1,0.2l-0.3,1.9c-0.3-0.1-0.6-0.1-0.9-0.1
		c-0.6,0-1.1,0.2-1.5,0.7c-0.4,0.4-0.6,1.1-0.6,1.9v3.4L120.5,143.2L120.5,143.2z"/>
	<path class="st2" d="M128.4,140c0.1,0.4,0.4,0.8,0.8,1.1c0.4,0.3,0.8,0.4,1.3,0.4s1-0.1,1.3-0.3c0.4-0.2,0.7-0.4,1-0.7l1.4,1.6
		c-0.6,0.5-1.2,0.8-1.8,1s-1.2,0.3-1.7,0.3c-0.9,0-1.6-0.2-2.3-0.5c-0.7-0.4-1.2-0.8-1.6-1.5s-0.6-1.3-0.6-2.1s0.2-1.5,0.5-2.1
		s0.9-1.1,1.5-1.4c0.6-0.4,1.3-0.5,2.1-0.5s1.5,0.2,2.1,0.5s1.1,0.8,1.4,1.4c0.4,0.6,0.5,1.3,0.5,2.1v0.7H128.4z M132.2,138.7
		c-0.1-0.5-0.3-0.8-0.7-1.1c-0.3-0.3-0.7-0.4-1.2-0.4s-0.9,0.1-1.2,0.4s-0.6,0.7-0.7,1.1H132.2z"/>
	<path class="st2" d="M137.5,140c0.1,0.4,0.4,0.8,0.8,1.1c0.4,0.3,0.8,0.4,1.3,0.4s1-0.1,1.3-0.3c0.4-0.2,0.7-0.4,1-0.7l1.4,1.6
		c-0.6,0.5-1.2,0.8-1.8,1s-1.2,0.3-1.7,0.3c-0.9,0-1.6-0.2-2.3-0.5c-0.7-0.4-1.2-0.8-1.6-1.5s-0.6-1.3-0.6-2.1s0.2-1.5,0.5-2.1
		s0.9-1.1,1.5-1.4c0.6-0.4,1.3-0.5,2.1-0.5s1.5,0.2,2.1,0.5s1.1,0.8,1.4,1.4c0.4,0.6,0.5,1.3,0.5,2.1v0.7H137.5z M141.3,138.7
		c-0.1-0.5-0.3-0.8-0.7-1.1c-0.3-0.3-0.7-0.4-1.2-0.4s-0.9,0.1-1.2,0.4s-0.6,0.7-0.7,1.1H141.3z"/>
	<path class="st2" d="M145.1,143.2v-7.8h2l0.1,1c0.3-0.4,0.7-0.6,1.1-0.8s0.9-0.3,1.4-0.3c0.9,0,1.6,0.3,2.2,0.9
		c0.5,0.6,0.8,1.4,0.8,2.5v4.6h-2.3v-4.1c0-1.3-0.5-1.9-1.4-1.9c-0.5,0-0.9,0.2-1.2,0.5s-0.5,0.9-0.5,1.5v4L145.1,143.2L145.1,143.2
		z"/>
</g>
<g>
	<g>
		<defs>
			<rect id="SVGID_7_" x="-60.7" y="19.8" width="526.9" height="647.9"/>
		</defs>
		<clipPath id="SVGID_8_">
			<use xlink:href="#SVGID_7_"  style="overflow:visible;"/>
		</clipPath>
		<g class="st9">
			<path class="st2" d="M41.1,209.9h120.6c5.9,0,10.6,4.7,10.6,10.6v21c0,5.9-4.7,10.6-10.6,10.6H41.1c-5.9,0-10.6-4.7-10.6-10.6
				v-21C30.5,214.6,35.2,209.9,41.1,209.9z"/>
		</g>
	</g>
</g>
<g class="st3">
	<path class="st4" d="M60.7,237h-6.9v-11.7h1.4v10.5h5.5V237z"/>
</g>
<g class="st3">
	<path class="st4" d="M61.7,233.1c0-0.8,0.2-1.5,0.5-2.1s0.8-1.1,1.4-1.4c0.6-0.4,1.3-0.5,2.1-0.5s1.5,0.2,2.1,0.5
		c0.6,0.4,1.1,0.8,1.4,1.4s0.5,1.3,0.5,2.1s-0.2,1.5-0.5,2.1s-0.8,1.1-1.4,1.4c-0.6,0.4-1.3,0.5-2.1,0.5s-1.5-0.2-2.1-0.5
		c-0.6-0.4-1.1-0.8-1.4-1.4S61.7,233.8,61.7,233.1z M63,233.1c0,0.6,0.1,1,0.4,1.5c0.2,0.4,0.6,0.8,1,1s0.9,0.4,1.4,0.4
		s1-0.1,1.4-0.4c0.4-0.2,0.7-0.6,1-1c0.2-0.4,0.4-0.9,0.4-1.5s-0.1-1.1-0.4-1.5c-0.2-0.4-0.6-0.8-1-1s-0.9-0.4-1.4-0.4
		s-1,0.1-1.4,0.4c-0.4,0.2-0.7,0.6-1,1S63,232.5,63,233.1z"/>
	<path class="st4" d="M75.2,237.1c-0.8,0-1.4-0.2-2-0.5c-0.6-0.4-1.1-0.8-1.4-1.4c-0.3-0.6-0.5-1.3-0.5-2.1s0.2-1.5,0.5-2.1
		s0.8-1.1,1.4-1.4c0.6-0.4,1.3-0.5,2-0.5c0.6,0,1.1,0.1,1.6,0.3s0.9,0.5,1.3,0.9l0.1-1.1h1.2v7c0,1-0.2,1.8-0.5,2.5
		s-0.9,1.3-1.5,1.7s-1.5,0.6-2.5,0.6c-0.5,0-1.1-0.1-1.5-0.2c-0.5-0.2-0.9-0.4-1.3-0.7l0.6-1.1c0.3,0.3,0.6,0.5,1,0.6
		s0.8,0.2,1.2,0.2c1.1,0,1.9-0.3,2.5-1c0.5-0.6,0.8-1.5,0.8-2.6v-0.4c-0.3,0.4-0.8,0.7-1.3,0.9C76.3,237,75.7,237.1,75.2,237.1z
		 M72.6,233.1c0,0.6,0.1,1,0.4,1.5c0.2,0.4,0.6,0.8,1,1s0.9,0.4,1.4,0.4s1-0.1,1.4-0.4c0.4-0.2,0.7-0.6,1-1c0.2-0.4,0.4-0.9,0.4-1.5
		s-0.1-1.1-0.4-1.5c-0.2-0.4-0.6-0.8-1-1s-0.9-0.4-1.4-0.4s-1,0.1-1.4,0.4c-0.4,0.2-0.7,0.6-1,1S72.6,232.5,72.6,233.1z"/>
	<path class="st4" d="M81.6,226.1c0-0.3,0.1-0.5,0.3-0.6c0.2-0.2,0.4-0.3,0.6-0.3c0.3,0,0.5,0.1,0.6,0.3s0.3,0.4,0.3,0.6
		c0,0.3-0.1,0.5-0.3,0.6s-0.4,0.3-0.6,0.3c-0.3,0-0.5-0.1-0.6-0.3C81.6,226.6,81.6,226.4,81.6,226.1z M81.8,237v-7.8h1.3v7.8H81.8z"
		/>
	<path class="st4" d="M85.6,237v-7.8h1.2l0.1,1.2c0.3-0.4,0.7-0.8,1.1-1s0.9-0.4,1.5-0.4s1.2,0.2,1.7,0.5s0.9,0.7,1.1,1.3
		c0.3,0.5,0.4,1.2,0.4,1.8v4.4h-1.3v-4.2c0-0.8-0.2-1.4-0.6-1.8c-0.4-0.5-0.9-0.7-1.6-0.7c-0.4,0-0.8,0.1-1.2,0.3
		c-0.3,0.2-0.6,0.5-0.8,0.9s-0.3,0.8-0.3,1.3v4.3h-1.3V237z"/>
	<path class="st4" d="M99.2,234.7c0.4,0.4,0.9,0.7,1.4,0.9s1,0.3,1.5,0.3s0.9-0.1,1.3-0.2c0.4-0.2,0.7-0.4,1-0.7
		c0.2-0.3,0.4-0.7,0.4-1.1c0-0.4-0.1-0.8-0.4-1.1c-0.3-0.3-0.6-0.6-1-0.8s-0.8-0.4-1.3-0.6c-0.4-0.2-0.8-0.4-1.1-0.5s-0.7-0.4-1-0.7
		s-0.5-0.5-0.7-0.9c-0.2-0.3-0.3-0.7-0.3-1.2c0-0.6,0.2-1.2,0.5-1.6c0.3-0.5,0.8-0.8,1.3-1c0.6-0.2,1.2-0.4,1.9-0.4
		c0.5,0,0.9,0.1,1.4,0.2c0.5,0.1,1,0.3,1.5,0.5L105,227c-0.4-0.2-0.7-0.4-1.1-0.5s-0.8-0.1-1.1-0.1c-0.7,0-1.2,0.2-1.7,0.5
		s-0.7,0.7-0.7,1.3c0,0.4,0.1,0.7,0.4,1c0.2,0.3,0.6,0.5,0.9,0.7c0.4,0.2,0.8,0.4,1.2,0.6c0.4,0.2,0.8,0.4,1.2,0.6s0.7,0.4,1.1,0.7
		c0.3,0.3,0.6,0.6,0.8,0.9s0.3,0.8,0.3,1.3c0,0.7-0.2,1.2-0.5,1.8c-0.4,0.5-0.8,0.9-1.5,1.2c-0.6,0.3-1.3,0.4-2.1,0.4
		c-0.6,0-1.2-0.1-1.8-0.3s-1.2-0.5-1.7-0.9L99.2,234.7z"/>
	<path class="st4" d="M114.7,236c-0.4,0.4-0.8,0.6-1.3,0.9c-0.5,0.2-1,0.3-1.6,0.3c-0.8,0-1.5-0.2-2.1-0.5c-0.6-0.4-1.1-0.8-1.4-1.4
		s-0.5-1.3-0.5-2.1s0.2-1.5,0.5-2.1s0.8-1.1,1.4-1.4c0.6-0.4,1.3-0.5,2.1-0.5c0.6,0,1.1,0.1,1.6,0.3s0.9,0.5,1.3,0.8l-0.9,0.9
		c-0.2-0.3-0.5-0.5-0.9-0.6s-0.7-0.2-1.1-0.2c-0.5,0-1,0.1-1.4,0.4c-0.4,0.2-0.7,0.6-1,1c-0.2,0.4-0.4,0.9-0.4,1.5s0.1,1,0.4,1.5
		c0.2,0.4,0.6,0.8,1,1s0.9,0.4,1.4,0.4c0.4,0,0.8-0.1,1.1-0.2s0.6-0.4,0.9-0.6L114.7,236z"/>
	<path class="st4" d="M116.7,237v-7.8h1.2l0.1,1.2c0.3-0.4,0.6-0.8,1-1c0.4-0.3,0.9-0.4,1.5-0.4c0.2,0,0.5,0,0.7,0.1l-0.2,1.2
		c-0.3-0.1-0.5-0.1-0.7-0.1c-0.7,0-1.3,0.3-1.7,0.8s-0.6,1.2-0.6,2v4H116.7z"/>
	<path class="st4" d="M129.9,233.1v0.5h-6.6c0.1,0.7,0.5,1.3,1,1.7s1.2,0.7,1.9,0.7c0.4,0,0.9-0.1,1.3-0.2s0.9-0.4,1.3-0.8l0.8,1
		c-0.6,0.5-1.1,0.8-1.7,1c-0.6,0.2-1.1,0.3-1.6,0.3c-0.8,0-1.6-0.2-2.2-0.5s-1.2-0.8-1.5-1.5c-0.4-0.6-0.6-1.3-0.6-2.1
		s0.2-1.5,0.5-2.1s0.8-1.1,1.4-1.4s1.3-0.5,2.1-0.5s1.5,0.2,2,0.5s1.1,0.8,1.4,1.4C129.7,231.6,129.9,232.3,129.9,233.1z
		 M123.3,232.5h5.3c-0.1-0.7-0.4-1.2-0.9-1.7c-0.5-0.4-1.1-0.6-1.7-0.6c-0.7,0-1.3,0.2-1.8,0.7C123.7,231.3,123.4,231.8,123.3,232.5
		z"/>
	<path class="st4" d="M139.3,233.1v0.5h-6.6c0.1,0.7,0.5,1.3,1,1.7s1.2,0.7,1.9,0.7c0.4,0,0.9-0.1,1.3-0.2s0.9-0.4,1.3-0.8l0.8,1
		c-0.6,0.5-1.1,0.8-1.7,1c-0.6,0.2-1.1,0.3-1.6,0.3c-0.8,0-1.6-0.2-2.2-0.5s-1.2-0.8-1.5-1.5c-0.4-0.6-0.6-1.3-0.6-2.1
		s0.2-1.5,0.5-2.1s0.8-1.1,1.4-1.4s1.3-0.5,2.1-0.5s1.5,0.2,2,0.5s1.1,0.8,1.4,1.4C139.1,231.6,139.3,232.3,139.3,233.1z
		 M132.7,232.5h5.3c-0.1-0.7-0.4-1.2-0.9-1.7c-0.5-0.4-1.1-0.6-1.7-0.6c-0.7,0-1.3,0.2-1.8,0.7C133.1,231.3,132.8,231.8,132.7,232.5
		z"/>
	<path class="st4" d="M141.2,237v-7.8h1.2l0.1,1.2c0.3-0.4,0.7-0.8,1.1-1c0.4-0.2,0.9-0.4,1.5-0.4s1.2,0.2,1.7,0.5s0.9,0.7,1.1,1.3
		c0.3,0.5,0.4,1.2,0.4,1.8v4.4H147v-4.2c0-0.8-0.2-1.4-0.6-1.8c-0.4-0.5-0.9-0.7-1.6-0.7c-0.4,0-0.8,0.1-1.2,0.3
		c-0.3,0.2-0.6,0.5-0.8,0.9s-0.3,0.8-0.3,1.3v4.3h-1.3V237z"/>
</g>
<g>
	<g>
		<defs>
			<rect id="SVGID_9_" x="-60.7" y="19.8" width="526.9" height="647.9"/>
		</defs>
		<clipPath id="SVGID_10_">
			<use xlink:href="#SVGID_9_"  style="overflow:visible;"/>
		</clipPath>
		<g class="st10">
			<path class="st6" d="M41.1,209.9h120.6c5.9,0,10.6,4.7,10.6,10.6v21c0,5.9-4.7,10.6-10.6,10.6H41.1c-5.9,0-10.6-4.7-10.6-10.6
				v-21C30.5,214.6,35.2,209.9,41.1,209.9z"/>
		</g>
	</g>
</g>
<line class="st6" x1="101.4" y1="158.9" x2="101.4" y2="201.4"/>
<polygon class="st4" points="101.4,208.4 105.3,197.6 101.4,201.4 97.5,197.6 "/>
<rect x="62.2" y="89" class="st2" width="78.4" height="18.7"/>
<g class="st3">
	<path class="st8" d="M64.4,98.5c0-0.9,0.2-1.7,0.5-2.4s0.7-1.4,1.3-1.9s1.2-1,1.9-1.3s1.6-0.5,2.4-0.5s1.7,0.2,2.4,0.5
		s1.4,0.7,1.9,1.3s1,1.2,1.3,1.9s0.5,1.6,0.5,2.4s-0.2,1.7-0.5,2.4s-0.7,1.4-1.3,1.9s-1.2,1-1.9,1.3s-1.6,0.5-2.4,0.5
		s-1.7-0.2-2.4-0.5s-1.4-0.7-1.9-1.3s-1-1.2-1.3-1.9S64.4,99.4,64.4,98.5z M65.8,98.5c0,0.9,0.2,1.8,0.6,2.5s1,1.3,1.7,1.7
		s1.5,0.6,2.4,0.6s1.7-0.2,2.4-0.6s1.3-1,1.7-1.7s0.6-1.6,0.6-2.5S75,96.7,74.6,96s-1-1.3-1.7-1.7s-1.5-0.6-2.4-0.6
		s-1.7,0.2-2.4,0.6s-1.3,1-1.7,1.7S65.8,97.6,65.8,98.5z"/>
	<path class="st8" d="M79.6,96.6l0.1,1.1c0.4-0.4,0.8-0.7,1.3-0.9s1-0.3,1.6-0.3c0.8,0,1.4,0.2,2,0.5s1.1,0.8,1.4,1.4
		s0.5,1.3,0.5,2.1s-0.2,1.5-0.5,2.1s-0.8,1.1-1.4,1.4s-1.3,0.5-2,0.5c-0.6,0-1.1-0.1-1.6-0.3s-0.9-0.5-1.3-0.9v4.9h-1.3V96.6H79.6z
		 M82.5,103.4c0.5,0,1-0.1,1.4-0.4s0.7-0.6,1-1s0.4-0.9,0.4-1.5s-0.1-1.1-0.4-1.5s-0.6-0.8-1-1s-0.9-0.4-1.4-0.4s-1,0.1-1.4,0.4
		s-0.7,0.6-1,1s-0.4,0.9-0.4,1.5s0.1,1,0.4,1.5s0.6,0.8,1,1S81.9,103.4,82.5,103.4z"/>
	<path class="st8" d="M95.9,100.5v0.5h-6.6c0.1,0.7,0.5,1.3,1,1.7s1.2,0.7,1.9,0.7c0.4,0,0.9-0.1,1.3-0.2s0.9-0.4,1.3-0.8l0.8,1
		c-0.6,0.5-1.1,0.8-1.7,1s-1.1,0.3-1.6,0.3c-0.8,0-1.6-0.2-2.2-0.5s-1.2-0.8-1.5-1.5s-0.6-1.3-0.6-2.1c0-0.8,0.2-1.5,0.5-2.1
		s0.8-1.1,1.4-1.4s1.3-0.5,2.1-0.5s1.5,0.2,2,0.5s1.1,0.8,1.4,1.4S95.9,99.7,95.9,100.5z M89.3,99.9h5.3c-0.1-0.7-0.4-1.2-0.9-1.7
		s-1.1-0.6-1.7-0.6c-0.7,0-1.3,0.2-1.8,0.7S89.4,99.2,89.3,99.9z"/>
	<path class="st8" d="M97.9,104.4v-7.8h1.2l0.1,1.2c0.3-0.4,0.7-0.8,1.1-1s0.9-0.4,1.5-0.4s1.2,0.2,1.7,0.5s0.9,0.7,1.1,1.3
		s0.4,1.2,0.4,1.8v4.4h-1.3v-4.2c0-0.8-0.2-1.4-0.6-1.8s-0.9-0.7-1.6-0.7c-0.4,0-0.8,0.1-1.2,0.3s-0.6,0.5-0.8,0.9s-0.3,0.8-0.3,1.3
		v4.3h-1.3V104.4z"/>
	<path class="st8" d="M111.1,102c0-0.8,0.3-1.4,0.9-1.9s1.4-0.7,2.5-0.7c0.7,0,1.4,0.1,2.1,0.3v-0.1c0-0.7-0.2-1.2-0.6-1.6
		s-0.9-0.6-1.6-0.6c-0.7,0-1.4,0.2-2.2,0.7l-0.5-1.1c0.5-0.3,1-0.5,1.4-0.6s0.9-0.2,1.4-0.2c1,0,1.8,0.3,2.4,0.9s0.9,1.4,0.9,2.4
		v4.6h-1.2l-0.1-1.2c-0.3,0.4-0.6,0.7-1.1,1s-1,0.3-1.6,0.3c-0.8,0-1.5-0.2-2.1-0.7S111.1,102.8,111.1,102z M114.6,100.7
		c-0.7,0-1.2,0.1-1.6,0.4s-0.6,0.6-0.6,1s0.2,0.7,0.5,1s0.7,0.4,1.2,0.4s0.9-0.1,1.2-0.3s0.7-0.5,0.9-0.8s0.3-0.7,0.3-1.1V101
		C115.9,100.8,115.3,100.7,114.6,100.7z"/>
	<path class="st8" d="M121.4,96.6l0.1,1.1c0.4-0.4,0.8-0.7,1.3-0.9s1-0.3,1.6-0.3c0.8,0,1.4,0.2,2,0.5s1.1,0.8,1.4,1.4
		s0.5,1.3,0.5,2.1s-0.2,1.5-0.5,2.1s-0.8,1.1-1.4,1.4s-1.3,0.5-2,0.5c-0.6,0-1.1-0.1-1.6-0.3s-0.9-0.5-1.3-0.9v4.9h-1.3V96.6H121.4z
		 M124.2,103.4c0.5,0,1-0.1,1.4-0.4s0.7-0.6,1-1s0.4-0.9,0.4-1.5s-0.1-1.1-0.4-1.5s-0.6-0.8-1-1s-0.9-0.4-1.4-0.4s-1,0.1-1.4,0.4
		s-0.7,0.6-1,1s-0.4,0.9-0.4,1.5s0.1,1,0.4,1.5s0.6,0.8,1,1S123.7,103.4,124.2,103.4z"/>
	<path class="st8" d="M131.4,96.6l0.1,1.1c0.4-0.4,0.8-0.7,1.3-0.9s1-0.3,1.6-0.3c0.8,0,1.4,0.2,2,0.5s1.1,0.8,1.4,1.4
		s0.5,1.3,0.5,2.1s-0.2,1.5-0.5,2.1s-0.8,1.1-1.4,1.4s-1.3,0.5-2,0.5c-0.6,0-1.1-0.1-1.6-0.3s-0.9-0.5-1.3-0.9v4.9h-1.3V96.6H131.4z
		 M134.3,103.4c0.5,0,1-0.1,1.4-0.4s0.7-0.6,1-1s0.4-0.9,0.4-1.5s-0.1-1.1-0.4-1.5s-0.6-0.8-1-1s-0.9-0.4-1.4-0.4s-1,0.1-1.4,0.4
		s-0.7,0.6-1,1s-0.4,0.9-0.4,1.5s0.1,1,0.4,1.5s0.6,0.8,1,1S133.7,103.4,134.3,103.4z"/>
</g>
<rect x="183" y="218.4" class="st2" width="104.9" height="22.5"/>
<path class="st4" d="M198.8,233.2l1,1c-0.5,0.5-1.2,1-1.9,1.3s-1.6,0.5-2.4,0.5c-0.9,0-1.7-0.2-2.4-0.5s-1.4-0.7-1.9-1.3
	s-1-1.2-1.3-1.9s-0.5-1.6-0.5-2.4s0.2-1.7,0.5-2.4s0.7-1.4,1.3-1.9s1.2-1,1.9-1.3s1.6-0.5,2.4-0.5c0.9,0,1.7,0.2,2.4,0.5
	s1.4,0.7,1.9,1.3l-1,1c-0.4-0.4-0.9-0.8-1.5-1.1s-1.2-0.4-1.9-0.4c-0.9,0-1.7,0.2-2.4,0.6c-0.7,0.4-1.3,1-1.7,1.7s-0.6,1.6-0.6,2.5
	s0.2,1.8,0.6,2.5c0.4,0.7,1,1.3,1.7,1.7s1.5,0.6,2.4,0.6c0.7,0,1.3-0.1,1.9-0.4C197.8,234,198.4,233.7,198.8,233.2z"/>
<path class="st4" d="M203.1,223.6v12h-1.3v-12H203.1z"/>
<path class="st4" d="M205.3,224.8c0-0.3,0.1-0.5,0.3-0.6s0.4-0.3,0.6-0.3c0.3,0,0.5,0.1,0.6,0.3s0.3,0.4,0.3,0.6
	c0,0.3-0.1,0.5-0.3,0.6s-0.4,0.3-0.6,0.3c-0.3,0-0.5-0.1-0.6-0.3S205.3,225.1,205.3,224.8z M205.6,235.7v-7.8h1.3v7.8H205.6z"/>
<path class="st4" d="M215.8,234.7c-0.4,0.4-0.8,0.6-1.3,0.9s-1,0.3-1.6,0.3c-0.8,0-1.5-0.2-2.1-0.5s-1.1-0.8-1.4-1.4
	s-0.5-1.3-0.5-2.1s0.2-1.5,0.5-2.1s0.8-1.1,1.4-1.4s1.3-0.5,2.1-0.5c0.6,0,1.1,0.1,1.6,0.3s0.9,0.5,1.3,0.8l-0.9,0.9
	c-0.2-0.3-0.5-0.5-0.9-0.6s-0.7-0.2-1.1-0.2c-0.5,0-1,0.1-1.4,0.4s-0.7,0.6-1,1s-0.4,0.9-0.4,1.5s0.1,1,0.4,1.5s0.6,0.8,1,1
	s0.9,0.4,1.4,0.4c0.4,0,0.8-0.1,1.1-0.2s0.6-0.4,0.9-0.6L215.8,234.7z"/>
<path class="st4" d="M217.8,224h1.3v7.5c0-0.1,0.1-0.1,0.1-0.2s0.1-0.1,0.1-0.2l2.8-3.2h1.6l-3.1,3.5l3.5,4.3h-1.6l-2.8-3.3
	l-0.7,0.8v2.5h-1.3L217.8,224L217.8,224z"/>
<path class="st4" d="M229.3,234.9l0.6-1.1c0.6,0.6,1.3,0.8,2,0.8c0.4,0,0.8-0.1,1-0.3s0.4-0.5,0.4-0.8c0-0.4-0.2-0.7-0.5-0.9
	s-0.7-0.4-1.1-0.6c-0.3-0.2-0.7-0.3-1-0.5s-0.6-0.4-0.8-0.7s-0.3-0.6-0.3-1.1c0-0.6,0.2-1.1,0.7-1.5s1.1-0.6,1.8-0.6
	c0.4,0,0.8,0.1,1.2,0.2s0.7,0.3,1,0.5l-0.5,1c-0.3-0.2-0.6-0.3-0.8-0.3s-0.5-0.1-0.8-0.1c-0.4,0-0.7,0.1-0.9,0.2s-0.3,0.4-0.3,0.6
	c0,0.3,0.1,0.6,0.4,0.8s0.6,0.4,1,0.6c0.3,0.2,0.7,0.3,1,0.5s0.6,0.4,0.8,0.7s0.3,0.7,0.3,1.1c0,0.5-0.1,0.9-0.4,1.2s-0.6,0.6-1,0.8
	s-0.9,0.3-1.4,0.3s-0.9-0.1-1.4-0.2S229.7,235.2,229.3,234.9z"/>
<path class="st4" d="M236.3,224.8c0-0.3,0.1-0.5,0.3-0.6s0.4-0.3,0.6-0.3c0.3,0,0.5,0.1,0.6,0.3s0.3,0.4,0.3,0.6
	c0,0.3-0.1,0.5-0.3,0.6s-0.4,0.3-0.6,0.3c-0.3,0-0.5-0.1-0.6-0.3S236.3,225.1,236.3,224.8z M236.6,235.7v-7.8h1.3v7.8H236.6z"/>
<path class="st4" d="M243.8,235.8c-0.8,0-1.4-0.2-2-0.5s-1.1-0.8-1.4-1.4s-0.5-1.3-0.5-2.1s0.2-1.5,0.5-2.1s0.8-1.1,1.4-1.4
	s1.3-0.5,2-0.5c0.6,0,1.1,0.1,1.6,0.3s0.9,0.5,1.3,0.9l0.1-1.1h1.2v7c0,1-0.2,1.8-0.5,2.5s-0.9,1.3-1.5,1.7s-1.5,0.6-2.5,0.6
	c-0.5,0-1.1-0.1-1.5-0.2s-0.9-0.4-1.3-0.7l0.6-1.1c0.3,0.3,0.6,0.5,1,0.6s0.8,0.2,1.2,0.2c1.1,0,1.9-0.3,2.5-1s0.8-1.5,0.8-2.6v-0.4
	c-0.3,0.4-0.8,0.7-1.3,0.9S244.4,235.8,243.8,235.8z M241.2,231.8c0,0.6,0.1,1,0.4,1.5s0.6,0.8,1,1s0.9,0.4,1.4,0.4s1-0.1,1.4-0.4
	s0.7-0.6,1-1s0.4-0.9,0.4-1.5s-0.1-1.1-0.4-1.5s-0.6-0.8-1-1s-0.9-0.4-1.4-0.4s-1,0.1-1.4,0.4s-0.7,0.6-1,1S241.2,231.2,241.2,231.8
	z"/>
<path class="st4" d="M250.4,235.7v-7.8h1.2l0.1,1.2c0.3-0.4,0.7-0.8,1.1-1s0.9-0.4,1.5-0.4s1.2,0.2,1.7,0.5s0.9,0.7,1.1,1.3
	s0.4,1.2,0.4,1.8v4.4h-1.3v-4.2c0-0.8-0.2-1.4-0.6-1.8s-0.9-0.7-1.6-0.7c-0.4,0-0.8,0.1-1.2,0.3s-0.6,0.5-0.8,0.9s-0.3,0.8-0.3,1.3
	v4.3h-1.3V235.7z"/>
<path class="st8" d="M265.1,227.9v4.2c0,0.8,0.2,1.4,0.6,1.8c0.4,0.5,0.9,0.7,1.6,0.7c0.4,0,0.8-0.1,1.2-0.3
	c0.3-0.2,0.6-0.5,0.8-0.9s0.3-0.8,0.3-1.3v-4.3h1.3v7.8h-1.2l-0.1-1.2c-0.3,0.4-0.7,0.8-1.1,1c-0.5,0.2-1,0.4-1.5,0.4
	c-0.6,0-1.2-0.2-1.7-0.5s-0.9-0.7-1.1-1.3c-0.3-0.5-0.4-1.2-0.4-1.8v-4.4h1.3V227.9z"/>
<path class="st8" d="M274.6,227.9l0.1,1.1c0.4-0.4,0.8-0.7,1.3-0.9s1-0.3,1.6-0.3c0.8,0,1.4,0.2,2,0.5s1.1,0.8,1.4,1.4
	c0.3,0.6,0.5,1.3,0.5,2.1s-0.2,1.5-0.5,2.1s-0.8,1.1-1.4,1.4s-1.3,0.5-2,0.5c-0.6,0-1.1-0.1-1.6-0.3s-0.9-0.5-1.3-0.9v4.9h-1.3
	v-11.7L274.6,227.9L274.6,227.9z M277.4,234.7c0.5,0,1-0.1,1.4-0.4c0.4-0.2,0.7-0.6,1-1c0.2-0.4,0.4-0.9,0.4-1.5s-0.1-1.1-0.4-1.5
	c-0.2-0.4-0.6-0.8-1-1s-0.9-0.4-1.4-0.4s-1,0.1-1.4,0.4c-0.4,0.2-0.7,0.6-1,1c-0.2,0.4-0.4,0.9-0.4,1.5s0.1,1,0.4,1.5
	c0.2,0.4,0.6,0.8,1,1S276.9,234.7,277.4,234.7z"/>
<polyline class="st6" points="227.7,325.1 141.1,325.1 141.1,261.4 "/>
<polygon class="st4" points="141.1,254.5 145,265.2 141.1,261.4 137.2,265.2 "/>
<rect x="156.1" y="318.3" class="st2" width="58.6" height="12"/>
<g class="st3">
	<path class="st4" d="M169.1,318.6h3.5c1.3,0,2.2,0.3,2.9,0.8s1,1.2,1,2.2c0,0.6-0.1,1.1-0.4,1.6c-0.3,0.4-0.7,0.8-1.2,1
		c0.7,0.2,1.2,0.6,1.6,1.1c0.4,0.5,0.6,1.1,0.6,1.8c0,1.1-0.4,1.9-1.1,2.4s-1.8,0.8-3.1,0.8h-3.6v-11.7H169.1z M170.5,319.8v3.8h2.3
		c0.8,0,1.3-0.2,1.8-0.5c0.4-0.3,0.6-0.8,0.6-1.4s-0.2-1.1-0.6-1.4c-0.4-0.3-1-0.5-1.8-0.5H170.5z M172.9,329.1c0.8,0,1.5-0.2,2-0.5
		s0.7-0.9,0.7-1.6s-0.2-1.2-0.7-1.6s-1.1-0.5-2-0.5h-2.4v4.2H172.9z"/>
	<path class="st4" d="M178.8,328c0-0.8,0.3-1.4,0.9-1.9c0.6-0.5,1.4-0.7,2.5-0.7c0.7,0,1.4,0.1,2.1,0.3v-0.1c0-0.7-0.2-1.2-0.6-1.6
		s-0.9-0.6-1.6-0.6c-0.7,0-1.4,0.2-2.2,0.7l-0.5-1.1c0.5-0.3,1-0.5,1.4-0.6s0.9-0.2,1.4-0.2c1,0,1.8,0.3,2.4,0.9
		c0.6,0.6,0.9,1.4,0.9,2.4v4.6h-1.2l-0.1-1.2c-0.3,0.4-0.6,0.7-1.1,1c-0.4,0.2-1,0.3-1.6,0.3c-0.8,0-1.5-0.2-2.1-0.7
		C179.1,329.3,178.8,328.7,178.8,328z M182.3,326.6c-0.7,0-1.2,0.1-1.6,0.4c-0.4,0.2-0.6,0.6-0.6,1s0.2,0.7,0.5,1s0.7,0.4,1.2,0.4
		s0.9-0.1,1.2-0.3c0.4-0.2,0.7-0.5,0.9-0.8s0.3-0.7,0.3-1.1V327C183.6,326.7,183,326.6,182.3,326.6z"/>
	<path class="st4" d="M194.3,329.3c-0.4,0.4-0.8,0.6-1.3,0.9c-0.5,0.2-1,0.3-1.6,0.3c-0.8,0-1.5-0.2-2.1-0.5
		c-0.6-0.4-1.1-0.8-1.4-1.4s-0.5-1.3-0.5-2.1s0.2-1.5,0.5-2.1s0.8-1.1,1.4-1.4c0.6-0.4,1.3-0.5,2.1-0.5c0.6,0,1.1,0.1,1.6,0.3
		c0.5,0.2,0.9,0.5,1.3,0.8l-0.9,0.9c-0.2-0.3-0.5-0.5-0.9-0.6s-0.7-0.2-1.1-0.2c-0.5,0-1,0.1-1.4,0.4c-0.4,0.2-0.7,0.6-1,1
		c-0.2,0.4-0.4,0.9-0.4,1.5s0.1,1,0.4,1.5c0.2,0.4,0.6,0.8,1,1s0.9,0.4,1.4,0.4c0.4,0,0.8-0.1,1.1-0.2s0.6-0.4,0.9-0.6L194.3,329.3z
		"/>
	<path class="st4" d="M196.3,318.6h1.3v7.5c0-0.1,0.1-0.1,0.1-0.2s0.1-0.1,0.1-0.2l2.8-3.2h1.6l-3.1,3.5l3.5,4.3H201l-2.8-3.3
		l-0.7,0.8v2.5h-1.3v-11.7H196.3z"/>
</g>
<line class="st6" x1="299.6" y1="441.8" x2="299.6" y2="484.4"/>
<polygon class="st4" points="299.6,491.3 303.5,480.5 299.6,484.4 295.7,480.5 "/>
<rect x="260.4" y="446.8" class="st2" width="78.4" height="18.7"/>
<g class="st3">
	<path class="st4" d="M265.3,451.7v-1.2h8.6v1.2h-3.6v10.5h-1.4v-10.5H265.3z"/>
</g>
<g class="st3">
	<path class="st4" d="M274,459.9c0-0.8,0.3-1.4,0.9-1.9s1.4-0.7,2.5-0.7c0.7,0,1.4,0.1,2.1,0.3v-0.1c0-0.7-0.2-1.2-0.6-1.6
		s-0.9-0.6-1.6-0.6s-1.4,0.2-2.2,0.7l-0.5-1.1c0.5-0.3,1-0.5,1.4-0.6s0.9-0.2,1.4-0.2c1,0,1.8,0.3,2.4,0.9s0.9,1.4,0.9,2.4v4.6h-1.2
		l-0.1-1.2c-0.3,0.4-0.6,0.7-1.1,1c-0.4,0.2-1,0.3-1.6,0.3c-0.8,0-1.5-0.2-2.1-0.7C274.2,461.2,274,460.6,274,459.9z M277.5,458.5
		c-0.7,0-1.2,0.1-1.6,0.4c-0.4,0.2-0.6,0.6-0.6,1s0.2,0.7,0.5,1s0.7,0.4,1.2,0.4s0.9-0.1,1.2-0.3c0.4-0.2,0.7-0.5,0.9-0.8
		c0.2-0.3,0.3-0.7,0.3-1.1v-0.2C278.8,458.6,278.1,458.5,277.5,458.5z"/>
</g>
<text transform="matrix(1 0 0 1 281.79 462.21)" class="st4 st11 st12">k</text>
<g class="st3">
	<path class="st4" d="M298.3,458.3v0.5h-6.6c0.1,0.7,0.5,1.3,1,1.7s1.2,0.7,1.9,0.7c0.4,0,0.9-0.1,1.3-0.2s0.9-0.4,1.3-0.8l0.8,1
		c-0.6,0.5-1.1,0.8-1.7,1s-1.1,0.3-1.6,0.3c-0.8,0-1.6-0.2-2.2-0.5s-1.2-0.8-1.5-1.5s-0.6-1.3-0.6-2.1c0-0.8,0.2-1.5,0.5-2.1
		s0.8-1.1,1.4-1.4s1.3-0.5,2.1-0.5s1.5,0.2,2,0.5s1.1,0.8,1.4,1.4S298.3,457.5,298.3,458.3z M291.6,457.7h5.3
		c-0.1-0.7-0.4-1.2-0.9-1.7s-1.1-0.6-1.7-0.6c-0.7,0-1.3,0.2-1.8,0.7S291.8,457.1,291.6,457.7z"/>
	<path class="st4" d="M305.1,454.4v-2h1.3v2h2.1v1.2h-2.1v4.2c0,1,0.4,1.4,1.3,1.4c0.1,0,0.3,0,0.4,0s0.3-0.1,0.4-0.1v1.1
		c-0.1,0.1-0.3,0.1-0.5,0.1s-0.4,0.1-0.6,0.1c-0.7,0-1.3-0.2-1.7-0.6s-0.6-1-0.6-1.9v-4.3h-1.3v-1.2L305.1,454.4L305.1,454.4z"/>
	<path class="st4" d="M310.2,458.3c0-0.8,0.2-1.5,0.5-2.1s0.8-1.1,1.4-1.4s1.3-0.5,2.1-0.5s1.5,0.2,2.1,0.5s1.1,0.8,1.4,1.4
		s0.5,1.3,0.5,2.1s-0.2,1.5-0.5,2.1s-0.8,1.1-1.4,1.4s-1.3,0.5-2.1,0.5s-1.5-0.2-2.1-0.5s-1.1-0.8-1.4-1.4S310.2,459.1,310.2,458.3z
		 M311.5,458.3c0,0.6,0.1,1,0.4,1.5s0.6,0.8,1,1s0.9,0.4,1.4,0.4s1-0.1,1.4-0.4s0.7-0.6,1-1s0.4-0.9,0.4-1.5s-0.1-1.1-0.4-1.5
		s-0.6-0.8-1-1s-0.9-0.4-1.4-0.4s-1,0.1-1.4,0.4s-0.7,0.6-1,1S311.5,457.7,311.5,458.3z"/>
	<path class="st4" d="M321.4,454.4v4.2c0,0.8,0.2,1.4,0.6,1.8s0.9,0.7,1.6,0.7c0.4,0,0.8-0.1,1.2-0.3s0.6-0.5,0.8-0.9
		s0.3-0.8,0.3-1.3v-4.3h1.3v7.8H326V461c-0.3,0.4-0.7,0.8-1.1,1s-1,0.4-1.5,0.4c-0.6,0-1.2-0.2-1.7-0.5s-0.9-0.7-1.1-1.3
		s-0.4-1.2-0.4-1.8v-4.4L321.4,454.4L321.4,454.4z"/>
	<path class="st4" d="M329.7,462.2v-7.8h1.2l0.1,1.2c0.3-0.4,0.6-0.8,1-1s0.9-0.4,1.5-0.4c0.2,0,0.5,0,0.7,0.1l-0.2,1.2
		c-0.3-0.1-0.5-0.1-0.7-0.1c-0.7,0-1.3,0.3-1.7,0.8s-0.6,1.2-0.6,2v4L329.7,462.2L329.7,462.2z"/>
</g>
<g>
	<g>
		<defs>
			<rect id="SVGID_11_" x="-60.7" y="19.8" width="526.9" height="647.9"/>
		</defs>
		<clipPath id="SVGID_12_">
			<use xlink:href="#SVGID_11_"  style="overflow:visible;"/>
		</clipPath>
		<g class="st13">
			<path class="st2" d="M239.3,399.1h120.6c5.9,0,10.6,4.7,10.6,10.6v21c0,5.9-4.7,10.6-10.6,10.6H239.3c-5.9,0-10.6-4.7-10.6-10.6
				v-21C228.7,403.9,233.5,399.1,239.3,399.1z"/>
		</g>
	</g>
</g>
<g class="st3">
	<path class="st4" d="M263.8,414.5h1.4l3,10.4l3-10.4h1.7l3,10.4l3-10.4h1.4l-3.4,11.7h-2.1l-2.8-9.8l-2.8,9.8h-2.1L263.8,414.5z"/>
</g>
<g class="st3">
	<path class="st4" d="M288.9,422.3v0.5h-6.6c0.1,0.7,0.5,1.3,1,1.7s1.2,0.7,1.9,0.7c0.4,0,0.9-0.1,1.3-0.2s0.9-0.4,1.3-0.8l0.8,1
		c-0.6,0.5-1.1,0.8-1.7,1s-1.1,0.3-1.6,0.3c-0.8,0-1.6-0.2-2.2-0.5s-1.2-0.8-1.5-1.5c-0.4-0.6-0.6-1.3-0.6-2.1
		c0-0.8,0.2-1.5,0.5-2.1s0.8-1.1,1.4-1.4s1.3-0.5,2.1-0.5c0.8,0,1.5,0.2,2,0.5s1.1,0.8,1.4,1.4C288.8,420.9,288.9,421.5,288.9,422.3
		z M282.3,421.8h5.3c-0.1-0.7-0.4-1.2-0.9-1.7c-0.5-0.4-1.1-0.6-1.7-0.6c-0.7,0-1.3,0.2-1.8,0.7
		C282.7,420.5,282.4,421.1,282.3,421.8z"/>
	<path class="st4" d="M292.2,414.2v12h-1.3v-12H292.2z"/>
	<path class="st4" d="M301.1,425.2c-0.4,0.4-0.8,0.6-1.3,0.9c-0.5,0.2-1,0.3-1.6,0.3c-0.8,0-1.5-0.2-2.1-0.5
		c-0.6-0.4-1.1-0.8-1.4-1.4s-0.5-1.3-0.5-2.1s0.2-1.5,0.5-2.1s0.8-1.1,1.4-1.4c0.6-0.4,1.3-0.5,2.1-0.5c0.6,0,1.1,0.1,1.6,0.3
		c0.5,0.2,0.9,0.5,1.3,0.8l-0.9,0.9c-0.2-0.3-0.5-0.5-0.9-0.6s-0.7-0.2-1.1-0.2c-0.5,0-1,0.1-1.4,0.4c-0.4,0.2-0.7,0.6-1,1
		c-0.2,0.4-0.4,0.9-0.4,1.5s0.1,1,0.4,1.5c0.2,0.4,0.6,0.8,1,1s0.9,0.4,1.4,0.4c0.4,0,0.8-0.1,1.1-0.2s0.6-0.4,0.9-0.6L301.1,425.2z
		"/>
	<path class="st4" d="M302.5,422.3c0-0.8,0.2-1.5,0.5-2.1s0.8-1.1,1.4-1.4c0.6-0.4,1.3-0.5,2.1-0.5s1.5,0.2,2.1,0.5
		c0.6,0.4,1.1,0.8,1.4,1.4s0.5,1.3,0.5,2.1s-0.2,1.5-0.5,2.1s-0.8,1.1-1.4,1.4c-0.6,0.4-1.3,0.5-2.1,0.5s-1.5-0.2-2.1-0.5
		c-0.6-0.4-1.1-0.8-1.4-1.4S302.5,423.1,302.5,422.3z M303.9,422.3c0,0.6,0.1,1,0.4,1.5c0.2,0.4,0.6,0.8,1,1s0.9,0.4,1.4,0.4
		s1-0.1,1.4-0.4c0.4-0.2,0.7-0.6,1-1c0.2-0.4,0.4-0.9,0.4-1.5s-0.1-1.1-0.4-1.5c-0.2-0.4-0.6-0.8-1-1s-0.9-0.4-1.4-0.4
		s-1,0.1-1.4,0.4c-0.4,0.2-0.7,0.6-1,1C304,421.3,303.9,421.8,303.9,422.3z"/>
	<path class="st4" d="M313.8,418.4l0.1,0.9c0.3-0.3,0.7-0.6,1.1-0.8s0.9-0.3,1.4-0.3c0.6,0,1.1,0.1,1.6,0.4s0.8,0.7,1.1,1.2
		c0.3-0.5,0.7-0.9,1.2-1.2s1-0.4,1.6-0.4s1.1,0.1,1.6,0.4s0.8,0.7,1.1,1.2c0.3,0.5,0.4,1.1,0.4,1.8v4.5h-1.3v-4.4
		c0-0.5-0.1-1-0.3-1.4c-0.2-0.4-0.5-0.6-0.8-0.8c-0.3-0.2-0.6-0.3-1-0.3c-0.3,0-0.7,0.1-1,0.3c-0.3,0.2-0.6,0.5-0.8,0.8
		c-0.2,0.4-0.3,0.8-0.3,1.4v4.3h-1.3v-4.4c0-0.5-0.1-1-0.3-1.4c-0.2-0.4-0.5-0.6-0.8-0.8c-0.3-0.2-0.6-0.3-1-0.3
		c-0.3,0-0.7,0.1-1,0.3c-0.3,0.2-0.6,0.5-0.8,0.8s-0.3,0.8-0.3,1.4v4.3h-1.3v-7.8h1.1V418.4z"/>
	<path class="st4" d="M334.6,422.3v0.5H328c0.1,0.7,0.5,1.3,1,1.7s1.2,0.7,1.9,0.7c0.4,0,0.9-0.1,1.3-0.2s0.9-0.4,1.3-0.8l0.8,1
		c-0.6,0.5-1.1,0.8-1.7,1s-1.1,0.3-1.6,0.3c-0.8,0-1.6-0.2-2.2-0.5s-1.2-0.8-1.5-1.5c-0.4-0.6-0.6-1.3-0.6-2.1
		c0-0.8,0.2-1.5,0.5-2.1s0.8-1.1,1.4-1.4s1.3-0.5,2.1-0.5c0.8,0,1.5,0.2,2,0.5s1.1,0.8,1.4,1.4C334.4,420.9,334.6,421.5,334.6,422.3
		z M327.9,421.8h5.3c-0.1-0.7-0.4-1.2-0.9-1.7c-0.5-0.4-1.1-0.6-1.7-0.6c-0.7,0-1.3,0.2-1.8,0.7C328.3,420.5,328,421.1,327.9,421.8z
		"/>
</g>
<g>
	<g>
		<defs>
			<rect id="SVGID_13_" x="-60.7" y="19.8" width="526.9" height="647.9"/>
		</defs>
		<clipPath id="SVGID_14_">
			<use xlink:href="#SVGID_13_"  style="overflow:visible;"/>
		</clipPath>
		<g class="st14">
			<path class="st6" d="M239.3,399.1h120.6c5.9,0,10.6,4.7,10.6,10.6v21c0,5.9-4.7,10.6-10.6,10.6H239.3c-5.9,0-10.6-4.7-10.6-10.6
				v-21C228.7,403.9,233.5,399.1,239.3,399.1z"/>
		</g>
	</g>
</g>
<line class="st6" x1="227.7" y1="420.2" x2="106.5" y2="420.2"/>
<polygon class="st4" points="99.6,420.2 110.3,424.1 106.5,420.2 110.3,416.3 "/>
<rect x="156.1" y="415.1" class="st2" width="58.6" height="12"/>
<g class="st3">
	<path class="st4" d="M171.3,424.9c0.4,0.4,0.9,0.7,1.4,0.9c0.5,0.2,1,0.3,1.5,0.3s0.9-0.1,1.3-0.2c0.4-0.2,0.7-0.4,1-0.7
		c0.2-0.3,0.4-0.7,0.4-1.1s-0.1-0.8-0.4-1.1c-0.3-0.3-0.6-0.6-1-0.8c-0.4-0.2-0.8-0.4-1.3-0.6c-0.4-0.2-0.8-0.4-1.1-0.5
		s-0.7-0.4-1-0.7s-0.5-0.5-0.7-0.9c-0.2-0.3-0.3-0.7-0.3-1.2c0-0.6,0.2-1.2,0.5-1.6c0.3-0.5,0.8-0.8,1.3-1c0.6-0.2,1.2-0.4,1.9-0.4
		c0.5,0,0.9,0.1,1.4,0.2s1,0.3,1.5,0.5l-0.6,1.2c-0.4-0.2-0.7-0.4-1.1-0.5s-0.8-0.1-1.1-0.1c-0.7,0-1.2,0.2-1.7,0.5
		s-0.7,0.7-0.7,1.3c0,0.4,0.1,0.7,0.4,1c0.2,0.3,0.6,0.5,0.9,0.7c0.4,0.2,0.8,0.4,1.2,0.6s0.8,0.4,1.2,0.6s0.7,0.4,1.1,0.7
		c0.3,0.3,0.6,0.6,0.8,0.9s0.3,0.8,0.3,1.3c0,0.7-0.2,1.2-0.5,1.8c-0.4,0.5-0.8,0.9-1.5,1.2c-0.6,0.3-1.3,0.4-2.1,0.4
		c-0.6,0-1.2-0.1-1.8-0.3s-1.2-0.5-1.7-0.9L171.3,424.9z"/>
	<path class="st4" d="M180.4,415.4h1.3v7.5c0-0.1,0.1-0.1,0.1-0.2s0.1-0.1,0.1-0.2l2.8-3.2h1.6l-3.1,3.5l3.5,4.3h-1.6l-2.8-3.3
		l-0.7,0.8v2.5h-1.3L180.4,415.4L180.4,415.4z"/>
	<path class="st4" d="M188.1,416.3c0-0.3,0.1-0.5,0.3-0.6c0.2-0.2,0.4-0.3,0.6-0.3c0.3,0,0.5,0.1,0.6,0.3s0.3,0.4,0.3,0.6
		c0,0.3-0.1,0.5-0.3,0.6s-0.4,0.3-0.6,0.3c-0.3,0-0.5-0.1-0.6-0.3C188.1,416.8,188.1,416.6,188.1,416.3z M188.3,427.1v-7.8h1.3v7.8
		H188.3z"/>
	<path class="st4" d="M193.3,419.3l0.1,1.1c0.4-0.4,0.8-0.7,1.3-0.9c0.5-0.2,1-0.3,1.6-0.3c0.8,0,1.4,0.2,2,0.5s1.1,0.8,1.4,1.4
		c0.3,0.6,0.5,1.3,0.5,2.1s-0.2,1.5-0.5,2.1s-0.8,1.1-1.4,1.4s-1.3,0.5-2,0.5c-0.6,0-1.1-0.1-1.6-0.3c-0.5-0.2-0.9-0.5-1.3-0.9v4.9
		h-1.3v-11.7L193.3,419.3L193.3,419.3z M196.1,426.1c0.5,0,1-0.1,1.4-0.4c0.4-0.2,0.7-0.6,1-1c0.2-0.4,0.4-0.9,0.4-1.5
		s-0.1-1.1-0.4-1.5c-0.2-0.4-0.6-0.8-1-1s-0.9-0.4-1.4-0.4s-1,0.1-1.4,0.4c-0.4,0.2-0.7,0.6-1,1c-0.2,0.4-0.4,0.9-0.4,1.5
		s0.1,1,0.4,1.5c0.2,0.4,0.6,0.8,1,1C195.1,426,195.6,426.1,196.1,426.1z"/>
</g>
<line class="st6" x1="299.6" y1="535.5" x2="299.6" y2="578"/>
<polygon class="st4" points="299.6,584.9 303.5,574.2 299.6,578 295.7,574.2 "/>
<rect x="260.4" y="540.5" class="st2" width="78.4" height="18.7"/>
<g class="st3">
	<path class="st4" d="M275.4,553.4l1,1c-0.5,0.5-1.2,1-1.9,1.3c-0.7,0.3-1.6,0.5-2.4,0.5c-0.9,0-1.7-0.2-2.4-0.5s-1.4-0.7-1.9-1.3
		s-1-1.2-1.3-1.9s-0.5-1.6-0.5-2.4s0.2-1.7,0.5-2.4s0.7-1.4,1.3-1.9s1.2-1,1.9-1.3s1.6-0.5,2.4-0.5c0.9,0,1.7,0.2,2.4,0.5
		c0.7,0.3,1.4,0.7,1.9,1.3l-1,1c-0.4-0.4-0.9-0.8-1.5-1.1s-1.2-0.4-1.9-0.4c-0.9,0-1.7,0.2-2.4,0.6c-0.7,0.4-1.3,1-1.7,1.7
		c-0.4,0.7-0.6,1.6-0.6,2.5s0.2,1.8,0.6,2.5s1,1.3,1.7,1.7s1.5,0.6,2.4,0.6c0.7,0,1.3-0.1,1.9-0.4
		C274.4,554.2,275,553.8,275.4,553.4z"/>
</g>
<g class="st3">
	<path class="st4" d="M277.7,551.9c0-0.8,0.2-1.5,0.5-2.1s0.8-1.1,1.4-1.4s1.3-0.5,2.1-0.5s1.5,0.2,2.1,0.5s1.1,0.8,1.4,1.4
		s0.5,1.3,0.5,2.1s-0.2,1.5-0.5,2.1s-0.8,1.1-1.4,1.4s-1.3,0.5-2.1,0.5s-1.5-0.2-2.1-0.5s-1.1-0.8-1.4-1.4S277.7,552.7,277.7,551.9z
		 M279,551.9c0,0.6,0.1,1,0.4,1.5s0.6,0.8,1,1s0.9,0.4,1.4,0.4s1-0.1,1.4-0.4s0.7-0.6,1-1s0.4-0.9,0.4-1.5s-0.1-1.1-0.4-1.5
		s-0.6-0.8-1-1s-0.9-0.4-1.4-0.4s-1,0.1-1.4,0.4s-0.7,0.6-1,1S279,551.4,279,551.9z"/>
</g>
<g class="st3">
	<path class="st4" d="M287.7,555.9V548h1.2l0.1,1.2c0.3-0.4,0.7-0.8,1.1-1s0.9-0.4,1.5-0.4s1.2,0.2,1.7,0.5s0.9,0.7,1.1,1.3
		c0.3,0.5,0.4,1.2,0.4,1.8v4.4h-1.3v-4.2c0-0.8-0.2-1.4-0.6-1.8c-0.4-0.5-0.9-0.7-1.6-0.7c-0.4,0-0.8,0.1-1.2,0.3
		c-0.3,0.2-0.6,0.5-0.8,0.9s-0.3,0.8-0.3,1.3v4.3L287.7,555.9L287.7,555.9z"/>
</g>
<g class="st3">
	<path class="st4" d="M297.9,548v-2h1.3v2h2.1v1.2h-2.1v4.2c0,1,0.4,1.4,1.3,1.4c0.1,0,0.3,0,0.4,0s0.3-0.1,0.4-0.1v1.1
		c-0.1,0.1-0.3,0.1-0.5,0.1s-0.4,0.1-0.6,0.1c-0.7,0-1.3-0.2-1.7-0.6c-0.4-0.4-0.6-1-0.6-1.9v-4.3h-1.3V548H297.9z"/>
</g>
<g class="st3">
	<path class="st4" d="M303,545c0-0.3,0.1-0.5,0.3-0.6c0.2-0.2,0.4-0.3,0.6-0.3c0.3,0,0.5,0.1,0.6,0.3s0.3,0.4,0.3,0.6
		c0,0.3-0.1,0.5-0.3,0.6s-0.4,0.3-0.6,0.3c-0.3,0-0.5-0.1-0.6-0.3C303.1,545.5,303,545.3,303,545z M303.2,555.9V548h1.3v7.8h-1.3
		V555.9z"/>
</g>
<g class="st3">
	<path class="st4" d="M307,555.9V548h1.2l0.1,1.2c0.3-0.4,0.7-0.8,1.1-1s0.9-0.4,1.5-0.4s1.2,0.2,1.7,0.5s0.9,0.7,1.1,1.3
		c0.3,0.5,0.4,1.2,0.4,1.8v4.4h-1.3v-4.2c0-0.8-0.2-1.4-0.6-1.8c-0.4-0.5-0.9-0.7-1.6-0.7c-0.4,0-0.8,0.1-1.2,0.3
		c-0.3,0.2-0.6,0.5-0.8,0.9s-0.3,0.8-0.3,1.3v4.3L307,555.9L307,555.9z"/>
</g>
<g class="st3">
	<path class="st4" d="M317.6,548v4.2c0,0.8,0.2,1.4,0.6,1.8s0.9,0.7,1.6,0.7c0.4,0,0.8-0.1,1.2-0.3s0.6-0.5,0.8-0.9s0.3-0.8,0.3-1.3
		V548h1.3v7.8h-1.2l-0.1-1.2c-0.3,0.4-0.7,0.8-1.1,1s-1,0.4-1.5,0.4c-0.6,0-1.2-0.2-1.7-0.5s-0.9-0.7-1.1-1.3s-0.4-1.2-0.4-1.8V548
		H317.6z"/>
	<path class="st4" d="M333.3,551.9v0.5h-6.6c0.1,0.7,0.5,1.3,1,1.7s1.2,0.7,1.9,0.7c0.4,0,0.9-0.1,1.3-0.2s0.9-0.4,1.3-0.8l0.8,1
		c-0.6,0.5-1.1,0.8-1.7,1s-1.1,0.3-1.6,0.3c-0.8,0-1.6-0.2-2.2-0.5s-1.2-0.8-1.5-1.5s-0.6-1.3-0.6-2.1s0.2-1.5,0.5-2.1
		s0.8-1.1,1.4-1.4s1.3-0.5,2.1-0.5s1.5,0.2,2,0.5s1.1,0.8,1.4,1.4S333.3,551.1,333.3,551.9z M326.7,551.4h5.3
		c-0.1-0.7-0.4-1.2-0.9-1.7s-1.1-0.6-1.7-0.6c-0.7,0-1.3,0.2-1.8,0.7S326.8,550.7,326.7,551.4z"/>
</g>
<g>
	<g>
		<defs>
			<rect id="SVGID_15_" x="-60.7" y="19.8" width="526.9" height="647.9"/>
		</defs>
		<clipPath id="SVGID_16_">
			<use xlink:href="#SVGID_15_"  style="overflow:visible;"/>
		</clipPath>
		<g class="st15">
			<path class="st2" d="M239.3,492.8h120.6c5.9,0,10.6,4.7,10.6,10.6v21c0,5.9-4.7,10.6-10.6,10.6H239.3c-5.9,0-10.6-4.7-10.6-10.6
				v-21C228.7,497.5,233.5,492.8,239.3,492.8z"/>
		</g>
	</g>
</g>
<g class="st3">
	<path class="st4" d="M257.6,519.9h-3.2v-11.7h3.2c2.3,0,4.1,0.5,5.3,1.5s1.9,2.5,1.9,4.3c0,1.9-0.6,3.3-1.9,4.3
		S259.9,519.9,257.6,519.9z M257.6,518.7c1.9,0,3.3-0.4,4.3-1.2s1.5-1.9,1.5-3.4s-0.5-2.6-1.5-3.4s-2.4-1.2-4.3-1.2h-1.8v9.2
		L257.6,518.7L257.6,518.7z"/>
	<path class="st4" d="M274.1,516v0.5h-6.6c0.1,0.7,0.5,1.3,1,1.7s1.2,0.7,1.9,0.7c0.4,0,0.9-0.1,1.3-0.2s0.9-0.4,1.3-0.8l0.8,1
		c-0.6,0.5-1.1,0.8-1.7,1s-1.1,0.3-1.6,0.3c-0.8,0-1.6-0.2-2.2-0.5s-1.2-0.8-1.5-1.5c-0.4-0.6-0.6-1.3-0.6-2.1s0.2-1.5,0.5-2.1
		s0.8-1.1,1.4-1.4s1.3-0.5,2.1-0.5c0.8,0,1.5,0.2,2,0.5s1.1,0.8,1.4,1.4C273.9,514.5,274.1,515.2,274.1,516z M267.4,515.4h5.3
		c-0.1-0.7-0.4-1.2-0.9-1.7c-0.5-0.4-1.1-0.6-1.7-0.6c-0.7,0-1.3,0.2-1.8,0.7C267.8,514.2,267.5,514.7,267.4,515.4z"/>
	<path class="st4" d="M275.6,519.1l0.6-1.1c0.6,0.6,1.3,0.8,2,0.8c0.4,0,0.8-0.1,1-0.3s0.4-0.5,0.4-0.8c0-0.4-0.2-0.7-0.5-0.9
		s-0.7-0.4-1.1-0.6c-0.3-0.2-0.7-0.3-1-0.5s-0.6-0.4-0.8-0.7c-0.2-0.3-0.3-0.6-0.3-1.1c0-0.6,0.2-1.1,0.7-1.5s1.1-0.6,1.8-0.6
		c0.4,0,0.8,0.1,1.2,0.2c0.4,0.1,0.7,0.3,1,0.5l-0.5,1c-0.3-0.2-0.6-0.3-0.8-0.3c-0.2-0.1-0.5-0.1-0.8-0.1c-0.4,0-0.7,0.1-0.9,0.2
		c-0.2,0.2-0.3,0.4-0.3,0.6c0,0.3,0.1,0.6,0.4,0.8s0.6,0.4,1,0.6c0.3,0.2,0.7,0.3,1,0.5s0.6,0.4,0.8,0.7c0.2,0.3,0.3,0.7,0.3,1.1
		c0,0.5-0.1,0.9-0.4,1.2s-0.6,0.6-1,0.8s-0.9,0.3-1.4,0.3s-0.9-0.1-1.4-0.2C276.3,519.6,275.9,519.4,275.6,519.1z"/>
	<path class="st4" d="M289.3,518.9c-0.4,0.4-0.8,0.6-1.3,0.9c-0.5,0.2-1,0.3-1.6,0.3c-0.8,0-1.5-0.2-2.1-0.5
		c-0.6-0.4-1.1-0.8-1.4-1.4s-0.5-1.3-0.5-2.1s0.2-1.5,0.5-2.1s0.8-1.1,1.4-1.4c0.6-0.4,1.3-0.5,2.1-0.5c0.6,0,1.1,0.1,1.6,0.3
		s0.9,0.5,1.3,0.8l-0.9,0.9c-0.2-0.3-0.5-0.5-0.9-0.6s-0.7-0.2-1.1-0.2c-0.5,0-1,0.1-1.4,0.4c-0.4,0.2-0.7,0.6-1,1
		c-0.2,0.4-0.4,0.9-0.4,1.5s0.1,1,0.4,1.5c0.2,0.4,0.6,0.8,1,1s0.9,0.4,1.4,0.4c0.4,0,0.8-0.1,1.1-0.2s0.6-0.4,0.9-0.6L289.3,518.9z
		"/>
	<path class="st4" d="M291.2,519.9v-7.8h1.2l0.1,1.2c0.3-0.4,0.6-0.8,1-1c0.4-0.3,0.9-0.4,1.5-0.4c0.2,0,0.5,0,0.7,0.1l-0.2,1.2
		c-0.3-0.1-0.5-0.1-0.7-0.1c-0.7,0-1.3,0.3-1.7,0.8c-0.4,0.5-0.6,1.2-0.6,2v4L291.2,519.9L291.2,519.9z"/>
	<path class="st4" d="M296.7,509.1c0-0.3,0.1-0.5,0.3-0.6c0.2-0.2,0.4-0.3,0.6-0.3c0.3,0,0.5,0.1,0.6,0.3s0.3,0.4,0.3,0.6
		c0,0.3-0.1,0.5-0.3,0.6s-0.4,0.3-0.6,0.3c-0.3,0-0.5-0.1-0.6-0.3C296.8,509.5,296.7,509.3,296.7,509.1z M297,519.9v-7.8h1.3v7.8
		H297z"/>
</g>
<g class="st3">
	<path class="st4" d="M302,512.1l0.1,1.1c0.4-0.4,0.8-0.7,1.3-0.9s1-0.3,1.6-0.3c0.8,0,1.4,0.2,2,0.5s1.1,0.8,1.4,1.4
		c0.3,0.6,0.5,1.3,0.5,2.1s-0.2,1.5-0.5,2.1s-0.8,1.1-1.4,1.4s-1.3,0.5-2,0.5c-0.6,0-1.1-0.1-1.6-0.3s-0.9-0.5-1.3-0.9v4.9h-1.3V512
		h1.2V512.1z M304.8,518.9c0.5,0,1-0.1,1.4-0.4c0.4-0.2,0.7-0.6,1-1c0.2-0.4,0.4-0.9,0.4-1.5s-0.1-1.1-0.4-1.5c-0.2-0.4-0.6-0.8-1-1
		s-0.9-0.4-1.4-0.4s-1,0.1-1.4,0.4c-0.4,0.2-0.7,0.6-1,1c-0.2,0.4-0.4,0.9-0.4,1.5s0.1,1,0.4,1.5c0.2,0.4,0.6,0.8,1,1
		S304.3,518.9,304.8,518.9z"/>
</g>
<text transform="matrix(1 0 0 1 309.52 519.89)" class="st4 st11 st12">t</text>
<g class="st3">
	<path class="st4" d="M316.7,509.1c0-0.3,0.1-0.5,0.3-0.6s0.4-0.3,0.6-0.3c0.3,0,0.5,0.1,0.6,0.3s0.3,0.4,0.3,0.6
		c0,0.3-0.1,0.5-0.3,0.6s-0.4,0.3-0.6,0.3c-0.3,0-0.5-0.1-0.6-0.3S316.7,509.3,316.7,509.1z M317,519.9v-7.8h1.3v7.8H317z"/>
	<path class="st4" d="M320.2,516c0-0.8,0.2-1.5,0.5-2.1s0.8-1.1,1.4-1.4s1.3-0.5,2.1-0.5s1.5,0.2,2.1,0.5s1.1,0.8,1.4,1.4
		s0.5,1.3,0.5,2.1s-0.2,1.5-0.5,2.1s-0.8,1.1-1.4,1.4s-1.3,0.5-2.1,0.5s-1.5-0.2-2.1-0.5s-1.1-0.8-1.4-1.4S320.2,516.8,320.2,516z
		 M321.5,516c0,0.6,0.1,1,0.4,1.5s0.6,0.8,1,1s0.9,0.4,1.4,0.4s1-0.1,1.4-0.4s0.7-0.6,1-1s0.4-0.9,0.4-1.5s-0.1-1.1-0.4-1.5
		s-0.6-0.8-1-1s-0.9-0.4-1.4-0.4s-1,0.1-1.4,0.4s-0.7,0.6-1,1S321.5,515.4,321.5,516z"/>
	<path class="st4" d="M330.3,519.9v-7.8h1.2l0.1,1.2c0.3-0.4,0.7-0.8,1.1-1s0.9-0.4,1.5-0.4s1.2,0.2,1.7,0.5s0.9,0.7,1.1,1.3
		s0.4,1.2,0.4,1.8v4.4h-1.3v-4.2c0-0.8-0.2-1.4-0.6-1.8s-0.9-0.7-1.6-0.7c-0.4,0-0.8,0.1-1.2,0.3s-0.6,0.5-0.8,0.9s-0.3,0.8-0.3,1.3
		v4.3L330.3,519.9L330.3,519.9z"/>
	<path class="st4" d="M339.3,519.1l0.6-1.1c0.6,0.6,1.3,0.8,2,0.8c0.4,0,0.8-0.1,1-0.3s0.4-0.5,0.4-0.8c0-0.4-0.2-0.7-0.5-0.9
		s-0.7-0.4-1.1-0.6c-0.3-0.2-0.7-0.3-1-0.5s-0.6-0.4-0.8-0.7s-0.3-0.6-0.3-1.1c0-0.6,0.2-1.1,0.7-1.5s1.1-0.6,1.8-0.6
		c0.4,0,0.8,0.1,1.2,0.2s0.7,0.3,1,0.5l-0.5,1c-0.3-0.2-0.6-0.3-0.8-0.3s-0.5-0.1-0.8-0.1c-0.4,0-0.7,0.1-0.9,0.2s-0.3,0.4-0.3,0.6
		c0,0.3,0.1,0.6,0.4,0.8s0.6,0.4,1,0.6c0.3,0.2,0.7,0.3,1,0.5s0.6,0.4,0.8,0.7s0.3,0.7,0.3,1.1c0,0.5-0.1,0.9-0.4,1.2
		s-0.6,0.6-1,0.8s-0.9,0.3-1.4,0.3s-0.9-0.1-1.4-0.2S339.6,519.4,339.3,519.1z"/>
</g>
<g>
	<g>
		<defs>
			<rect id="SVGID_17_" x="-60.7" y="19.8" width="526.9" height="647.9"/>
		</defs>
		<clipPath id="SVGID_18_">
			<use xlink:href="#SVGID_17_"  style="overflow:visible;"/>
		</clipPath>
		<g class="st16">
			<path class="st6" d="M239.3,492.8h120.6c5.9,0,10.6,4.7,10.6,10.6v21c0,5.9-4.7,10.6-10.6,10.6H239.3c-5.9,0-10.6-4.7-10.6-10.6
				v-21C228.7,497.5,233.5,492.8,239.3,492.8z"/>
		</g>
	</g>
</g>
<line class="st6" x1="227.7" y1="513.9" x2="106.5" y2="513.9"/>
<polygon class="st4" points="99.6,513.9 110.3,517.8 106.5,513.9 110.3,510 "/>
<rect x="156.1" y="504.5" class="st2" width="64.5" height="18.7"/>
<path class="st4" d="M172.7,517.4l1,1c-0.5,0.5-1.2,1-1.9,1.3s-1.6,0.5-2.4,0.5c-0.9,0-1.7-0.2-2.4-0.5s-1.4-0.7-1.9-1.3
	s-1-1.2-1.3-1.9s-0.5-1.6-0.5-2.4s0.2-1.7,0.5-2.4c0.3-0.7,0.7-1.4,1.3-1.9s1.2-1,1.9-1.3s1.6-0.5,2.4-0.5c0.9,0,1.7,0.2,2.4,0.5
	s1.4,0.7,1.9,1.3l-1,1c-0.4-0.4-0.9-0.8-1.5-1.1c-0.6-0.3-1.2-0.4-1.9-0.4c-0.9,0-1.7,0.2-2.4,0.6s-1.3,1-1.7,1.7
	c-0.4,0.7-0.6,1.6-0.6,2.5c0,0.9,0.2,1.8,0.6,2.5c0.4,0.7,1,1.3,1.7,1.7s1.5,0.6,2.4,0.6c0.7,0,1.3-0.1,1.9-0.4
	C171.8,518.2,172.3,517.9,172.7,517.4z"/>
<path class="st4" d="M175.3,517.6c0-0.8,0.3-1.4,0.9-1.9c0.6-0.5,1.4-0.7,2.5-0.7c0.7,0,1.4,0.1,2.1,0.3v-0.1c0-0.7-0.2-1.2-0.6-1.6
	s-0.9-0.6-1.6-0.6c-0.7,0-1.4,0.2-2.2,0.7l-0.5-1.1c0.5-0.3,1-0.5,1.4-0.6c0.4-0.1,0.9-0.2,1.4-0.2c1,0,1.8,0.3,2.4,0.9
	c0.6,0.6,0.9,1.4,0.9,2.4v4.6h-1.2l-0.1-1.2c-0.3,0.4-0.6,0.7-1.1,1c-0.4,0.2-1,0.3-1.6,0.3c-0.8,0-1.5-0.2-2.1-0.7
	C175.6,518.9,175.3,518.3,175.3,517.6z M178.8,516.2c-0.7,0-1.2,0.1-1.6,0.4c-0.4,0.2-0.6,0.6-0.6,1s0.2,0.7,0.5,1s0.7,0.4,1.2,0.4
	s0.9-0.1,1.2-0.3c0.4-0.2,0.7-0.5,0.9-0.8s0.3-0.7,0.3-1.1v-0.2C180.1,516.3,179.4,516.2,178.8,516.2z"/>
<path class="st4" d="M184.4,519.9v-7.8h1.2l0.1,1.2c0.3-0.4,0.7-0.8,1.1-1c0.4-0.2,0.9-0.4,1.5-0.4s1.2,0.2,1.7,0.5s0.9,0.7,1.1,1.3
	c0.3,0.5,0.4,1.2,0.4,1.8v4.4h-1.3v-4.2c0-0.8-0.2-1.4-0.6-1.8c-0.4-0.5-0.9-0.7-1.6-0.7c-0.4,0-0.8,0.1-1.2,0.3
	c-0.3,0.2-0.6,0.5-0.8,0.9s-0.3,0.8-0.3,1.3v4.3L184.4,519.9L184.4,519.9z"/>
<path class="st4" d="M200.2,518.9c-0.4,0.4-0.8,0.6-1.3,0.9c-0.5,0.2-1,0.3-1.6,0.3c-0.8,0-1.5-0.2-2.1-0.5
	c-0.6-0.4-1.1-0.8-1.4-1.4s-0.5-1.3-0.5-2.1s0.2-1.5,0.5-2.1s0.8-1.1,1.4-1.4c0.6-0.4,1.3-0.5,2.1-0.5c0.6,0,1.1,0.1,1.6,0.3
	s0.9,0.5,1.3,0.8l-0.9,0.9c-0.2-0.3-0.5-0.5-0.9-0.6s-0.7-0.2-1.1-0.2c-0.5,0-1,0.1-1.4,0.4c-0.4,0.2-0.7,0.6-1,1
	c-0.2,0.4-0.4,0.9-0.4,1.5s0.1,1,0.4,1.5c0.2,0.4,0.6,0.8,1,1s0.9,0.4,1.4,0.4c0.4,0,0.8-0.1,1.1-0.2s0.6-0.4,0.9-0.6L200.2,518.9z"
	/>
<path class="st4" d="M209.6,516v0.5H203c0.1,0.7,0.5,1.3,1,1.7s1.2,0.7,1.9,0.7c0.4,0,0.9-0.1,1.3-0.2s0.9-0.4,1.3-0.8l0.8,1
	c-0.6,0.5-1.1,0.8-1.7,1s-1.1,0.3-1.6,0.3c-0.8,0-1.6-0.2-2.2-0.5s-1.2-0.8-1.5-1.5c-0.4-0.6-0.6-1.3-0.6-2.1s0.2-1.5,0.5-2.1
	s0.8-1.1,1.4-1.4s1.3-0.5,2.1-0.5s1.5,0.2,2,0.5s1.1,0.8,1.4,1.4S209.6,515.2,209.6,516z M203,515.4h5.3c-0.1-0.7-0.4-1.2-0.9-1.7
	s-1.1-0.6-1.7-0.6c-0.7,0-1.3,0.2-1.8,0.7C203.4,514.2,203.1,514.7,203,515.4z"/>
<path class="st4" d="M212.9,507.9v12h-1.3v-12L212.9,507.9L212.9,507.9z"/>
<rect x="-60.7" y="511.5" class="st0" width="526.9" height="587.4"/>
<g class="st3">
	<path class="st4" d="M257.6,801.5h-3.2v-11.7h3.2c2.3,0,4.1,0.5,5.3,1.5s1.9,2.5,1.9,4.3c0,1.9-0.6,3.3-1.9,4.3
		S259.9,801.5,257.6,801.5z M257.6,800.2c1.9,0,3.3-0.4,4.3-1.2s1.5-1.9,1.5-3.4s-0.5-2.6-1.5-3.4c-1-0.8-2.4-1.2-4.3-1.2h-1.8v9.2
		L257.6,800.2L257.6,800.2z"/>
	<path class="st4" d="M274.1,797.5v0.5h-6.6c0.1,0.7,0.5,1.3,1,1.7s1.2,0.7,1.9,0.7c0.4,0,0.9-0.1,1.3-0.2s0.9-0.4,1.3-0.8l0.8,1
		c-0.6,0.5-1.1,0.8-1.7,1s-1.1,0.3-1.6,0.3c-0.8,0-1.6-0.2-2.2-0.5s-1.2-0.8-1.5-1.5c-0.4-0.6-0.6-1.3-0.6-2.1s0.2-1.5,0.5-2.1
		s0.8-1.1,1.4-1.4s1.3-0.5,2.1-0.5c0.8,0,1.5,0.2,2,0.5s1.1,0.8,1.4,1.4C273.9,796.1,274.1,796.8,274.1,797.5z M267.4,797h5.3
		c-0.1-0.7-0.4-1.2-0.9-1.7c-0.5-0.4-1.1-0.6-1.7-0.6c-0.7,0-1.3,0.2-1.8,0.7C267.8,795.8,267.5,796.3,267.4,797z"/>
	<path class="st4" d="M275.6,800.7l0.6-1.1c0.6,0.6,1.3,0.8,2,0.8c0.4,0,0.8-0.1,1-0.3s0.4-0.5,0.4-0.8c0-0.4-0.2-0.7-0.5-0.9
		s-0.7-0.4-1.1-0.6c-0.3-0.2-0.7-0.3-1-0.5s-0.6-0.4-0.8-0.7c-0.2-0.3-0.3-0.6-0.3-1.1c0-0.6,0.2-1.1,0.7-1.5s1.1-0.6,1.8-0.6
		c0.4,0,0.8,0.1,1.2,0.2c0.4,0.1,0.7,0.3,1,0.5l-0.5,1c-0.3-0.2-0.6-0.3-0.8-0.3c-0.2-0.1-0.5-0.1-0.8-0.1c-0.4,0-0.7,0.1-0.9,0.2
		c-0.2,0.2-0.3,0.4-0.3,0.6c0,0.3,0.1,0.6,0.4,0.8s0.6,0.4,1,0.6c0.3,0.2,0.7,0.3,1,0.5s0.6,0.4,0.8,0.7c0.2,0.3,0.3,0.7,0.3,1.1
		c0,0.5-0.1,0.9-0.4,1.2s-0.6,0.6-1,0.8s-0.9,0.3-1.4,0.3s-0.9-0.1-1.4-0.2C276.3,801.2,275.9,801,275.6,800.7z"/>
	<path class="st4" d="M289.3,800.5c-0.4,0.4-0.8,0.6-1.3,0.9c-0.5,0.2-1,0.3-1.6,0.3c-0.8,0-1.5-0.2-2.1-0.5
		c-0.6-0.4-1.1-0.8-1.4-1.4s-0.5-1.3-0.5-2.1s0.2-1.5,0.5-2.1s0.8-1.1,1.4-1.4c0.6-0.4,1.3-0.5,2.1-0.5c0.6,0,1.1,0.1,1.6,0.3
		s0.9,0.5,1.3,0.8l-0.9,0.9c-0.2-0.3-0.5-0.5-0.9-0.6s-0.7-0.2-1.1-0.2c-0.5,0-1,0.1-1.4,0.4c-0.4,0.2-0.7,0.6-1,1
		c-0.2,0.4-0.4,0.9-0.4,1.5s0.1,1,0.4,1.5c0.2,0.4,0.6,0.8,1,1s0.9,0.4,1.4,0.4c0.4,0,0.8-0.1,1.1-0.2s0.6-0.4,0.9-0.6L289.3,800.5z
		"/>
	<path class="st4" d="M291.2,801.5v-7.8h1.2l0.1,1.2c0.3-0.4,0.6-0.8,1-1c0.4-0.3,0.9-0.4,1.5-0.4c0.2,0,0.5,0,0.7,0.1l-0.2,1.2
		c-0.3-0.1-0.5-0.1-0.7-0.1c-0.7,0-1.3,0.3-1.7,0.8c-0.4,0.5-0.6,1.2-0.6,2v4H291.2z"/>
	<path class="st4" d="M296.7,790.6c0-0.3,0.1-0.5,0.3-0.6c0.2-0.2,0.4-0.3,0.6-0.3c0.3,0,0.5,0.1,0.6,0.3s0.3,0.4,0.3,0.6
		c0,0.3-0.1,0.5-0.3,0.6s-0.4,0.3-0.6,0.3c-0.3,0-0.5-0.1-0.6-0.3C296.8,791.1,296.7,790.9,296.7,790.6z M297,801.5v-7.8h1.3v7.8
		H297z"/>
</g>
<g class="st3">
	<path class="st4" d="M302,793.6l0.1,1.1c0.4-0.4,0.8-0.7,1.3-0.9s1-0.3,1.6-0.3c0.8,0,1.4,0.2,2,0.5s1.1,0.8,1.4,1.4
		c0.3,0.6,0.5,1.3,0.5,2.1s-0.2,1.5-0.5,2.1s-0.8,1.1-1.4,1.4s-1.3,0.5-2,0.5c-0.6,0-1.1-0.1-1.6-0.3s-0.9-0.5-1.3-0.9v4.9h-1.3
		v-11.7h1.2V793.6z M304.8,800.4c0.5,0,1-0.1,1.4-0.4c0.4-0.2,0.7-0.6,1-1c0.2-0.4,0.4-0.9,0.4-1.5s-0.1-1.1-0.4-1.5
		c-0.2-0.4-0.6-0.8-1-1s-0.9-0.4-1.4-0.4s-1,0.1-1.4,0.4c-0.4,0.2-0.7,0.6-1,1c-0.2,0.4-0.4,0.9-0.4,1.5s0.1,1,0.4,1.5
		c0.2,0.4,0.6,0.8,1,1C303.8,800.3,304.3,800.4,304.8,800.4z"/>
</g>
<g class="st3">
	<path class="st4" d="M311.6,793.6v-2h1.3v2h2.1v1.2h-2.1v4.2c0,1,0.4,1.4,1.3,1.4c0.1,0,0.3,0,0.4,0s0.3-0.1,0.4-0.1v1.1
		c-0.1,0.1-0.3,0.1-0.5,0.1s-0.4,0.1-0.6,0.1c-0.7,0-1.3-0.2-1.7-0.6c-0.4-0.4-0.6-1-0.6-1.9v-4.3h-1.3v-1.2H311.6z"/>
</g>
<g class="st3">
	<path class="st4" d="M316.7,790.6c0-0.3,0.1-0.5,0.3-0.6s0.4-0.3,0.6-0.3c0.3,0,0.5,0.1,0.6,0.3s0.3,0.4,0.3,0.6
		c0,0.3-0.1,0.5-0.3,0.6s-0.4,0.3-0.6,0.3c-0.3,0-0.5-0.1-0.6-0.3S316.7,790.9,316.7,790.6z M317,801.5v-7.8h1.3v7.8H317z"/>
	<path class="st4" d="M320.2,797.6c0-0.8,0.2-1.5,0.5-2.1s0.8-1.1,1.4-1.4s1.3-0.5,2.1-0.5s1.5,0.2,2.1,0.5s1.1,0.8,1.4,1.4
		s0.5,1.3,0.5,2.1s-0.2,1.5-0.5,2.1s-0.8,1.1-1.4,1.4s-1.3,0.5-2.1,0.5s-1.5-0.2-2.1-0.5s-1.1-0.8-1.4-1.4S320.2,798.3,320.2,797.6z
		 M321.5,797.6c0,0.6,0.1,1,0.4,1.5s0.6,0.8,1,1s0.9,0.4,1.4,0.4s1-0.1,1.4-0.4s0.7-0.6,1-1s0.4-0.9,0.4-1.5s-0.1-1.1-0.4-1.5
		s-0.6-0.8-1-1s-0.9-0.4-1.4-0.4s-1,0.1-1.4,0.4s-0.7,0.6-1,1S321.5,797,321.5,797.6z"/>
	<path class="st4" d="M330.3,801.5v-7.8h1.2l0.1,1.2c0.3-0.4,0.7-0.8,1.1-1s0.9-0.4,1.5-0.4s1.2,0.2,1.7,0.5s0.9,0.7,1.1,1.3
		s0.4,1.2,0.4,1.8v4.4h-1.3v-4.2c0-0.8-0.2-1.4-0.6-1.8s-0.9-0.7-1.6-0.7c-0.4,0-0.8,0.1-1.2,0.3s-0.6,0.5-0.8,0.9s-0.3,0.8-0.3,1.3
		v4.3L330.3,801.5L330.3,801.5z"/>
	<path class="st4" d="M339.3,800.7l0.6-1.1c0.6,0.6,1.3,0.8,2,0.8c0.4,0,0.8-0.1,1-0.3s0.4-0.5,0.4-0.8c0-0.4-0.2-0.7-0.5-0.9
		s-0.7-0.4-1.1-0.6c-0.3-0.2-0.7-0.3-1-0.5s-0.6-0.4-0.8-0.7s-0.3-0.6-0.3-1.1c0-0.6,0.2-1.1,0.7-1.5s1.1-0.6,1.8-0.6
		c0.4,0,0.8,0.1,1.2,0.2s0.7,0.3,1,0.5l-0.5,1c-0.3-0.2-0.6-0.3-0.8-0.3s-0.5-0.1-0.8-0.1c-0.4,0-0.7,0.1-0.9,0.2s-0.3,0.4-0.3,0.6
		c0,0.3,0.1,0.6,0.4,0.8s0.6,0.4,1,0.6c0.3,0.2,0.7,0.3,1,0.5s0.6,0.4,0.8,0.7s0.3,0.7,0.3,1.1c0,0.5-0.1,0.9-0.4,1.2
		s-0.6,0.6-1,0.8s-0.9,0.3-1.4,0.3s-0.9-0.1-1.4-0.2S339.6,801,339.3,800.7z"/>
</g>
<g>
	<g>
		<defs>
			<rect id="SVGID_19_" x="-60.7" y="511.5" width="526.9" height="587.4"/>
		</defs>
		<clipPath id="SVGID_20_">
			<use xlink:href="#SVGID_19_"  style="overflow:visible;"/>
		</clipPath>
		<g class="st17">
			<path class="st6" d="M239.7,774.3h119.8c6.1,0,11,4.9,11,11v20.2c0,6.1-4.9,11-11,11H239.7c-6.1,0-11-4.9-11-11v-20.2
				C228.7,779.3,233.6,774.3,239.7,774.3z"/>
			<path class="st2" d="M239.7,867.5h119.8c6.1,0,11,4.9,11,11v20.2c0,6.1-4.9,11-11,11H239.7c-6.1,0-11-4.9-11-11v-20.2
				C228.7,872.4,233.6,867.5,239.7,867.5z"/>
		</g>
	</g>
</g>
<g class="st3">
	<path class="st4" d="M277.5,882.9h3.7c1.3,0,2.3,0.3,3,0.9c0.7,0.6,1.1,1.4,1.1,2.5c0,0.8-0.2,1.5-0.6,2s-1,0.9-1.8,1.1l3,5.2h-1.6
		l-2.9-5H279v5h-1.4v-11.7H277.5z M280.9,888.3c0.9,0,1.7-0.2,2.2-0.5c0.5-0.4,0.7-0.9,0.7-1.6c0-0.7-0.2-1.2-0.7-1.6
		c-0.5-0.4-1.2-0.5-2.2-0.5h-2v4.2L280.9,888.3L280.9,888.3z"/>
</g>
<g class="st3">
	<path class="st4" d="M294.9,890.7v0.5h-6.6c0.1,0.7,0.5,1.3,1,1.7s1.2,0.7,1.9,0.7c0.4,0,0.9-0.1,1.3-0.2s0.9-0.4,1.3-0.8l0.8,1
		c-0.6,0.5-1.1,0.8-1.7,1s-1.1,0.3-1.6,0.3c-0.8,0-1.6-0.2-2.2-0.5s-1.2-0.8-1.5-1.5s-0.6-1.3-0.6-2.1s0.2-1.5,0.5-2.1
		s0.8-1.1,1.4-1.4s1.3-0.5,2.1-0.5s1.5,0.2,2,0.5s1.1,0.8,1.4,1.4S294.9,889.9,294.9,890.7z M288.3,890.1h5.3
		c-0.1-0.7-0.4-1.2-0.9-1.7s-1.1-0.6-1.7-0.6c-0.7,0-1.3,0.2-1.8,0.7S288.4,889.4,288.3,890.1z"/>
	<path class="st4" d="M296.4,893.8l0.6-1.1c0.6,0.6,1.3,0.8,2,0.8c0.4,0,0.8-0.1,1-0.3s0.4-0.5,0.4-0.8c0-0.4-0.2-0.7-0.5-0.9
		s-0.7-0.4-1.1-0.6c-0.3-0.2-0.7-0.3-1-0.5s-0.6-0.4-0.8-0.7s-0.3-0.6-0.3-1.1c0-0.6,0.2-1.1,0.7-1.5s1.1-0.6,1.8-0.6
		c0.4,0,0.8,0.1,1.2,0.2s0.7,0.3,1,0.5l-0.5,1c-0.3-0.2-0.6-0.3-0.8-0.3s-0.5-0.1-0.8-0.1c-0.4,0-0.7,0.1-0.9,0.2s-0.3,0.4-0.3,0.6
		c0,0.3,0.1,0.6,0.4,0.8s0.6,0.4,1,0.6c0.3,0.2,0.7,0.3,1,0.5s0.6,0.4,0.8,0.7s0.3,0.7,0.3,1.1c0,0.5-0.1,0.9-0.4,1.2
		s-0.6,0.6-1,0.8s-0.9,0.3-1.4,0.3s-0.9-0.1-1.4-0.2S296.8,894.1,296.4,893.8z"/>
	<path class="st4" d="M304.8,886.8v4.2c0,0.8,0.2,1.4,0.6,1.8s0.9,0.7,1.6,0.7c0.4,0,0.8-0.1,1.2-0.3s0.6-0.5,0.8-0.9
		s0.3-0.8,0.3-1.3v-4.3h1.3v7.8h-1.2l-0.1-1.2c-0.3,0.4-0.7,0.8-1.1,1s-1,0.4-1.5,0.4c-0.6,0-1.2-0.2-1.7-0.5s-0.9-0.7-1.1-1.3
		s-0.4-1.2-0.4-1.8v-4.4L304.8,886.8L304.8,886.8z"/>
	<path class="st4" d="M314.5,882.6v12h-1.3v-12H314.5z"/>
	<path class="st4" d="M317.8,886.8v-2h1.3v2h2.1v1.2h-2.1v4.2c0,1,0.4,1.4,1.3,1.4c0.1,0,0.3,0,0.4,0s0.3-0.1,0.4-0.1v1.1
		c-0.1,0.1-0.3,0.1-0.5,0.1s-0.4,0.1-0.6,0.1c-0.7,0-1.3-0.2-1.7-0.6s-0.6-1-0.6-1.9V888h-1.3v-1.2H317.8z"/>
</g>
<g>
	<g>
		<defs>
			<rect id="SVGID_21_" x="-60.7" y="511.5" width="526.9" height="587.4"/>
		</defs>
		<clipPath id="SVGID_22_">
			<use xlink:href="#SVGID_21_"  style="overflow:visible;"/>
		</clipPath>
		<g class="st18">
			<path class="st6" d="M239.7,867.5h119.8c6.1,0,11,4.9,11,11v20.2c0,6.1-4.9,11-11,11H239.7c-6.1,0-11-4.9-11-11v-20.2
				C228.7,872.4,233.6,867.5,239.7,867.5z"/>
		</g>
	</g>
</g>
<line class="st6" x1="299.6" y1="816.5" x2="299.6" y2="859.1"/>
<polygon class="st4" points="299.6,866 303.5,855.3 299.6,859.1 295.7,855.3 "/>
<rect x="260.4" y="821.5" class="st2" width="78.4" height="18.7"/>
<g class="st3">
	<path class="st4" d="M275.4,834.5l1,1c-0.5,0.5-1.2,1-1.9,1.3c-0.7,0.3-1.6,0.5-2.4,0.5c-0.9,0-1.7-0.2-2.4-0.5s-1.4-0.7-1.9-1.3
		s-1-1.2-1.3-1.9s-0.5-1.6-0.5-2.4s0.2-1.7,0.5-2.4s0.7-1.4,1.3-1.9s1.2-1,1.9-1.3s1.6-0.5,2.4-0.5c0.9,0,1.7,0.2,2.4,0.5
		c0.7,0.3,1.4,0.7,1.9,1.3l-1,1c-0.4-0.4-0.9-0.8-1.5-1.1s-1.2-0.4-1.9-0.4c-0.9,0-1.7,0.2-2.4,0.6c-0.7,0.4-1.3,1-1.7,1.7
		c-0.4,0.7-0.6,1.6-0.6,2.5s0.2,1.8,0.6,2.5s1,1.3,1.7,1.7s1.5,0.6,2.4,0.6c0.7,0,1.3-0.1,1.9-0.4
		C274.4,835.3,275,834.9,275.4,834.5z"/>
</g>
<g class="st3">
	<path class="st4" d="M277.7,833c0-0.8,0.2-1.5,0.5-2.1s0.8-1.1,1.4-1.4s1.3-0.5,2.1-0.5s1.5,0.2,2.1,0.5s1.1,0.8,1.4,1.4
		s0.5,1.3,0.5,2.1s-0.2,1.5-0.5,2.1s-0.8,1.1-1.4,1.4s-1.3,0.5-2.1,0.5s-1.5-0.2-2.1-0.5s-1.1-0.8-1.4-1.4S277.7,833.8,277.7,833z
		 M279,833c0,0.6,0.1,1,0.4,1.5s0.6,0.8,1,1s0.9,0.4,1.4,0.4s1-0.1,1.4-0.4s0.7-0.6,1-1s0.4-0.9,0.4-1.5s-0.1-1.1-0.4-1.5
		s-0.6-0.8-1-1s-0.9-0.4-1.4-0.4s-1,0.1-1.4,0.4s-0.7,0.6-1,1S279,832.5,279,833z"/>
</g>
<g class="st3">
	<path class="st4" d="M287.7,836.9v-7.8h1.2l0.1,1.2c0.3-0.4,0.7-0.8,1.1-1s0.9-0.4,1.5-0.4s1.2,0.2,1.7,0.5s0.9,0.7,1.1,1.3
		c0.3,0.5,0.4,1.2,0.4,1.8v4.4h-1.3v-4.2c0-0.8-0.2-1.4-0.6-1.8c-0.4-0.5-0.9-0.7-1.6-0.7c-0.4,0-0.8,0.1-1.2,0.3
		c-0.3,0.2-0.6,0.5-0.8,0.9s-0.3,0.8-0.3,1.3v4.3L287.7,836.9L287.7,836.9z"/>
</g>
<g class="st3">
	<path class="st4" d="M297.9,829.1v-2h1.3v2h2.1v1.2h-2.1v4.2c0,1,0.4,1.4,1.3,1.4c0.1,0,0.3,0,0.4,0s0.3-0.1,0.4-0.1v1.1
		c-0.1,0.1-0.3,0.1-0.5,0.1s-0.4,0.1-0.6,0.1c-0.7,0-1.3-0.2-1.7-0.6c-0.4-0.4-0.6-1-0.6-1.9v-4.3h-1.3v-1.2H297.9z"/>
</g>
<g class="st3">
	<path class="st4" d="M303,826.1c0-0.3,0.1-0.5,0.3-0.6c0.2-0.2,0.4-0.3,0.6-0.3c0.3,0,0.5,0.1,0.6,0.3s0.3,0.4,0.3,0.6
		c0,0.3-0.1,0.5-0.3,0.6s-0.4,0.3-0.6,0.3c-0.3,0-0.5-0.1-0.6-0.3C303.1,826.6,303,826.4,303,826.1z M303.2,836.9v-7.8h1.3v7.8
		H303.2z"/>
</g>
<g class="st3">
	<path class="st4" d="M307,836.9v-7.8h1.2l0.1,1.2c0.3-0.4,0.7-0.8,1.1-1s0.9-0.4,1.5-0.4s1.2,0.2,1.7,0.5s0.9,0.7,1.1,1.3
		c0.3,0.5,0.4,1.2,0.4,1.8v4.4h-1.3v-4.2c0-0.8-0.2-1.4-0.6-1.8c-0.4-0.5-0.9-0.7-1.6-0.7c-0.4,0-0.8,0.1-1.2,0.3
		c-0.3,0.2-0.6,0.5-0.8,0.9s-0.3,0.8-0.3,1.3v4.3L307,836.9L307,836.9z"/>
</g>
<g class="st3">
	<path class="st4" d="M317.6,829.1v4.2c0,0.8,0.2,1.4,0.6,1.8s0.9,0.7,1.6,0.7c0.4,0,0.8-0.1,1.2-0.3s0.6-0.5,0.8-0.9
		s0.3-0.8,0.3-1.3V829h1.3v7.8h-1.2l-0.1-1.2c-0.3,0.4-0.7,0.8-1.1,1s-1,0.4-1.5,0.4c-0.6,0-1.2-0.2-1.7-0.5s-0.9-0.7-1.1-1.3
		s-0.4-1.2-0.4-1.8V829L317.6,829.1L317.6,829.1z"/>
	<path class="st4" d="M333.3,833v0.5h-6.6c0.1,0.7,0.5,1.3,1,1.7s1.2,0.7,1.9,0.7c0.4,0,0.9-0.1,1.3-0.2s0.9-0.4,1.3-0.8l0.8,1
		c-0.6,0.5-1.1,0.8-1.7,1s-1.1,0.3-1.6,0.3c-0.8,0-1.6-0.2-2.2-0.5s-1.2-0.8-1.5-1.5s-0.6-1.3-0.6-2.1s0.2-1.5,0.5-2.1
		s0.8-1.1,1.4-1.4s1.3-0.5,2.1-0.5s1.5,0.2,2,0.5s1.1,0.8,1.4,1.4S333.3,832.2,333.3,833z M326.7,832.4h5.3
		c-0.1-0.7-0.4-1.2-0.9-1.7s-1.1-0.6-1.7-0.6c-0.7,0-1.3,0.2-1.8,0.7S326.8,831.8,326.7,832.4z"/>
</g>
<line class="st6" x1="227.7" y1="795.4" x2="106.5" y2="795.4"/>
<polygon class="st4" points="99.6,795.4 110.3,799.3 106.5,795.4 110.3,791.5 "/>
<line class="st6" x1="227.7" y1="888.6" x2="106.5" y2="888.6"/>
<polygon class="st4" points="99.6,888.6 110.3,892.5 106.5,888.6 110.3,884.7 "/>
<rect x="158.8" y="789.1" class="st2" width="59.8" height="12"/>
<g class="st3">
	<path class="st4" d="M173.1,798.7l1,1c-0.5,0.5-1.2,1-1.9,1.3s-1.6,0.5-2.4,0.5c-0.9,0-1.7-0.2-2.4-0.5s-1.4-0.7-1.9-1.3
		s-1-1.2-1.3-1.9s-0.5-1.6-0.5-2.4s0.2-1.7,0.5-2.4s0.7-1.4,1.3-1.9s1.2-1,1.9-1.3s1.6-0.5,2.4-0.5c0.9,0,1.7,0.2,2.4,0.5
		s1.4,0.7,1.9,1.3l-1,1c-0.4-0.4-0.9-0.8-1.5-1.1s-1.2-0.4-1.9-0.4c-0.9,0-1.7,0.2-2.4,0.6c-0.7,0.4-1.3,1-1.7,1.7s-0.6,1.6-0.6,2.5
		s0.2,1.8,0.6,2.5c0.4,0.7,1,1.3,1.7,1.7s1.5,0.6,2.4,0.6c0.7,0,1.3-0.1,1.9-0.4C172.1,799.5,172.6,799.1,173.1,798.7z"/>
</g>
<g class="st3">
	<path class="st4" d="M175.6,798.8c0-0.8,0.3-1.4,0.9-1.9c0.6-0.5,1.4-0.7,2.5-0.7c0.7,0,1.4,0.1,2.1,0.3v-0.1
		c0-0.7-0.2-1.2-0.6-1.6s-0.9-0.6-1.6-0.6c-0.7,0-1.4,0.2-2.2,0.7l-0.5-1.1c0.5-0.3,1-0.5,1.4-0.6s0.9-0.2,1.4-0.2
		c1,0,1.8,0.3,2.4,0.9c0.6,0.6,0.9,1.4,0.9,2.4v4.6h-1.2l-0.1-1.2c-0.3,0.4-0.6,0.7-1.1,1c-0.4,0.2-1,0.3-1.6,0.3
		c-0.8,0-1.5-0.2-2.1-0.7C175.9,800.1,175.6,799.5,175.6,798.8z M179.1,797.4c-0.7,0-1.2,0.1-1.6,0.4c-0.4,0.2-0.6,0.6-0.6,1
		s0.2,0.7,0.5,1s0.7,0.4,1.2,0.4s0.9-0.1,1.2-0.3c0.4-0.2,0.7-0.5,0.9-0.8s0.3-0.7,0.3-1.1v-0.2
		C180.4,797.5,179.8,797.4,179.1,797.4z"/>
	<path class="st4" d="M184.7,801.1v-7.8h1.2l0.1,1.2c0.3-0.4,0.7-0.8,1.1-1c0.4-0.2,0.9-0.4,1.5-0.4s1.2,0.2,1.7,0.5
		s0.9,0.7,1.1,1.3c0.3,0.5,0.4,1.2,0.4,1.8v4.4h-1.3v-4.2c0-0.8-0.2-1.4-0.6-1.8c-0.4-0.5-0.9-0.7-1.6-0.7c-0.4,0-0.8,0.1-1.2,0.3
		c-0.3,0.2-0.6,0.5-0.8,0.9s-0.3,0.8-0.3,1.3v4.3L184.7,801.1L184.7,801.1z"/>
	<path class="st4" d="M200.6,800.1c-0.4,0.4-0.8,0.6-1.3,0.9c-0.5,0.2-1,0.3-1.6,0.3c-0.8,0-1.5-0.2-2.1-0.5
		c-0.6-0.4-1.1-0.8-1.4-1.4s-0.5-1.3-0.5-2.1s0.2-1.5,0.5-2.1s0.8-1.1,1.4-1.4c0.6-0.4,1.3-0.5,2.1-0.5c0.6,0,1.1,0.1,1.6,0.3
		s0.9,0.5,1.3,0.8l-0.9,0.9c-0.2-0.3-0.5-0.5-0.9-0.6s-0.7-0.2-1.1-0.2c-0.5,0-1,0.1-1.4,0.4c-0.4,0.2-0.7,0.6-1,1
		c-0.2,0.4-0.4,0.9-0.4,1.5s0.1,1,0.4,1.5c0.2,0.4,0.6,0.8,1,1s0.9,0.4,1.4,0.4c0.4,0,0.8-0.1,1.1-0.2s0.6-0.4,0.9-0.6L200.6,800.1z
		"/>
	<path class="st4" d="M210,797.2v0.5h-6.6c0.1,0.7,0.5,1.3,1,1.7s1.2,0.7,1.9,0.7c0.4,0,0.9-0.1,1.3-0.2s0.9-0.4,1.3-0.8l0.8,1
		c-0.6,0.5-1.1,0.8-1.7,1c-0.6,0.2-1.1,0.3-1.6,0.3c-0.8,0-1.6-0.2-2.2-0.5c-0.7-0.4-1.2-0.8-1.5-1.5c-0.4-0.6-0.6-1.3-0.6-2.1
		s0.2-1.5,0.5-2.1s0.8-1.1,1.4-1.4c0.6-0.3,1.3-0.5,2.1-0.5s1.5,0.2,2,0.5s1.1,0.8,1.4,1.4C209.8,795.7,210,796.4,210,797.2z
		 M203.3,796.6h5.3c-0.1-0.7-0.4-1.2-0.9-1.7c-0.5-0.4-1.1-0.6-1.7-0.6c-0.7,0-1.3,0.2-1.8,0.7C203.8,795.4,203.5,796,203.3,796.6z"
		/>
	<path class="st4" d="M213.3,789.1v12H212v-12H213.3z"/>
</g>
<rect x="167.4" y="879.2" class="st2" width="51.2" height="18.7"/>
<g class="st3">
	<path class="st4" d="M182.4,892.2l1,1c-0.5,0.5-1.2,1-1.9,1.3s-1.6,0.5-2.4,0.5c-0.9,0-1.7-0.2-2.4-0.5s-1.4-0.7-1.9-1.3
		s-1-1.2-1.3-1.9s-0.5-1.6-0.5-2.4s0.2-1.7,0.5-2.4s0.7-1.4,1.3-1.9s1.2-1,1.9-1.3s1.6-0.5,2.4-0.5c0.9,0,1.7,0.2,2.4,0.5
		s1.4,0.7,1.9,1.3l-1,1c-0.4-0.4-0.9-0.8-1.5-1.1s-1.2-0.4-1.9-0.4c-0.9,0-1.7,0.2-2.4,0.6c-0.7,0.4-1.3,1-1.7,1.7s-0.6,1.6-0.6,2.5
		s0.2,1.8,0.6,2.5c0.4,0.7,1,1.3,1.7,1.7s1.5,0.6,2.4,0.6c0.7,0,1.3-0.1,1.9-0.4C181.5,892.9,182,892.6,182.4,892.2z"/>
	<path class="st4" d="M186.7,882.6v12h-1.3v-12H186.7z"/>
	<path class="st4" d="M188.7,890.7c0-0.8,0.2-1.5,0.5-2.1s0.8-1.1,1.4-1.4c0.6-0.4,1.3-0.5,2.1-0.5s1.5,0.2,2.1,0.5
		c0.6,0.4,1.1,0.8,1.4,1.4s0.5,1.3,0.5,2.1s-0.2,1.5-0.5,2.1s-0.8,1.1-1.4,1.4c-0.6,0.4-1.3,0.5-2.1,0.5s-1.5-0.2-2.1-0.5
		c-0.6-0.4-1.1-0.8-1.4-1.4S188.7,891.5,188.7,890.7z M190,890.7c0,0.6,0.1,1,0.4,1.5c0.2,0.4,0.6,0.8,1,1s0.9,0.4,1.4,0.4
		s1-0.1,1.4-0.4c0.4-0.2,0.7-0.6,1-1c0.2-0.4,0.4-0.9,0.4-1.5s-0.1-1.1-0.4-1.5c-0.2-0.4-0.6-0.8-1-1s-0.9-0.4-1.4-0.4
		s-1,0.1-1.4,0.4c-0.4,0.2-0.7,0.6-1,1C190.1,889.6,190,890.1,190,890.7z"/>
	<path class="st4" d="M198.3,893.8l0.6-1.1c0.6,0.6,1.3,0.8,2,0.8c0.4,0,0.8-0.1,1-0.3s0.4-0.5,0.4-0.8c0-0.4-0.2-0.7-0.5-0.9
		s-0.7-0.4-1.1-0.6c-0.3-0.2-0.7-0.3-1-0.5s-0.6-0.4-0.8-0.7s-0.3-0.6-0.3-1.1c0-0.6,0.2-1.1,0.7-1.5s1.1-0.6,1.8-0.6
		c0.4,0,0.8,0.1,1.2,0.2c0.4,0.1,0.7,0.3,1,0.5l-0.5,1c-0.3-0.2-0.6-0.3-0.8-0.3c-0.2-0.1-0.5-0.1-0.8-0.1c-0.4,0-0.7,0.1-0.9,0.2
		c-0.2,0.2-0.3,0.4-0.3,0.6c0,0.3,0.1,0.6,0.4,0.8c0.3,0.2,0.6,0.4,1,0.6c0.3,0.2,0.7,0.3,1,0.5s0.6,0.4,0.8,0.7s0.3,0.7,0.3,1.1
		c0,0.5-0.1,0.9-0.4,1.2s-0.6,0.6-1,0.8s-0.9,0.3-1.4,0.3s-0.9-0.1-1.4-0.2C199.1,894.4,198.7,894.1,198.3,893.8z"/>
	<path class="st4" d="M213,890.7v0.5h-6.6c0.1,0.7,0.5,1.3,1,1.7s1.2,0.7,1.9,0.7c0.4,0,0.9-0.1,1.3-0.2s0.9-0.4,1.3-0.8l0.8,1
		c-0.6,0.5-1.1,0.8-1.7,1s-1.1,0.3-1.6,0.3c-0.8,0-1.6-0.2-2.2-0.5s-1.2-0.8-1.5-1.5s-0.6-1.3-0.6-2.1s0.2-1.5,0.5-2.1
		s0.8-1.1,1.4-1.4s1.3-0.5,2.1-0.5s1.5,0.2,2,0.5s1.1,0.8,1.4,1.4S213,889.9,213,890.7z M206.4,890.1h5.3c-0.1-0.7-0.4-1.2-0.9-1.7
		s-1.1-0.6-1.7-0.6c-0.7,0-1.3,0.2-1.8,0.7S206.5,889.4,206.4,890.1z"/>
</g>
<line class="st6" x1="100.6" y1="540.2" x2="100.6" y2="960"/>
<polygon class="st4" points="100.6,966.9 96.7,956.2 100.6,960 104.5,956.2 "/>
<g>
	<g>
		<defs>
			<rect id="SVGID_23_" x="-60.7" y="511.5" width="526.9" height="587.4"/>
		</defs>
		<clipPath id="SVGID_24_">
			<use xlink:href="#SVGID_23_"  style="overflow:visible;"/>
		</clipPath>
		<g class="st19">
			<path class="st8" d="M41.7,967.7h119.8c6.1,0,11,4.9,11,11v20.2c0,6.1-4.9,11-11,11H41.7c-6.1,0-11-4.9-11-11v-20.2
				C30.7,972.6,35.6,967.7,41.7,967.7z"/>
		</g>
	</g>
</g>
<g class="st3">
	<path class="st2" d="M63.4,994.7H56V983h2.4v9.6h5V994.7z"/>
	<path class="st2" d="M64.8,984.2c0-0.4,0.1-0.7,0.3-0.9c0.2-0.2,0.5-0.3,0.9-0.3s0.7,0.1,0.9,0.3c0.2,0.2,0.3,0.5,0.3,0.9
		s-0.1,0.7-0.3,0.9c-0.2,0.2-0.5,0.3-0.9,0.3s-0.7-0.1-0.9-0.3S64.8,984.6,64.8,984.2z M64.9,994.7v-7.8h2.2v7.8H64.9z"/>
</g>
<g class="st3">
	<path class="st2" d="M67.9,986.9h2.4l1.4,3.8c0.1,0.2,0.2,0.5,0.2,0.9c0.1,0.4,0.2,0.7,0.2,1l0,0c0.1-0.3,0.1-0.6,0.2-1
		s0.2-0.7,0.3-0.9l1.3-3.8h2.4l-3.1,7.8H71L67.9,986.9z"/>
</g>
<g class="st3">
	<path class="st2" d="M78.7,991.5c0.1,0.4,0.4,0.8,0.8,1.1s0.8,0.4,1.3,0.4s1-0.1,1.3-0.3c0.4-0.2,0.7-0.4,1-0.7l1.4,1.6
		c-0.6,0.5-1.2,0.8-1.8,1c-0.6,0.2-1.2,0.3-1.7,0.3c-0.9,0-1.6-0.2-2.3-0.5c-0.7-0.4-1.2-0.8-1.6-1.5s-0.6-1.3-0.6-2.1
		s0.2-1.5,0.5-2.1s0.9-1.1,1.5-1.4c0.6-0.4,1.3-0.5,2.1-0.5c0.8,0,1.5,0.2,2.1,0.5s1.1,0.8,1.4,1.4c0.4,0.6,0.5,1.3,0.5,2.1v0.7
		H78.7z M82.5,990.2c-0.1-0.5-0.3-0.8-0.7-1.1c-0.3-0.3-0.7-0.4-1.2-0.4s-0.9,0.1-1.2,0.4s-0.6,0.7-0.7,1.1H82.5z"/>
</g>
<g class="st3">
	<path class="st2" d="M99.7,993.2c-0.5,0.5-1.2,1-1.9,1.3c-0.7,0.3-1.6,0.5-2.4,0.5c-0.9,0-1.7-0.2-2.4-0.5s-1.4-0.7-1.9-1.3
		s-1-1.2-1.3-1.9s-0.5-1.6-0.5-2.4s0.2-1.7,0.5-2.4s0.7-1.4,1.3-1.9s1.2-1,1.9-1.3s1.6-0.5,2.4-0.5c0.9,0,1.7,0.2,2.4,0.5
		c0.7,0.3,1.4,0.7,1.9,1.3l-1.6,1.6c-0.3-0.4-0.7-0.7-1.2-0.9s-1-0.3-1.5-0.3c-0.7,0-1.3,0.2-1.9,0.5s-1,0.8-1.3,1.4
		c-0.3,0.6-0.5,1.3-0.5,2.1s0.2,1.4,0.5,2s0.8,1.1,1.3,1.4c0.6,0.3,1.2,0.5,1.9,0.5c0.6,0,1.1-0.1,1.5-0.3s0.9-0.5,1.2-0.9
		L99.7,993.2z"/>
</g>
<g class="st3">
	<path class="st2" d="M100.9,992.6c0-0.5,0.1-1,0.4-1.4c0.3-0.4,0.7-0.7,1.2-1c0.5-0.2,1.1-0.4,1.8-0.4c0.2,0,0.4,0,0.7,0
		c0.2,0,0.5,0.1,0.7,0.1c-0.2-0.8-0.8-1.3-1.9-1.3c-0.6,0-1.3,0.2-1.9,0.7l-0.8-1.9c0.5-0.3,1.1-0.5,1.6-0.6s1-0.2,1.5-0.2
		c0.8,0,1.4,0.1,2,0.4s1,0.7,1.3,1.2s0.5,1.1,0.5,1.8v4.5h-1.9l-0.1-0.8c-0.3,0.3-0.6,0.5-1.1,0.7c-0.4,0.2-0.9,0.3-1.4,0.3
		c-0.8,0-1.4-0.2-1.9-0.6C101.1,993.8,100.9,993.2,100.9,992.6z M103.1,992c0,0.3,0.1,0.5,0.3,0.6c0.2,0.2,0.5,0.2,0.8,0.2
		c0.4,0,0.8-0.1,1.1-0.4s0.5-0.6,0.5-1v-0.2c-0.2-0.1-0.4-0.1-0.6-0.1c-0.2,0-0.4-0.1-0.7-0.1c-0.4,0-0.8,0.1-1,0.2
		C103.3,991.5,103.1,991.8,103.1,992z"/>
	<path class="st2" d="M112.2,994.7H110v-7.8h2.1l0.1,0.8c0.6-0.7,1.3-1,2.2-1c1.2,0,2.1,0.5,2.6,1.5c0.3-0.5,0.6-0.9,1.1-1.1
		c0.4-0.3,1-0.4,1.6-0.4c0.9,0,1.7,0.3,2.2,1s0.8,1.6,0.8,2.8v4.2h-2.2v-4.2c0-0.6-0.1-1.1-0.4-1.4c-0.3-0.3-0.6-0.5-1-0.5
		s-0.8,0.2-1,0.5c-0.3,0.3-0.4,0.8-0.4,1.4v4.1h-2.2v-4.2c0-0.6-0.1-1.1-0.4-1.4c-0.3-0.3-0.6-0.5-1-0.5s-0.8,0.2-1,0.5
		c-0.3,0.3-0.4,0.8-0.4,1.4v4.3H112.2z"/>
	<path class="st2" d="M126,991.5c0.1,0.4,0.4,0.8,0.8,1.1c0.4,0.3,0.8,0.4,1.3,0.4s1-0.1,1.3-0.3c0.4-0.2,0.7-0.4,1-0.7l1.4,1.6
		c-0.6,0.5-1.2,0.8-1.8,1s-1.2,0.3-1.7,0.3c-0.9,0-1.6-0.2-2.3-0.5c-0.7-0.4-1.2-0.8-1.6-1.5s-0.6-1.3-0.6-2.1s0.2-1.5,0.5-2.1
		s0.9-1.1,1.5-1.4c0.6-0.4,1.3-0.5,2.1-0.5s1.5,0.2,2.1,0.5s1.1,0.8,1.4,1.4c0.4,0.6,0.5,1.3,0.5,2.1v0.7H126z M129.8,990.2
		c-0.1-0.5-0.3-0.8-0.7-1.1c-0.3-0.3-0.7-0.4-1.2-0.4s-0.9,0.1-1.2,0.4s-0.6,0.7-0.7,1.1H129.8z"/>
</g>
<g class="st3">
	<path class="st2" d="M133.6,994.7v-7.8h2l0.1,1.1c0.6-0.8,1.3-1.3,2.3-1.3c0.3,0,0.7,0.1,1,0.2l-0.3,1.9c-0.3-0.1-0.6-0.1-0.9-0.1
		c-0.6,0-1.1,0.2-1.5,0.7c-0.4,0.4-0.6,1.1-0.6,1.9v3.4L133.6,994.7L133.6,994.7z"/>
</g>
<g class="st3">
	<path class="st2" d="M139.4,992.6c0-0.5,0.1-1,0.4-1.4c0.3-0.4,0.7-0.7,1.2-1c0.5-0.2,1.1-0.4,1.8-0.4c0.2,0,0.4,0,0.7,0
		c0.2,0,0.5,0.1,0.7,0.1c-0.2-0.8-0.8-1.3-1.9-1.3c-0.6,0-1.3,0.2-1.9,0.7l-0.8-1.9c0.5-0.3,1.1-0.5,1.6-0.6s1-0.2,1.5-0.2
		c0.8,0,1.4,0.1,2,0.4s1,0.7,1.3,1.2s0.5,1.1,0.5,1.8v4.5h-1.9l-0.1-0.8c-0.3,0.3-0.6,0.5-1.1,0.7c-0.4,0.2-0.9,0.3-1.4,0.3
		c-0.8,0-1.4-0.2-1.9-0.6C139.7,993.8,139.4,993.2,139.4,992.6z M141.7,992c0,0.3,0.1,0.5,0.3,0.6c0.2,0.2,0.5,0.2,0.8,0.2
		c0.4,0,0.8-0.1,1.1-0.4s0.5-0.6,0.5-1v-0.2c-0.2-0.1-0.4-0.1-0.6-0.1c-0.2,0-0.4-0.1-0.7-0.1c-0.4,0-0.8,0.1-1,0.2
		C141.8,991.5,141.7,991.8,141.7,992z"/>
</g>
<g>
	<g>
		<defs>
			<rect id="SVGID_25_" x="-60.7" y="511.5" width="526.9" height="587.4"/>
		</defs>
		<clipPath id="SVGID_26_">
			<use xlink:href="#SVGID_25_"  style="overflow:visible;"/>
		</clipPath>
		<g class="st20">
			<path class="st2" d="M239.7,680.2h119.8c6.1,0,11,4.9,11,11v20.2c0,6.1-4.9,11-11,11H239.7c-6.1,0-11-4.9-11-11v-20.2
				C228.7,685.2,233.6,680.2,239.7,680.2z"/>
		</g>
	</g>
</g>
<g class="st3">
	<path class="st4" d="M277.5,695.6h3.7c1.3,0,2.3,0.3,3,0.9c0.7,0.6,1.1,1.4,1.1,2.5c0,0.8-0.2,1.5-0.6,2s-1,0.9-1.8,1.1l3,5.2h-1.6
		l-2.9-5H279v5h-1.4v-11.7H277.5z M280.9,701.1c0.9,0,1.7-0.2,2.2-0.5c0.5-0.4,0.7-0.9,0.7-1.6c0-0.7-0.2-1.2-0.7-1.6
		c-0.5-0.4-1.2-0.5-2.2-0.5h-2v4.2L280.9,701.1L280.9,701.1z"/>
</g>
<g class="st3">
	<path class="st4" d="M294.9,703.4v0.5h-6.6c0.1,0.7,0.5,1.3,1,1.7s1.2,0.7,1.9,0.7c0.4,0,0.9-0.1,1.3-0.2s0.9-0.4,1.3-0.8l0.8,1
		c-0.6,0.5-1.1,0.8-1.7,1s-1.1,0.3-1.6,0.3c-0.8,0-1.6-0.2-2.2-0.5s-1.2-0.8-1.5-1.5s-0.6-1.3-0.6-2.1s0.2-1.5,0.5-2.1
		s0.8-1.1,1.4-1.4s1.3-0.5,2.1-0.5s1.5,0.2,2,0.5s1.1,0.8,1.4,1.4S294.9,702.7,294.9,703.4z M288.3,702.9h5.3
		c-0.1-0.7-0.4-1.2-0.9-1.7s-1.1-0.6-1.7-0.6c-0.7,0-1.3,0.2-1.8,0.7S288.4,702.2,288.3,702.9z"/>
	<path class="st4" d="M296.4,706.6l0.6-1.1c0.6,0.6,1.3,0.8,2,0.8c0.4,0,0.8-0.1,1-0.3s0.4-0.5,0.4-0.8c0-0.4-0.2-0.7-0.5-0.9
		s-0.7-0.4-1.1-0.6c-0.3-0.2-0.7-0.3-1-0.5s-0.6-0.4-0.8-0.7s-0.3-0.6-0.3-1.1c0-0.6,0.2-1.1,0.7-1.5s1.1-0.6,1.8-0.6
		c0.4,0,0.8,0.1,1.2,0.2s0.7,0.3,1,0.5l-0.5,1c-0.3-0.2-0.6-0.3-0.8-0.3s-0.5-0.1-0.8-0.1c-0.4,0-0.7,0.1-0.9,0.2s-0.3,0.4-0.3,0.6
		c0,0.3,0.1,0.6,0.4,0.8s0.6,0.4,1,0.6c0.3,0.2,0.7,0.3,1,0.5s0.6,0.4,0.8,0.7s0.3,0.7,0.3,1.1c0,0.5-0.1,0.9-0.4,1.2
		s-0.6,0.6-1,0.8s-0.9,0.3-1.4,0.3s-0.9-0.1-1.4-0.2S296.8,706.9,296.4,706.6z"/>
	<path class="st4" d="M304.8,699.5v4.2c0,0.8,0.2,1.4,0.6,1.8s0.9,0.7,1.6,0.7c0.4,0,0.8-0.1,1.2-0.3s0.6-0.5,0.8-0.9
		s0.3-0.8,0.3-1.3v-4.3h1.3v7.8h-1.2l-0.1-1.2c-0.3,0.4-0.7,0.8-1.1,1s-1,0.4-1.5,0.4c-0.6,0-1.2-0.2-1.7-0.5s-0.9-0.7-1.1-1.3
		s-0.4-1.2-0.4-1.8v-4.4L304.8,699.5L304.8,699.5z"/>
	<path class="st4" d="M314.5,695.3v12h-1.3v-12H314.5z"/>
	<path class="st4" d="M317.8,699.5v-2h1.3v2h2.1v1.2h-2.1v4.2c0,1,0.4,1.4,1.3,1.4c0.1,0,0.3,0,0.4,0s0.3-0.1,0.4-0.1v1.1
		c-0.1,0.1-0.3,0.1-0.5,0.1s-0.4,0.1-0.6,0.1c-0.7,0-1.3-0.2-1.7-0.6s-0.6-1-0.6-1.9v-4.3h-1.3v-1.2H317.8z"/>
</g>
<g>
	<g>
		<defs>
			<rect id="SVGID_27_" x="-60.7" y="511.5" width="526.9" height="587.4"/>
		</defs>
		<clipPath id="SVGID_28_">
			<use xlink:href="#SVGID_27_"  style="overflow:visible;"/>
		</clipPath>
		<g class="st21">
			<path class="st6" d="M239.7,680.2h119.8c6.1,0,11,4.9,11,11v20.2c0,6.1-4.9,11-11,11H239.7c-6.1,0-11-4.9-11-11v-20.2
				C228.7,685.2,233.6,680.2,239.7,680.2z"/>
		</g>
	</g>
</g>
<line class="st6" x1="299.6" y1="723.4" x2="299.6" y2="766"/>
<polygon class="st4" points="299.6,772.9 303.5,762.2 299.6,766 295.7,762.2 "/>
<rect x="253.5" y="727.7" class="st2" width="92.2" height="22"/>
<g class="st3">
	<path class="st4" d="M254.8,742.5c0.4,0.4,0.9,0.7,1.4,0.9s1,0.3,1.5,0.3s0.9-0.1,1.3-0.2c0.4-0.2,0.7-0.4,1-0.7
		c0.2-0.3,0.4-0.7,0.4-1.1c0-0.4-0.1-0.8-0.4-1.1s-0.6-0.6-1-0.8s-0.8-0.4-1.3-0.6c-0.4-0.2-0.8-0.4-1.1-0.5s-0.7-0.4-1-0.7
		s-0.5-0.5-0.7-0.9c-0.2-0.3-0.3-0.7-0.3-1.2c0-0.6,0.2-1.2,0.5-1.6c0.3-0.5,0.8-0.8,1.3-1c0.6-0.2,1.2-0.4,1.9-0.4
		c0.5,0,0.9,0.1,1.4,0.2c0.5,0.1,1,0.3,1.5,0.5l-0.6,1.2c-0.4-0.2-0.7-0.4-1.1-0.5s-0.8-0.1-1.1-0.1c-0.7,0-1.2,0.2-1.7,0.5
		s-0.7,0.7-0.7,1.3c0,0.4,0.1,0.7,0.4,1c0.2,0.3,0.6,0.5,0.9,0.7c0.4,0.2,0.8,0.4,1.2,0.6c0.4,0.2,0.8,0.4,1.2,0.6s0.7,0.4,1.1,0.7
		c0.3,0.3,0.6,0.6,0.8,0.9s0.3,0.8,0.3,1.3c0,0.7-0.2,1.2-0.5,1.8c-0.4,0.5-0.8,0.9-1.5,1.2c-0.6,0.3-1.3,0.4-2.1,0.4
		c-0.6,0-1.2-0.1-1.8-0.3s-1.2-0.5-1.7-0.9L254.8,742.5z"/>
	<path class="st4" d="M271.3,740.8v0.5h-6.6c0.1,0.7,0.5,1.3,1,1.7s1.2,0.7,1.9,0.7c0.4,0,0.9-0.1,1.3-0.2s0.9-0.4,1.3-0.8l0.8,1
		c-0.6,0.5-1.1,0.8-1.7,1s-1.1,0.3-1.6,0.3c-0.8,0-1.6-0.2-2.2-0.5s-1.2-0.8-1.5-1.5c-0.4-0.6-0.6-1.3-0.6-2.1s0.2-1.5,0.5-2.1
		s0.8-1.1,1.4-1.4s1.3-0.5,2.1-0.5c0.8,0,1.5,0.2,2,0.5s1.1,0.8,1.4,1.4C271.2,739.3,271.3,740,271.3,740.8z M264.7,740.2h5.3
		c-0.1-0.7-0.4-1.2-0.9-1.7c-0.5-0.4-1.1-0.6-1.7-0.6c-0.7,0-1.3,0.2-1.8,0.7C265.1,739,264.8,739.6,264.7,740.2z"/>
	<path class="st4" d="M274.6,732.7v12h-1.3v-12H274.6z"/>
	<path class="st4" d="M284.6,740.8v0.5H278c0.1,0.7,0.5,1.3,1,1.7s1.2,0.7,1.9,0.7c0.4,0,0.9-0.1,1.3-0.2s0.9-0.4,1.3-0.8l0.8,1
		c-0.6,0.5-1.1,0.8-1.7,1s-1.1,0.3-1.6,0.3c-0.8,0-1.6-0.2-2.2-0.5s-1.2-0.8-1.5-1.5c-0.4-0.6-0.6-1.3-0.6-2.1s0.2-1.5,0.5-2.1
		s0.8-1.1,1.4-1.4s1.3-0.5,2.1-0.5c0.8,0,1.5,0.2,2,0.5s1.1,0.8,1.4,1.4C284.4,739.3,284.6,740,284.6,740.8z M277.9,740.2h5.3
		c-0.1-0.7-0.4-1.2-0.9-1.7c-0.5-0.4-1.1-0.6-1.7-0.6c-0.7,0-1.3,0.2-1.8,0.7C278.3,739,278,739.6,277.9,740.2z"/>
	<path class="st4" d="M293,743.7c-0.4,0.4-0.8,0.6-1.3,0.9c-0.5,0.2-1,0.3-1.6,0.3c-0.8,0-1.5-0.2-2.1-0.5c-0.6-0.4-1.1-0.8-1.4-1.4
		s-0.5-1.3-0.5-2.1s0.2-1.5,0.5-2.1s0.8-1.1,1.4-1.4c0.6-0.4,1.3-0.5,2.1-0.5c0.6,0,1.1,0.1,1.6,0.3s0.9,0.5,1.3,0.8l-0.9,0.9
		c-0.2-0.3-0.5-0.5-0.9-0.6s-0.7-0.2-1.1-0.2c-0.5,0-1,0.1-1.4,0.4c-0.4,0.2-0.7,0.6-1,1c-0.2,0.4-0.4,0.9-0.4,1.5s0.1,1,0.4,1.5
		c0.2,0.4,0.6,0.8,1,1s0.9,0.4,1.4,0.4c0.4,0,0.8-0.1,1.1-0.2s0.6-0.4,0.9-0.6L293,743.7z"/>
	<path class="st4" d="M295.7,736.9v-2h1.3v2h2.1v1.2H297v4.2c0,1,0.4,1.4,1.3,1.4c0.1,0,0.3,0,0.4,0s0.3-0.1,0.4-0.1v1.1
		c-0.1,0.1-0.3,0.1-0.5,0.1s-0.4,0.1-0.6,0.1c-0.7,0-1.3-0.2-1.7-0.6c-0.4-0.4-0.6-1-0.6-1.9v-4.3h-1.3v-1.2H295.7z"/>
</g>
<text transform="matrix(1 0 0 1 300.08 744.71)" class="st4 st11 st12"> </text>
<g class="st3">
	<path class="st4" d="M305.3,744.7v-7.8h1.2l0.1,1.2c0.3-0.4,0.6-0.8,1-1c0.4-0.3,0.9-0.4,1.5-0.4c0.2,0,0.5,0,0.7,0.1l-0.2,1.2
		c-0.3-0.1-0.5-0.1-0.7-0.1c-0.7,0-1.3,0.3-1.7,0.8c-0.4,0.5-0.6,1.2-0.6,2v4H305.3z"/>
	<path class="st4" d="M318.5,740.8v0.5h-6.6c0.1,0.7,0.5,1.3,1,1.7s1.2,0.7,1.9,0.7c0.4,0,0.9-0.1,1.3-0.2s0.9-0.4,1.3-0.8l0.8,1
		c-0.6,0.5-1.1,0.8-1.7,1s-1.1,0.3-1.6,0.3c-0.8,0-1.6-0.2-2.2-0.5s-1.2-0.8-1.5-1.5c-0.4-0.6-0.6-1.3-0.6-2.1s0.2-1.5,0.5-2.1
		s0.8-1.1,1.4-1.4s1.3-0.5,2.1-0.5c0.8,0,1.5,0.2,2,0.5s1.1,0.8,1.4,1.4C318.4,739.3,318.5,740,318.5,740.8z M311.9,740.2h5.3
		c-0.1-0.7-0.4-1.2-0.9-1.7c-0.5-0.4-1.1-0.6-1.7-0.6c-0.7,0-1.3,0.2-1.8,0.7C312.3,739,312,739.6,311.9,740.2z"/>
	<path class="st4" d="M320,744l0.6-1.1c0.6,0.6,1.3,0.8,2,0.8c0.4,0,0.8-0.1,1-0.3s0.4-0.5,0.4-0.8c0-0.4-0.2-0.7-0.5-0.9
		s-0.7-0.4-1.1-0.6c-0.3-0.2-0.7-0.3-1-0.5s-0.6-0.4-0.8-0.7c-0.2-0.3-0.3-0.6-0.3-1.1c0-0.6,0.2-1.1,0.7-1.5s1.1-0.6,1.8-0.6
		c0.4,0,0.8,0.1,1.2,0.2c0.4,0.1,0.7,0.3,1,0.5l-0.5,1c-0.3-0.2-0.6-0.3-0.8-0.3c-0.2-0.1-0.5-0.1-0.8-0.1c-0.4,0-0.7,0.1-0.9,0.2
		c-0.2,0.2-0.3,0.4-0.3,0.6c0,0.3,0.1,0.6,0.4,0.8s0.6,0.4,1,0.6c0.3,0.2,0.7,0.3,1,0.5s0.6,0.4,0.8,0.7c0.2,0.3,0.3,0.7,0.3,1.1
		c0,0.5-0.1,0.9-0.4,1.2s-0.6,0.6-1,0.8s-0.9,0.3-1.4,0.3s-0.9-0.1-1.4-0.2C320.8,744.5,320.4,744.2,320,744z"/>
	<path class="st4" d="M328.4,736.9v4.2c0,0.8,0.2,1.4,0.6,1.8c0.4,0.5,0.9,0.7,1.6,0.7c0.4,0,0.8-0.1,1.2-0.3
		c0.3-0.2,0.6-0.5,0.8-0.9s0.3-0.8,0.3-1.3v-4.3h1.3v7.8H333l-0.1-1.2c-0.3,0.4-0.7,0.8-1.1,1c-0.5,0.2-1,0.4-1.5,0.4
		c-0.6,0-1.2-0.2-1.7-0.5s-0.9-0.7-1.1-1.3c-0.3-0.5-0.4-1.2-0.4-1.8v-4.4L328.4,736.9L328.4,736.9z"/>
	<path class="st4" d="M338.1,732.7v12h-1.3v-12H338.1z"/>
	<path class="st4" d="M341.4,736.9v-2h1.3v2h2.1v1.2h-2.1v4.2c0,1,0.4,1.4,1.3,1.4c0.1,0,0.3,0,0.4,0s0.3-0.1,0.4-0.1v1.1
		c-0.1,0.1-0.3,0.1-0.5,0.1s-0.4,0.1-0.6,0.1c-0.7,0-1.3-0.2-1.7-0.6c-0.4-0.4-0.6-1-0.6-1.9v-4.3h-1.3v-1.2H341.4z"/>
</g>
<line class="st6" x1="227.7" y1="701.3" x2="106.5" y2="701.3"/>
<polygon class="st4" points="99.6,701.3 110.3,705.2 106.5,701.3 110.3,697.4 "/>
<rect x="154.1" y="692" class="st2" width="64.5" height="18.7"/>
<g class="st3">
	<path class="st4" d="M170.7,704.9l1,1c-0.5,0.5-1.2,1-1.9,1.3s-1.6,0.5-2.4,0.5c-0.9,0-1.7-0.2-2.4-0.5s-1.4-0.7-1.9-1.3
		s-1-1.2-1.3-1.9s-0.5-1.6-0.5-2.4s0.2-1.7,0.5-2.4s0.7-1.4,1.3-1.9s1.2-1,1.9-1.3s1.6-0.5,2.4-0.5c0.9,0,1.7,0.2,2.4,0.5
		s1.4,0.7,1.9,1.3l-1,1c-0.4-0.4-0.9-0.8-1.5-1.1s-1.2-0.4-1.9-0.4c-0.9,0-1.7,0.2-2.4,0.6c-0.7,0.4-1.3,1-1.7,1.7s-0.6,1.6-0.6,2.5
		s0.2,1.8,0.6,2.5c0.4,0.7,1,1.3,1.7,1.7s1.5,0.6,2.4,0.6c0.7,0,1.3-0.1,1.9-0.4C169.8,705.7,170.3,705.4,170.7,704.9z"/>
</g>
<g class="st3">
	<path class="st4" d="M173.3,705c0-0.8,0.3-1.4,0.9-1.9c0.6-0.5,1.4-0.7,2.5-0.7c0.7,0,1.4,0.1,2.1,0.3v-0.1c0-0.7-0.2-1.2-0.6-1.6
		s-0.9-0.6-1.6-0.6c-0.7,0-1.4,0.2-2.2,0.7l-0.5-1.1c0.5-0.3,1-0.5,1.4-0.6s0.9-0.2,1.4-0.2c1,0,1.8,0.3,2.4,0.9
		c0.6,0.6,0.9,1.4,0.9,2.4v4.6h-1.2l-0.1-1.2c-0.3,0.4-0.6,0.7-1.1,1c-0.4,0.2-1,0.3-1.6,0.3c-0.8,0-1.5-0.2-2.1-0.7
		C173.6,706.4,173.3,705.8,173.3,705z M176.8,703.6c-0.7,0-1.2,0.1-1.6,0.4c-0.4,0.2-0.6,0.6-0.6,1s0.2,0.7,0.5,1s0.7,0.4,1.2,0.4
		s0.9-0.1,1.2-0.3c0.4-0.2,0.7-0.5,0.9-0.8s0.3-0.7,0.3-1.1V704C178.1,703.8,177.4,703.6,176.8,703.6z"/>
	<path class="st4" d="M182.4,707.4v-7.8h1.2l0.1,1.2c0.3-0.4,0.7-0.8,1.1-1c0.4-0.2,0.9-0.4,1.5-0.4s1.2,0.2,1.7,0.5
		s0.9,0.7,1.1,1.3c0.3,0.5,0.4,1.2,0.4,1.8v4.4h-1.3v-4.2c0-0.8-0.2-1.4-0.6-1.8c-0.4-0.5-0.9-0.7-1.6-0.7c-0.4,0-0.8,0.1-1.2,0.3
		c-0.3,0.2-0.6,0.5-0.8,0.9s-0.3,0.8-0.3,1.3v4.3L182.4,707.4L182.4,707.4z"/>
	<path class="st4" d="M198.2,706.4c-0.4,0.4-0.8,0.6-1.3,0.9c-0.5,0.2-1,0.3-1.6,0.3c-0.8,0-1.5-0.2-2.1-0.5
		c-0.6-0.4-1.1-0.8-1.4-1.4s-0.5-1.3-0.5-2.1s0.2-1.5,0.5-2.1s0.8-1.1,1.4-1.4c0.6-0.4,1.3-0.5,2.1-0.5c0.6,0,1.1,0.1,1.6,0.3
		s0.9,0.5,1.3,0.8l-0.9,0.9c-0.2-0.3-0.5-0.5-0.9-0.6s-0.7-0.2-1.1-0.2c-0.5,0-1,0.1-1.4,0.4c-0.4,0.2-0.7,0.6-1,1
		c-0.2,0.4-0.4,0.9-0.4,1.5s0.1,1,0.4,1.5c0.2,0.4,0.6,0.8,1,1s0.9,0.4,1.4,0.4c0.4,0,0.8-0.1,1.1-0.2s0.6-0.4,0.9-0.6L198.2,706.4z
		"/>
	<path class="st4" d="M207.6,703.4v0.5H201c0.1,0.7,0.5,1.3,1,1.7s1.2,0.7,1.9,0.7c0.4,0,0.9-0.1,1.3-0.2s0.9-0.4,1.3-0.8l0.8,1
		c-0.6,0.5-1.1,0.8-1.7,1s-1.1,0.3-1.6,0.3c-0.8,0-1.6-0.2-2.2-0.5s-1.2-0.8-1.5-1.5c-0.4-0.6-0.6-1.3-0.6-2.1s0.2-1.5,0.5-2.1
		s0.8-1.1,1.4-1.4s1.3-0.5,2.1-0.5s1.5,0.2,2,0.5s1.1,0.8,1.4,1.4S207.6,702.7,207.6,703.4z M201,702.9h5.3
		c-0.1-0.7-0.4-1.2-0.9-1.7s-1.1-0.6-1.7-0.6c-0.7,0-1.3,0.2-1.8,0.7C201.4,701.7,201.1,702.2,201,702.9z"/>
	<path class="st4" d="M210.9,695.3v12h-1.3v-12H210.9z"/>
</g>
<g>
	<g>
		<defs>
			<rect id="SVGID_29_" x="-60.7" y="511.5" width="526.9" height="587.4"/>
		</defs>
		<clipPath id="SVGID_30_">
			<use xlink:href="#SVGID_29_"  style="overflow:visible;"/>
		</clipPath>
		<g class="st22">
			<path class="st2" d="M239.7,586.1h119.8c6.1,0,11,4.9,11,11v20.2c0,6.1-4.9,11-11,11H239.7c-6.1,0-11-4.9-11-11v-20.2
				C228.7,591,233.6,586.1,239.7,586.1z"/>
		</g>
	</g>
</g>
<g class="st3">
	<path class="st4" d="M252.4,611c0.4,0.4,0.9,0.7,1.4,0.9s1,0.3,1.5,0.3s0.9-0.1,1.3-0.2c0.4-0.2,0.7-0.4,1-0.7
		c0.2-0.3,0.4-0.7,0.4-1.1c0-0.4-0.1-0.8-0.4-1.1s-0.6-0.6-1-0.8s-0.8-0.4-1.3-0.6c-0.4-0.2-0.8-0.4-1.1-0.5s-0.7-0.4-1-0.7
		s-0.5-0.5-0.7-0.9c-0.2-0.3-0.3-0.7-0.3-1.2c0-0.6,0.2-1.2,0.5-1.6c0.3-0.5,0.8-0.8,1.3-1c0.6-0.2,1.2-0.4,1.9-0.4
		c0.5,0,0.9,0.1,1.4,0.2c0.5,0.1,1,0.3,1.5,0.5l-0.6,1.2c-0.4-0.2-0.7-0.4-1.1-0.5s-0.8-0.1-1.1-0.1c-0.7,0-1.2,0.2-1.7,0.5
		s-0.7,0.7-0.7,1.3c0,0.4,0.1,0.7,0.4,1c0.2,0.3,0.6,0.5,0.9,0.7c0.4,0.2,0.8,0.4,1.2,0.6c0.4,0.2,0.8,0.4,1.2,0.6s0.7,0.4,1.1,0.7
		c0.3,0.3,0.6,0.6,0.8,0.9s0.3,0.8,0.3,1.3c0,0.7-0.2,1.2-0.5,1.8c-0.4,0.5-0.8,0.9-1.5,1.2c-0.6,0.3-1.3,0.4-2.1,0.4
		c-0.6,0-1.2-0.1-1.8-0.3s-1.2-0.5-1.7-0.9L252.4,611z"/>
	<path class="st4" d="M267.9,612.2c-0.4,0.4-0.8,0.6-1.3,0.9c-0.5,0.2-1,0.3-1.6,0.3c-0.8,0-1.5-0.2-2.1-0.5
		c-0.6-0.4-1.1-0.8-1.4-1.4s-0.5-1.3-0.5-2.1s0.2-1.5,0.5-2.1s0.8-1.1,1.4-1.4c0.6-0.4,1.3-0.5,2.1-0.5c0.6,0,1.1,0.1,1.6,0.3
		s0.9,0.5,1.3,0.8l-0.9,0.9c-0.2-0.3-0.5-0.5-0.9-0.6s-0.7-0.2-1.1-0.2c-0.5,0-1,0.1-1.4,0.4c-0.4,0.2-0.7,0.6-1,1
		c-0.2,0.4-0.4,0.9-0.4,1.5s0.1,1,0.4,1.5c0.2,0.4,0.6,0.8,1,1s0.9,0.4,1.4,0.4c0.4,0,0.8-0.1,1.1-0.2s0.6-0.4,0.9-0.6L267.9,612.2z
		"/>
	<path class="st4" d="M269.6,610.9c0-0.8,0.3-1.4,0.9-1.9s1.4-0.7,2.5-0.7c0.7,0,1.4,0.1,2.1,0.3v-0.1c0-0.7-0.2-1.2-0.6-1.6
		s-0.9-0.6-1.6-0.6s-1.4,0.2-2.2,0.7l-0.5-1.1c0.5-0.3,1-0.5,1.4-0.6s0.9-0.2,1.4-0.2c1,0,1.8,0.3,2.4,0.9c0.6,0.6,0.9,1.4,0.9,2.4
		v4.6h-1.2l-0.1-1.2c-0.3,0.4-0.6,0.7-1.1,1c-0.4,0.2-1,0.3-1.6,0.3c-0.8,0-1.5-0.2-2.1-0.7C269.9,612.2,269.6,611.6,269.6,610.9z
		 M273.1,609.5c-0.7,0-1.2,0.1-1.6,0.4c-0.4,0.2-0.6,0.6-0.6,1s0.2,0.7,0.5,1s0.7,0.4,1.2,0.4s0.9-0.1,1.2-0.3
		c0.4-0.2,0.7-0.5,0.9-0.8c0.2-0.3,0.3-0.7,0.3-1.1v-0.2C274.4,609.6,273.7,609.5,273.1,609.5z"/>
	<path class="st4" d="M278.6,613.2v-7.8h1.2l0.1,1.2c0.3-0.4,0.7-0.8,1.1-1s0.9-0.4,1.5-0.4s1.2,0.2,1.7,0.5s0.9,0.7,1.1,1.3
		c0.3,0.5,0.4,1.2,0.4,1.8v4.4h-1.3V609c0-0.8-0.2-1.4-0.6-1.8c-0.4-0.5-0.9-0.7-1.6-0.7c-0.4,0-0.8,0.1-1.2,0.3
		c-0.3,0.2-0.6,0.5-0.8,0.9s-0.3,0.8-0.3,1.3v4.3L278.6,613.2L278.6,613.2z"/>
	<path class="st4" d="M292.2,601.5h4c1.3,0,2.3,0.3,3,1s1,1.5,1,2.6s-0.3,1.9-1,2.5s-1.7,1-3,1h-2.7v4.7h-1.4v-11.8H292.2z
		 M293.5,602.8v4.5h2.7c0.9,0,1.5-0.2,1.9-0.6s0.7-1,0.7-1.6c0-0.7-0.2-1.2-0.7-1.6s-1.1-0.6-1.9-0.6h-2.7V602.8z"/>
	<path class="st4" d="M301.9,613.2v-7.8h1.2l0.1,1.2c0.3-0.4,0.6-0.8,1-1c0.4-0.3,0.9-0.4,1.5-0.4c0.2,0,0.5,0,0.7,0.1l-0.2,1.2
		c-0.3-0.1-0.5-0.1-0.7-0.1c-0.7,0-1.3,0.3-1.7,0.8c-0.4,0.5-0.6,1.2-0.6,2v4H301.9z"/>
	<path class="st4" d="M307.2,609.3c0-0.8,0.2-1.5,0.5-2.1s0.8-1.1,1.4-1.4c0.6-0.4,1.3-0.5,2.1-0.5s1.5,0.2,2.1,0.5
		c0.6,0.4,1.1,0.8,1.4,1.4s0.5,1.3,0.5,2.1s-0.2,1.5-0.5,2.1s-0.8,1.1-1.4,1.4c-0.6,0.4-1.3,0.5-2.1,0.5s-1.5-0.2-2.1-0.5
		c-0.6-0.4-1.1-0.8-1.4-1.4S307.2,610.1,307.2,609.3z M308.5,609.3c0,0.6,0.1,1,0.4,1.5c0.2,0.4,0.6,0.8,1,1s0.9,0.4,1.4,0.4
		s1-0.1,1.4-0.4c0.4-0.2,0.7-0.6,1-1c0.2-0.4,0.4-0.9,0.4-1.5s-0.1-1.1-0.4-1.5c-0.2-0.4-0.6-0.8-1-1s-0.9-0.4-1.4-0.4
		s-1,0.1-1.4,0.4c-0.4,0.2-0.7,0.6-1,1C308.6,608.3,308.5,608.8,308.5,609.3z"/>
	<path class="st4" d="M323.7,612.2c-0.4,0.4-0.8,0.6-1.3,0.9c-0.5,0.2-1,0.3-1.6,0.3c-0.8,0-1.5-0.2-2.1-0.5
		c-0.6-0.4-1.1-0.8-1.4-1.4s-0.5-1.3-0.5-2.1s0.2-1.5,0.5-2.1s0.8-1.1,1.4-1.4c0.6-0.4,1.3-0.5,2.1-0.5c0.6,0,1.1,0.1,1.6,0.3
		s0.9,0.5,1.3,0.8l-0.9,0.9c-0.2-0.3-0.5-0.5-0.9-0.6s-0.7-0.2-1.1-0.2c-0.5,0-1,0.1-1.4,0.4c-0.4,0.2-0.7,0.6-1,1
		c-0.2,0.4-0.4,0.9-0.4,1.5s0.1,1,0.4,1.5c0.2,0.4,0.6,0.8,1,1s0.9,0.4,1.4,0.4c0.4,0,0.8-0.1,1.1-0.2s0.6-0.4,0.9-0.6L323.7,612.2z
		"/>
	<path class="st4" d="M333.1,609.3v0.5h-6.6c0.1,0.7,0.5,1.3,1,1.7s1.2,0.7,1.9,0.7c0.4,0,0.9-0.1,1.3-0.2s0.9-0.4,1.3-0.8l0.8,1
		c-0.6,0.5-1.1,0.8-1.7,1s-1.1,0.3-1.6,0.3c-0.8,0-1.6-0.2-2.2-0.5s-1.2-0.8-1.5-1.5c-0.4-0.6-0.6-1.3-0.6-2.1s0.2-1.5,0.5-2.1
		s0.8-1.1,1.4-1.4s1.3-0.5,2.1-0.5c0.8,0,1.5,0.2,2,0.5s1.1,0.8,1.4,1.4C332.9,607.8,333.1,608.5,333.1,609.3z M326.4,608.7h5.3
		c-0.1-0.7-0.4-1.2-0.9-1.7c-0.5-0.4-1.1-0.6-1.7-0.6c-0.7,0-1.3,0.2-1.8,0.7C326.8,607.5,326.5,608.1,326.4,608.7z"/>
	<path class="st4" d="M334.6,612.5l0.6-1.1c0.6,0.6,1.3,0.8,2,0.8c0.4,0,0.8-0.1,1-0.3s0.4-0.5,0.4-0.8c0-0.4-0.2-0.7-0.5-0.9
		s-0.7-0.4-1.1-0.6c-0.3-0.2-0.7-0.3-1-0.5s-0.6-0.4-0.8-0.7c-0.2-0.3-0.3-0.6-0.3-1.1c0-0.6,0.2-1.1,0.7-1.5s1.1-0.6,1.8-0.6
		c0.4,0,0.8,0.1,1.2,0.2c0.4,0.1,0.7,0.3,1,0.5l-0.5,1c-0.3-0.2-0.6-0.3-0.8-0.3c-0.2-0.1-0.5-0.1-0.8-0.1c-0.4,0-0.7,0.1-0.9,0.2
		c-0.2,0.2-0.3,0.4-0.3,0.6c0,0.3,0.1,0.6,0.4,0.8s0.6,0.4,1,0.6c0.3,0.2,0.7,0.3,1,0.5s0.6,0.4,0.8,0.7c0.2,0.3,0.3,0.7,0.3,1.1
		c0,0.5-0.1,0.9-0.4,1.2s-0.6,0.6-1,0.8s-0.9,0.3-1.4,0.3s-0.9-0.1-1.4-0.2C335.3,613,334.9,612.7,334.6,612.5z"/>
	<path class="st4" d="M341.4,612.5l0.6-1.1c0.6,0.6,1.3,0.8,2,0.8c0.4,0,0.8-0.1,1-0.3s0.4-0.5,0.4-0.8c0-0.4-0.2-0.7-0.5-0.9
		s-0.7-0.4-1.1-0.6c-0.3-0.2-0.7-0.3-1-0.5s-0.6-0.4-0.8-0.7c-0.2-0.3-0.3-0.6-0.3-1.1c0-0.6,0.2-1.1,0.7-1.5s1.1-0.6,1.8-0.6
		c0.4,0,0.8,0.1,1.2,0.2c0.4,0.1,0.7,0.3,1,0.5l-0.5,1c-0.3-0.2-0.6-0.3-0.8-0.3c-0.2-0.1-0.5-0.1-0.8-0.1c-0.4,0-0.7,0.1-0.9,0.2
		c-0.2,0.2-0.3,0.4-0.3,0.6c0,0.3,0.1,0.6,0.4,0.8s0.6,0.4,1,0.6c0.3,0.2,0.7,0.3,1,0.5s0.6,0.4,0.8,0.7c0.2,0.3,0.3,0.7,0.3,1.1
		c0,0.5-0.1,0.9-0.4,1.2s-0.6,0.6-1,0.8s-0.9,0.3-1.4,0.3s-0.9-0.1-1.4-0.2C342.1,613,341.7,612.7,341.4,612.5z"/>
</g>
<g>
	<g>
		<defs>
			<rect id="SVGID_31_" x="-60.7" y="511.5" width="526.9" height="587.4"/>
		</defs>
		<clipPath id="SVGID_32_">
			<use xlink:href="#SVGID_31_"  style="overflow:visible;"/>
		</clipPath>
		<g class="st23">
			<path class="st6" d="M239.7,586.1h119.8c6.1,0,11,4.9,11,11v20.2c0,6.1-4.9,11-11,11H239.7c-6.1,0-11-4.9-11-11v-20.2
				C228.7,591,233.6,586.1,239.7,586.1z"/>
		</g>
	</g>
</g>
<line class="st6" x1="299.6" y1="629.3" x2="299.6" y2="671.8"/>
<polygon class="st4" points="299.6,678.7 303.5,668 299.6,671.8 295.7,668 "/>
<rect x="227.7" y="634.3" class="st2" width="143.8" height="19.7"/>
<g class="st3">
	<path class="st4" d="M254.8,648c0.4,0.4,0.9,0.7,1.4,0.9s1,0.3,1.5,0.3s0.9-0.1,1.3-0.2c0.4-0.2,0.7-0.4,1-0.7
		c0.2-0.3,0.4-0.7,0.4-1.1c0-0.4-0.1-0.8-0.4-1.1s-0.6-0.6-1-0.8s-0.8-0.4-1.3-0.6c-0.4-0.2-0.8-0.4-1.1-0.5s-0.7-0.4-1-0.7
		s-0.5-0.5-0.7-0.9c-0.2-0.3-0.3-0.7-0.3-1.2c0-0.6,0.2-1.2,0.5-1.6c0.3-0.5,0.8-0.8,1.3-1c0.6-0.2,1.2-0.4,1.9-0.4
		c0.5,0,0.9,0.1,1.4,0.2c0.5,0.1,1,0.3,1.5,0.5l-0.6,1.2c-0.4-0.2-0.7-0.4-1.1-0.5s-0.8-0.1-1.1-0.1c-0.7,0-1.2,0.2-1.7,0.5
		s-0.7,0.7-0.7,1.3c0,0.4,0.1,0.7,0.4,1c0.2,0.3,0.6,0.5,0.9,0.7c0.4,0.2,0.8,0.4,1.2,0.6c0.4,0.2,0.8,0.4,1.2,0.6s0.7,0.4,1.1,0.7
		c0.3,0.3,0.6,0.6,0.8,0.9s0.3,0.8,0.3,1.3c0,0.7-0.2,1.2-0.5,1.8c-0.4,0.5-0.8,0.9-1.5,1.2c-0.6,0.3-1.3,0.4-2.1,0.4
		c-0.6,0-1.2-0.1-1.8-0.3s-1.2-0.5-1.7-0.9L254.8,648z"/>
	<path class="st4" d="M271.3,646.3v0.5h-6.6c0.1,0.7,0.5,1.3,1,1.7s1.2,0.7,1.9,0.7c0.4,0,0.9-0.1,1.3-0.2s0.9-0.4,1.3-0.8l0.8,1
		c-0.6,0.5-1.1,0.8-1.7,1s-1.1,0.3-1.6,0.3c-0.8,0-1.6-0.2-2.2-0.5s-1.2-0.8-1.5-1.5c-0.4-0.6-0.6-1.3-0.6-2.1s0.2-1.5,0.5-2.1
		s0.8-1.1,1.4-1.4s1.3-0.5,2.1-0.5c0.8,0,1.5,0.2,2,0.5s1.1,0.8,1.4,1.4C271.1,644.8,271.3,645.5,271.3,646.3z M264.7,645.7h5.3
		c-0.1-0.7-0.4-1.2-0.9-1.7c-0.5-0.4-1.1-0.6-1.7-0.6c-0.7,0-1.3,0.2-1.8,0.7C265.1,644.5,264.8,645,264.7,645.7z"/>
	<path class="st4" d="M274.6,638.1v12h-1.3v-12H274.6z"/>
	<path class="st4" d="M284.5,646.3v0.5h-6.6c0.1,0.7,0.5,1.3,1,1.7s1.2,0.7,1.9,0.7c0.4,0,0.9-0.1,1.3-0.2s0.9-0.4,1.3-0.8l0.8,1
		c-0.6,0.5-1.1,0.8-1.7,1s-1.1,0.3-1.6,0.3c-0.8,0-1.6-0.2-2.2-0.5s-1.2-0.8-1.5-1.5c-0.4-0.6-0.6-1.3-0.6-2.1s0.2-1.5,0.5-2.1
		s0.8-1.1,1.4-1.4s1.3-0.5,2.1-0.5c0.8,0,1.5,0.2,2,0.5s1.1,0.8,1.4,1.4C284.4,644.8,284.5,645.5,284.5,646.3z M277.9,645.7h5.3
		c-0.1-0.7-0.4-1.2-0.9-1.7c-0.5-0.4-1.1-0.6-1.7-0.6c-0.7,0-1.3,0.2-1.8,0.7C278.3,644.5,278,645,277.9,645.7z"/>
	<path class="st4" d="M292.9,649.2c-0.4,0.4-0.8,0.6-1.3,0.9c-0.5,0.2-1,0.3-1.6,0.3c-0.8,0-1.5-0.2-2.1-0.5
		c-0.6-0.4-1.1-0.8-1.4-1.4s-0.5-1.3-0.5-2.1s0.2-1.5,0.5-2.1s0.8-1.1,1.4-1.4c0.6-0.4,1.3-0.5,2.1-0.5c0.6,0,1.1,0.1,1.6,0.3
		s0.9,0.5,1.3,0.8l-0.9,0.9c-0.2-0.3-0.5-0.5-0.9-0.6s-0.7-0.2-1.1-0.2c-0.5,0-1,0.1-1.4,0.4c-0.4,0.2-0.7,0.6-1,1
		c-0.2,0.4-0.4,0.9-0.4,1.5s0.1,1,0.4,1.5c0.2,0.4,0.6,0.8,1,1s0.9,0.4,1.4,0.4c0.4,0,0.8-0.1,1.1-0.2s0.6-0.4,0.9-0.6L292.9,649.2z
		"/>
	<path class="st4" d="M295.7,642.4v-2h1.3v2h2.1v1.2H297v4.2c0,1,0.4,1.4,1.3,1.4c0.1,0,0.3,0,0.4,0s0.3-0.1,0.4-0.1v1.1
		c-0.1,0.1-0.3,0.1-0.5,0.1s-0.4,0.1-0.6,0.1c-0.7,0-1.3-0.2-1.7-0.6c-0.4-0.4-0.6-1-0.6-1.9v-4.3h-1.3v-1.2H295.7z"/>
	<path class="st4" d="M305.3,650.2v-7.8h1.2l0.1,1.2c0.3-0.4,0.6-0.8,1-1c0.4-0.3,0.9-0.4,1.5-0.4c0.2,0,0.5,0,0.7,0.1l-0.2,1.2
		c-0.3-0.1-0.5-0.1-0.7-0.1c-0.7,0-1.3,0.3-1.7,0.8c-0.4,0.5-0.6,1.2-0.6,2v4H305.3z"/>
	<path class="st4" d="M318.6,646.3v0.5H312c0.1,0.7,0.5,1.3,1,1.7s1.2,0.7,1.9,0.7c0.4,0,0.9-0.1,1.3-0.2s0.9-0.4,1.3-0.8l0.8,1
		c-0.6,0.5-1.1,0.8-1.7,1s-1.1,0.3-1.6,0.3c-0.8,0-1.6-0.2-2.2-0.5s-1.2-0.8-1.5-1.5c-0.4-0.6-0.6-1.3-0.6-2.1s0.2-1.5,0.5-2.1
		s0.8-1.1,1.4-1.4s1.3-0.5,2.1-0.5c0.8,0,1.5,0.2,2,0.5s1.1,0.8,1.4,1.4C318.4,644.8,318.6,645.5,318.6,646.3z M311.9,645.7h5.3
		c-0.1-0.7-0.4-1.2-0.9-1.7c-0.5-0.4-1.1-0.6-1.7-0.6c-0.7,0-1.3,0.2-1.8,0.7C312.4,644.5,312,645,311.9,645.7z"/>
	<path class="st4" d="M320.1,649.4l0.6-1.1c0.6,0.6,1.3,0.8,2,0.8c0.4,0,0.8-0.1,1-0.3s0.4-0.5,0.4-0.8c0-0.4-0.2-0.7-0.5-0.9
		s-0.7-0.4-1.1-0.6c-0.3-0.2-0.7-0.3-1-0.5s-0.6-0.4-0.8-0.7c-0.2-0.3-0.3-0.6-0.3-1.1c0-0.6,0.2-1.1,0.7-1.5s1.1-0.6,1.8-0.6
		c0.4,0,0.8,0.1,1.2,0.2c0.4,0.1,0.7,0.3,1,0.5l-0.5,1c-0.3-0.2-0.6-0.3-0.8-0.3c-0.2-0.1-0.5-0.1-0.8-0.1c-0.4,0-0.7,0.1-0.9,0.2
		c-0.2,0.2-0.3,0.4-0.3,0.6c0,0.3,0.1,0.6,0.4,0.8s0.6,0.4,1,0.6c0.3,0.2,0.7,0.3,1,0.5s0.6,0.4,0.8,0.7c0.2,0.3,0.3,0.7,0.3,1.1
		c0,0.5-0.1,0.9-0.4,1.2s-0.6,0.6-1,0.8s-0.9,0.3-1.4,0.3s-0.9-0.1-1.4-0.2C320.8,649.9,320.4,649.7,320.1,649.4z"/>
	<path class="st4" d="M328.5,642.4v4.2c0,0.8,0.2,1.4,0.6,1.8c0.4,0.5,0.9,0.7,1.6,0.7c0.4,0,0.8-0.1,1.2-0.3
		c0.3-0.2,0.6-0.5,0.8-0.9s0.3-0.8,0.3-1.3v-4.3h1.3v7.8h-1.2l-0.1-1.2c-0.3,0.4-0.7,0.8-1.1,1c-0.5,0.2-1,0.4-1.5,0.4
		c-0.6,0-1.2-0.2-1.7-0.5s-0.9-0.7-1.1-1.3c-0.3-0.5-0.4-1.2-0.4-1.8v-4.4L328.5,642.4L328.5,642.4z"/>
	<path class="st4" d="M338.1,638.1v12h-1.3v-12H338.1z"/>
	<path class="st4" d="M341.4,642.4v-2h1.3v2h2.1v1.2h-2.1v4.2c0,1,0.4,1.4,1.3,1.4c0.1,0,0.3,0,0.4,0s0.3-0.1,0.4-0.1v1.1
		c-0.1,0.1-0.3,0.1-0.5,0.1s-0.4,0.1-0.6,0.1c-0.7,0-1.3-0.2-1.7-0.6c-0.4-0.4-0.6-1-0.6-1.9v-4.3h-1.3v-1.2H341.4z"/>
</g>
<line class="st6" x1="227.7" y1="607.2" x2="106.5" y2="607.2"/>
<polygon class="st4" points="99.6,607.2 110.3,611.1 106.5,607.2 110.3,603.3 "/>
<rect x="154.1" y="597.8" class="st2" width="64.5" height="18.7"/>
<g class="st3">
	<path class="st4" d="M170.7,610.8l1,1c-0.5,0.5-1.2,1-1.9,1.3s-1.6,0.5-2.4,0.5c-0.9,0-1.7-0.2-2.4-0.5s-1.4-0.7-1.9-1.3
		s-1-1.2-1.3-1.9s-0.5-1.6-0.5-2.4s0.2-1.7,0.5-2.4s0.7-1.4,1.3-1.9s1.2-1,1.9-1.3s1.6-0.5,2.4-0.5c0.9,0,1.7,0.2,2.4,0.5
		s1.4,0.7,1.9,1.3l-1,1c-0.4-0.4-0.9-0.8-1.5-1.1s-1.2-0.4-1.9-0.4c-0.9,0-1.7,0.2-2.4,0.6c-0.7,0.4-1.3,1-1.7,1.7s-0.6,1.6-0.6,2.5
		s0.2,1.8,0.6,2.5c0.4,0.7,1,1.3,1.7,1.7s1.5,0.6,2.4,0.6c0.7,0,1.3-0.1,1.9-0.4C169.8,611.6,170.3,611.2,170.7,610.8z"/>
</g>
<g class="st3">
	<path class="st4" d="M173.3,610.9c0-0.8,0.3-1.4,0.9-1.9c0.6-0.5,1.4-0.7,2.5-0.7c0.7,0,1.4,0.1,2.1,0.3v-0.1
		c0-0.7-0.2-1.2-0.6-1.6s-0.9-0.6-1.6-0.6c-0.7,0-1.4,0.2-2.2,0.7l-0.5-1.1c0.5-0.3,1-0.5,1.4-0.6s0.9-0.2,1.4-0.2
		c1,0,1.8,0.3,2.4,0.9c0.6,0.6,0.9,1.4,0.9,2.4v4.6h-1.2l-0.1-1.2c-0.3,0.4-0.6,0.7-1.1,1c-0.4,0.2-1,0.3-1.6,0.3
		c-0.8,0-1.5-0.2-2.1-0.7C173.6,612.2,173.3,611.6,173.3,610.9z M176.8,609.5c-0.7,0-1.2,0.1-1.6,0.4c-0.4,0.2-0.6,0.6-0.6,1
		s0.2,0.7,0.5,1s0.7,0.4,1.2,0.4s0.9-0.1,1.2-0.3c0.4-0.2,0.7-0.5,0.9-0.8s0.3-0.7,0.3-1.1v-0.2
		C178.1,609.6,177.4,609.5,176.8,609.5z"/>
	<path class="st4" d="M182.4,613.2v-7.8h1.2l0.1,1.2c0.3-0.4,0.7-0.8,1.1-1c0.4-0.2,0.9-0.4,1.5-0.4s1.2,0.2,1.7,0.5
		s0.9,0.7,1.1,1.3c0.3,0.5,0.4,1.2,0.4,1.8v4.4h-1.3V609c0-0.8-0.2-1.4-0.6-1.8c-0.4-0.5-0.9-0.7-1.6-0.7c-0.4,0-0.8,0.1-1.2,0.3
		c-0.3,0.2-0.6,0.5-0.8,0.9s-0.3,0.8-0.3,1.3v4.3L182.4,613.2L182.4,613.2z"/>
	<path class="st4" d="M198.2,612.2c-0.4,0.4-0.8,0.6-1.3,0.9c-0.5,0.2-1,0.3-1.6,0.3c-0.8,0-1.5-0.2-2.1-0.5
		c-0.6-0.4-1.1-0.8-1.4-1.4s-0.5-1.3-0.5-2.1s0.2-1.5,0.5-2.1s0.8-1.1,1.4-1.4c0.6-0.4,1.3-0.5,2.1-0.5c0.6,0,1.1,0.1,1.6,0.3
		s0.9,0.5,1.3,0.8l-0.9,0.9c-0.2-0.3-0.5-0.5-0.9-0.6s-0.7-0.2-1.1-0.2c-0.5,0-1,0.1-1.4,0.4c-0.4,0.2-0.7,0.6-1,1
		c-0.2,0.4-0.4,0.9-0.4,1.5s0.1,1,0.4,1.5c0.2,0.4,0.6,0.8,1,1s0.9,0.4,1.4,0.4c0.4,0,0.8-0.1,1.1-0.2s0.6-0.4,0.9-0.6L198.2,612.2z
		"/>
	<path class="st4" d="M207.6,609.3v0.5H201c0.1,0.7,0.5,1.3,1,1.7s1.2,0.7,1.9,0.7c0.4,0,0.9-0.1,1.3-0.2s0.9-0.4,1.3-0.8l0.8,1
		c-0.6,0.5-1.1,0.8-1.7,1s-1.1,0.3-1.6,0.3c-0.8,0-1.6-0.2-2.2-0.5s-1.2-0.8-1.5-1.5c-0.4-0.6-0.6-1.3-0.6-2.1s0.2-1.5,0.5-2.1
		s0.8-1.1,1.4-1.4s1.3-0.5,2.1-0.5s1.5,0.2,2,0.5s1.1,0.8,1.4,1.4S207.6,608.5,207.6,609.3z M201,608.7h5.3
		c-0.1-0.7-0.4-1.2-0.9-1.7s-1.1-0.6-1.7-0.6c-0.7,0-1.3,0.2-1.8,0.7C201.4,607.5,201.1,608.1,201,608.7z"/>
	<path class="st4" d="M210.9,601.2v12h-1.3v-12H210.9z"/>
</g>
</svg>
