<?xml version="1.0" encoding="utf-8"?>
<!-- Generator: Adobe Illustrator 25.0.1, SVG Export Plug-In . SVG Version: 6.00 Build 0)  -->
<svg version="1.1" id="Layer_1" xmlns="http://www.w3.org/2000/svg" xmlns:xlink="http://www.w3.org/1999/xlink" x="0px" y="0px"
	 viewBox="0 0 393.1 168.6" style="enable-background:new 0 0 393.1 168.6;" xml:space="preserve">
<style type="text/css">
	.st0{clip-path:url(#SVGID_2_);}
	.st1{fill:#D9D9D9;}
	.st2{clip-path:url(#SVGID_2_);fill:#7F7F7F;}
</style>
<g>
	<defs>
		<rect id="SVGID_1_" x="6.5" y="5.6" width="382.4" height="155.7"/>
	</defs>
	<clipPath id="SVGID_2_">
		<use xlink:href="#SVGID_1_"  style="overflow:visible;"/>
	</clipPath>
	<g class="st0">
		<path class="st1" d="M207,39.9c-0.4,0-0.8,0.2-1.2,0.2c-2.2,0.2-4.3,0.2-6.5,0.6c-3.2,0.2-6.3,0.6-9.5,0.8
			c-3.4,0.4-6.7,0.8-10.2,1c-1.6,0-3,0.2-4.5,0.4c-1.4,0-2.8,0-3.9-0.4c-1.6-0.6-3.4-0.6-4.9-1.8c0-0.2,0-0.8,0-1.2
			c0.2-0.2,0.4-0.2,0.6-0.2c3.7-1.2,7.7-2.2,11.6-2.8c3-0.6,5.7-1.4,8.5-1.8c2.2-0.4,4.3-0.6,6.5-1c3.4-0.6,6.7-1,10.1-1.8
			c1.4-0.2,3-0.2,4.3-0.6c0.8,0,1.4-0.2,2-0.4c0.8-4.9,1.6-9.7,2.8-14.4c0.6-2.4,1.2-4.9,2-7.5c0.2-1,0.6-2,1.6-2.4
			c1.8-0.2,2.6,1.4,3.7,2.2c1.6,1,1.8,2.4,2,4.1c0.4,2.8,0.4,5.5,0.2,8.5c0,2-0.2,3.9-0.4,5.9c0,0.6,0,1,0,1.8
			c1.6-0.2,3.2-0.2,4.5-0.4c1.6-0.4,3.2-0.8,4.7-1c2.2-0.2,4.3-0.2,6.5-0.4c3.5-0.2,6.9-0.4,10.4-0.6c0.6,0,1.2-0.2,2-0.4
			c2.6,1.2,5.3,2.6,8.1,3.9c-0.2,0.8-0.6,1-1.2,1.2c-2.8,0.6-5.3,1.4-7.9,2.2c-3.5,1.2-7.1,1.8-10.8,2.4c-2.6,0.4-5.3,0.6-8.1,1.2
			c-1.6,0.4-3.3,0.4-5.1,0.6c-1.2,0-2.4,0.2-3.5,0.4c-0.2,0.4-0.4,0.8-0.4,1c0,2,0,3.9-0.4,5.7c-0.4,2.8-0.2,5.5-0.6,8.1
			c-0.4,2.2,0,4.3-0.8,6.3c0,0.2,0,0.4,0,0.6c-0.2,2.4-0.4,4.7-0.6,7.1c0,1-0.2,2.2-0.4,3.4c0,1,0.2,2-0.4,3c0,0.2,0,0.4,0,0.4
			c-0.2,2.8-0.4,5.5-0.6,8.1c0,1.4-0.2,2.8-0.4,3.9c0,1.4,0.2,2.8-0.4,3.9c0,0.2,0,0.4,0,0.6c-0.2,2.8-0.2,5.7-0.6,8.5
			c-0.4,2.6,0,5.3-0.4,8.1c-0.6,5.3-0.2,10.8-0.4,16.4c0,1.4,0.4,2.8,0.4,4.1c0.2,1.4,0.2,2.6,0.4,3.9c0.4,2.2,0.6,4.3,1,6.5
			s0.8,4.3,2.4,5.9c0,0.2,0,0.6,0,1c-0.6,0-1,0.2-1.6,0c-1.2-0.4-2.4-0.6-3.5-1c-1.6-0.2-3-1.2-3.7-2.8c-1-2.2-1.6-4.1-2-6.3
			c-0.8-4.1-1.6-8.1-2.4-12.2c-0.6-3.3-1.2-6.7-1.8-10.2c0,0,0-0.2,0-0.4c-0.2-4.7-0.6-9.3-0.4-14c0-2.8-0.2-5.5,0-8.3
			c0.4-3.4,0.2-6.5,0.6-9.9c0.2-2,0-3.9,0.4-5.7c0.4-2.4,0.2-4.5,0.8-6.9c0.4-1.8,0.2-3.5,0.4-5.3c0.2-2,0.4-3.9,0.6-5.9
			c0.4-3,0.8-5.9,1.2-8.9c0.2-1.6,0.4-3.4,0.6-5.1c0-0.6,0.2-1.2,0.4-2.2C208,39.7,207.4,39.7,207,39.9z M213.5,105.5c0-1,0-2,0-3.2
			c-0.2,0-0.2,0-0.2,0c0,1.2,0,2.2,0,3.2C213.3,105.5,213.3,105.5,213.5,105.5z M213.3,121.4c0,0.2,0,0.4,0,0.8c0,0,0,0,0.2,0
			c0-0.4,0-0.6,0-0.8C213.3,121.4,213.3,121.4,213.3,121.4z M213.7,95.8c0,0.6,0,1.2,0,2h0.2c0-0.8,0-1.4,0-2H213.7z M214.3,91.9
			c0-0.8,0-1.6,0-2.4C214.1,90.3,213.9,91.1,214.3,91.9z M214.5,83.4c0,1.2,0,2,0,2.6C214.9,85.4,214.9,84.6,214.5,83.4z
			 M215.3,80.3c0-0.8,0-1.6,0-2.2c-0.2,0-0.2,0-0.2,0c0,0.6,0,1.4,0,2.2C215.1,80.3,215.1,80.3,215.3,80.3z M215.7,75.1
			c0-0.6,0-1.4,0-2h-0.2c0,0.6,0,1.4,0,2H215.7z M215.9,68c0,0.8,0,1.6,0,2.2c0.2,0,0.2,0,0.2,0c0-0.6,0-1.4,0-2.2
			C216,68,216,68,215.9,68z M216.6,65.3c0-0.6,0-1.2,0-1.6c-0.2,0-0.2,0-0.2,0c-0.2,0.4-0.2,1-0.2,1.4
			C216.4,65.3,216.4,65.3,216.6,65.3z M216.8,59.2c0,0.4,0,1,0,1.6h0.2c0-0.6,0-1.2,0-1.6H216.8z M217.2,54.6c0,0.6,0,1,0,1.6
			c0.2,0,0.2,0,0.2,0c0-0.6,0-1,0-1.6C217.4,54.6,217.4,54.6,217.2,54.6z M217.8,50.1c0,0.6,0,1,0,1.6
			C217.8,51.1,217.8,50.7,217.8,50.1z M218.2,45.2c0,0.6,0,1.4,0,2c0,0,0,0,0.2,0c0-0.6,0-1.4,0-2C218.2,45.2,218.2,45.2,218.2,45.2
			z M218.6,40.2c0,0.4,0,1,0,1.6h0.2c0-0.6,0-1,0.2-1.6C218.8,40.2,218.8,40.2,218.6,40.2z M220,23.5c0,0.4,0,0.6,0,1
			c0.2,0,0.2,0,0.2,0c0-0.4,0-0.8,0-1H220z M220.4,10.7c0,2.4,0,4.5,0,6.7c0.2,0,0.2,0,0.2,0c0-2.2,0-4.3,0-6.7
			C220.6,10.7,220.6,10.7,220.4,10.7z"/>
		<path class="st1" d="M261,111.2c-1.2,1.8-2.8,3.5-4.7,4.5c-1.6,0.2-3,0-4.5-0.6c-1-0.4-2.2-0.6-3.2-0.8c-3.2-1.2-4.9-3.5-5.9-6.5
			c-0.8-2-1.2-4.1-1.6-6.1c-0.6-4.5-0.4-8.9-0.2-13.2c0.2-3,0.8-5.9,1.2-8.9c0.6-3.7,1.4-7.5,2.4-11.2c0.6-2.8,1.6-5.5,2.8-8.1
			c0.4-0.8,1.2-1.6,1.8-2.4c1.8,0.2,2.6,1.4,3.9,1.8c0,0.4,0.2,0.8,0.2,1.2c0.2,0,0.4,0,0.8-0.2c0,0.4,0.4,0.8,0.4,1.2
			c0,2.8,0.2,5.5,0,8.1c-0.4,3.5-0.6,7.1-1,10.4c-0.2,2,0,4.1-0.4,6.1c-0.6,4.3-0.2,8.7-0.4,13c0,0.6-0.2,1.2-0.4,2c0,0.2,0,0.8,0,1
			c0.6,2.2,0.2,4.5,0.6,6.7c0,0.2,0.2,0.4,0.4,0.6c0.8-0.4,1.4-0.8,2-1.4c3-3.7,5.5-7.7,7.7-11.8c2.6-4.9,5.1-10.1,7.9-15
			c1-2.2,1.4-4.5,1.8-6.7c1.2-5.9,1.8-11.8,3.9-17.3c0.4-1,0.8-1.8,1.2-2.8c0.2,0,0.4,0,0.8,0c0.4,0,1,0,1.2,0
			c2.4,1.2,4.5,2.2,6.7,3.3c1,1.6,1.4,3.7,1.4,5.7c0.2,4.1,0.4,8.3,0,12.4c0,2.6,0,4.9-0.4,7.3c-0.4,2.2-0.2,4.1-0.4,6.1
			c-0.4,2.4-0.2,4.5-0.6,6.9c-0.4,2.6,0,5.3-0.4,7.9c-0.6,3.9,0.4-5.7,0-1.6c-0.2,2.6-0.2,5.1-0.4,7.7c-0.4,2.2-1,4.3-1.6,6.5
			c-0.2,1.4-0.8,2.8-1.2,4.1c-0.2,0.8-0.6,1.8-1.6,2.4c-1,0-1.8-0.2-2.8-0.8c-1-0.6-2.2-0.6-3.2-0.8c-0.2,0-0.6,0.2-1,0.2
			c-1.4-1.2-3.3-1.8-3.7-3.9c-0.2-1.4-0.8-2.8-0.8-4.1c0-3.4-1.2-6.7-0.8-10.2c0.4-3.9-0.4,5.9,0,2c0.2-2.4,0-4.5,0.4-6.9
			c0.4-2,0.4-3.7,0.4-5.7c0-0.4,0-0.6,0-1.2c-2.6,5.1-5.1,9.9-7.5,14.6c0,0.6,0,1.2,0,1.8c0.2-0.2,0.6-0.2,0.8-0.4
			C262.8,109.4,261.8,110.2,261,111.2z M250.3,91.5c0,1.2,0,2.2,0,3.4c0.2,0,0.2,0,0.2,0c0-1.2,0-2.2,0-3.4
			C250.5,91.5,250.5,91.5,250.3,91.5z M250.9,85.2c0,0.4,0,1,0,1.6C250.9,86.2,250.9,85.6,250.9,85.2z M251.5,81.4
			c0-0.4,0-0.8,0-1.4c-0.2,0-0.2,0-0.2,0c0,0.6,0,1,0,1.4C251.3,81.4,251.3,81.4,251.5,81.4z M251.9,76.5c0,0,0-0.2-0.2-0.8
			c0,0.6,0,0.8,0,1.2C251.9,76.7,251.9,76.7,251.9,76.5z M252.3,73.2c0-0.4,0-0.8,0-1.2c0,0,0,0-0.2,0c0,0.4,0,0.8,0,1.2
			C252.3,73.2,252.3,73.2,252.3,73.2z M252.5,68c0.2,0.2,0.2,0.4,0.2,0.6h0.2c0-0.2,0-0.4,0-0.6C252.7,68,252.7,68,252.5,68z
			 M253.3,64.7c0-0.8,0-1.4,0-2.2h-0.2c0,0.8,0,1.4,0,2.2H253.3z M263,107.1c0.6,0.6,0.4,0.8,0,1C263,107.8,263,107.7,263,107.1z
			 M281.1,118.3c0,0.2,0,0.4,0,0.8c0,0,0.2,0,0.2-0.2s0-0.4,0-0.6C281.1,118.3,281.1,118.3,281.1,118.3z M281.5,115.5
			c0,0.4,0,0.8,0,1.2h0.2c0-0.4,0-0.8,0-1.2H281.5z M281.9,113.4c0,0.2,0,0.4,0.2,0.6c0,0,0,0,0.2,0c0-0.2-0.2-0.4-0.2-0.6
			C282.1,113.4,282.1,113.4,281.9,113.4z M283.1,105.9c-0.2,0-0.4-0.2-0.4-0.2c0-3-0.4,7.9-0.4,4.7c0.2,0,0.4,0,0.4,0
			C282.7,113.6,283.1,102.7,283.1,105.9z M282.7,111.8c0-1.2,0-2.4,0-3.3c-0.2,0-0.2,0-0.2,0c0,1,0,2.2,0,3.3
			C282.5,111.8,282.5,111.8,282.7,111.8z M283.1,107.5c0-2,0-3.9,0-6.1c0,0,0,0-0.2,0c0,2.2,0,4.1,0,6.1
			C283.1,107.5,283.1,107.5,283.1,107.5z M283.6,99c0-1.6,0-3,0-4.3c-0.2,0-0.2,0-0.2,0c0,1.4,0,2.8,0,4.1
			C283.4,99,283.4,99,283.6,99z M283.6,89.1c0,0.6,0,1,0,1.4c0,0.4,0,0.8,0,1c0,0.4,0.2,0.8,0.2,1h0.2c0-1,0-2.2,0-3.2
			C283.8,89.3,283.8,89.3,283.6,89.1z M284.4,87.2c0-1,0-2.2,0-3.4h-0.2c0,1.2,0,2.4,0,3.4H284.4z M284.8,81.8c0-1.2,0-2.4,0-3.5
			c0,0,0,0-0.2,0c0,1.2,0,2.4,0,3.5C284.8,81.8,284.8,81.8,284.8,81.8z M285.2,71.6c0,1.4,0,2.6,0,3.9c0,0,0,0,0.2,0
			c0-1.4,0-2.6,0-3.9C285.2,71.6,285.2,71.6,285.2,71.6z"/>
		<path class="st1" d="M314,116.5c-0.4-0.6-1.2-1.4-1.6-2.2c-1.2-2.6-2-5.1-2.4-7.9c-0.4-2.4-0.8-4.9-1.2-7.3c0-0.2,0-0.2,0-0.4
			c-0.4-5.7-0.8-11.6-0.6-17.3c0.2-3.5,0.4-7.1,1-10.4c0.6-3.9,1-8.1,2.2-12c0.8-2.2,1-4.3,2.4-6.3c0.6-0.6,1-1,1.6-1.6
			c1.8,0.8,3.2,1.4,4.5,2.4c0.6,0.4,1,1.2,1.4,1.8c0.4,0.6,0.4,1.4,0.6,2c0.2,1.8,0.2,3.5,0.4,5.3c0.6,5.1,0.4,10.2,0.6,15.2
			c0,0.2,0,0.4,0,0.8c0.4-0.4,0.6-0.8,0.8-1.2c1.6-2.6,3-5.3,4.5-7.9c1.4-2.2,3-4.3,4.7-6.3c2-2.4,4.1-4.5,6.1-6.7
			c1.2-1.2,2.4-2.2,4.1-2.8c0.6,0,1.4,0,2.4,0c0.6,0.8,2.2,0.4,2.6,2c-1,0-2,0.2-3,0.2c-3.2,2.8-5.5,6.1-7.9,9.5
			c-3.5,4.5-6.1,9.7-9.1,14.6c-1.8,3.4-3.2,6.9-4.7,10.2c-0.4,1.2-0.8,2.2-0.8,3.4c0.2,2.6,0,5.1,0,7.5c0.2,4.1-0.4,8.1-1.4,11.8
			c-0.4,2-1,3.7-2.4,4.9C317.1,117.3,315.8,116.9,314,116.5z M320.3,106.3c0-1.4,0-2.8,0-4.1C320.1,103.5,319.9,104.9,320.3,106.3z
			 M320.1,82.6c0,0.4,0,1,0,1.6c0.2,0,0.2,0,0.2,0c0-0.6,0-1.2,0-1.6C320.3,82.6,320.3,82.6,320.1,82.6z"/>
		<path class="st1" d="M367.8,56c1,0.4,1.8,1,2.6,1.4c0.8,0.4,1.2,1,1.8,1.4c0.8,0.4,1.4,1,2.2,1.2c2.6,1,4.3,3.2,6.1,5.1
			c2.2,2.8,3.9,5.5,5.3,8.7c0.8,2.4,2,4.5,2.4,6.9c0.4,2.8,1.2,5.5,0.2,8.3c-0.2,0.4,0,0.8,0,1.2c0,2.6-0.6,5.1-1.2,7.7
			c-0.2,2-0.8,4.1-1.6,6.1c-1,3-2.6,5.5-4.7,7.9c-2,2.2-4.3,3.5-7.5,3.4c-0.4,0-0.8,0-1-0.2c-1.8-0.6-3.5-1-5.3-1.6
			c-3.9-1-7.1-3.2-9.5-6.7c-1.8-2.8-3-5.9-3.7-9.3c-0.8-3.9-1-7.9-0.6-11.8c0.4-3.9,0.6-8.1,1.6-12c1-4.7,2.6-9.1,5.5-13
			c1.2-1.8,3-3.4,4.9-4.5C366.2,56,367,56,367.8,56z M364.3,86.2c0-1,0-2,0-3c-0.2,0-0.2,0-0.2,0c0,1,0,2,0,3
			C364.1,86.2,364.1,86.2,364.3,86.2z M364.6,80.3c0-0.6,0-1.2,0-1.6h-0.2c0,0.4,0,1,0,1.6H364.6z M365,76.7c0-0.4,0-0.6,0-0.8
			c0,0,0,0-0.2,0c0,0.2,0,0.4,0,0.8C365,76.7,365,76.7,365,76.7z M370.2,63.9c-0.8,2.8-1.8,5.5-2.4,8.5c-1,3.9-1.4,8.1-1.6,12.2
			c-0.2,4.5-0.4,8.9,0.2,13.4c0.4,2.8,1,5.3,1.6,8.1c0.4,1.2,0.6,2.8,2,3.5c1-0.4,1.8-0.8,2.6-1.2c2.8-1.6,4.5-4.1,5.7-6.9
			c2.4-4.9,3.2-10.4,3.2-15.8c0-2.6-0.4-5.3-1-7.9c-0.2-1.6-0.6-3.2-1.2-4.3c-1.4-3-3-5.5-4.5-8.3c-0.8-1.2-1.6-2.6-3.3-3.7
			C371,62.5,370.4,63.1,370.2,63.9z M386.3,97.8c0-0.2,0-0.4,0-0.8h-0.2c0,0.4,0,0.6,0,0.8H386.3z M386.5,94.4c0,0.4,0,0.8,0.2,1.2
			c0,0,0,0,0.2,0c0-0.4,0-0.8,0-1.2C386.7,94.4,386.5,94.4,386.5,94.4z M387.3,92.5c0-0.4,0-0.8,0-1.2c-0.2,0-0.2,0-0.2,0
			c0,0.4,0,0.8,0,1.2C387.1,92.5,387.1,92.5,387.3,92.5z"/>
	</g>
	<path class="st2" d="M183.9,161.3h-25.6c-2.2,0-3.9-1.8-3.9-3.9s1.8-3.9,3.9-3.9H180v-35.5c0-2.2,1.8-3.9,3.9-3.9s3.9,1.8,3.9,3.9
		v39.4C187.9,159.5,186.1,161.3,183.9,161.3z"/>
	<path class="st2" d="M36.1,161.3H10.5c-2.2,0-3.9-1.8-3.9-3.9v-39.4c0-2.2,1.8-3.9,3.9-3.9s3.9,1.8,3.9,3.9v35.5h21.7
		c2.2,0,3.9,1.8,3.9,3.9S38.3,161.3,36.1,161.3z"/>
	<path class="st2" d="M183.9,56.8c-2.2,0-3.9-1.8-3.9-3.9V17.4h-21.7c-2.2,0-3.9-1.8-3.9-3.9s1.8-3.9,3.9-3.9h25.6
		c2.2,0,3.9,1.8,3.9,3.9v39.4C187.9,55,186.1,56.8,183.9,56.8z"/>
	<path class="st2" d="M10.5,56.8c-2.2,0-3.9-1.8-3.9-3.9V13.4c0-2.2,1.8-3.9,3.9-3.9h25.6c2.2,0,3.9,1.8,3.9,3.9s-1.8,3.9-3.9,3.9
		H14.4v35.5C14.4,55,12.7,56.8,10.5,56.8z"/>
	<g class="st0">
		<path class="st1" d="M78.6,111.9H49.1l-4.4,11.9H28.2L63.1,40h1.2l35,83.8H83.2L78.6,111.9z M74.2,100.4l-8.6-22.5l-2-6.6
			l-1.9,6.6l-8.3,22.5H74.2z"/>
		<path class="st1" d="M144.9,123.8L123.7,94v29.8h-15V41.4h22.9c19.6,0,29.3,8.8,29.3,26.3c0,3.9-0.6,7.7-1.9,11.5
			c-1.3,3.8-3.3,7.1-6.2,10c-2.9,2.9-6.5,4.9-11,6l21.3,28.6H144.9z M130,86.6c3.3,0,6.2-0.8,8.6-2.4c2.4-1.6,4.2-3.7,5.4-6.4
			c1.2-2.7,1.8-5.6,1.8-8.7c0-5.4-1.3-9.4-3.8-12c-2.5-2.6-6.7-3.8-12.4-3.8h-5.9v33.3H130z"/>
	</g>
</g>
</svg>
