<?xml version="1.0" encoding="utf-8"?>
<!-- Generator: Adobe Illustrator 25.0.1, SVG Export Plug-In . SVG Version: 6.00 Build 0)  -->
<svg version="1.1" id="Layer_1" xmlns="http://www.w3.org/2000/svg" xmlns:xlink="http://www.w3.org/1999/xlink" x="0px" y="0px"
	 viewBox="0 0 461.6 1118.7" style="enable-background:new 0 0 461.6 1118.7;" xml:space="preserve">
<style type="text/css">
	.st0{fill:#FFFFFF;}
	.st1{fill:none;}
	.st2{clip-path:url(#SVGID_2_);}
	.st3{enable-background:new    ;}
	.st4{fill:#9E9D9E;}
	.st5{clip-path:url(#SVGID_4_);}
	.st6{fill:none;stroke:#9E9D9E;stroke-width:2;}
	.st7{clip-path:url(#SVGID_6_);}
	.st8{fill:#7F8080;}
	.st9{clip-path:url(#SVGID_8_);}
	.st10{clip-path:url(#SVGID_10_);}
	.st11{font-family:'KumbhSans-Regular';}
	.st12{font-size:16px;}
	.st13{clip-path:url(#SVGID_12_);}
	.st14{clip-path:url(#SVGID_14_);}
	.st15{clip-path:url(#SVGID_16_);}
	.st16{clip-path:url(#SVGID_18_);}
	.st17{clip-path:url(#SVGID_20_);}
	.st18{clip-path:url(#SVGID_22_);}
	.st19{clip-path:url(#SVGID_24_);}
	.st20{clip-path:url(#SVGID_26_);}
	.st21{clip-path:url(#SVGID_28_);}
	.st22{clip-path:url(#SVGID_30_);}
	.st23{clip-path:url(#SVGID_32_);}
</style>
<rect class="st0" width="461.6" height="1118.7"/>
<rect x="-32.7" y="19.8" class="st1" width="526.9" height="647.9"/>
<g>
	<defs>
		<rect id="SVGID_1_" x="-32.7" y="19.8" width="526.9" height="647.9"/>
	</defs>
	<clipPath id="SVGID_2_">
		<use xlink:href="#SVGID_1_"  style="overflow:visible;"/>
	</clipPath>
	<g class="st2">
		<path class="st0" d="M267.3,304h120.6c5.9,0,10.6,4.7,10.6,10.6v21c0,5.9-4.7,10.6-10.6,10.6H267.3c-5.9,0-10.6-4.7-10.6-10.6v-21
			C256.7,308.7,261.5,304,267.3,304z"/>
	</g>
</g>
<g class="st3">
	<path class="st4" d="M299.2,328.9c0.4,0.4,0.9,0.7,1.4,0.9s1,0.3,1.5,0.3c0.5,0,0.9-0.1,1.3-0.2s0.7-0.4,1-0.7s0.4-0.7,0.4-1.1
		c0-0.4-0.1-0.8-0.4-1.1s-0.6-0.6-1-0.8s-0.8-0.4-1.3-0.6c-0.4-0.2-0.8-0.4-1.1-0.5s-0.7-0.4-1-0.7s-0.5-0.5-0.7-0.9
		s-0.3-0.7-0.3-1.2c0-0.6,0.2-1.2,0.5-1.6s0.8-0.8,1.3-1s1.2-0.4,1.9-0.4c0.5,0,0.9,0.1,1.4,0.2s1,0.3,1.5,0.5L305,321
		c-0.4-0.2-0.7-0.4-1.1-0.5s-0.8-0.1-1.1-0.1c-0.7,0-1.2,0.2-1.7,0.5s-0.7,0.7-0.7,1.3c0,0.4,0.1,0.7,0.4,1s0.6,0.5,0.9,0.7
		s0.8,0.4,1.2,0.6c0.4,0.2,0.8,0.4,1.2,0.6s0.7,0.4,1.1,0.7s0.6,0.6,0.8,0.9s0.3,0.8,0.3,1.3c0,0.7-0.2,1.2-0.5,1.8
		s-0.8,0.9-1.5,1.2s-1.3,0.4-2.1,0.4c-0.6,0-1.2-0.1-1.8-0.3s-1.2-0.5-1.7-0.9L299.2,328.9z"/>
	<path class="st4" d="M308.1,320.3c0-0.3,0.1-0.5,0.3-0.6s0.4-0.3,0.6-0.3c0.3,0,0.5,0.1,0.6,0.3s0.3,0.4,0.3,0.6
		c0,0.3-0.1,0.5-0.3,0.6s-0.4,0.3-0.6,0.3c-0.3,0-0.5-0.1-0.6-0.3S308.1,320.5,308.1,320.3z M308.3,331.1v-7.8h1.3v7.8H308.3z"/>
	<path class="st4" d="M315.5,331.3c-0.8,0-1.4-0.2-2-0.5s-1.1-0.8-1.4-1.4s-0.5-1.3-0.5-2.1s0.2-1.5,0.5-2.1s0.8-1.1,1.4-1.4
		s1.3-0.5,2-0.5c0.6,0,1.1,0.1,1.6,0.3s0.9,0.5,1.3,0.9l0.1-1.1h1.2v7c0,1-0.2,1.8-0.5,2.5s-0.9,1.3-1.5,1.7s-1.5,0.6-2.5,0.6
		c-0.5,0-1.1-0.1-1.5-0.2s-0.9-0.4-1.3-0.7l0.6-1.1c0.3,0.3,0.6,0.5,1,0.6s0.8,0.2,1.2,0.2c1.1,0,1.9-0.3,2.5-1s0.8-1.5,0.8-2.6
		v-0.4c-0.3,0.4-0.8,0.7-1.3,0.9S316.1,331.3,315.5,331.3z M312.9,327.2c0,0.6,0.1,1,0.4,1.5s0.6,0.8,1,1s0.9,0.4,1.4,0.4
		s1-0.1,1.4-0.4s0.7-0.6,1-1s0.4-0.9,0.4-1.5c0-0.6-0.1-1.1-0.4-1.5s-0.6-0.8-1-1s-0.9-0.4-1.4-0.4s-1,0.1-1.4,0.4s-0.7,0.6-1,1
		S312.9,326.6,312.9,327.2z"/>
	<path class="st4" d="M322.2,331.1v-7.8h1.2l0.1,1.2c0.3-0.4,0.7-0.8,1.1-1s0.9-0.4,1.5-0.4c0.6,0,1.2,0.2,1.7,0.5s0.9,0.7,1.1,1.3
		s0.4,1.2,0.4,1.8v4.4H328v-4.2c0-0.8-0.2-1.4-0.6-1.8s-0.9-0.7-1.6-0.7c-0.4,0-0.8,0.1-1.2,0.3s-0.6,0.5-0.8,0.9s-0.3,0.8-0.3,1.3
		v4.3H322.2z"/>
	<path class="st4" d="M335.7,326v-6.6h1.4v6.8c0,0.8,0.1,1.4,0.4,2s0.7,1,1.2,1.4s1.1,0.5,1.8,0.5c0.7,0,1.3-0.2,1.8-0.5
		s0.9-0.8,1.2-1.4s0.4-1.3,0.4-2v-6.8h1.4v6.6c0,1.1-0.2,2-0.6,2.9s-0.9,1.4-1.6,1.9s-1.6,0.7-2.6,0.7c-1,0-1.8-0.2-2.6-0.7
		s-1.3-1.1-1.6-1.9S335.7,327,335.7,326z"/>
	<path class="st4" d="M348.9,323.3l0.1,1.1c0.4-0.4,0.8-0.7,1.3-0.9s1-0.3,1.6-0.3c0.8,0,1.4,0.2,2,0.5s1.1,0.8,1.4,1.4
		s0.5,1.3,0.5,2.1s-0.2,1.5-0.5,2.1s-0.8,1.1-1.4,1.4s-1.3,0.5-2,0.5c-0.6,0-1.1-0.1-1.6-0.3s-0.9-0.5-1.3-0.9v4.9h-1.3v-11.7H348.9
		z M351.7,330.1c0.5,0,1-0.1,1.4-0.4s0.7-0.6,1-1s0.4-0.9,0.4-1.5c0-0.6-0.1-1.1-0.4-1.5s-0.6-0.8-1-1s-0.9-0.4-1.4-0.4
		s-1,0.1-1.4,0.4s-0.7,0.6-1,1s-0.4,0.9-0.4,1.5c0,0.6,0.1,1,0.4,1.5s0.6,0.8,1,1S351.2,330.1,351.7,330.1z"/>
</g>
<g>
	<defs>
		<rect id="SVGID_3_" x="-32.7" y="19.8" width="526.9" height="647.9"/>
	</defs>
	<clipPath id="SVGID_4_">
		<use xlink:href="#SVGID_3_"  style="overflow:visible;"/>
	</clipPath>
	<g class="st5">
		<path class="st6" d="M267.3,304h120.6c5.9,0,10.6,4.7,10.6,10.6v21c0,5.9-4.7,10.6-10.6,10.6H267.3c-5.9,0-10.6-4.7-10.6-10.6v-21
			C256.7,308.7,261.5,304,267.3,304z"/>
	</g>
</g>
<line class="st6" x1="327.6" y1="348.2" x2="327.6" y2="390.7"/>
<polygon class="st4" points="327.6,397.6 331.5,386.9 327.6,390.7 323.7,386.9 "/>
<rect x="288.4" y="353.2" class="st0" width="78.4" height="18.7"/>
<g class="st3">
	<path class="st4" d="M308.7,356.9h6.7v1.2h-5.4v3.8h5v1.2h-5v4.1h5.6v1.2h-7V356.9z"/>
</g>
<g class="st3">
	<path class="st4" d="M318.1,368.6v-7.8h1.2l0.1,1.2c0.3-0.4,0.7-0.8,1.1-1c0.4-0.2,0.9-0.4,1.5-0.4c0.6,0,1.2,0.2,1.7,0.5
		c0.5,0.3,0.9,0.7,1.1,1.3c0.3,0.5,0.4,1.2,0.4,1.8v4.4h-1.3v-4.2c0-0.8-0.2-1.4-0.6-1.8c-0.4-0.5-0.9-0.7-1.6-0.7
		c-0.4,0-0.8,0.1-1.2,0.3c-0.3,0.2-0.6,0.5-0.8,0.9s-0.3,0.8-0.3,1.3v4.3H318.1z"/>
</g>
<g class="st3">
	<path class="st4" d="M328.2,360.8v-2h1.3v2h2.1v1.2h-2.1v4.2c0,1,0.4,1.4,1.3,1.4c0.1,0,0.3,0,0.4,0c0.1,0,0.3-0.1,0.4-0.1v1.1
		c-0.1,0.1-0.3,0.1-0.5,0.1c-0.2,0-0.4,0.1-0.6,0.1c-0.7,0-1.3-0.2-1.7-0.6c-0.4-0.4-0.6-1-0.6-1.9v-4.3h-1.3v-1.2H328.2z"/>
	<path class="st4" d="M341.3,364.7v0.5h-6.6c0.1,0.7,0.5,1.3,1,1.7s1.2,0.7,1.9,0.7c0.4,0,0.9-0.1,1.3-0.2s0.9-0.4,1.3-0.8l0.8,1
		c-0.6,0.5-1.1,0.8-1.7,1c-0.6,0.2-1.1,0.3-1.6,0.3c-0.8,0-1.6-0.2-2.2-0.5s-1.2-0.8-1.5-1.5c-0.4-0.6-0.6-1.3-0.6-2.1
		c0-0.8,0.2-1.5,0.5-2.1c0.3-0.6,0.8-1.1,1.4-1.4s1.3-0.5,2.1-0.5c0.8,0,1.5,0.2,2,0.5s1.1,0.8,1.4,1.4
		C341.1,363.2,341.3,363.9,341.3,364.7z M334.6,364.1h5.3c-0.1-0.7-0.4-1.2-0.9-1.7c-0.5-0.4-1.1-0.6-1.7-0.6
		c-0.7,0-1.3,0.2-1.8,0.7C335,362.9,334.7,363.4,334.6,364.1z"/>
	<path class="st4" d="M343.2,368.6v-7.8h1.2l0.1,1.2c0.3-0.4,0.6-0.8,1-1c0.4-0.3,0.9-0.4,1.5-0.4c0.2,0,0.5,0,0.7,0.1l-0.2,1.2
		c-0.3-0.1-0.5-0.1-0.7-0.1c-0.7,0-1.3,0.3-1.7,0.8c-0.4,0.5-0.6,1.2-0.6,2v4H343.2z"/>
</g>
<polyline class="st6" points="327.6,296.1 327.6,230.6 258.6,230.6 128.6,230.6 128.6,637 "/>
<polygon class="st4" points="327.6,303 331.5,292.3 327.6,296.1 323.7,292.3 "/>
<rect x="98.4" y="259.5" class="st0" width="58.4" height="18.7"/>
<g class="st3">
	<path class="st4" d="M108.7,263.2h6.7v1.2h-5.4v3.8h5v1.2h-5v4.1h5.6v1.2h-7V263.2z"/>
</g>
<g class="st3">
	<path class="st4" d="M118.1,274.9v-7.8h1.2l0.1,1.2c0.3-0.4,0.7-0.8,1.1-1c0.4-0.2,0.9-0.4,1.5-0.4c0.6,0,1.2,0.2,1.7,0.5
		c0.5,0.3,0.9,0.7,1.1,1.3c0.3,0.5,0.4,1.2,0.4,1.8v4.4h-1.3v-4.2c0-0.8-0.2-1.4-0.6-1.8c-0.4-0.5-0.9-0.7-1.6-0.7
		c-0.4,0-0.8,0.1-1.2,0.3c-0.3,0.2-0.6,0.5-0.8,0.9s-0.3,0.8-0.3,1.3v4.3H118.1z"/>
</g>
<g class="st3">
	<path class="st4" d="M128.2,267.1v-2h1.3v2h2.1v1.2h-2.1v4.2c0,1,0.4,1.4,1.3,1.4c0.1,0,0.3,0,0.4,0c0.1,0,0.3-0.1,0.4-0.1v1.1
		c-0.1,0.1-0.3,0.1-0.5,0.1c-0.2,0-0.4,0.1-0.6,0.1c-0.7,0-1.3-0.2-1.7-0.6c-0.4-0.4-0.6-1-0.6-1.9v-4.3h-1.3v-1.2H128.2z"/>
	<path class="st4" d="M141.2,271v0.5h-6.6c0.1,0.7,0.5,1.3,1,1.7s1.2,0.7,1.9,0.7c0.4,0,0.9-0.1,1.3-0.2s0.9-0.4,1.3-0.8l0.8,1
		c-0.6,0.5-1.1,0.8-1.7,1c-0.6,0.2-1.1,0.3-1.6,0.3c-0.8,0-1.6-0.2-2.2-0.5s-1.2-0.8-1.5-1.5c-0.4-0.6-0.6-1.3-0.6-2.1
		c0-0.8,0.2-1.5,0.5-2.1c0.3-0.6,0.8-1.1,1.4-1.4s1.3-0.5,2.1-0.5c0.8,0,1.5,0.2,2,0.5s1.1,0.8,1.4,1.4
		C141.1,269.5,141.2,270.2,141.2,271z M134.6,270.4h5.3c-0.1-0.7-0.4-1.2-0.9-1.7c-0.5-0.4-1.1-0.6-1.7-0.6c-0.7,0-1.3,0.2-1.8,0.7
		C135,269.2,134.7,269.8,134.6,270.4z"/>
	<path class="st4" d="M143.2,274.9v-7.8h1.2l0.1,1.2c0.3-0.4,0.6-0.8,1-1c0.4-0.3,0.9-0.4,1.5-0.4c0.2,0,0.5,0,0.7,0.1l-0.2,1.2
		c-0.3-0.1-0.5-0.1-0.7-0.1c-0.7,0-1.3,0.3-1.7,0.8c-0.4,0.5-0.6,1.2-0.6,2v4H143.2z"/>
</g>
<g>
	<defs>
		<rect id="SVGID_5_" x="-32.7" y="19.8" width="526.9" height="647.9"/>
	</defs>
	<clipPath id="SVGID_6_">
		<use xlink:href="#SVGID_5_"  style="overflow:visible;"/>
	</clipPath>
	<g class="st7">
		<path class="st8" d="M69.5,116.2h119.8c6.1,0,11,4.9,11,11v20.2c0,6.1-4.9,11-11,11H69.5c-6.1,0-11-4.9-11-11v-20.2
			C58.5,121.1,63.4,116.2,69.5,116.2z"/>
	</g>
</g>
<g class="st3">
	<path class="st0" d="M81.1,141.3c0.5,0,0.9-0.1,1.2-0.4c0.3-0.3,0.5-0.6,0.5-1c0-0.3-0.1-0.6-0.3-0.8s-0.5-0.4-0.8-0.6
		s-0.7-0.3-1.1-0.5c-0.4-0.2-0.8-0.3-1.2-0.5s-0.8-0.4-1.1-0.7c-0.3-0.3-0.6-0.6-0.8-1s-0.3-0.8-0.3-1.4c0-0.7,0.2-1.2,0.5-1.7
		s0.8-0.9,1.4-1.1s1.3-0.4,2.1-0.4c1.3,0,2.5,0.3,3.6,0.9l-1,2c-0.5-0.3-1-0.5-1.5-0.7c-0.5-0.1-0.8-0.2-1.2-0.2
		c-0.5,0-0.8,0.1-1.1,0.3c-0.3,0.2-0.4,0.5-0.4,0.8c0,0.3,0.1,0.5,0.3,0.7c0.2,0.2,0.5,0.4,0.8,0.5c0.3,0.2,0.7,0.3,1.1,0.5
		c0.4,0.2,0.8,0.3,1.2,0.5c0.4,0.2,0.8,0.4,1.1,0.7c0.3,0.3,0.6,0.6,0.8,1s0.3,0.9,0.3,1.4c0,0.7-0.2,1.3-0.5,1.9s-0.9,1-1.5,1.3
		c-0.6,0.3-1.4,0.5-2.2,0.5c-0.8,0-1.5-0.1-2.3-0.4c-0.8-0.3-1.5-0.6-2.1-1.1l1.1-1.9c0.3,0.3,0.6,0.5,1,0.7
		c0.4,0.2,0.8,0.4,1.2,0.5C80.4,141.3,80.8,141.3,81.1,141.3z"/>
	<path class="st0" d="M87,135.4h2.1l0.1,0.8c0.3-0.3,0.7-0.6,1.1-0.7s0.9-0.3,1.4-0.3c0.7,0,1.4,0.2,2,0.5c0.6,0.4,1,0.8,1.4,1.4
		s0.5,1.3,0.5,2.1s-0.2,1.5-0.5,2.1s-0.8,1.1-1.4,1.4c-0.6,0.4-1.2,0.5-2,0.5c-0.5,0-0.9-0.1-1.4-0.2s-0.8-0.4-1.1-0.7v4.7H87V135.4
		z M91.2,137.2c-0.6,0-1,0.2-1.4,0.6s-0.6,0.9-0.6,1.5s0.2,1.1,0.6,1.5s0.8,0.6,1.4,0.6c0.6,0,1-0.2,1.4-0.6s0.6-0.9,0.6-1.5
		s-0.2-1.1-0.6-1.5S91.8,137.2,91.2,137.2z"/>
	<path class="st0" d="M99.2,131.2v12H97v-12H99.2z"/>
	<path class="st0" d="M101,141.1c0-0.5,0.1-1,0.4-1.4c0.3-0.4,0.7-0.7,1.2-1c0.5-0.2,1.1-0.4,1.8-0.4c0.2,0,0.4,0,0.7,0
		c0.2,0,0.5,0.1,0.7,0.1c-0.2-0.8-0.8-1.3-1.9-1.3c-0.6,0-1.3,0.2-1.9,0.7l-0.8-1.9c0.5-0.3,1.1-0.5,1.6-0.6c0.5-0.1,1-0.2,1.5-0.2
		c0.8,0,1.4,0.1,2,0.4s1,0.7,1.3,1.2c0.3,0.5,0.5,1.1,0.5,1.8v4.5h-1.9l-0.1-0.8c-0.3,0.3-0.6,0.5-1.1,0.7c-0.4,0.2-0.9,0.3-1.4,0.3
		c-0.8,0-1.4-0.2-1.9-0.6C101.3,142.3,101,141.7,101,141.1z M103.3,140.5c0,0.3,0.1,0.5,0.3,0.6c0.2,0.2,0.5,0.2,0.8,0.2
		c0.4,0,0.8-0.1,1.1-0.4s0.5-0.6,0.5-1v-0.2c-0.2-0.1-0.4-0.1-0.6-0.1c-0.2,0-0.4-0.1-0.7-0.1c-0.4,0-0.8,0.1-1,0.2
		C103.4,140,103.3,140.3,103.3,140.5z"/>
	<path class="st0" d="M109.6,142.2l1.1-1.7c0.4,0.3,0.9,0.5,1.2,0.7c0.4,0.2,0.7,0.3,1,0.3c0.2,0,0.4-0.1,0.6-0.2s0.2-0.2,0.2-0.4
		c0-0.2-0.1-0.4-0.4-0.6c-0.3-0.1-0.6-0.3-0.9-0.4c-0.4-0.2-0.7-0.3-1.1-0.5s-0.7-0.4-0.9-0.7c-0.2-0.3-0.4-0.7-0.4-1.2
		c0-0.7,0.3-1.2,0.8-1.6s1.3-0.6,2.2-0.6c0.5,0,1,0.1,1.5,0.2c0.5,0.1,1,0.3,1.4,0.6l-1,1.7c-0.2-0.2-0.5-0.3-0.9-0.4
		s-0.7-0.2-0.9-0.2c-0.1,0-0.3,0-0.5,0.1c-0.2,0.1-0.3,0.2-0.3,0.3c0,0.2,0.1,0.4,0.4,0.5s0.5,0.3,0.9,0.4c0.4,0.1,0.7,0.3,1.1,0.5
		c0.4,0.2,0.7,0.4,1,0.8c0.3,0.3,0.4,0.7,0.4,1.2s-0.1,1-0.4,1.3s-0.7,0.7-1.1,0.8s-1,0.3-1.6,0.3c-0.5,0-1.1-0.1-1.7-0.3
		C110.7,142.9,110.1,142.6,109.6,142.2z"/>
	<path class="st0" d="M117.6,143.2v-11.7h2.2v4.7c0.6-0.6,1.4-0.9,2.3-0.9c2,0,3,1.3,3,3.8v4.2h-2.2V139c0-0.6-0.1-1-0.4-1.4
		c-0.2-0.3-0.6-0.5-1.1-0.5c-0.5,0-0.9,0.2-1.2,0.5s-0.5,0.8-0.5,1.3v4.2H117.6z"/>
	<path class="st0" d="M134.3,141.3c0.5,0,0.9-0.1,1.2-0.4c0.3-0.3,0.5-0.6,0.5-1c0-0.3-0.1-0.6-0.3-0.8s-0.5-0.4-0.8-0.6
		s-0.7-0.3-1.1-0.5c-0.4-0.2-0.8-0.3-1.2-0.5s-0.8-0.4-1.1-0.7c-0.3-0.3-0.6-0.6-0.8-1s-0.3-0.8-0.3-1.4c0-0.7,0.2-1.2,0.5-1.7
		s0.8-0.9,1.4-1.1s1.3-0.4,2.1-0.4c1.3,0,2.5,0.3,3.6,0.9l-1,2c-0.5-0.3-1-0.5-1.5-0.7c-0.5-0.1-0.8-0.2-1.2-0.2
		c-0.5,0-0.8,0.1-1.1,0.3c-0.3,0.2-0.4,0.5-0.4,0.8c0,0.3,0.1,0.5,0.3,0.7c0.2,0.2,0.5,0.4,0.8,0.5c0.3,0.2,0.7,0.3,1.1,0.5
		c0.4,0.2,0.8,0.3,1.2,0.5c0.4,0.2,0.8,0.4,1.1,0.7c0.3,0.3,0.6,0.6,0.8,1s0.3,0.9,0.3,1.4c0,0.7-0.2,1.3-0.5,1.9s-0.9,1-1.5,1.3
		c-0.6,0.3-1.4,0.5-2.2,0.5c-0.8,0-1.5-0.1-2.3-0.4c-0.8-0.3-1.5-0.6-2.1-1.1l1.1-1.9c0.3,0.3,0.6,0.5,1,0.7
		c0.4,0.2,0.8,0.4,1.2,0.5C133.6,141.3,134,141.3,134.3,141.3z"/>
	<path class="st0" d="M147,142.2c-0.4,0.4-0.8,0.6-1.4,0.9c-0.5,0.2-1.1,0.3-1.7,0.3c-0.8,0-1.6-0.2-2.2-0.5s-1.2-0.8-1.5-1.4
		s-0.6-1.3-0.6-2.1s0.2-1.5,0.6-2.1s0.9-1.1,1.5-1.4s1.4-0.5,2.2-0.5c0.6,0,1.2,0.1,1.7,0.3c0.5,0.2,1,0.5,1.4,0.9l-1.6,1.5
		c-0.4-0.5-0.9-0.7-1.5-0.7c-0.6,0-1,0.2-1.4,0.6s-0.6,0.9-0.6,1.5s0.2,1.1,0.6,1.5s0.8,0.6,1.4,0.6c0.6,0,1.1-0.2,1.5-0.7
		L147,142.2z"/>
	<path class="st0" d="M148.5,143.2v-7.8h2l0.1,1.1c0.6-0.8,1.3-1.3,2.3-1.3c0.3,0,0.7,0.1,1,0.2l-0.3,1.9c-0.3-0.1-0.6-0.1-0.9-0.1
		c-0.6,0-1.1,0.2-1.5,0.7c-0.4,0.4-0.6,1.1-0.6,1.9v3.4H148.5z"/>
	<path class="st0" d="M156.4,140c0.1,0.4,0.4,0.8,0.8,1.1c0.4,0.3,0.8,0.4,1.3,0.4c0.5,0,1-0.1,1.3-0.3c0.4-0.2,0.7-0.4,1-0.7
		l1.4,1.6c-0.6,0.5-1.2,0.8-1.8,1c-0.6,0.2-1.2,0.3-1.7,0.3c-0.9,0-1.6-0.2-2.3-0.5c-0.7-0.4-1.2-0.8-1.6-1.5s-0.6-1.3-0.6-2.1
		c0-0.8,0.2-1.5,0.5-2.1s0.9-1.1,1.5-1.4c0.6-0.4,1.3-0.5,2.1-0.5c0.8,0,1.5,0.2,2.1,0.5c0.6,0.3,1.1,0.8,1.4,1.4
		c0.4,0.6,0.5,1.3,0.5,2.1v0.7H156.4z M160.2,138.7c-0.1-0.5-0.3-0.8-0.7-1.1c-0.3-0.3-0.7-0.4-1.2-0.4c-0.5,0-0.9,0.1-1.2,0.4
		s-0.6,0.7-0.7,1.1H160.2z"/>
	<path class="st0" d="M165.5,140c0.1,0.4,0.4,0.8,0.8,1.1c0.4,0.3,0.8,0.4,1.3,0.4c0.5,0,1-0.1,1.3-0.3c0.4-0.2,0.7-0.4,1-0.7
		l1.4,1.6c-0.6,0.5-1.2,0.8-1.8,1c-0.6,0.2-1.2,0.3-1.7,0.3c-0.9,0-1.6-0.2-2.3-0.5c-0.7-0.4-1.2-0.8-1.6-1.5s-0.6-1.3-0.6-2.1
		c0-0.8,0.2-1.5,0.5-2.1s0.9-1.1,1.5-1.4c0.6-0.4,1.3-0.5,2.1-0.5c0.8,0,1.5,0.2,2.1,0.5c0.6,0.3,1.1,0.8,1.4,1.4
		c0.4,0.6,0.5,1.3,0.5,2.1v0.7H165.5z M169.3,138.7c-0.1-0.5-0.3-0.8-0.7-1.1c-0.3-0.3-0.7-0.4-1.2-0.4c-0.5,0-0.9,0.1-1.2,0.4
		s-0.6,0.7-0.7,1.1H169.3z"/>
	<path class="st0" d="M173.1,143.2v-7.8h2l0.1,1c0.3-0.4,0.7-0.6,1.1-0.8s0.9-0.3,1.4-0.3c0.9,0,1.6,0.3,2.2,0.9
		c0.5,0.6,0.8,1.4,0.8,2.5v4.6h-2.3v-4.1c0-1.3-0.5-1.9-1.4-1.9c-0.5,0-0.9,0.2-1.2,0.5s-0.5,0.9-0.5,1.5v4H173.1z"/>
</g>
<g>
	<defs>
		<rect id="SVGID_7_" x="-32.7" y="19.8" width="526.9" height="647.9"/>
	</defs>
	<clipPath id="SVGID_8_">
		<use xlink:href="#SVGID_7_"  style="overflow:visible;"/>
	</clipPath>
	<g class="st9">
		<path class="st0" d="M69.1,209.9h120.6c5.9,0,10.6,4.7,10.6,10.6v21c0,5.9-4.7,10.6-10.6,10.6H69.1c-5.9,0-10.6-4.7-10.6-10.6v-21
			C58.5,214.6,63.2,209.9,69.1,209.9z"/>
	</g>
</g>
<g class="st3">
	<path class="st4" d="M88.7,237h-6.9v-11.7h1.4v10.5h5.5V237z"/>
</g>
<g class="st3">
	<path class="st4" d="M89.7,233.1c0-0.8,0.2-1.5,0.5-2.1s0.8-1.1,1.4-1.4c0.6-0.4,1.3-0.5,2.1-0.5s1.5,0.2,2.1,0.5
		c0.6,0.4,1.1,0.8,1.4,1.4s0.5,1.3,0.5,2.1s-0.2,1.5-0.5,2.1s-0.8,1.1-1.4,1.4c-0.6,0.4-1.3,0.5-2.1,0.5s-1.5-0.2-2.1-0.5
		c-0.6-0.4-1.1-0.8-1.4-1.4S89.7,233.8,89.7,233.1z M91,233.1c0,0.6,0.1,1,0.4,1.5c0.2,0.4,0.6,0.8,1,1c0.4,0.2,0.9,0.4,1.4,0.4
		c0.5,0,1-0.1,1.4-0.4c0.4-0.2,0.7-0.6,1-1c0.2-0.4,0.4-0.9,0.4-1.5c0-0.6-0.1-1.1-0.4-1.5c-0.2-0.4-0.6-0.8-1-1
		c-0.4-0.2-0.9-0.4-1.4-0.4c-0.5,0-1,0.1-1.4,0.4c-0.4,0.2-0.7,0.6-1,1C91.1,232,91,232.5,91,233.1z"/>
	<path class="st4" d="M103.2,237.1c-0.8,0-1.4-0.2-2-0.5c-0.6-0.4-1.1-0.8-1.4-1.4c-0.3-0.6-0.5-1.3-0.5-2.1s0.2-1.5,0.5-2.1
		c0.3-0.6,0.8-1.1,1.4-1.4c0.6-0.4,1.3-0.5,2-0.5c0.6,0,1.1,0.1,1.6,0.3s0.9,0.5,1.3,0.9l0.1-1.1h1.2v7c0,1-0.2,1.8-0.5,2.5
		c-0.3,0.7-0.9,1.3-1.5,1.7s-1.5,0.6-2.5,0.6c-0.5,0-1.1-0.1-1.5-0.2c-0.5-0.2-0.9-0.4-1.3-0.7l0.6-1.1c0.3,0.3,0.6,0.5,1,0.6
		s0.8,0.2,1.2,0.2c1.1,0,1.9-0.3,2.5-1c0.5-0.6,0.8-1.5,0.8-2.6v-0.4c-0.3,0.4-0.8,0.7-1.3,0.9C104.3,237,103.7,237.1,103.2,237.1z
		 M100.6,233.1c0,0.6,0.1,1,0.4,1.5c0.2,0.4,0.6,0.8,1,1c0.4,0.2,0.9,0.4,1.4,0.4c0.5,0,1-0.1,1.4-0.4c0.4-0.2,0.7-0.6,1-1
		c0.2-0.4,0.4-0.9,0.4-1.5c0-0.6-0.1-1.1-0.4-1.5c-0.2-0.4-0.6-0.8-1-1c-0.4-0.2-0.9-0.4-1.4-0.4c-0.5,0-1,0.1-1.4,0.4
		c-0.4,0.2-0.7,0.6-1,1C100.7,232,100.6,232.5,100.6,233.1z"/>
	<path class="st4" d="M109.6,226.1c0-0.3,0.1-0.5,0.3-0.6c0.2-0.2,0.4-0.3,0.6-0.3c0.3,0,0.5,0.1,0.6,0.3s0.3,0.4,0.3,0.6
		c0,0.3-0.1,0.5-0.3,0.6s-0.4,0.3-0.6,0.3c-0.3,0-0.5-0.1-0.6-0.3C109.6,226.6,109.6,226.4,109.6,226.1z M109.8,237v-7.8h1.3v7.8
		H109.8z"/>
	<path class="st4" d="M113.6,237v-7.8h1.2l0.1,1.2c0.3-0.4,0.7-0.8,1.1-1c0.4-0.2,0.9-0.4,1.5-0.4c0.6,0,1.2,0.2,1.7,0.5
		c0.5,0.3,0.9,0.7,1.1,1.3c0.3,0.5,0.4,1.2,0.4,1.8v4.4h-1.3v-4.2c0-0.8-0.2-1.4-0.6-1.8c-0.4-0.5-0.9-0.7-1.6-0.7
		c-0.4,0-0.8,0.1-1.2,0.3c-0.3,0.2-0.6,0.5-0.8,0.9s-0.3,0.8-0.3,1.3v4.3H113.6z"/>
	<path class="st4" d="M127.2,234.7c0.4,0.4,0.9,0.7,1.4,0.9c0.5,0.2,1,0.3,1.5,0.3c0.5,0,0.9-0.1,1.3-0.2c0.4-0.2,0.7-0.4,1-0.7
		c0.2-0.3,0.4-0.7,0.4-1.1c0-0.4-0.1-0.8-0.4-1.1c-0.3-0.3-0.6-0.6-1-0.8c-0.4-0.2-0.8-0.4-1.3-0.6c-0.4-0.2-0.8-0.4-1.1-0.5
		s-0.7-0.4-1-0.7s-0.5-0.5-0.7-0.9c-0.2-0.3-0.3-0.7-0.3-1.2c0-0.6,0.2-1.2,0.5-1.6c0.3-0.5,0.8-0.8,1.3-1c0.6-0.2,1.2-0.4,1.9-0.4
		c0.5,0,0.9,0.1,1.4,0.2c0.5,0.1,1,0.3,1.5,0.5l-0.6,1.2c-0.4-0.2-0.7-0.4-1.1-0.5s-0.8-0.1-1.1-0.1c-0.7,0-1.2,0.2-1.7,0.5
		c-0.5,0.3-0.7,0.7-0.7,1.3c0,0.4,0.1,0.7,0.4,1c0.2,0.3,0.6,0.5,0.9,0.7c0.4,0.2,0.8,0.4,1.2,0.6c0.4,0.2,0.8,0.4,1.2,0.6
		s0.7,0.4,1.1,0.7c0.3,0.3,0.6,0.6,0.8,0.9s0.3,0.8,0.3,1.3c0,0.7-0.2,1.2-0.5,1.8c-0.4,0.5-0.8,0.9-1.5,1.2
		c-0.6,0.3-1.3,0.4-2.1,0.4c-0.6,0-1.2-0.1-1.8-0.3s-1.2-0.5-1.7-0.9L127.2,234.7z"/>
	<path class="st4" d="M142.7,236c-0.4,0.4-0.8,0.6-1.3,0.9c-0.5,0.2-1,0.3-1.6,0.3c-0.8,0-1.5-0.2-2.1-0.5c-0.6-0.4-1.1-0.8-1.4-1.4
		s-0.5-1.3-0.5-2.1s0.2-1.5,0.5-2.1s0.8-1.1,1.4-1.4c0.6-0.4,1.3-0.5,2.1-0.5c0.6,0,1.1,0.1,1.6,0.3c0.5,0.2,0.9,0.5,1.3,0.8
		l-0.9,0.9c-0.2-0.3-0.5-0.5-0.9-0.6s-0.7-0.2-1.1-0.2c-0.5,0-1,0.1-1.4,0.4c-0.4,0.2-0.7,0.6-1,1c-0.2,0.4-0.4,0.9-0.4,1.5
		c0,0.6,0.1,1,0.4,1.5c0.2,0.4,0.6,0.8,1,1c0.4,0.2,0.9,0.4,1.4,0.4c0.4,0,0.8-0.1,1.1-0.2s0.6-0.4,0.9-0.6L142.7,236z"/>
	<path class="st4" d="M144.7,237v-7.8h1.2l0.1,1.2c0.3-0.4,0.6-0.8,1-1c0.4-0.3,0.9-0.4,1.5-0.4c0.2,0,0.5,0,0.7,0.1l-0.2,1.2
		c-0.3-0.1-0.5-0.1-0.7-0.1c-0.7,0-1.3,0.3-1.7,0.8c-0.4,0.5-0.6,1.2-0.6,2v4H144.7z"/>
	<path class="st4" d="M157.9,233.1v0.5h-6.6c0.1,0.7,0.5,1.3,1,1.7s1.2,0.7,1.9,0.7c0.4,0,0.9-0.1,1.3-0.2s0.9-0.4,1.3-0.8l0.8,1
		c-0.6,0.5-1.1,0.8-1.7,1c-0.6,0.2-1.1,0.3-1.6,0.3c-0.8,0-1.6-0.2-2.2-0.5s-1.2-0.8-1.5-1.5c-0.4-0.6-0.6-1.3-0.6-2.1
		c0-0.8,0.2-1.5,0.5-2.1c0.3-0.6,0.8-1.1,1.4-1.4s1.3-0.5,2.1-0.5c0.8,0,1.5,0.2,2,0.5s1.1,0.8,1.4,1.4
		C157.7,231.6,157.9,232.3,157.9,233.1z M151.3,232.5h5.3c-0.1-0.7-0.4-1.2-0.9-1.7c-0.5-0.4-1.1-0.6-1.7-0.6
		c-0.7,0-1.3,0.2-1.8,0.7C151.7,231.3,151.4,231.8,151.3,232.5z"/>
	<path class="st4" d="M167.3,233.1v0.5h-6.6c0.1,0.7,0.5,1.3,1,1.7s1.2,0.7,1.9,0.7c0.4,0,0.9-0.1,1.3-0.2s0.9-0.4,1.3-0.8l0.8,1
		c-0.6,0.5-1.1,0.8-1.7,1c-0.6,0.2-1.1,0.3-1.6,0.3c-0.8,0-1.6-0.2-2.2-0.5s-1.2-0.8-1.5-1.5c-0.4-0.6-0.6-1.3-0.6-2.1
		c0-0.8,0.2-1.5,0.5-2.1c0.3-0.6,0.8-1.1,1.4-1.4s1.3-0.5,2.1-0.5c0.8,0,1.5,0.2,2,0.5s1.1,0.8,1.4,1.4
		C167.1,231.6,167.3,232.3,167.3,233.1z M160.7,232.5h5.3c-0.1-0.7-0.4-1.2-0.9-1.7c-0.5-0.4-1.1-0.6-1.7-0.6
		c-0.7,0-1.3,0.2-1.8,0.7C161.1,231.3,160.8,231.8,160.7,232.5z"/>
	<path class="st4" d="M169.2,237v-7.8h1.2l0.1,1.2c0.3-0.4,0.7-0.8,1.1-1c0.4-0.2,0.9-0.4,1.5-0.4c0.6,0,1.2,0.2,1.7,0.5
		c0.5,0.3,0.9,0.7,1.1,1.3c0.3,0.5,0.4,1.2,0.4,1.8v4.4h-1.3v-4.2c0-0.8-0.2-1.4-0.6-1.8c-0.4-0.5-0.9-0.7-1.6-0.7
		c-0.4,0-0.8,0.1-1.2,0.3c-0.3,0.2-0.6,0.5-0.8,0.9s-0.3,0.8-0.3,1.3v4.3H169.2z"/>
</g>
<g>
	<defs>
		<rect id="SVGID_9_" x="-32.7" y="19.8" width="526.9" height="647.9"/>
	</defs>
	<clipPath id="SVGID_10_">
		<use xlink:href="#SVGID_9_"  style="overflow:visible;"/>
	</clipPath>
	<g class="st10">
		<path class="st6" d="M69.1,209.9h120.6c5.9,0,10.6,4.7,10.6,10.6v21c0,5.9-4.7,10.6-10.6,10.6H69.1c-5.9,0-10.6-4.7-10.6-10.6v-21
			C58.5,214.6,63.2,209.9,69.1,209.9z"/>
	</g>
</g>
<line class="st6" x1="129.4" y1="158.9" x2="129.4" y2="201.4"/>
<polygon class="st4" points="129.4,208.4 133.3,197.6 129.4,201.4 125.5,197.6 "/>
<rect x="90.2" y="89" class="st0" width="78.4" height="18.7"/>
<g class="st3">
	<path class="st8" d="M92.4,98.5c0-0.9,0.2-1.7,0.5-2.4s0.7-1.4,1.3-1.9s1.2-1,1.9-1.3s1.6-0.5,2.4-0.5s1.7,0.2,2.4,0.5
		s1.4,0.7,1.9,1.3s1,1.2,1.3,1.9s0.5,1.6,0.5,2.4s-0.2,1.7-0.5,2.4s-0.7,1.4-1.3,1.9s-1.2,1-1.9,1.3s-1.6,0.5-2.4,0.5
		s-1.7-0.2-2.4-0.5s-1.4-0.7-1.9-1.3s-1-1.2-1.3-1.9S92.4,99.4,92.4,98.5z M93.8,98.5c0,0.9,0.2,1.8,0.6,2.5s1,1.3,1.7,1.7
		s1.5,0.6,2.4,0.6s1.7-0.2,2.4-0.6s1.3-1,1.7-1.7s0.6-1.6,0.6-2.5c0-0.9-0.2-1.8-0.6-2.5s-1-1.3-1.7-1.7s-1.5-0.6-2.4-0.6
		s-1.7,0.2-2.4,0.6s-1.3,1-1.7,1.7S93.8,97.6,93.8,98.5z"/>
	<path class="st8" d="M107.6,96.6l0.1,1.1c0.4-0.4,0.8-0.7,1.3-0.9s1-0.3,1.6-0.3c0.8,0,1.4,0.2,2,0.5s1.1,0.8,1.4,1.4
		s0.5,1.3,0.5,2.1s-0.2,1.5-0.5,2.1s-0.8,1.1-1.4,1.4s-1.3,0.5-2,0.5c-0.6,0-1.1-0.1-1.6-0.3s-0.9-0.5-1.3-0.9v4.9h-1.3V96.6H107.6z
		 M110.5,103.4c0.5,0,1-0.1,1.4-0.4s0.7-0.6,1-1s0.4-0.9,0.4-1.5c0-0.6-0.1-1.1-0.4-1.5s-0.6-0.8-1-1s-0.9-0.4-1.4-0.4
		s-1,0.1-1.4,0.4s-0.7,0.6-1,1s-0.4,0.9-0.4,1.5c0,0.6,0.1,1,0.4,1.5s0.6,0.8,1,1S109.9,103.4,110.5,103.4z"/>
	<path class="st8" d="M123.9,100.5v0.5h-6.6c0.1,0.7,0.5,1.3,1,1.7s1.2,0.7,1.9,0.7c0.4,0,0.9-0.1,1.3-0.2s0.9-0.4,1.3-0.8l0.8,1
		c-0.6,0.5-1.1,0.8-1.7,1s-1.1,0.3-1.6,0.3c-0.8,0-1.6-0.2-2.2-0.5s-1.2-0.8-1.5-1.5s-0.6-1.3-0.6-2.1c0-0.8,0.2-1.5,0.5-2.1
		s0.8-1.1,1.4-1.4s1.3-0.5,2.1-0.5s1.5,0.2,2,0.5s1.1,0.8,1.4,1.4S123.9,99.7,123.9,100.5z M117.3,99.9h5.3
		c-0.1-0.7-0.4-1.2-0.9-1.7s-1.1-0.6-1.7-0.6c-0.7,0-1.3,0.2-1.8,0.7S117.4,99.2,117.3,99.9z"/>
	<path class="st8" d="M125.9,104.4v-7.8h1.2l0.1,1.2c0.3-0.4,0.7-0.8,1.1-1s0.9-0.4,1.5-0.4c0.6,0,1.2,0.2,1.7,0.5s0.9,0.7,1.1,1.3
		s0.4,1.2,0.4,1.8v4.4h-1.3v-4.2c0-0.8-0.2-1.4-0.6-1.8s-0.9-0.7-1.6-0.7c-0.4,0-0.8,0.1-1.2,0.3s-0.6,0.5-0.8,0.9s-0.3,0.8-0.3,1.3
		v4.3H125.9z"/>
	<path class="st8" d="M139.1,102c0-0.8,0.3-1.4,0.9-1.9s1.4-0.7,2.5-0.7c0.7,0,1.4,0.1,2.1,0.3v-0.1c0-0.7-0.2-1.2-0.6-1.6
		s-0.9-0.6-1.6-0.6c-0.7,0-1.4,0.2-2.2,0.7l-0.5-1.1c0.5-0.3,1-0.5,1.4-0.6s0.9-0.2,1.4-0.2c1,0,1.8,0.3,2.4,0.9s0.9,1.4,0.9,2.4
		v4.6h-1.2l-0.1-1.2c-0.3,0.4-0.6,0.7-1.1,1s-1,0.3-1.6,0.3c-0.8,0-1.5-0.2-2.1-0.7S139.1,102.8,139.1,102z M142.6,100.7
		c-0.7,0-1.2,0.1-1.6,0.4s-0.6,0.6-0.6,1c0,0.4,0.2,0.7,0.5,1s0.7,0.4,1.2,0.4c0.5,0,0.9-0.1,1.2-0.3s0.7-0.5,0.9-0.8
		s0.3-0.7,0.3-1.1V101C143.9,100.8,143.3,100.7,142.6,100.7z"/>
	<path class="st8" d="M149.4,96.6l0.1,1.1c0.4-0.4,0.8-0.7,1.3-0.9s1-0.3,1.6-0.3c0.8,0,1.4,0.2,2,0.5s1.1,0.8,1.4,1.4
		s0.5,1.3,0.5,2.1s-0.2,1.5-0.5,2.1s-0.8,1.1-1.4,1.4s-1.3,0.5-2,0.5c-0.6,0-1.1-0.1-1.6-0.3s-0.9-0.5-1.3-0.9v4.9h-1.3V96.6H149.4z
		 M152.2,103.4c0.5,0,1-0.1,1.4-0.4s0.7-0.6,1-1s0.4-0.9,0.4-1.5c0-0.6-0.1-1.1-0.4-1.5s-0.6-0.8-1-1s-0.9-0.4-1.4-0.4
		s-1,0.1-1.4,0.4s-0.7,0.6-1,1s-0.4,0.9-0.4,1.5c0,0.6,0.1,1,0.4,1.5s0.6,0.8,1,1S151.7,103.4,152.2,103.4z"/>
	<path class="st8" d="M159.4,96.6l0.1,1.1c0.4-0.4,0.8-0.7,1.3-0.9s1-0.3,1.6-0.3c0.8,0,1.4,0.2,2,0.5s1.1,0.8,1.4,1.4
		s0.5,1.3,0.5,2.1s-0.2,1.5-0.5,2.1s-0.8,1.1-1.4,1.4s-1.3,0.5-2,0.5c-0.6,0-1.1-0.1-1.6-0.3s-0.9-0.5-1.3-0.9v4.9h-1.3V96.6H159.4z
		 M162.3,103.4c0.5,0,1-0.1,1.4-0.4s0.7-0.6,1-1s0.4-0.9,0.4-1.5c0-0.6-0.1-1.1-0.4-1.5s-0.6-0.8-1-1s-0.9-0.4-1.4-0.4
		s-1,0.1-1.4,0.4s-0.7,0.6-1,1s-0.4,0.9-0.4,1.5c0,0.6,0.1,1,0.4,1.5s0.6,0.8,1,1S161.7,103.4,162.3,103.4z"/>
</g>
<rect x="211" y="218.4" class="st0" width="104.9" height="22.5"/>
<path class="st4" d="M226.8,233.2l1,1c-0.5,0.5-1.2,1-1.9,1.3c-0.7,0.3-1.6,0.5-2.4,0.5c-0.9,0-1.7-0.2-2.4-0.5s-1.4-0.7-1.9-1.3
	s-1-1.2-1.3-1.9c-0.3-0.7-0.5-1.6-0.5-2.4s0.2-1.7,0.5-2.4c0.3-0.7,0.7-1.4,1.3-1.9s1.2-1,1.9-1.3s1.6-0.5,2.4-0.5
	c0.9,0,1.7,0.2,2.4,0.5c0.7,0.3,1.4,0.7,1.9,1.3l-1,1c-0.4-0.4-0.9-0.8-1.5-1.1c-0.6-0.3-1.2-0.4-1.9-0.4c-0.9,0-1.7,0.2-2.4,0.6
	c-0.7,0.4-1.3,1-1.7,1.7c-0.4,0.7-0.6,1.6-0.6,2.5c0,0.9,0.2,1.8,0.6,2.5c0.4,0.7,1,1.3,1.7,1.7c0.7,0.4,1.5,0.6,2.4,0.6
	c0.7,0,1.3-0.1,1.9-0.4C225.8,234,226.4,233.7,226.8,233.2z"/>
<path class="st4" d="M231.1,223.6v12h-1.3v-12H231.1z"/>
<path class="st4" d="M233.3,224.8c0-0.3,0.1-0.5,0.3-0.6s0.4-0.3,0.6-0.3c0.3,0,0.5,0.1,0.6,0.3s0.3,0.4,0.3,0.6
	c0,0.3-0.1,0.5-0.3,0.6s-0.4,0.3-0.6,0.3c-0.3,0-0.5-0.1-0.6-0.3S233.3,225.1,233.3,224.8z M233.6,235.7v-7.8h1.3v7.8H233.6z"/>
<path class="st4" d="M243.8,234.7c-0.4,0.4-0.8,0.6-1.3,0.9s-1,0.3-1.6,0.3c-0.8,0-1.5-0.2-2.1-0.5s-1.1-0.8-1.4-1.4
	s-0.5-1.3-0.5-2.1s0.2-1.5,0.5-2.1s0.8-1.1,1.4-1.4s1.3-0.5,2.1-0.5c0.6,0,1.1,0.1,1.6,0.3s0.9,0.5,1.3,0.8l-0.9,0.9
	c-0.2-0.3-0.5-0.5-0.9-0.6s-0.7-0.2-1.1-0.2c-0.5,0-1,0.1-1.4,0.4s-0.7,0.6-1,1s-0.4,0.9-0.4,1.5c0,0.6,0.1,1,0.4,1.5s0.6,0.8,1,1
	s0.9,0.4,1.4,0.4c0.4,0,0.8-0.1,1.1-0.2s0.6-0.4,0.9-0.6L243.8,234.7z"/>
<path class="st4" d="M245.8,224h1.3v7.5c0-0.1,0.1-0.1,0.1-0.2s0.1-0.1,0.1-0.2l2.8-3.2h1.6l-3.1,3.5l3.5,4.3h-1.6l-2.8-3.3
	l-0.7,0.8v2.5h-1.3V224z"/>
<path class="st4" d="M257.3,234.9l0.6-1.1c0.6,0.6,1.3,0.8,2,0.8c0.4,0,0.8-0.1,1-0.3s0.4-0.5,0.4-0.8c0-0.4-0.2-0.7-0.5-0.9
	s-0.7-0.4-1.1-0.6c-0.3-0.2-0.7-0.3-1-0.5s-0.6-0.4-0.8-0.7s-0.3-0.6-0.3-1.1c0-0.6,0.2-1.1,0.7-1.5s1.1-0.6,1.8-0.6
	c0.4,0,0.8,0.1,1.2,0.2s0.7,0.3,1,0.5l-0.5,1c-0.3-0.2-0.6-0.3-0.8-0.3s-0.5-0.1-0.8-0.1c-0.4,0-0.7,0.1-0.9,0.2s-0.3,0.4-0.3,0.6
	c0,0.3,0.1,0.6,0.4,0.8s0.6,0.4,1,0.6c0.3,0.2,0.7,0.3,1,0.5s0.6,0.4,0.8,0.7s0.3,0.7,0.3,1.1c0,0.5-0.1,0.9-0.4,1.2s-0.6,0.6-1,0.8
	s-0.9,0.3-1.4,0.3c-0.5,0-0.9-0.1-1.4-0.2S257.7,235.2,257.3,234.9z"/>
<path class="st4" d="M264.3,224.8c0-0.3,0.1-0.5,0.3-0.6s0.4-0.3,0.6-0.3c0.3,0,0.5,0.1,0.6,0.3s0.3,0.4,0.3,0.6
	c0,0.3-0.1,0.5-0.3,0.6s-0.4,0.3-0.6,0.3c-0.3,0-0.5-0.1-0.6-0.3S264.3,225.1,264.3,224.8z M264.6,235.7v-7.8h1.3v7.8H264.6z"/>
<path class="st4" d="M271.8,235.8c-0.8,0-1.4-0.2-2-0.5s-1.1-0.8-1.4-1.4s-0.5-1.3-0.5-2.1s0.2-1.5,0.5-2.1s0.8-1.1,1.4-1.4
	s1.3-0.5,2-0.5c0.6,0,1.1,0.1,1.6,0.3s0.9,0.5,1.3,0.9l0.1-1.1h1.2v7c0,1-0.2,1.8-0.5,2.5s-0.9,1.3-1.5,1.7s-1.5,0.6-2.5,0.6
	c-0.5,0-1.1-0.1-1.5-0.2s-0.9-0.4-1.3-0.7l0.6-1.1c0.3,0.3,0.6,0.5,1,0.6s0.8,0.2,1.2,0.2c1.1,0,1.9-0.3,2.5-1s0.8-1.5,0.8-2.6v-0.4
	c-0.3,0.4-0.8,0.7-1.3,0.9S272.4,235.8,271.8,235.8z M269.2,231.8c0,0.6,0.1,1,0.4,1.5s0.6,0.8,1,1s0.9,0.4,1.4,0.4s1-0.1,1.4-0.4
	s0.7-0.6,1-1s0.4-0.9,0.4-1.5c0-0.6-0.1-1.1-0.4-1.5s-0.6-0.8-1-1s-0.9-0.4-1.4-0.4s-1,0.1-1.4,0.4s-0.7,0.6-1,1
	S269.2,231.2,269.2,231.8z"/>
<path class="st4" d="M278.4,235.7v-7.8h1.2l0.1,1.2c0.3-0.4,0.7-0.8,1.1-1s0.9-0.4,1.5-0.4c0.6,0,1.2,0.2,1.7,0.5s0.9,0.7,1.1,1.3
	s0.4,1.2,0.4,1.8v4.4h-1.3v-4.2c0-0.8-0.2-1.4-0.6-1.8s-0.9-0.7-1.6-0.7c-0.4,0-0.8,0.1-1.2,0.3s-0.6,0.5-0.8,0.9s-0.3,0.8-0.3,1.3
	v4.3H278.4z"/>
<path class="st8" d="M293.1,227.9v4.2c0,0.8,0.2,1.4,0.6,1.8c0.4,0.5,0.9,0.7,1.6,0.7c0.4,0,0.8-0.1,1.2-0.3
	c0.3-0.2,0.6-0.5,0.8-0.9s0.3-0.8,0.3-1.3v-4.3h1.3v7.8h-1.2l-0.1-1.2c-0.3,0.4-0.7,0.8-1.1,1c-0.5,0.2-1,0.4-1.5,0.4
	c-0.6,0-1.2-0.2-1.7-0.5c-0.5-0.3-0.9-0.7-1.1-1.3c-0.3-0.5-0.4-1.2-0.4-1.8v-4.4H293.1z"/>
<path class="st8" d="M302.6,227.9l0.1,1.1c0.4-0.4,0.8-0.7,1.3-0.9c0.5-0.2,1-0.3,1.6-0.3c0.8,0,1.4,0.2,2,0.5s1.1,0.8,1.4,1.4
	c0.3,0.6,0.5,1.3,0.5,2.1s-0.2,1.5-0.5,2.1c-0.3,0.6-0.8,1.1-1.4,1.4s-1.3,0.5-2,0.5c-0.6,0-1.1-0.1-1.6-0.3
	c-0.5-0.2-0.9-0.5-1.3-0.9v4.9h-1.3v-11.7H302.6z M305.4,234.7c0.5,0,1-0.1,1.4-0.4c0.4-0.2,0.7-0.6,1-1c0.2-0.4,0.4-0.9,0.4-1.5
	c0-0.6-0.1-1.1-0.4-1.5c-0.2-0.4-0.6-0.8-1-1c-0.4-0.2-0.9-0.4-1.4-0.4c-0.5,0-1,0.1-1.4,0.4c-0.4,0.2-0.7,0.6-1,1
	c-0.2,0.4-0.4,0.9-0.4,1.5c0,0.6,0.1,1,0.4,1.5c0.2,0.4,0.6,0.8,1,1C304.4,234.5,304.9,234.7,305.4,234.7z"/>
<polyline class="st6" points="255.7,325.1 169.1,325.1 169.1,261.4 "/>
<polygon class="st4" points="169.1,254.5 173,265.2 169.1,261.4 165.2,265.2 "/>
<rect x="184.1" y="318.3" class="st0" width="58.6" height="12"/>
<g class="st3">
	<path class="st4" d="M197.1,318.6h3.5c1.3,0,2.2,0.3,2.9,0.8s1,1.2,1,2.2c0,0.6-0.1,1.1-0.4,1.6c-0.3,0.4-0.7,0.8-1.2,1
		c0.7,0.2,1.2,0.6,1.6,1.1c0.4,0.5,0.6,1.1,0.6,1.8c0,1.1-0.4,1.9-1.1,2.4s-1.8,0.8-3.1,0.8h-3.6V318.6z M198.5,319.8v3.8h2.3
		c0.8,0,1.3-0.2,1.8-0.5c0.4-0.3,0.6-0.8,0.6-1.4s-0.2-1.1-0.6-1.4c-0.4-0.3-1-0.5-1.8-0.5H198.5z M200.9,329.1c0.8,0,1.5-0.2,2-0.5
		s0.7-0.9,0.7-1.6c0-0.7-0.2-1.2-0.7-1.6s-1.1-0.5-2-0.5h-2.4v4.2H200.9z"/>
	<path class="st4" d="M206.8,328c0-0.8,0.3-1.4,0.9-1.9c0.6-0.5,1.4-0.7,2.5-0.7c0.7,0,1.4,0.1,2.1,0.3v-0.1c0-0.7-0.2-1.2-0.6-1.6
		s-0.9-0.6-1.6-0.6c-0.7,0-1.4,0.2-2.2,0.7l-0.5-1.1c0.5-0.3,1-0.5,1.4-0.6c0.4-0.1,0.9-0.2,1.4-0.2c1,0,1.8,0.3,2.4,0.9
		c0.6,0.6,0.9,1.4,0.9,2.4v4.6h-1.2l-0.1-1.2c-0.3,0.4-0.6,0.7-1.1,1c-0.4,0.2-1,0.3-1.6,0.3c-0.8,0-1.5-0.2-2.1-0.7
		C207.1,329.3,206.8,328.7,206.8,328z M210.3,326.6c-0.7,0-1.2,0.1-1.6,0.4c-0.4,0.2-0.6,0.6-0.6,1c0,0.4,0.2,0.7,0.5,1
		s0.7,0.4,1.2,0.4c0.5,0,0.9-0.1,1.2-0.3c0.4-0.2,0.7-0.5,0.9-0.8c0.2-0.3,0.3-0.7,0.3-1.1v-0.2C211.6,326.7,211,326.6,210.3,326.6z
		"/>
	<path class="st4" d="M222.3,329.3c-0.4,0.4-0.8,0.6-1.3,0.9c-0.5,0.2-1,0.3-1.6,0.3c-0.8,0-1.5-0.2-2.1-0.5
		c-0.6-0.4-1.1-0.8-1.4-1.4s-0.5-1.3-0.5-2.1s0.2-1.5,0.5-2.1s0.8-1.1,1.4-1.4c0.6-0.4,1.3-0.5,2.1-0.5c0.6,0,1.1,0.1,1.6,0.3
		c0.5,0.2,0.9,0.5,1.3,0.8l-0.9,0.9c-0.2-0.3-0.5-0.5-0.9-0.6s-0.7-0.2-1.1-0.2c-0.5,0-1,0.1-1.4,0.4c-0.4,0.2-0.7,0.6-1,1
		c-0.2,0.4-0.4,0.9-0.4,1.5c0,0.6,0.1,1,0.4,1.5c0.2,0.4,0.6,0.8,1,1c0.4,0.2,0.9,0.4,1.4,0.4c0.4,0,0.8-0.1,1.1-0.2
		s0.6-0.4,0.9-0.6L222.3,329.3z"/>
	<path class="st4" d="M224.3,318.6h1.3v7.5c0-0.1,0.1-0.1,0.1-0.2s0.1-0.1,0.1-0.2l2.8-3.2h1.6l-3.1,3.5l3.5,4.3H229l-2.8-3.3
		l-0.7,0.8v2.5h-1.3V318.6z"/>
</g>
<line class="st6" x1="327.6" y1="441.8" x2="327.6" y2="484.4"/>
<polygon class="st4" points="327.6,491.3 331.5,480.5 327.6,484.4 323.7,480.5 "/>
<rect x="288.4" y="446.8" class="st0" width="78.4" height="18.7"/>
<g class="st3">
	<path class="st4" d="M293.3,451.7v-1.2h8.6v1.2h-3.6v10.5h-1.4v-10.5H293.3z"/>
</g>
<g class="st3">
	<path class="st4" d="M302,459.9c0-0.8,0.3-1.4,0.9-1.9c0.6-0.5,1.4-0.7,2.5-0.7c0.7,0,1.4,0.1,2.1,0.3v-0.1c0-0.7-0.2-1.2-0.6-1.6
		s-0.9-0.6-1.6-0.6c-0.7,0-1.4,0.2-2.2,0.7l-0.5-1.1c0.5-0.3,1-0.5,1.4-0.6c0.4-0.1,0.9-0.2,1.4-0.2c1,0,1.8,0.3,2.4,0.9
		c0.6,0.6,0.9,1.4,0.9,2.4v4.6h-1.2l-0.1-1.2c-0.3,0.4-0.6,0.7-1.1,1c-0.4,0.2-1,0.3-1.6,0.3c-0.8,0-1.5-0.2-2.1-0.7
		C302.2,461.2,302,460.6,302,459.9z M305.5,458.5c-0.7,0-1.2,0.1-1.6,0.4c-0.4,0.2-0.6,0.6-0.6,1c0,0.4,0.2,0.7,0.5,1
		s0.7,0.4,1.2,0.4c0.5,0,0.9-0.1,1.2-0.3c0.4-0.2,0.7-0.5,0.9-0.8c0.2-0.3,0.3-0.7,0.3-1.1v-0.2
		C306.8,458.6,306.1,458.5,305.5,458.5z"/>
</g>
<text transform="matrix(1 0 0 1 309.79 462.21)" class="st4 st11 st12">k</text>
<g class="st3">
	<path class="st4" d="M326.3,458.3v0.5h-6.6c0.1,0.7,0.5,1.3,1,1.7s1.2,0.7,1.9,0.7c0.4,0,0.9-0.1,1.3-0.2s0.9-0.4,1.3-0.8l0.8,1
		c-0.6,0.5-1.1,0.8-1.7,1s-1.1,0.3-1.6,0.3c-0.8,0-1.6-0.2-2.2-0.5s-1.2-0.8-1.5-1.5s-0.6-1.3-0.6-2.1c0-0.8,0.2-1.5,0.5-2.1
		s0.8-1.1,1.4-1.4s1.3-0.5,2.1-0.5s1.5,0.2,2,0.5s1.1,0.8,1.4,1.4S326.3,457.5,326.3,458.3z M319.6,457.7h5.3
		c-0.1-0.7-0.4-1.2-0.9-1.7s-1.1-0.6-1.7-0.6c-0.7,0-1.3,0.2-1.8,0.7S319.8,457.1,319.6,457.7z"/>
	<path class="st4" d="M333.1,454.4v-2h1.3v2h2.1v1.2h-2.1v4.2c0,1,0.4,1.4,1.3,1.4c0.1,0,0.3,0,0.4,0s0.3-0.1,0.4-0.1v1.1
		c-0.1,0.1-0.3,0.1-0.5,0.1s-0.4,0.1-0.6,0.1c-0.7,0-1.3-0.2-1.7-0.6s-0.6-1-0.6-1.9v-4.3h-1.3v-1.2H333.1z"/>
	<path class="st4" d="M338.2,458.3c0-0.8,0.2-1.5,0.5-2.1s0.8-1.1,1.4-1.4s1.3-0.5,2.1-0.5s1.5,0.2,2.1,0.5s1.1,0.8,1.4,1.4
		s0.5,1.3,0.5,2.1s-0.2,1.5-0.5,2.1s-0.8,1.1-1.4,1.4s-1.3,0.5-2.1,0.5s-1.5-0.2-2.1-0.5s-1.1-0.8-1.4-1.4S338.2,459.1,338.2,458.3z
		 M339.5,458.3c0,0.6,0.1,1,0.4,1.5s0.6,0.8,1,1s0.9,0.4,1.4,0.4s1-0.1,1.4-0.4s0.7-0.6,1-1s0.4-0.9,0.4-1.5c0-0.6-0.1-1.1-0.4-1.5
		s-0.6-0.8-1-1s-0.9-0.4-1.4-0.4s-1,0.1-1.4,0.4s-0.7,0.6-1,1S339.5,457.7,339.5,458.3z"/>
	<path class="st4" d="M349.4,454.4v4.2c0,0.8,0.2,1.4,0.6,1.8s0.9,0.7,1.6,0.7c0.4,0,0.8-0.1,1.2-0.3s0.6-0.5,0.8-0.9
		s0.3-0.8,0.3-1.3v-4.3h1.3v7.8H354L354,461c-0.3,0.4-0.7,0.8-1.1,1s-1,0.4-1.5,0.4c-0.6,0-1.2-0.2-1.7-0.5s-0.9-0.7-1.1-1.3
		s-0.4-1.2-0.4-1.8v-4.4H349.4z"/>
	<path class="st4" d="M357.7,462.2v-7.8h1.2l0.1,1.2c0.3-0.4,0.6-0.8,1-1s0.9-0.4,1.5-0.4c0.2,0,0.5,0,0.7,0.1l-0.2,1.2
		c-0.3-0.1-0.5-0.1-0.7-0.1c-0.7,0-1.3,0.3-1.7,0.8s-0.6,1.2-0.6,2v4H357.7z"/>
</g>
<g>
	<defs>
		<rect id="SVGID_11_" x="-32.7" y="19.8" width="526.9" height="647.9"/>
	</defs>
	<clipPath id="SVGID_12_">
		<use xlink:href="#SVGID_11_"  style="overflow:visible;"/>
	</clipPath>
	<g class="st13">
		<path class="st0" d="M267.3,399.1h120.6c5.9,0,10.6,4.7,10.6,10.6v21c0,5.9-4.7,10.6-10.6,10.6H267.3c-5.9,0-10.6-4.7-10.6-10.6
			v-21C256.7,403.9,261.5,399.1,267.3,399.1z"/>
	</g>
</g>
<g class="st3">
	<path class="st4" d="M291.8,414.5h1.4l3,10.4l3-10.4h1.7l3,10.4l3-10.4h1.4l-3.4,11.7h-2.1l-2.8-9.8l-2.8,9.8h-2.1L291.8,414.5z"/>
</g>
<g class="st3">
	<path class="st4" d="M316.9,422.3v0.5h-6.6c0.1,0.7,0.5,1.3,1,1.7s1.2,0.7,1.9,0.7c0.4,0,0.9-0.1,1.3-0.2s0.9-0.4,1.3-0.8l0.8,1
		c-0.6,0.5-1.1,0.8-1.7,1c-0.6,0.2-1.1,0.3-1.6,0.3c-0.8,0-1.6-0.2-2.2-0.5s-1.2-0.8-1.5-1.5c-0.4-0.6-0.6-1.3-0.6-2.1
		c0-0.8,0.2-1.5,0.5-2.1c0.3-0.6,0.8-1.1,1.4-1.4s1.3-0.5,2.1-0.5c0.8,0,1.5,0.2,2,0.5s1.1,0.8,1.4,1.4
		C316.8,420.9,316.9,421.5,316.9,422.3z M310.3,421.8h5.3c-0.1-0.7-0.4-1.2-0.9-1.7c-0.5-0.4-1.1-0.6-1.7-0.6
		c-0.7,0-1.3,0.2-1.8,0.7C310.7,420.5,310.4,421.1,310.3,421.8z"/>
	<path class="st4" d="M320.2,414.2v12h-1.3v-12H320.2z"/>
	<path class="st4" d="M329.1,425.2c-0.4,0.4-0.8,0.6-1.3,0.9c-0.5,0.2-1,0.3-1.6,0.3c-0.8,0-1.5-0.2-2.1-0.5
		c-0.6-0.4-1.1-0.8-1.4-1.4s-0.5-1.3-0.5-2.1s0.2-1.5,0.5-2.1s0.8-1.1,1.4-1.4c0.6-0.4,1.3-0.5,2.1-0.5c0.6,0,1.1,0.1,1.6,0.3
		c0.5,0.2,0.9,0.5,1.3,0.8l-0.9,0.9c-0.2-0.3-0.5-0.5-0.9-0.6s-0.7-0.2-1.1-0.2c-0.5,0-1,0.1-1.4,0.4c-0.4,0.2-0.7,0.6-1,1
		c-0.2,0.4-0.4,0.9-0.4,1.5c0,0.6,0.1,1,0.4,1.5c0.2,0.4,0.6,0.8,1,1c0.4,0.2,0.9,0.4,1.4,0.4c0.4,0,0.8-0.1,1.1-0.2
		s0.6-0.4,0.9-0.6L329.1,425.2z"/>
	<path class="st4" d="M330.5,422.3c0-0.8,0.2-1.5,0.5-2.1s0.8-1.1,1.4-1.4c0.6-0.4,1.3-0.5,2.1-0.5s1.5,0.2,2.1,0.5
		c0.6,0.4,1.1,0.8,1.4,1.4s0.5,1.3,0.5,2.1s-0.2,1.5-0.5,2.1s-0.8,1.1-1.4,1.4c-0.6,0.4-1.3,0.5-2.1,0.5s-1.5-0.2-2.1-0.5
		c-0.6-0.4-1.1-0.8-1.4-1.4S330.5,423.1,330.5,422.3z M331.9,422.3c0,0.6,0.1,1,0.4,1.5c0.2,0.4,0.6,0.8,1,1
		c0.4,0.2,0.9,0.4,1.4,0.4c0.5,0,1-0.1,1.4-0.4c0.4-0.2,0.7-0.6,1-1c0.2-0.4,0.4-0.9,0.4-1.5c0-0.6-0.1-1.1-0.4-1.5
		c-0.2-0.4-0.6-0.8-1-1c-0.4-0.2-0.9-0.4-1.4-0.4c-0.5,0-1,0.1-1.4,0.4c-0.4,0.2-0.7,0.6-1,1C332,421.3,331.9,421.8,331.9,422.3z"/>
	<path class="st4" d="M341.8,418.4l0.1,0.9c0.3-0.3,0.7-0.6,1.1-0.8s0.9-0.3,1.4-0.3c0.6,0,1.1,0.1,1.6,0.4c0.5,0.3,0.8,0.7,1.1,1.2
		c0.3-0.5,0.7-0.9,1.2-1.2s1-0.4,1.6-0.4c0.6,0,1.1,0.1,1.6,0.4s0.8,0.7,1.1,1.2c0.3,0.5,0.4,1.1,0.4,1.8v4.5h-1.3v-4.4
		c0-0.5-0.1-1-0.3-1.4c-0.2-0.4-0.5-0.6-0.8-0.8c-0.3-0.2-0.6-0.3-1-0.3c-0.3,0-0.7,0.1-1,0.3c-0.3,0.2-0.6,0.5-0.8,0.8
		c-0.2,0.4-0.3,0.8-0.3,1.4v4.3h-1.3v-4.4c0-0.5-0.1-1-0.3-1.4c-0.2-0.4-0.5-0.6-0.8-0.8c-0.3-0.2-0.6-0.3-1-0.3
		c-0.3,0-0.7,0.1-1,0.3c-0.3,0.2-0.6,0.5-0.8,0.8s-0.3,0.8-0.3,1.4v4.3h-1.3v-7.8H341.8z"/>
	<path class="st4" d="M362.6,422.3v0.5h-6.6c0.1,0.7,0.5,1.3,1,1.7s1.2,0.7,1.9,0.7c0.4,0,0.9-0.1,1.3-0.2s0.9-0.4,1.3-0.8l0.8,1
		c-0.6,0.5-1.1,0.8-1.7,1c-0.6,0.2-1.1,0.3-1.6,0.3c-0.8,0-1.6-0.2-2.2-0.5s-1.2-0.8-1.5-1.5c-0.4-0.6-0.6-1.3-0.6-2.1
		c0-0.8,0.2-1.5,0.5-2.1c0.3-0.6,0.8-1.1,1.4-1.4s1.3-0.5,2.1-0.5c0.8,0,1.5,0.2,2,0.5s1.1,0.8,1.4,1.4
		C362.4,420.9,362.6,421.5,362.6,422.3z M355.9,421.8h5.3c-0.1-0.7-0.4-1.2-0.9-1.7c-0.5-0.4-1.1-0.6-1.7-0.6
		c-0.7,0-1.3,0.2-1.8,0.7C356.3,420.5,356,421.1,355.9,421.8z"/>
</g>
<g>
	<defs>
		<rect id="SVGID_13_" x="-32.7" y="19.8" width="526.9" height="647.9"/>
	</defs>
	<clipPath id="SVGID_14_">
		<use xlink:href="#SVGID_13_"  style="overflow:visible;"/>
	</clipPath>
	<g class="st14">
		<path class="st6" d="M267.3,399.1h120.6c5.9,0,10.6,4.7,10.6,10.6v21c0,5.9-4.7,10.6-10.6,10.6H267.3c-5.9,0-10.6-4.7-10.6-10.6
			v-21C256.7,403.9,261.5,399.1,267.3,399.1z"/>
	</g>
</g>
<line class="st6" x1="255.7" y1="420.2" x2="134.5" y2="420.2"/>
<polygon class="st4" points="127.6,420.2 138.3,424.1 134.5,420.2 138.3,416.3 "/>
<rect x="184.1" y="415.1" class="st0" width="58.6" height="12"/>
<g class="st3">
	<path class="st4" d="M199.3,424.9c0.4,0.4,0.9,0.7,1.4,0.9c0.5,0.2,1,0.3,1.5,0.3c0.5,0,0.9-0.1,1.3-0.2c0.4-0.2,0.7-0.4,1-0.7
		c0.2-0.3,0.4-0.7,0.4-1.1c0-0.4-0.1-0.8-0.4-1.1c-0.3-0.3-0.6-0.6-1-0.8c-0.4-0.2-0.8-0.4-1.3-0.6c-0.4-0.2-0.8-0.4-1.1-0.5
		s-0.7-0.4-1-0.7s-0.5-0.5-0.7-0.9c-0.2-0.3-0.3-0.7-0.3-1.2c0-0.6,0.2-1.2,0.5-1.6c0.3-0.5,0.8-0.8,1.3-1c0.6-0.2,1.2-0.4,1.9-0.4
		c0.5,0,0.9,0.1,1.4,0.2c0.5,0.1,1,0.3,1.5,0.5l-0.6,1.2c-0.4-0.2-0.7-0.4-1.1-0.5s-0.8-0.1-1.1-0.1c-0.7,0-1.2,0.2-1.7,0.5
		c-0.5,0.3-0.7,0.7-0.7,1.3c0,0.4,0.1,0.7,0.4,1c0.2,0.3,0.6,0.5,0.9,0.7c0.4,0.2,0.8,0.4,1.2,0.6c0.4,0.2,0.8,0.4,1.2,0.6
		s0.7,0.4,1.1,0.7c0.3,0.3,0.6,0.6,0.8,0.9s0.3,0.8,0.3,1.3c0,0.7-0.2,1.2-0.5,1.8c-0.4,0.5-0.8,0.9-1.5,1.2
		c-0.6,0.3-1.3,0.4-2.1,0.4c-0.6,0-1.2-0.1-1.8-0.3s-1.2-0.5-1.7-0.9L199.3,424.9z"/>
	<path class="st4" d="M208.4,415.4h1.3v7.5c0-0.1,0.1-0.1,0.1-0.2s0.1-0.1,0.1-0.2l2.8-3.2h1.6l-3.1,3.5l3.5,4.3h-1.6l-2.8-3.3
		l-0.7,0.8v2.5h-1.3V415.4z"/>
	<path class="st4" d="M216.1,416.3c0-0.3,0.1-0.5,0.3-0.6c0.2-0.2,0.4-0.3,0.6-0.3c0.3,0,0.5,0.1,0.6,0.3s0.3,0.4,0.3,0.6
		c0,0.3-0.1,0.5-0.3,0.6s-0.4,0.3-0.6,0.3c-0.3,0-0.5-0.1-0.6-0.3C216.1,416.8,216.1,416.6,216.1,416.3z M216.3,427.1v-7.8h1.3v7.8
		H216.3z"/>
	<path class="st4" d="M221.3,419.3l0.1,1.1c0.4-0.4,0.8-0.7,1.3-0.9c0.5-0.2,1-0.3,1.6-0.3c0.8,0,1.4,0.2,2,0.5s1.1,0.8,1.4,1.4
		c0.3,0.6,0.5,1.3,0.5,2.1s-0.2,1.5-0.5,2.1c-0.3,0.6-0.8,1.1-1.4,1.4s-1.3,0.5-2,0.5c-0.6,0-1.1-0.1-1.6-0.3
		c-0.5-0.2-0.9-0.5-1.3-0.9v4.9h-1.3v-11.7H221.3z M224.1,426.1c0.5,0,1-0.1,1.4-0.4c0.4-0.2,0.7-0.6,1-1c0.2-0.4,0.4-0.9,0.4-1.5
		c0-0.6-0.1-1.1-0.4-1.5c-0.2-0.4-0.6-0.8-1-1c-0.4-0.2-0.9-0.4-1.4-0.4c-0.5,0-1,0.1-1.4,0.4c-0.4,0.2-0.7,0.6-1,1
		c-0.2,0.4-0.4,0.9-0.4,1.5c0,0.6,0.1,1,0.4,1.5c0.2,0.4,0.6,0.8,1,1C223.1,426,223.6,426.1,224.1,426.1z"/>
</g>
<line class="st6" x1="327.6" y1="535.5" x2="327.6" y2="578"/>
<polygon class="st4" points="327.6,584.9 331.5,574.2 327.6,578 323.7,574.2 "/>
<rect x="288.4" y="540.5" class="st0" width="78.4" height="18.7"/>
<g class="st3">
	<path class="st4" d="M303.4,553.4l1,1c-0.5,0.5-1.2,1-1.9,1.3c-0.7,0.3-1.6,0.5-2.4,0.5c-0.9,0-1.7-0.2-2.4-0.5s-1.4-0.7-1.9-1.3
		s-1-1.2-1.3-1.9c-0.3-0.7-0.5-1.6-0.5-2.4s0.2-1.7,0.5-2.4c0.3-0.7,0.7-1.4,1.3-1.9s1.2-1,1.9-1.3s1.6-0.5,2.4-0.5
		c0.9,0,1.7,0.2,2.4,0.5c0.7,0.3,1.4,0.7,1.9,1.3l-1,1c-0.4-0.4-0.9-0.8-1.5-1.1c-0.6-0.3-1.2-0.4-1.9-0.4c-0.9,0-1.7,0.2-2.4,0.6
		c-0.7,0.4-1.3,1-1.7,1.7c-0.4,0.7-0.6,1.6-0.6,2.5c0,0.9,0.2,1.8,0.6,2.5c0.4,0.7,1,1.3,1.7,1.7c0.7,0.4,1.5,0.6,2.4,0.6
		c0.7,0,1.3-0.1,1.9-0.4C302.4,554.2,303,553.8,303.4,553.4z"/>
</g>
<g class="st3">
	<path class="st4" d="M305.7,551.9c0-0.8,0.2-1.5,0.5-2.1s0.8-1.1,1.4-1.4s1.3-0.5,2.1-0.5s1.5,0.2,2.1,0.5s1.1,0.8,1.4,1.4
		s0.5,1.3,0.5,2.1s-0.2,1.5-0.5,2.1s-0.8,1.1-1.4,1.4s-1.3,0.5-2.1,0.5s-1.5-0.2-2.1-0.5s-1.1-0.8-1.4-1.4S305.7,552.7,305.7,551.9z
		 M307,551.9c0,0.6,0.1,1,0.4,1.5s0.6,0.8,1,1s0.9,0.4,1.4,0.4s1-0.1,1.4-0.4s0.7-0.6,1-1s0.4-0.9,0.4-1.5c0-0.6-0.1-1.1-0.4-1.5
		s-0.6-0.8-1-1s-0.9-0.4-1.4-0.4s-1,0.1-1.4,0.4s-0.7,0.6-1,1S307,551.4,307,551.9z"/>
</g>
<g class="st3">
	<path class="st4" d="M315.7,555.9V548h1.2l0.1,1.2c0.3-0.4,0.7-0.8,1.1-1c0.4-0.2,0.9-0.4,1.5-0.4c0.6,0,1.2,0.2,1.7,0.5
		c0.5,0.3,0.9,0.7,1.1,1.3c0.3,0.5,0.4,1.2,0.4,1.8v4.4h-1.3v-4.2c0-0.8-0.2-1.4-0.6-1.8c-0.4-0.5-0.9-0.7-1.6-0.7
		c-0.4,0-0.8,0.1-1.2,0.3c-0.3,0.2-0.6,0.5-0.8,0.9s-0.3,0.8-0.3,1.3v4.3H315.7z"/>
</g>
<g class="st3">
	<path class="st4" d="M325.9,548v-2h1.3v2h2.1v1.2h-2.1v4.2c0,1,0.4,1.4,1.3,1.4c0.1,0,0.3,0,0.4,0c0.1,0,0.3-0.1,0.4-0.1v1.1
		c-0.1,0.1-0.3,0.1-0.5,0.1c-0.2,0-0.4,0.1-0.6,0.1c-0.7,0-1.3-0.2-1.7-0.6c-0.4-0.4-0.6-1-0.6-1.9v-4.3h-1.3V548H325.9z"/>
</g>
<g class="st3">
	<path class="st4" d="M331,545c0-0.3,0.1-0.5,0.3-0.6c0.2-0.2,0.4-0.3,0.6-0.3c0.3,0,0.5,0.1,0.6,0.3s0.3,0.4,0.3,0.6
		c0,0.3-0.1,0.5-0.3,0.6s-0.4,0.3-0.6,0.3c-0.3,0-0.5-0.1-0.6-0.3C331.1,545.5,331,545.3,331,545z M331.2,555.9V548h1.3v7.8H331.2z"
		/>
</g>
<g class="st3">
	<path class="st4" d="M335,555.9V548h1.2l0.1,1.2c0.3-0.4,0.7-0.8,1.1-1c0.4-0.2,0.9-0.4,1.5-0.4c0.6,0,1.2,0.2,1.7,0.5
		c0.5,0.3,0.9,0.7,1.1,1.3c0.3,0.5,0.4,1.2,0.4,1.8v4.4h-1.3v-4.2c0-0.8-0.2-1.4-0.6-1.8c-0.4-0.5-0.9-0.7-1.6-0.7
		c-0.4,0-0.8,0.1-1.2,0.3c-0.3,0.2-0.6,0.5-0.8,0.9s-0.3,0.8-0.3,1.3v4.3H335z"/>
</g>
<g class="st3">
	<path class="st4" d="M345.6,548v4.2c0,0.8,0.2,1.4,0.6,1.8s0.9,0.7,1.6,0.7c0.4,0,0.8-0.1,1.2-0.3s0.6-0.5,0.8-0.9s0.3-0.8,0.3-1.3
		V548h1.3v7.8h-1.2l-0.1-1.2c-0.3,0.4-0.7,0.8-1.1,1s-1,0.4-1.5,0.4c-0.6,0-1.2-0.2-1.7-0.5s-0.9-0.7-1.1-1.3s-0.4-1.2-0.4-1.8V548
		H345.6z"/>
	<path class="st4" d="M361.3,551.9v0.5h-6.6c0.1,0.7,0.5,1.3,1,1.7s1.2,0.7,1.9,0.7c0.4,0,0.9-0.1,1.3-0.2s0.9-0.4,1.3-0.8l0.8,1
		c-0.6,0.5-1.1,0.8-1.7,1s-1.1,0.3-1.6,0.3c-0.8,0-1.6-0.2-2.2-0.5s-1.2-0.8-1.5-1.5s-0.6-1.3-0.6-2.1c0-0.8,0.2-1.5,0.5-2.1
		s0.8-1.1,1.4-1.4s1.3-0.5,2.1-0.5s1.5,0.2,2,0.5s1.1,0.8,1.4,1.4S361.3,551.1,361.3,551.9z M354.7,551.4h5.3
		c-0.1-0.7-0.4-1.2-0.9-1.7s-1.1-0.6-1.7-0.6c-0.7,0-1.3,0.2-1.8,0.7S354.8,550.7,354.7,551.4z"/>
</g>
<g>
	<defs>
		<rect id="SVGID_15_" x="-32.7" y="19.8" width="526.9" height="647.9"/>
	</defs>
	<clipPath id="SVGID_16_">
		<use xlink:href="#SVGID_15_"  style="overflow:visible;"/>
	</clipPath>
	<g class="st15">
		<path class="st0" d="M267.3,492.8h120.6c5.9,0,10.6,4.7,10.6,10.6v21c0,5.9-4.7,10.6-10.6,10.6H267.3c-5.9,0-10.6-4.7-10.6-10.6
			v-21C256.7,497.5,261.5,492.8,267.3,492.8z"/>
	</g>
</g>
<g class="st3">
	<path class="st4" d="M285.6,519.9h-3.2v-11.7h3.2c2.3,0,4.1,0.5,5.3,1.5s1.9,2.5,1.9,4.3c0,1.9-0.6,3.3-1.9,4.3
		S287.9,519.9,285.6,519.9z M285.6,518.7c1.9,0,3.3-0.4,4.3-1.2c1-0.8,1.5-1.9,1.5-3.4c0-1.5-0.5-2.6-1.5-3.4
		c-1-0.8-2.4-1.2-4.3-1.2h-1.8v9.2H285.6z"/>
	<path class="st4" d="M302.1,516v0.5h-6.6c0.1,0.7,0.5,1.3,1,1.7s1.2,0.7,1.9,0.7c0.4,0,0.9-0.1,1.3-0.2s0.9-0.4,1.3-0.8l0.8,1
		c-0.6,0.5-1.1,0.8-1.7,1c-0.6,0.2-1.1,0.3-1.6,0.3c-0.8,0-1.6-0.2-2.2-0.5s-1.2-0.8-1.5-1.5c-0.4-0.6-0.6-1.3-0.6-2.1
		c0-0.8,0.2-1.5,0.5-2.1c0.3-0.6,0.8-1.1,1.4-1.4s1.3-0.5,2.1-0.5c0.8,0,1.5,0.2,2,0.5s1.1,0.8,1.4,1.4
		C301.9,514.5,302.1,515.2,302.1,516z M295.4,515.4h5.3c-0.1-0.7-0.4-1.2-0.9-1.7c-0.5-0.4-1.1-0.6-1.7-0.6c-0.7,0-1.3,0.2-1.8,0.7
		C295.8,514.2,295.5,514.7,295.4,515.4z"/>
	<path class="st4" d="M303.6,519.1l0.6-1.1c0.6,0.6,1.3,0.8,2,0.8c0.4,0,0.8-0.1,1-0.3s0.4-0.5,0.4-0.8c0-0.4-0.2-0.7-0.5-0.9
		c-0.3-0.2-0.7-0.4-1.1-0.6c-0.3-0.2-0.7-0.3-1-0.5c-0.3-0.2-0.6-0.4-0.8-0.7c-0.2-0.3-0.3-0.6-0.3-1.1c0-0.6,0.2-1.1,0.7-1.5
		c0.5-0.4,1.1-0.6,1.8-0.6c0.4,0,0.8,0.1,1.2,0.2c0.4,0.1,0.7,0.3,1,0.5l-0.5,1c-0.3-0.2-0.6-0.3-0.8-0.3c-0.2-0.1-0.5-0.1-0.8-0.1
		c-0.4,0-0.7,0.1-0.9,0.2c-0.2,0.2-0.3,0.4-0.3,0.6c0,0.3,0.1,0.6,0.4,0.8c0.3,0.2,0.6,0.4,1,0.6c0.3,0.2,0.7,0.3,1,0.5
		s0.6,0.4,0.8,0.7c0.2,0.3,0.3,0.7,0.3,1.1c0,0.5-0.1,0.9-0.4,1.2s-0.6,0.6-1,0.8c-0.4,0.2-0.9,0.3-1.4,0.3c-0.5,0-0.9-0.1-1.4-0.2
		C304.3,519.6,303.9,519.4,303.6,519.1z"/>
	<path class="st4" d="M317.3,518.9c-0.4,0.4-0.8,0.6-1.3,0.9c-0.5,0.2-1,0.3-1.6,0.3c-0.8,0-1.5-0.2-2.1-0.5
		c-0.6-0.4-1.1-0.8-1.4-1.4s-0.5-1.3-0.5-2.1s0.2-1.5,0.5-2.1s0.8-1.1,1.4-1.4c0.6-0.4,1.3-0.5,2.1-0.5c0.6,0,1.1,0.1,1.6,0.3
		c0.5,0.2,0.9,0.5,1.3,0.8l-0.9,0.9c-0.2-0.3-0.5-0.5-0.9-0.6s-0.7-0.2-1.1-0.2c-0.5,0-1,0.1-1.4,0.4c-0.4,0.2-0.7,0.6-1,1
		c-0.2,0.4-0.4,0.9-0.4,1.5c0,0.6,0.1,1,0.4,1.5c0.2,0.4,0.6,0.8,1,1c0.4,0.2,0.9,0.4,1.4,0.4c0.4,0,0.8-0.1,1.1-0.2
		s0.6-0.4,0.9-0.6L317.3,518.9z"/>
	<path class="st4" d="M319.2,519.9v-7.8h1.2l0.1,1.2c0.3-0.4,0.6-0.8,1-1c0.4-0.3,0.9-0.4,1.5-0.4c0.2,0,0.5,0,0.7,0.1l-0.2,1.2
		c-0.3-0.1-0.5-0.1-0.7-0.1c-0.7,0-1.3,0.3-1.7,0.8c-0.4,0.5-0.6,1.2-0.6,2v4H319.2z"/>
	<path class="st4" d="M324.7,509.1c0-0.3,0.1-0.5,0.3-0.6c0.2-0.2,0.4-0.3,0.6-0.3c0.3,0,0.5,0.1,0.6,0.3s0.3,0.4,0.3,0.6
		c0,0.3-0.1,0.5-0.3,0.6s-0.4,0.3-0.6,0.3c-0.3,0-0.5-0.1-0.6-0.3C324.8,509.5,324.7,509.3,324.7,509.1z M325,519.9v-7.8h1.3v7.8
		H325z"/>
</g>
<g class="st3">
	<path class="st4" d="M330,512.1l0.1,1.1c0.4-0.4,0.8-0.7,1.3-0.9c0.5-0.2,1-0.3,1.6-0.3c0.8,0,1.4,0.2,2,0.5s1.1,0.8,1.4,1.4
		c0.3,0.6,0.5,1.3,0.5,2.1s-0.2,1.5-0.5,2.1c-0.3,0.6-0.8,1.1-1.4,1.4s-1.3,0.5-2,0.5c-0.6,0-1.1-0.1-1.6-0.3
		c-0.5-0.2-0.9-0.5-1.3-0.9v4.9h-1.3v-11.7H330z M332.8,518.9c0.5,0,1-0.1,1.4-0.4c0.4-0.2,0.7-0.6,1-1c0.2-0.4,0.4-0.9,0.4-1.5
		c0-0.6-0.1-1.1-0.4-1.5c-0.2-0.4-0.6-0.8-1-1c-0.4-0.2-0.9-0.4-1.4-0.4c-0.5,0-1,0.1-1.4,0.4c-0.4,0.2-0.7,0.6-1,1
		c-0.2,0.4-0.4,0.9-0.4,1.5c0,0.6,0.1,1,0.4,1.5c0.2,0.4,0.6,0.8,1,1C331.8,518.7,332.3,518.9,332.8,518.9z"/>
</g>
<text transform="matrix(1 0 0 1 337.52 519.89)" class="st4 st11 st12">t</text>
<g class="st3">
	<path class="st4" d="M344.7,509.1c0-0.3,0.1-0.5,0.3-0.6s0.4-0.3,0.6-0.3c0.3,0,0.5,0.1,0.6,0.3s0.3,0.4,0.3,0.6
		c0,0.3-0.1,0.5-0.3,0.6s-0.4,0.3-0.6,0.3c-0.3,0-0.5-0.1-0.6-0.3S344.7,509.3,344.7,509.1z M345,519.9v-7.8h1.3v7.8H345z"/>
	<path class="st4" d="M348.2,516c0-0.8,0.2-1.5,0.5-2.1s0.8-1.1,1.4-1.4s1.3-0.5,2.1-0.5s1.5,0.2,2.1,0.5s1.1,0.8,1.4,1.4
		s0.5,1.3,0.5,2.1s-0.2,1.5-0.5,2.1s-0.8,1.1-1.4,1.4s-1.3,0.5-2.1,0.5s-1.5-0.2-2.1-0.5s-1.1-0.8-1.4-1.4S348.2,516.8,348.2,516z
		 M349.5,516c0,0.6,0.1,1,0.4,1.5s0.6,0.8,1,1s0.9,0.4,1.4,0.4s1-0.1,1.4-0.4s0.7-0.6,1-1s0.4-0.9,0.4-1.5c0-0.6-0.1-1.1-0.4-1.5
		s-0.6-0.8-1-1s-0.9-0.4-1.4-0.4s-1,0.1-1.4,0.4s-0.7,0.6-1,1S349.5,515.4,349.5,516z"/>
	<path class="st4" d="M358.3,519.9v-7.8h1.2l0.1,1.2c0.3-0.4,0.7-0.8,1.1-1s0.9-0.4,1.5-0.4c0.6,0,1.2,0.2,1.7,0.5s0.9,0.7,1.1,1.3
		s0.4,1.2,0.4,1.8v4.4h-1.3v-4.2c0-0.8-0.2-1.4-0.6-1.8s-0.9-0.7-1.6-0.7c-0.4,0-0.8,0.1-1.2,0.3s-0.6,0.5-0.8,0.9s-0.3,0.8-0.3,1.3
		v4.3H358.3z"/>
	<path class="st4" d="M367.3,519.1l0.6-1.1c0.6,0.6,1.3,0.8,2,0.8c0.4,0,0.8-0.1,1-0.3s0.4-0.5,0.4-0.8c0-0.4-0.2-0.7-0.5-0.9
		s-0.7-0.4-1.1-0.6c-0.3-0.2-0.7-0.3-1-0.5s-0.6-0.4-0.8-0.7s-0.3-0.6-0.3-1.1c0-0.6,0.2-1.1,0.7-1.5s1.1-0.6,1.8-0.6
		c0.4,0,0.8,0.1,1.2,0.2s0.7,0.3,1,0.5l-0.5,1c-0.3-0.2-0.6-0.3-0.8-0.3s-0.5-0.1-0.8-0.1c-0.4,0-0.7,0.1-0.9,0.2s-0.3,0.4-0.3,0.6
		c0,0.3,0.1,0.6,0.4,0.8s0.6,0.4,1,0.6c0.3,0.2,0.7,0.3,1,0.5s0.6,0.4,0.8,0.7s0.3,0.7,0.3,1.1c0,0.5-0.1,0.9-0.4,1.2
		s-0.6,0.6-1,0.8s-0.9,0.3-1.4,0.3c-0.5,0-0.9-0.1-1.4-0.2S367.6,519.4,367.3,519.1z"/>
</g>
<g>
	<defs>
		<rect id="SVGID_17_" x="-32.7" y="19.8" width="526.9" height="647.9"/>
	</defs>
	<clipPath id="SVGID_18_">
		<use xlink:href="#SVGID_17_"  style="overflow:visible;"/>
	</clipPath>
	<g class="st16">
		<path class="st6" d="M267.3,492.8h120.6c5.9,0,10.6,4.7,10.6,10.6v21c0,5.9-4.7,10.6-10.6,10.6H267.3c-5.9,0-10.6-4.7-10.6-10.6
			v-21C256.7,497.5,261.5,492.8,267.3,492.8z"/>
	</g>
</g>
<line class="st6" x1="255.7" y1="513.9" x2="134.5" y2="513.9"/>
<polygon class="st4" points="127.6,513.9 138.3,517.8 134.5,513.9 138.3,510 "/>
<rect x="184.1" y="504.5" class="st0" width="64.5" height="18.7"/>
<path class="st4" d="M200.7,517.4l1,1c-0.5,0.5-1.2,1-1.9,1.3c-0.7,0.3-1.6,0.5-2.4,0.5c-0.9,0-1.7-0.2-2.4-0.5s-1.4-0.7-1.9-1.3
	s-1-1.2-1.3-1.9c-0.3-0.7-0.5-1.6-0.5-2.4s0.2-1.7,0.5-2.4c0.3-0.7,0.7-1.4,1.3-1.9s1.2-1,1.9-1.3s1.6-0.5,2.4-0.5
	c0.9,0,1.7,0.2,2.4,0.5c0.7,0.3,1.4,0.7,1.9,1.3l-1,1c-0.4-0.4-0.9-0.8-1.5-1.1c-0.6-0.3-1.2-0.4-1.9-0.4c-0.9,0-1.7,0.2-2.4,0.6
	c-0.7,0.4-1.3,1-1.7,1.7c-0.4,0.7-0.6,1.6-0.6,2.5c0,0.9,0.2,1.8,0.6,2.5c0.4,0.7,1,1.3,1.7,1.7c0.7,0.4,1.5,0.6,2.4,0.6
	c0.7,0,1.3-0.1,1.9-0.4C199.8,518.2,200.3,517.9,200.7,517.4z"/>
<path class="st4" d="M203.3,517.6c0-0.8,0.3-1.4,0.9-1.9c0.6-0.5,1.4-0.7,2.5-0.7c0.7,0,1.4,0.1,2.1,0.3v-0.1c0-0.7-0.2-1.2-0.6-1.6
	s-0.9-0.6-1.6-0.6c-0.7,0-1.4,0.2-2.2,0.7l-0.5-1.1c0.5-0.3,1-0.5,1.4-0.6c0.4-0.1,0.9-0.2,1.4-0.2c1,0,1.8,0.3,2.4,0.9
	c0.6,0.6,0.9,1.4,0.9,2.4v4.6h-1.2l-0.1-1.2c-0.3,0.4-0.6,0.7-1.1,1c-0.4,0.2-1,0.3-1.6,0.3c-0.8,0-1.5-0.2-2.1-0.7
	C203.6,518.9,203.3,518.3,203.3,517.6z M206.8,516.2c-0.7,0-1.2,0.1-1.6,0.4c-0.4,0.2-0.6,0.6-0.6,1c0,0.4,0.2,0.7,0.5,1
	s0.7,0.4,1.2,0.4c0.5,0,0.9-0.1,1.2-0.3c0.4-0.2,0.7-0.5,0.9-0.8c0.2-0.3,0.3-0.7,0.3-1.1v-0.2C208.1,516.3,207.4,516.2,206.8,516.2
	z"/>
<path class="st4" d="M212.4,519.9v-7.8h1.2l0.1,1.2c0.3-0.4,0.7-0.8,1.1-1c0.4-0.2,0.9-0.4,1.5-0.4c0.6,0,1.2,0.2,1.7,0.5
	c0.5,0.3,0.9,0.7,1.1,1.3c0.3,0.5,0.4,1.2,0.4,1.8v4.4h-1.3v-4.2c0-0.8-0.2-1.4-0.6-1.8c-0.4-0.5-0.9-0.7-1.6-0.7
	c-0.4,0-0.8,0.1-1.2,0.3c-0.3,0.2-0.6,0.5-0.8,0.9s-0.3,0.8-0.3,1.3v4.3H212.4z"/>
<path class="st4" d="M228.2,518.9c-0.4,0.4-0.8,0.6-1.3,0.9c-0.5,0.2-1,0.3-1.6,0.3c-0.8,0-1.5-0.2-2.1-0.5
	c-0.6-0.4-1.1-0.8-1.4-1.4s-0.5-1.3-0.5-2.1s0.2-1.5,0.5-2.1s0.8-1.1,1.4-1.4c0.6-0.4,1.3-0.5,2.1-0.5c0.6,0,1.1,0.1,1.6,0.3
	c0.5,0.2,0.9,0.5,1.3,0.8l-0.9,0.9c-0.2-0.3-0.5-0.5-0.9-0.6s-0.7-0.2-1.1-0.2c-0.5,0-1,0.1-1.4,0.4c-0.4,0.2-0.7,0.6-1,1
	c-0.2,0.4-0.4,0.9-0.4,1.5c0,0.6,0.1,1,0.4,1.5c0.2,0.4,0.6,0.8,1,1c0.4,0.2,0.9,0.4,1.4,0.4c0.4,0,0.8-0.1,1.1-0.2s0.6-0.4,0.9-0.6
	L228.2,518.9z"/>
<path class="st4" d="M237.6,516v0.5H231c0.1,0.7,0.5,1.3,1,1.7s1.2,0.7,1.9,0.7c0.4,0,0.9-0.1,1.3-0.2s0.9-0.4,1.3-0.8l0.8,1
	c-0.6,0.5-1.1,0.8-1.7,1s-1.1,0.3-1.6,0.3c-0.8,0-1.6-0.2-2.2-0.5s-1.2-0.8-1.5-1.5c-0.4-0.6-0.6-1.3-0.6-2.1c0-0.8,0.2-1.5,0.5-2.1
	c0.3-0.6,0.8-1.1,1.4-1.4s1.3-0.5,2.1-0.5s1.5,0.2,2,0.5s1.1,0.8,1.4,1.4S237.6,515.2,237.6,516z M231,515.4h5.3
	c-0.1-0.7-0.4-1.2-0.9-1.7s-1.1-0.6-1.7-0.6c-0.7,0-1.3,0.2-1.8,0.7C231.4,514.2,231.1,514.7,231,515.4z"/>
<path class="st4" d="M240.9,507.9v12h-1.3v-12H240.9z"/>
<rect x="-32.7" y="511.5" class="st1" width="526.9" height="587.4"/>
<g class="st3">
	<path class="st4" d="M285.6,801.5h-3.2v-11.7h3.2c2.3,0,4.1,0.5,5.3,1.5s1.9,2.5,1.9,4.3c0,1.9-0.6,3.3-1.9,4.3
		S287.9,801.5,285.6,801.5z M285.6,800.2c1.9,0,3.3-0.4,4.3-1.2c1-0.8,1.5-1.9,1.5-3.4c0-1.5-0.5-2.6-1.5-3.4
		c-1-0.8-2.4-1.2-4.3-1.2h-1.8v9.2H285.6z"/>
	<path class="st4" d="M302.1,797.5v0.5h-6.6c0.1,0.7,0.5,1.3,1,1.7s1.2,0.7,1.9,0.7c0.4,0,0.9-0.1,1.3-0.2s0.9-0.4,1.3-0.8l0.8,1
		c-0.6,0.5-1.1,0.8-1.7,1c-0.6,0.2-1.1,0.3-1.6,0.3c-0.8,0-1.6-0.2-2.2-0.5s-1.2-0.8-1.5-1.5c-0.4-0.6-0.6-1.3-0.6-2.1
		c0-0.8,0.2-1.5,0.5-2.1c0.3-0.6,0.8-1.1,1.4-1.4s1.3-0.5,2.1-0.5c0.8,0,1.5,0.2,2,0.5s1.1,0.8,1.4,1.4
		C301.9,796.1,302.1,796.8,302.1,797.5z M295.4,797h5.3c-0.1-0.7-0.4-1.2-0.9-1.7c-0.5-0.4-1.1-0.6-1.7-0.6c-0.7,0-1.3,0.2-1.8,0.7
		C295.8,795.8,295.5,796.3,295.4,797z"/>
	<path class="st4" d="M303.6,800.7l0.6-1.1c0.6,0.6,1.3,0.8,2,0.8c0.4,0,0.8-0.1,1-0.3s0.4-0.5,0.4-0.8c0-0.4-0.2-0.7-0.5-0.9
		c-0.3-0.2-0.7-0.4-1.1-0.6c-0.3-0.2-0.7-0.3-1-0.5c-0.3-0.2-0.6-0.4-0.8-0.7c-0.2-0.3-0.3-0.6-0.3-1.1c0-0.6,0.2-1.1,0.7-1.5
		c0.5-0.4,1.1-0.6,1.8-0.6c0.4,0,0.8,0.1,1.2,0.2c0.4,0.1,0.7,0.3,1,0.5l-0.5,1c-0.3-0.2-0.6-0.3-0.8-0.3c-0.2-0.1-0.5-0.1-0.8-0.1
		c-0.4,0-0.7,0.1-0.9,0.2c-0.2,0.2-0.3,0.4-0.3,0.6c0,0.3,0.1,0.6,0.4,0.8c0.3,0.2,0.6,0.4,1,0.6c0.3,0.2,0.7,0.3,1,0.5
		s0.6,0.4,0.8,0.7c0.2,0.3,0.3,0.7,0.3,1.1c0,0.5-0.1,0.9-0.4,1.2s-0.6,0.6-1,0.8c-0.4,0.2-0.9,0.3-1.4,0.3c-0.5,0-0.9-0.1-1.4-0.2
		C304.3,801.2,303.9,801,303.6,800.7z"/>
	<path class="st4" d="M317.3,800.5c-0.4,0.4-0.8,0.6-1.3,0.9c-0.5,0.2-1,0.3-1.6,0.3c-0.8,0-1.5-0.2-2.1-0.5
		c-0.6-0.4-1.1-0.8-1.4-1.4s-0.5-1.3-0.5-2.1s0.2-1.5,0.5-2.1s0.8-1.1,1.4-1.4c0.6-0.4,1.3-0.5,2.1-0.5c0.6,0,1.1,0.1,1.6,0.3
		c0.5,0.2,0.9,0.5,1.3,0.8l-0.9,0.9c-0.2-0.3-0.5-0.5-0.9-0.6s-0.7-0.2-1.1-0.2c-0.5,0-1,0.1-1.4,0.4c-0.4,0.2-0.7,0.6-1,1
		c-0.2,0.4-0.4,0.9-0.4,1.5c0,0.6,0.1,1,0.4,1.5c0.2,0.4,0.6,0.8,1,1c0.4,0.2,0.9,0.4,1.4,0.4c0.4,0,0.8-0.1,1.1-0.2
		s0.6-0.4,0.9-0.6L317.3,800.5z"/>
	<path class="st4" d="M319.2,801.5v-7.8h1.2l0.1,1.2c0.3-0.4,0.6-0.8,1-1c0.4-0.3,0.9-0.4,1.5-0.4c0.2,0,0.5,0,0.7,0.1l-0.2,1.2
		c-0.3-0.1-0.5-0.1-0.7-0.1c-0.7,0-1.3,0.3-1.7,0.8c-0.4,0.5-0.6,1.2-0.6,2v4H319.2z"/>
	<path class="st4" d="M324.7,790.6c0-0.3,0.1-0.5,0.3-0.6c0.2-0.2,0.4-0.3,0.6-0.3c0.3,0,0.5,0.1,0.6,0.3s0.3,0.4,0.3,0.6
		c0,0.3-0.1,0.5-0.3,0.6s-0.4,0.3-0.6,0.3c-0.3,0-0.5-0.1-0.6-0.3C324.8,791.1,324.7,790.9,324.7,790.6z M325,801.5v-7.8h1.3v7.8
		H325z"/>
</g>
<g class="st3">
	<path class="st4" d="M330,793.6l0.1,1.1c0.4-0.4,0.8-0.7,1.3-0.9c0.5-0.2,1-0.3,1.6-0.3c0.8,0,1.4,0.2,2,0.5s1.1,0.8,1.4,1.4
		c0.3,0.6,0.5,1.3,0.5,2.1s-0.2,1.5-0.5,2.1c-0.3,0.6-0.8,1.1-1.4,1.4s-1.3,0.5-2,0.5c-0.6,0-1.1-0.1-1.6-0.3
		c-0.5-0.2-0.9-0.5-1.3-0.9v4.9h-1.3v-11.7H330z M332.8,800.4c0.5,0,1-0.1,1.4-0.4c0.4-0.2,0.7-0.6,1-1c0.2-0.4,0.4-0.9,0.4-1.5
		c0-0.6-0.1-1.1-0.4-1.5c-0.2-0.4-0.6-0.8-1-1c-0.4-0.2-0.9-0.4-1.4-0.4c-0.5,0-1,0.1-1.4,0.4c-0.4,0.2-0.7,0.6-1,1
		c-0.2,0.4-0.4,0.9-0.4,1.5c0,0.6,0.1,1,0.4,1.5c0.2,0.4,0.6,0.8,1,1C331.8,800.3,332.3,800.4,332.8,800.4z"/>
</g>
<g class="st3">
	<path class="st4" d="M339.6,793.6v-2h1.3v2h2.1v1.2h-2.1v4.2c0,1,0.4,1.4,1.3,1.4c0.1,0,0.3,0,0.4,0c0.1,0,0.3-0.1,0.4-0.1v1.1
		c-0.1,0.1-0.3,0.1-0.5,0.1c-0.2,0-0.4,0.1-0.6,0.1c-0.7,0-1.3-0.2-1.7-0.6c-0.4-0.4-0.6-1-0.6-1.9v-4.3h-1.3v-1.2H339.6z"/>
</g>
<g class="st3">
	<path class="st4" d="M344.7,790.6c0-0.3,0.1-0.5,0.3-0.6s0.4-0.3,0.6-0.3c0.3,0,0.5,0.1,0.6,0.3s0.3,0.4,0.3,0.6
		c0,0.3-0.1,0.5-0.3,0.6s-0.4,0.3-0.6,0.3c-0.3,0-0.5-0.1-0.6-0.3S344.7,790.9,344.7,790.6z M345,801.5v-7.8h1.3v7.8H345z"/>
	<path class="st4" d="M348.2,797.6c0-0.8,0.2-1.5,0.5-2.1s0.8-1.1,1.4-1.4s1.3-0.5,2.1-0.5s1.5,0.2,2.1,0.5s1.1,0.8,1.4,1.4
		s0.5,1.3,0.5,2.1s-0.2,1.5-0.5,2.1s-0.8,1.1-1.4,1.4s-1.3,0.5-2.1,0.5s-1.5-0.2-2.1-0.5s-1.1-0.8-1.4-1.4S348.2,798.3,348.2,797.6z
		 M349.5,797.6c0,0.6,0.1,1,0.4,1.5s0.6,0.8,1,1s0.9,0.4,1.4,0.4s1-0.1,1.4-0.4s0.7-0.6,1-1s0.4-0.9,0.4-1.5c0-0.6-0.1-1.1-0.4-1.5
		s-0.6-0.8-1-1s-0.9-0.4-1.4-0.4s-1,0.1-1.4,0.4s-0.7,0.6-1,1S349.5,797,349.5,797.6z"/>
	<path class="st4" d="M358.3,801.5v-7.8h1.2l0.1,1.2c0.3-0.4,0.7-0.8,1.1-1s0.9-0.4,1.5-0.4c0.6,0,1.2,0.2,1.7,0.5s0.9,0.7,1.1,1.3
		s0.4,1.2,0.4,1.8v4.4h-1.3v-4.2c0-0.8-0.2-1.4-0.6-1.8s-0.9-0.7-1.6-0.7c-0.4,0-0.8,0.1-1.2,0.3s-0.6,0.5-0.8,0.9s-0.3,0.8-0.3,1.3
		v4.3H358.3z"/>
	<path class="st4" d="M367.3,800.7l0.6-1.1c0.6,0.6,1.3,0.8,2,0.8c0.4,0,0.8-0.1,1-0.3s0.4-0.5,0.4-0.8c0-0.4-0.2-0.7-0.5-0.9
		s-0.7-0.4-1.1-0.6c-0.3-0.2-0.7-0.3-1-0.5s-0.6-0.4-0.8-0.7s-0.3-0.6-0.3-1.1c0-0.6,0.2-1.1,0.7-1.5s1.1-0.6,1.8-0.6
		c0.4,0,0.8,0.1,1.2,0.2s0.7,0.3,1,0.5l-0.5,1c-0.3-0.2-0.6-0.3-0.8-0.3s-0.5-0.1-0.8-0.1c-0.4,0-0.7,0.1-0.9,0.2s-0.3,0.4-0.3,0.6
		c0,0.3,0.1,0.6,0.4,0.8s0.6,0.4,1,0.6c0.3,0.2,0.7,0.3,1,0.5s0.6,0.4,0.8,0.7s0.3,0.7,0.3,1.1c0,0.5-0.1,0.9-0.4,1.2
		s-0.6,0.6-1,0.8s-0.9,0.3-1.4,0.3c-0.5,0-0.9-0.1-1.4-0.2S367.6,801,367.3,800.7z"/>
</g>
<g>
	<defs>
		<rect id="SVGID_19_" x="-32.7" y="511.5" width="526.9" height="587.4"/>
	</defs>
	<clipPath id="SVGID_20_">
		<use xlink:href="#SVGID_19_"  style="overflow:visible;"/>
	</clipPath>
	<g class="st17">
		<path class="st6" d="M267.7,774.3h119.8c6.1,0,11,4.9,11,11v20.2c0,6.1-4.9,11-11,11H267.7c-6.1,0-11-4.9-11-11v-20.2
			C256.7,779.3,261.6,774.3,267.7,774.3z"/>
		<path class="st0" d="M267.7,867.5h119.8c6.1,0,11,4.9,11,11v20.2c0,6.1-4.9,11-11,11H267.7c-6.1,0-11-4.9-11-11v-20.2
			C256.7,872.4,261.6,867.5,267.7,867.5z"/>
	</g>
</g>
<g class="st3">
	<path class="st4" d="M305.5,882.9h3.7c1.3,0,2.3,0.3,3,0.9c0.7,0.6,1.1,1.4,1.1,2.5c0,0.8-0.2,1.5-0.6,2c-0.4,0.5-1,0.9-1.8,1.1
		l3,5.2h-1.6l-2.9-5h-2.4v5h-1.4V882.9z M308.9,888.3c0.9,0,1.7-0.2,2.2-0.5c0.5-0.4,0.7-0.9,0.7-1.6c0-0.7-0.2-1.2-0.7-1.6
		c-0.5-0.4-1.2-0.5-2.2-0.5h-2v4.2H308.9z"/>
</g>
<g class="st3">
	<path class="st4" d="M322.9,890.7v0.5h-6.6c0.1,0.7,0.5,1.3,1,1.7s1.2,0.7,1.9,0.7c0.4,0,0.9-0.1,1.3-0.2s0.9-0.4,1.3-0.8l0.8,1
		c-0.6,0.5-1.1,0.8-1.7,1s-1.1,0.3-1.6,0.3c-0.8,0-1.6-0.2-2.2-0.5s-1.2-0.8-1.5-1.5s-0.6-1.3-0.6-2.1c0-0.8,0.2-1.5,0.5-2.1
		s0.8-1.1,1.4-1.4s1.3-0.5,2.1-0.5s1.5,0.2,2,0.5s1.1,0.8,1.4,1.4S322.9,889.9,322.9,890.7z M316.3,890.1h5.3
		c-0.1-0.7-0.4-1.2-0.9-1.7s-1.1-0.6-1.7-0.6c-0.7,0-1.3,0.2-1.8,0.7S316.4,889.4,316.3,890.1z"/>
	<path class="st4" d="M324.4,893.8l0.6-1.1c0.6,0.6,1.3,0.8,2,0.8c0.4,0,0.8-0.1,1-0.3s0.4-0.5,0.4-0.8c0-0.4-0.2-0.7-0.5-0.9
		s-0.7-0.4-1.1-0.6c-0.3-0.2-0.7-0.3-1-0.5s-0.6-0.4-0.8-0.7s-0.3-0.6-0.3-1.1c0-0.6,0.2-1.1,0.7-1.5s1.1-0.6,1.8-0.6
		c0.4,0,0.8,0.1,1.2,0.2s0.7,0.3,1,0.5l-0.5,1c-0.3-0.2-0.6-0.3-0.8-0.3s-0.5-0.1-0.8-0.1c-0.4,0-0.7,0.1-0.9,0.2s-0.3,0.4-0.3,0.6
		c0,0.3,0.1,0.6,0.4,0.8s0.6,0.4,1,0.6c0.3,0.2,0.7,0.3,1,0.5s0.6,0.4,0.8,0.7s0.3,0.7,0.3,1.1c0,0.5-0.1,0.9-0.4,1.2
		s-0.6,0.6-1,0.8s-0.9,0.3-1.4,0.3c-0.5,0-0.9-0.1-1.4-0.2S324.8,894.1,324.4,893.8z"/>
	<path class="st4" d="M332.8,886.8v4.2c0,0.8,0.2,1.4,0.6,1.8s0.9,0.7,1.6,0.7c0.4,0,0.8-0.1,1.2-0.3s0.6-0.5,0.8-0.9
		s0.3-0.8,0.3-1.3v-4.3h1.3v7.8h-1.2l-0.1-1.2c-0.3,0.4-0.7,0.8-1.1,1s-1,0.4-1.5,0.4c-0.6,0-1.2-0.2-1.7-0.5s-0.9-0.7-1.1-1.3
		s-0.4-1.2-0.4-1.8v-4.4H332.8z"/>
	<path class="st4" d="M342.5,882.6v12h-1.3v-12H342.5z"/>
	<path class="st4" d="M345.8,886.8v-2h1.3v2h2.1v1.2h-2.1v4.2c0,1,0.4,1.4,1.3,1.4c0.1,0,0.3,0,0.4,0s0.3-0.1,0.4-0.1v1.1
		c-0.1,0.1-0.3,0.1-0.5,0.1s-0.4,0.1-0.6,0.1c-0.7,0-1.3-0.2-1.7-0.6s-0.6-1-0.6-1.9V888h-1.3v-1.2H345.8z"/>
</g>
<g>
	<defs>
		<rect id="SVGID_21_" x="-32.7" y="511.5" width="526.9" height="587.4"/>
	</defs>
	<clipPath id="SVGID_22_">
		<use xlink:href="#SVGID_21_"  style="overflow:visible;"/>
	</clipPath>
	<g class="st18">
		<path class="st6" d="M267.7,867.5h119.8c6.1,0,11,4.9,11,11v20.2c0,6.1-4.9,11-11,11H267.7c-6.1,0-11-4.9-11-11v-20.2
			C256.7,872.4,261.6,867.5,267.7,867.5z"/>
	</g>
</g>
<line class="st6" x1="327.6" y1="816.5" x2="327.6" y2="859.1"/>
<polygon class="st4" points="327.6,866 331.5,855.3 327.6,859.1 323.7,855.3 "/>
<rect x="288.4" y="821.5" class="st0" width="78.4" height="18.7"/>
<g class="st3">
	<path class="st4" d="M303.4,834.5l1,1c-0.5,0.5-1.2,1-1.9,1.3c-0.7,0.3-1.6,0.5-2.4,0.5c-0.9,0-1.7-0.2-2.4-0.5s-1.4-0.7-1.9-1.3
		s-1-1.2-1.3-1.9c-0.3-0.7-0.5-1.6-0.5-2.4s0.2-1.7,0.5-2.4c0.3-0.7,0.7-1.4,1.3-1.9s1.2-1,1.9-1.3s1.6-0.5,2.4-0.5
		c0.9,0,1.7,0.2,2.4,0.5c0.7,0.3,1.4,0.7,1.9,1.3l-1,1c-0.4-0.4-0.9-0.8-1.5-1.1c-0.6-0.3-1.2-0.4-1.9-0.4c-0.9,0-1.7,0.2-2.4,0.6
		c-0.7,0.4-1.3,1-1.7,1.7c-0.4,0.7-0.6,1.6-0.6,2.5c0,0.9,0.2,1.8,0.6,2.5c0.4,0.7,1,1.3,1.7,1.7c0.7,0.4,1.5,0.6,2.4,0.6
		c0.7,0,1.3-0.1,1.9-0.4C302.4,835.3,303,834.9,303.4,834.5z"/>
</g>
<g class="st3">
	<path class="st4" d="M305.7,833c0-0.8,0.2-1.5,0.5-2.1s0.8-1.1,1.4-1.4s1.3-0.5,2.1-0.5s1.5,0.2,2.1,0.5s1.1,0.8,1.4,1.4
		s0.5,1.3,0.5,2.1s-0.2,1.5-0.5,2.1s-0.8,1.1-1.4,1.4s-1.3,0.5-2.1,0.5s-1.5-0.2-2.1-0.5s-1.1-0.8-1.4-1.4S305.7,833.8,305.7,833z
		 M307,833c0,0.6,0.1,1,0.4,1.5s0.6,0.8,1,1s0.9,0.4,1.4,0.4s1-0.1,1.4-0.4s0.7-0.6,1-1s0.4-0.9,0.4-1.5c0-0.6-0.1-1.1-0.4-1.5
		s-0.6-0.8-1-1s-0.9-0.4-1.4-0.4s-1,0.1-1.4,0.4s-0.7,0.6-1,1S307,832.5,307,833z"/>
</g>
<g class="st3">
	<path class="st4" d="M315.7,836.9v-7.8h1.2l0.1,1.2c0.3-0.4,0.7-0.8,1.1-1c0.4-0.2,0.9-0.4,1.5-0.4c0.6,0,1.2,0.2,1.7,0.5
		c0.5,0.3,0.9,0.7,1.1,1.3c0.3,0.5,0.4,1.2,0.4,1.8v4.4h-1.3v-4.2c0-0.8-0.2-1.4-0.6-1.8c-0.4-0.5-0.9-0.7-1.6-0.7
		c-0.4,0-0.8,0.1-1.2,0.3c-0.3,0.2-0.6,0.5-0.8,0.9s-0.3,0.8-0.3,1.3v4.3H315.7z"/>
</g>
<g class="st3">
	<path class="st4" d="M325.9,829.1v-2h1.3v2h2.1v1.2h-2.1v4.2c0,1,0.4,1.4,1.3,1.4c0.1,0,0.3,0,0.4,0c0.1,0,0.3-0.1,0.4-0.1v1.1
		c-0.1,0.1-0.3,0.1-0.5,0.1c-0.2,0-0.4,0.1-0.6,0.1c-0.7,0-1.3-0.2-1.7-0.6c-0.4-0.4-0.6-1-0.6-1.9v-4.3h-1.3v-1.2H325.9z"/>
</g>
<g class="st3">
	<path class="st4" d="M331,826.1c0-0.3,0.1-0.5,0.3-0.6c0.2-0.2,0.4-0.3,0.6-0.3c0.3,0,0.5,0.1,0.6,0.3s0.3,0.4,0.3,0.6
		c0,0.3-0.1,0.5-0.3,0.6s-0.4,0.3-0.6,0.3c-0.3,0-0.5-0.1-0.6-0.3C331.1,826.6,331,826.4,331,826.1z M331.2,836.9v-7.8h1.3v7.8
		H331.2z"/>
</g>
<g class="st3">
	<path class="st4" d="M335,836.9v-7.8h1.2l0.1,1.2c0.3-0.4,0.7-0.8,1.1-1c0.4-0.2,0.9-0.4,1.5-0.4c0.6,0,1.2,0.2,1.7,0.5
		c0.5,0.3,0.9,0.7,1.1,1.3c0.3,0.5,0.4,1.2,0.4,1.8v4.4h-1.3v-4.2c0-0.8-0.2-1.4-0.6-1.8c-0.4-0.5-0.9-0.7-1.6-0.7
		c-0.4,0-0.8,0.1-1.2,0.3c-0.3,0.2-0.6,0.5-0.8,0.9s-0.3,0.8-0.3,1.3v4.3H335z"/>
</g>
<g class="st3">
	<path class="st4" d="M345.6,829.1v4.2c0,0.8,0.2,1.4,0.6,1.8s0.9,0.7,1.6,0.7c0.4,0,0.8-0.1,1.2-0.3s0.6-0.5,0.8-0.9
		s0.3-0.8,0.3-1.3v-4.3h1.3v7.8h-1.2l-0.1-1.2c-0.3,0.4-0.7,0.8-1.1,1s-1,0.4-1.5,0.4c-0.6,0-1.2-0.2-1.7-0.5s-0.9-0.7-1.1-1.3
		s-0.4-1.2-0.4-1.8v-4.4H345.6z"/>
	<path class="st4" d="M361.3,833v0.5h-6.6c0.1,0.7,0.5,1.3,1,1.7s1.2,0.7,1.9,0.7c0.4,0,0.9-0.1,1.3-0.2s0.9-0.4,1.3-0.8l0.8,1
		c-0.6,0.5-1.1,0.8-1.7,1s-1.1,0.3-1.6,0.3c-0.8,0-1.6-0.2-2.2-0.5s-1.2-0.8-1.5-1.5s-0.6-1.3-0.6-2.1c0-0.8,0.2-1.5,0.5-2.1
		s0.8-1.1,1.4-1.4s1.3-0.5,2.1-0.5s1.5,0.2,2,0.5s1.1,0.8,1.4,1.4S361.3,832.2,361.3,833z M354.7,832.4h5.3
		c-0.1-0.7-0.4-1.2-0.9-1.7s-1.1-0.6-1.7-0.6c-0.7,0-1.3,0.2-1.8,0.7S354.8,831.8,354.7,832.4z"/>
</g>
<line class="st6" x1="255.7" y1="795.4" x2="134.5" y2="795.4"/>
<polygon class="st4" points="127.6,795.4 138.3,799.3 134.5,795.4 138.3,791.5 "/>
<line class="st6" x1="255.7" y1="888.6" x2="134.5" y2="888.6"/>
<polygon class="st4" points="127.6,888.6 138.3,892.5 134.5,888.6 138.3,884.7 "/>
<rect x="186.8" y="789.1" class="st0" width="59.8" height="12"/>
<g class="st3">
	<path class="st4" d="M201.1,798.7l1,1c-0.5,0.5-1.2,1-1.9,1.3c-0.7,0.3-1.6,0.5-2.4,0.5c-0.9,0-1.7-0.2-2.4-0.5s-1.4-0.7-1.9-1.3
		s-1-1.2-1.3-1.9c-0.3-0.7-0.5-1.6-0.5-2.4s0.2-1.7,0.5-2.4c0.3-0.7,0.7-1.4,1.3-1.9s1.2-1,1.9-1.3s1.6-0.5,2.4-0.5
		c0.9,0,1.7,0.2,2.4,0.5c0.7,0.3,1.4,0.7,1.9,1.3l-1,1c-0.4-0.4-0.9-0.8-1.5-1.1c-0.6-0.3-1.2-0.4-1.9-0.4c-0.9,0-1.7,0.2-2.4,0.6
		c-0.7,0.4-1.3,1-1.7,1.7c-0.4,0.7-0.6,1.6-0.6,2.5c0,0.9,0.2,1.8,0.6,2.5c0.4,0.7,1,1.3,1.7,1.7c0.7,0.4,1.5,0.6,2.4,0.6
		c0.7,0,1.3-0.1,1.9-0.4C200.1,799.5,200.6,799.1,201.1,798.7z"/>
</g>
<g class="st3">
	<path class="st4" d="M203.6,798.8c0-0.8,0.3-1.4,0.9-1.9c0.6-0.5,1.4-0.7,2.5-0.7c0.7,0,1.4,0.1,2.1,0.3v-0.1
		c0-0.7-0.2-1.2-0.6-1.6s-0.9-0.6-1.6-0.6c-0.7,0-1.4,0.2-2.2,0.7l-0.5-1.1c0.5-0.3,1-0.5,1.4-0.6c0.4-0.1,0.9-0.2,1.4-0.2
		c1,0,1.8,0.3,2.4,0.9c0.6,0.6,0.9,1.4,0.9,2.4v4.6h-1.2l-0.1-1.2c-0.3,0.4-0.6,0.7-1.1,1c-0.4,0.2-1,0.3-1.6,0.3
		c-0.8,0-1.5-0.2-2.1-0.7C203.9,800.1,203.6,799.5,203.6,798.8z M207.1,797.4c-0.7,0-1.2,0.1-1.6,0.4c-0.4,0.2-0.6,0.6-0.6,1
		c0,0.4,0.2,0.7,0.5,1s0.7,0.4,1.2,0.4c0.5,0,0.9-0.1,1.2-0.3c0.4-0.2,0.7-0.5,0.9-0.8c0.2-0.3,0.3-0.7,0.3-1.1v-0.2
		C208.4,797.5,207.8,797.4,207.1,797.4z"/>
	<path class="st4" d="M212.7,801.1v-7.8h1.2l0.1,1.2c0.3-0.4,0.7-0.8,1.1-1c0.4-0.2,0.9-0.4,1.5-0.4c0.6,0,1.2,0.2,1.7,0.5
		c0.5,0.3,0.9,0.7,1.1,1.3c0.3,0.5,0.4,1.2,0.4,1.8v4.4h-1.3v-4.2c0-0.8-0.2-1.4-0.6-1.8c-0.4-0.5-0.9-0.7-1.6-0.7
		c-0.4,0-0.8,0.1-1.2,0.3c-0.3,0.2-0.6,0.5-0.8,0.9s-0.3,0.8-0.3,1.3v4.3H212.7z"/>
	<path class="st4" d="M228.6,800.1c-0.4,0.4-0.8,0.6-1.3,0.9c-0.5,0.2-1,0.3-1.6,0.3c-0.8,0-1.5-0.2-2.1-0.5
		c-0.6-0.4-1.1-0.8-1.4-1.4s-0.5-1.3-0.5-2.1s0.2-1.5,0.5-2.1s0.8-1.1,1.4-1.4c0.6-0.4,1.3-0.5,2.1-0.5c0.6,0,1.1,0.1,1.6,0.3
		c0.5,0.2,0.9,0.5,1.3,0.8l-0.9,0.9c-0.2-0.3-0.5-0.5-0.9-0.6s-0.7-0.2-1.1-0.2c-0.5,0-1,0.1-1.4,0.4c-0.4,0.2-0.7,0.6-1,1
		c-0.2,0.4-0.4,0.9-0.4,1.5c0,0.6,0.1,1,0.4,1.5c0.2,0.4,0.6,0.8,1,1c0.4,0.2,0.9,0.4,1.4,0.4c0.4,0,0.8-0.1,1.1-0.2
		s0.6-0.4,0.9-0.6L228.6,800.1z"/>
	<path class="st4" d="M238,797.2v0.5h-6.6c0.1,0.7,0.5,1.3,1,1.7c0.5,0.4,1.2,0.7,1.9,0.7c0.4,0,0.9-0.1,1.3-0.2s0.9-0.4,1.3-0.8
		l0.8,1c-0.6,0.5-1.1,0.8-1.7,1c-0.6,0.2-1.1,0.3-1.6,0.3c-0.8,0-1.6-0.2-2.2-0.5c-0.7-0.4-1.2-0.8-1.5-1.5
		c-0.4-0.6-0.6-1.3-0.6-2.1c0-0.8,0.2-1.5,0.5-2.1c0.3-0.6,0.8-1.1,1.4-1.4c0.6-0.3,1.3-0.5,2.1-0.5c0.8,0,1.5,0.2,2,0.5
		s1.1,0.8,1.4,1.4C237.8,795.7,238,796.4,238,797.2z M231.3,796.6h5.3c-0.1-0.7-0.4-1.2-0.9-1.7c-0.5-0.4-1.1-0.6-1.7-0.6
		c-0.7,0-1.3,0.2-1.8,0.7C231.8,795.4,231.5,796,231.3,796.6z"/>
	<path class="st4" d="M241.3,789.1v12h-1.3v-12H241.3z"/>
</g>
<rect x="195.4" y="879.2" class="st0" width="51.2" height="18.7"/>
<g class="st3">
	<path class="st4" d="M210.4,892.2l1,1c-0.5,0.5-1.2,1-1.9,1.3c-0.7,0.3-1.6,0.5-2.4,0.5c-0.9,0-1.7-0.2-2.4-0.5s-1.4-0.7-1.9-1.3
		s-1-1.2-1.3-1.9c-0.3-0.7-0.5-1.6-0.5-2.4s0.2-1.7,0.5-2.4c0.3-0.7,0.7-1.4,1.3-1.9s1.2-1,1.9-1.3s1.6-0.5,2.4-0.5
		c0.9,0,1.7,0.2,2.4,0.5c0.7,0.3,1.4,0.7,1.9,1.3l-1,1c-0.4-0.4-0.9-0.8-1.5-1.1c-0.6-0.3-1.2-0.4-1.9-0.4c-0.9,0-1.7,0.2-2.4,0.6
		c-0.7,0.4-1.3,1-1.7,1.7c-0.4,0.7-0.6,1.6-0.6,2.5c0,0.9,0.2,1.8,0.6,2.5c0.4,0.7,1,1.3,1.7,1.7c0.7,0.4,1.5,0.6,2.4,0.6
		c0.7,0,1.3-0.1,1.9-0.4C209.5,892.9,210,892.6,210.4,892.2z"/>
	<path class="st4" d="M214.7,882.6v12h-1.3v-12H214.7z"/>
	<path class="st4" d="M216.7,890.7c0-0.8,0.2-1.5,0.5-2.1s0.8-1.1,1.4-1.4c0.6-0.4,1.3-0.5,2.1-0.5s1.5,0.2,2.1,0.5
		c0.6,0.4,1.1,0.8,1.4,1.4s0.5,1.3,0.5,2.1s-0.2,1.5-0.5,2.1s-0.8,1.1-1.4,1.4c-0.6,0.4-1.3,0.5-2.1,0.5s-1.5-0.2-2.1-0.5
		c-0.6-0.4-1.1-0.8-1.4-1.4S216.7,891.5,216.7,890.7z M218,890.7c0,0.6,0.1,1,0.4,1.5c0.2,0.4,0.6,0.8,1,1c0.4,0.2,0.9,0.4,1.4,0.4
		c0.5,0,1-0.1,1.4-0.4c0.4-0.2,0.7-0.6,1-1c0.2-0.4,0.4-0.9,0.4-1.5c0-0.6-0.1-1.1-0.4-1.5c-0.2-0.4-0.6-0.8-1-1
		c-0.4-0.2-0.9-0.4-1.4-0.4c-0.5,0-1,0.1-1.4,0.4c-0.4,0.2-0.7,0.6-1,1C218.1,889.6,218,890.1,218,890.7z"/>
	<path class="st4" d="M226.3,893.8l0.6-1.1c0.6,0.6,1.3,0.8,2,0.8c0.4,0,0.8-0.1,1-0.3s0.4-0.5,0.4-0.8c0-0.4-0.2-0.7-0.5-0.9
		c-0.3-0.2-0.7-0.4-1.1-0.6c-0.3-0.2-0.7-0.3-1-0.5c-0.3-0.2-0.6-0.4-0.8-0.7c-0.2-0.3-0.3-0.6-0.3-1.1c0-0.6,0.2-1.1,0.7-1.5
		c0.5-0.4,1.1-0.6,1.8-0.6c0.4,0,0.8,0.1,1.2,0.2c0.4,0.1,0.7,0.3,1,0.5l-0.5,1c-0.3-0.2-0.6-0.3-0.8-0.3c-0.2-0.1-0.5-0.1-0.8-0.1
		c-0.4,0-0.7,0.1-0.9,0.2c-0.2,0.2-0.3,0.4-0.3,0.6c0,0.3,0.1,0.6,0.4,0.8c0.3,0.2,0.6,0.4,1,0.6c0.3,0.2,0.7,0.3,1,0.5
		s0.6,0.4,0.8,0.7c0.2,0.3,0.3,0.7,0.3,1.1c0,0.5-0.1,0.9-0.4,1.2s-0.6,0.6-1,0.8c-0.4,0.2-0.9,0.3-1.4,0.3c-0.5,0-0.9-0.1-1.4-0.2
		C227.1,894.4,226.7,894.1,226.3,893.8z"/>
	<path class="st4" d="M241,890.7v0.5h-6.6c0.1,0.7,0.5,1.3,1,1.7s1.2,0.7,1.9,0.7c0.4,0,0.9-0.1,1.3-0.2s0.9-0.4,1.3-0.8l0.8,1
		c-0.6,0.5-1.1,0.8-1.7,1s-1.1,0.3-1.6,0.3c-0.8,0-1.6-0.2-2.2-0.5s-1.2-0.8-1.5-1.5s-0.6-1.3-0.6-2.1c0-0.8,0.2-1.5,0.5-2.1
		s0.8-1.1,1.4-1.4s1.3-0.5,2.1-0.5s1.5,0.2,2,0.5s1.1,0.8,1.4,1.4S241,889.9,241,890.7z M234.4,890.1h5.3c-0.1-0.7-0.4-1.2-0.9-1.7
		s-1.1-0.6-1.7-0.6c-0.7,0-1.3,0.2-1.8,0.7S234.5,889.4,234.4,890.1z"/>
</g>
<line class="st6" x1="128.6" y1="540.2" x2="128.6" y2="960"/>
<polygon class="st4" points="128.6,966.9 124.7,956.2 128.6,960 132.5,956.2 "/>
<g>
	<defs>
		<rect id="SVGID_23_" x="-32.7" y="511.5" width="526.9" height="587.4"/>
	</defs>
	<clipPath id="SVGID_24_">
		<use xlink:href="#SVGID_23_"  style="overflow:visible;"/>
	</clipPath>
	<g class="st19">
		<path class="st8" d="M69.7,967.7h119.8c6.1,0,11,4.9,11,11v20.2c0,6.1-4.9,11-11,11H69.7c-6.1,0-11-4.9-11-11v-20.2
			C58.7,972.6,63.6,967.7,69.7,967.7z"/>
	</g>
</g>
<g class="st3">
	<path class="st0" d="M91.4,994.7H84V983h2.4v9.6h5V994.7z"/>
	<path class="st0" d="M92.8,984.2c0-0.4,0.1-0.7,0.3-0.9c0.2-0.2,0.5-0.3,0.9-0.3s0.7,0.1,0.9,0.3c0.2,0.2,0.3,0.5,0.3,0.9
		s-0.1,0.7-0.3,0.9c-0.2,0.2-0.5,0.3-0.9,0.3s-0.7-0.1-0.9-0.3C92.9,984.9,92.8,984.6,92.8,984.2z M92.9,994.7v-7.8h2.2v7.8H92.9z"
		/>
</g>
<g class="st3">
	<path class="st0" d="M95.9,986.9h2.4l1.4,3.8c0.1,0.2,0.2,0.5,0.2,0.9c0.1,0.4,0.2,0.7,0.2,1h0c0.1-0.3,0.1-0.6,0.2-1
		c0.1-0.4,0.2-0.7,0.3-0.9l1.3-3.8h2.4l-3.1,7.8h-2.2L95.9,986.9z"/>
</g>
<g class="st3">
	<path class="st0" d="M106.7,991.5c0.1,0.4,0.4,0.8,0.8,1.1c0.4,0.3,0.8,0.4,1.3,0.4c0.5,0,1-0.1,1.3-0.3c0.4-0.2,0.7-0.4,1-0.7
		l1.4,1.6c-0.6,0.5-1.2,0.8-1.8,1c-0.6,0.2-1.2,0.3-1.7,0.3c-0.9,0-1.6-0.2-2.3-0.5c-0.7-0.4-1.2-0.8-1.6-1.5s-0.6-1.3-0.6-2.1
		c0-0.8,0.2-1.5,0.5-2.1s0.9-1.1,1.5-1.4c0.6-0.4,1.3-0.5,2.1-0.5c0.8,0,1.5,0.2,2.1,0.5c0.6,0.3,1.1,0.8,1.4,1.4
		c0.4,0.6,0.5,1.3,0.5,2.1v0.7H106.7z M110.5,990.2c-0.1-0.5-0.3-0.8-0.7-1.1c-0.3-0.3-0.7-0.4-1.2-0.4c-0.5,0-0.9,0.1-1.2,0.4
		s-0.6,0.7-0.7,1.1H110.5z"/>
</g>
<g class="st3">
	<path class="st0" d="M127.7,993.2c-0.5,0.5-1.2,1-1.9,1.3c-0.7,0.3-1.6,0.5-2.4,0.5c-0.9,0-1.7-0.2-2.4-0.5s-1.4-0.7-1.9-1.3
		s-1-1.2-1.3-1.9c-0.3-0.7-0.5-1.6-0.5-2.4s0.2-1.7,0.5-2.4c0.3-0.7,0.7-1.4,1.3-1.9s1.2-1,1.9-1.3s1.6-0.5,2.4-0.5
		c0.9,0,1.7,0.2,2.4,0.5c0.7,0.3,1.4,0.7,1.9,1.3l-1.6,1.6c-0.3-0.4-0.7-0.7-1.2-0.9s-1-0.3-1.5-0.3c-0.7,0-1.3,0.2-1.9,0.5
		c-0.6,0.3-1,0.8-1.3,1.4c-0.3,0.6-0.5,1.3-0.5,2.1s0.2,1.4,0.5,2c0.3,0.6,0.8,1.1,1.3,1.4c0.6,0.3,1.2,0.5,1.9,0.5
		c0.6,0,1.1-0.1,1.5-0.3s0.9-0.5,1.2-0.9L127.7,993.2z"/>
</g>
<g class="st3">
	<path class="st0" d="M128.9,992.6c0-0.5,0.1-1,0.4-1.4c0.3-0.4,0.7-0.7,1.2-1c0.5-0.2,1.1-0.4,1.8-0.4c0.2,0,0.4,0,0.7,0
		c0.2,0,0.5,0.1,0.7,0.1c-0.2-0.8-0.8-1.3-1.9-1.3c-0.6,0-1.3,0.2-1.9,0.7l-0.8-1.9c0.5-0.3,1.1-0.5,1.6-0.6c0.5-0.1,1-0.2,1.5-0.2
		c0.8,0,1.4,0.1,2,0.4s1,0.7,1.3,1.2c0.3,0.5,0.5,1.1,0.5,1.8v4.5h-1.9l-0.1-0.8c-0.3,0.3-0.6,0.5-1.1,0.7c-0.4,0.2-0.9,0.3-1.4,0.3
		c-0.8,0-1.4-0.2-1.9-0.6C129.1,993.8,128.9,993.2,128.9,992.6z M131.1,992c0,0.3,0.1,0.5,0.3,0.6c0.2,0.2,0.5,0.2,0.8,0.2
		c0.4,0,0.8-0.1,1.1-0.4s0.5-0.6,0.5-1v-0.2c-0.2-0.1-0.4-0.1-0.6-0.1c-0.2,0-0.4-0.1-0.7-0.1c-0.4,0-0.8,0.1-1,0.2
		C131.3,991.5,131.1,991.8,131.1,992z"/>
	<path class="st0" d="M140.2,994.7H138v-7.8h2.1l0.1,0.8c0.6-0.7,1.3-1,2.2-1c1.2,0,2.1,0.5,2.6,1.5c0.3-0.5,0.6-0.9,1.1-1.1
		c0.4-0.3,1-0.4,1.6-0.4c0.9,0,1.7,0.3,2.2,1c0.5,0.7,0.8,1.6,0.8,2.8v4.2h-2.2v-4.2c0-0.6-0.1-1.1-0.4-1.4c-0.3-0.3-0.6-0.5-1-0.5
		c-0.4,0-0.8,0.2-1,0.5c-0.3,0.3-0.4,0.8-0.4,1.4v4.1h-2.2v-4.2c0-0.6-0.1-1.1-0.4-1.4c-0.3-0.3-0.6-0.5-1-0.5c-0.4,0-0.8,0.2-1,0.5
		c-0.3,0.3-0.4,0.8-0.4,1.4V994.7z"/>
	<path class="st0" d="M154,991.5c0.1,0.4,0.4,0.8,0.8,1.1c0.4,0.3,0.8,0.4,1.3,0.4c0.5,0,1-0.1,1.3-0.3c0.4-0.2,0.7-0.4,1-0.7
		l1.4,1.6c-0.6,0.5-1.2,0.8-1.8,1c-0.6,0.2-1.2,0.3-1.7,0.3c-0.9,0-1.6-0.2-2.3-0.5c-0.7-0.4-1.2-0.8-1.6-1.5s-0.6-1.3-0.6-2.1
		c0-0.8,0.2-1.5,0.5-2.1s0.9-1.1,1.5-1.4c0.6-0.4,1.3-0.5,2.1-0.5c0.8,0,1.5,0.2,2.1,0.5c0.6,0.3,1.1,0.8,1.4,1.4
		c0.4,0.6,0.5,1.3,0.5,2.1v0.7H154z M157.8,990.2c-0.1-0.5-0.3-0.8-0.7-1.1c-0.3-0.3-0.7-0.4-1.2-0.4c-0.5,0-0.9,0.1-1.2,0.4
		s-0.6,0.7-0.7,1.1H157.8z"/>
</g>
<g class="st3">
	<path class="st0" d="M161.6,994.7v-7.8h2l0.1,1.1c0.6-0.8,1.3-1.3,2.3-1.3c0.3,0,0.7,0.1,1,0.2l-0.3,1.9c-0.3-0.1-0.6-0.1-0.9-0.1
		c-0.6,0-1.1,0.2-1.5,0.7c-0.4,0.4-0.6,1.1-0.6,1.9v3.4H161.6z"/>
</g>
<g class="st3">
	<path class="st0" d="M167.4,992.6c0-0.5,0.1-1,0.4-1.4c0.3-0.4,0.7-0.7,1.2-1c0.5-0.2,1.1-0.4,1.8-0.4c0.2,0,0.4,0,0.7,0
		c0.2,0,0.5,0.1,0.7,0.1c-0.2-0.8-0.8-1.3-1.9-1.3c-0.6,0-1.3,0.2-1.9,0.7l-0.8-1.9c0.5-0.3,1.1-0.5,1.6-0.6c0.5-0.1,1-0.2,1.5-0.2
		c0.8,0,1.4,0.1,2,0.4s1,0.7,1.3,1.2c0.3,0.5,0.5,1.1,0.5,1.8v4.5h-1.9l-0.1-0.8c-0.3,0.3-0.6,0.5-1.1,0.7c-0.4,0.2-0.9,0.3-1.4,0.3
		c-0.8,0-1.4-0.2-1.9-0.6C167.7,993.8,167.4,993.2,167.4,992.6z M169.7,992c0,0.3,0.1,0.5,0.3,0.6c0.2,0.2,0.5,0.2,0.8,0.2
		c0.4,0,0.8-0.1,1.1-0.4s0.5-0.6,0.5-1v-0.2c-0.2-0.1-0.4-0.1-0.6-0.1c-0.2,0-0.4-0.1-0.7-0.1c-0.4,0-0.8,0.1-1,0.2
		C169.8,991.5,169.7,991.8,169.7,992z"/>
</g>
<g>
	<defs>
		<rect id="SVGID_25_" x="-32.7" y="511.5" width="526.9" height="587.4"/>
	</defs>
	<clipPath id="SVGID_26_">
		<use xlink:href="#SVGID_25_"  style="overflow:visible;"/>
	</clipPath>
	<g class="st20">
		<path class="st0" d="M267.7,680.2h119.8c6.1,0,11,4.9,11,11v20.2c0,6.1-4.9,11-11,11H267.7c-6.1,0-11-4.9-11-11v-20.2
			C256.7,685.2,261.6,680.2,267.7,680.2z"/>
	</g>
</g>
<g class="st3">
	<path class="st4" d="M305.5,695.6h3.7c1.3,0,2.3,0.3,3,0.9c0.7,0.6,1.1,1.4,1.1,2.5c0,0.8-0.2,1.5-0.6,2c-0.4,0.5-1,0.9-1.8,1.1
		l3,5.2h-1.6l-2.9-5h-2.4v5h-1.4V695.6z M308.9,701.1c0.9,0,1.7-0.2,2.2-0.5c0.5-0.4,0.7-0.9,0.7-1.6c0-0.7-0.2-1.2-0.7-1.6
		c-0.5-0.4-1.2-0.5-2.2-0.5h-2v4.2H308.9z"/>
</g>
<g class="st3">
	<path class="st4" d="M322.9,703.4v0.5h-6.6c0.1,0.7,0.5,1.3,1,1.7s1.2,0.7,1.9,0.7c0.4,0,0.9-0.1,1.3-0.2s0.9-0.4,1.3-0.8l0.8,1
		c-0.6,0.5-1.1,0.8-1.7,1s-1.1,0.3-1.6,0.3c-0.8,0-1.6-0.2-2.2-0.5s-1.2-0.8-1.5-1.5s-0.6-1.3-0.6-2.1c0-0.8,0.2-1.5,0.5-2.1
		s0.8-1.1,1.4-1.4s1.3-0.5,2.1-0.5s1.5,0.2,2,0.5s1.1,0.8,1.4,1.4S322.9,702.7,322.9,703.4z M316.3,702.9h5.3
		c-0.1-0.7-0.4-1.2-0.9-1.7s-1.1-0.6-1.7-0.6c-0.7,0-1.3,0.2-1.8,0.7S316.4,702.2,316.3,702.9z"/>
	<path class="st4" d="M324.4,706.6l0.6-1.1c0.6,0.6,1.3,0.8,2,0.8c0.4,0,0.8-0.1,1-0.3s0.4-0.5,0.4-0.8c0-0.4-0.2-0.7-0.5-0.9
		s-0.7-0.4-1.1-0.6c-0.3-0.2-0.7-0.3-1-0.5s-0.6-0.4-0.8-0.7s-0.3-0.6-0.3-1.1c0-0.6,0.2-1.1,0.7-1.5s1.1-0.6,1.8-0.6
		c0.4,0,0.8,0.1,1.2,0.2s0.7,0.3,1,0.5l-0.5,1c-0.3-0.2-0.6-0.3-0.8-0.3s-0.5-0.1-0.8-0.1c-0.4,0-0.7,0.1-0.9,0.2s-0.3,0.4-0.3,0.6
		c0,0.3,0.1,0.6,0.4,0.8s0.6,0.4,1,0.6c0.3,0.2,0.7,0.3,1,0.5s0.6,0.4,0.8,0.7s0.3,0.7,0.3,1.1c0,0.5-0.1,0.9-0.4,1.2
		s-0.6,0.6-1,0.8s-0.9,0.3-1.4,0.3c-0.5,0-0.9-0.1-1.4-0.2S324.8,706.9,324.4,706.6z"/>
	<path class="st4" d="M332.8,699.5v4.2c0,0.8,0.2,1.4,0.6,1.8s0.9,0.7,1.6,0.7c0.4,0,0.8-0.1,1.2-0.3s0.6-0.5,0.8-0.9
		s0.3-0.8,0.3-1.3v-4.3h1.3v7.8h-1.2l-0.1-1.2c-0.3,0.4-0.7,0.8-1.1,1s-1,0.4-1.5,0.4c-0.6,0-1.2-0.2-1.7-0.5s-0.9-0.7-1.1-1.3
		s-0.4-1.2-0.4-1.8v-4.4H332.8z"/>
	<path class="st4" d="M342.5,695.3v12h-1.3v-12H342.5z"/>
	<path class="st4" d="M345.8,699.5v-2h1.3v2h2.1v1.2h-2.1v4.2c0,1,0.4,1.4,1.3,1.4c0.1,0,0.3,0,0.4,0s0.3-0.1,0.4-0.1v1.1
		c-0.1,0.1-0.3,0.1-0.5,0.1s-0.4,0.1-0.6,0.1c-0.7,0-1.3-0.2-1.7-0.6s-0.6-1-0.6-1.9v-4.3h-1.3v-1.2H345.8z"/>
</g>
<g>
	<defs>
		<rect id="SVGID_27_" x="-32.7" y="511.5" width="526.9" height="587.4"/>
	</defs>
	<clipPath id="SVGID_28_">
		<use xlink:href="#SVGID_27_"  style="overflow:visible;"/>
	</clipPath>
	<g class="st21">
		<path class="st6" d="M267.7,680.2h119.8c6.1,0,11,4.9,11,11v20.2c0,6.1-4.9,11-11,11H267.7c-6.1,0-11-4.9-11-11v-20.2
			C256.7,685.2,261.6,680.2,267.7,680.2z"/>
	</g>
</g>
<line class="st6" x1="327.6" y1="723.4" x2="327.6" y2="766"/>
<polygon class="st4" points="327.6,772.9 331.5,762.2 327.6,766 323.7,762.2 "/>
<rect x="281.5" y="727.7" class="st0" width="92.2" height="22"/>
<g class="st3">
	<path class="st4" d="M282.8,742.5c0.4,0.4,0.9,0.7,1.4,0.9c0.5,0.2,1,0.3,1.5,0.3c0.5,0,0.9-0.1,1.3-0.2c0.4-0.2,0.7-0.4,1-0.7
		c0.2-0.3,0.4-0.7,0.4-1.1c0-0.4-0.1-0.8-0.4-1.1c-0.3-0.3-0.6-0.6-1-0.8c-0.4-0.2-0.8-0.4-1.3-0.6c-0.4-0.2-0.8-0.4-1.1-0.5
		s-0.7-0.4-1-0.7s-0.5-0.5-0.7-0.9c-0.2-0.3-0.3-0.7-0.3-1.2c0-0.6,0.2-1.2,0.5-1.6c0.3-0.5,0.8-0.8,1.3-1c0.6-0.2,1.2-0.4,1.9-0.4
		c0.5,0,0.9,0.1,1.4,0.2c0.5,0.1,1,0.3,1.5,0.5l-0.6,1.2c-0.4-0.2-0.7-0.4-1.1-0.5s-0.8-0.1-1.1-0.1c-0.7,0-1.2,0.2-1.7,0.5
		c-0.5,0.3-0.7,0.7-0.7,1.3c0,0.4,0.1,0.7,0.4,1c0.2,0.3,0.6,0.5,0.9,0.7c0.4,0.2,0.8,0.4,1.2,0.6c0.4,0.2,0.8,0.4,1.2,0.6
		s0.7,0.4,1.1,0.7c0.3,0.3,0.6,0.6,0.8,0.9s0.3,0.8,0.3,1.3c0,0.7-0.2,1.2-0.5,1.8c-0.4,0.5-0.8,0.9-1.5,1.2
		c-0.6,0.3-1.3,0.4-2.1,0.4c-0.6,0-1.2-0.1-1.8-0.3s-1.2-0.5-1.7-0.9L282.8,742.5z"/>
	<path class="st4" d="M299.3,740.8v0.5h-6.6c0.1,0.7,0.5,1.3,1,1.7s1.2,0.7,1.9,0.7c0.4,0,0.9-0.1,1.3-0.2s0.9-0.4,1.3-0.8l0.8,1
		c-0.6,0.5-1.1,0.8-1.7,1c-0.6,0.2-1.1,0.3-1.6,0.3c-0.8,0-1.6-0.2-2.2-0.5s-1.2-0.8-1.5-1.5c-0.4-0.6-0.6-1.3-0.6-2.1
		c0-0.8,0.2-1.5,0.5-2.1c0.3-0.6,0.8-1.1,1.4-1.4s1.3-0.5,2.1-0.5c0.8,0,1.5,0.2,2,0.5s1.1,0.8,1.4,1.4
		C299.2,739.3,299.3,740,299.3,740.8z M292.7,740.2h5.3c-0.1-0.7-0.4-1.2-0.9-1.7c-0.5-0.4-1.1-0.6-1.7-0.6c-0.7,0-1.3,0.2-1.8,0.7
		C293.1,739,292.8,739.6,292.7,740.2z"/>
	<path class="st4" d="M302.6,732.7v12h-1.3v-12H302.6z"/>
	<path class="st4" d="M312.6,740.8v0.5h-6.6c0.1,0.7,0.5,1.3,1,1.7s1.2,0.7,1.9,0.7c0.4,0,0.9-0.1,1.3-0.2s0.9-0.4,1.3-0.8l0.8,1
		c-0.6,0.5-1.1,0.8-1.7,1c-0.6,0.2-1.1,0.3-1.6,0.3c-0.8,0-1.6-0.2-2.2-0.5s-1.2-0.8-1.5-1.5c-0.4-0.6-0.6-1.3-0.6-2.1
		c0-0.8,0.2-1.5,0.5-2.1c0.3-0.6,0.8-1.1,1.4-1.4s1.3-0.5,2.1-0.5c0.8,0,1.5,0.2,2,0.5s1.1,0.8,1.4,1.4
		C312.4,739.3,312.6,740,312.6,740.8z M305.9,740.2h5.3c-0.1-0.7-0.4-1.2-0.9-1.7c-0.5-0.4-1.1-0.6-1.7-0.6c-0.7,0-1.3,0.2-1.8,0.7
		C306.3,739,306,739.6,305.9,740.2z"/>
	<path class="st4" d="M321,743.7c-0.4,0.4-0.8,0.6-1.3,0.9c-0.5,0.2-1,0.3-1.6,0.3c-0.8,0-1.5-0.2-2.1-0.5c-0.6-0.4-1.1-0.8-1.4-1.4
		s-0.5-1.3-0.5-2.1s0.2-1.5,0.5-2.1s0.8-1.1,1.4-1.4c0.6-0.4,1.3-0.5,2.1-0.5c0.6,0,1.1,0.1,1.6,0.3c0.5,0.2,0.9,0.5,1.3,0.8
		l-0.9,0.9c-0.2-0.3-0.5-0.5-0.9-0.6s-0.7-0.2-1.1-0.2c-0.5,0-1,0.1-1.4,0.4c-0.4,0.2-0.7,0.6-1,1c-0.2,0.4-0.4,0.9-0.4,1.5
		c0,0.6,0.1,1,0.4,1.5c0.2,0.4,0.6,0.8,1,1c0.4,0.2,0.9,0.4,1.4,0.4c0.4,0,0.8-0.1,1.1-0.2s0.6-0.4,0.9-0.6L321,743.7z"/>
	<path class="st4" d="M323.7,736.9v-2h1.3v2h2.1v1.2H325v4.2c0,1,0.4,1.4,1.3,1.4c0.1,0,0.3,0,0.4,0c0.1,0,0.3-0.1,0.4-0.1v1.1
		c-0.1,0.1-0.3,0.1-0.5,0.1c-0.2,0-0.4,0.1-0.6,0.1c-0.7,0-1.3-0.2-1.7-0.6c-0.4-0.4-0.6-1-0.6-1.9v-4.3h-1.3v-1.2H323.7z"/>
</g>
<text transform="matrix(1 0 0 1 328.08 744.71)" class="st4 st11 st12"> </text>
<g class="st3">
	<path class="st4" d="M333.3,744.7v-7.8h1.2l0.1,1.2c0.3-0.4,0.6-0.8,1-1c0.4-0.3,0.9-0.4,1.5-0.4c0.2,0,0.5,0,0.7,0.1l-0.2,1.2
		c-0.3-0.1-0.5-0.1-0.7-0.1c-0.7,0-1.3,0.3-1.7,0.8c-0.4,0.5-0.6,1.2-0.6,2v4H333.3z"/>
	<path class="st4" d="M346.5,740.8v0.5h-6.6c0.1,0.7,0.5,1.3,1,1.7s1.2,0.7,1.9,0.7c0.4,0,0.9-0.1,1.3-0.2s0.9-0.4,1.3-0.8l0.8,1
		c-0.6,0.5-1.1,0.8-1.7,1c-0.6,0.2-1.1,0.3-1.6,0.3c-0.8,0-1.6-0.2-2.2-0.5s-1.2-0.8-1.5-1.5c-0.4-0.6-0.6-1.3-0.6-2.1
		c0-0.8,0.2-1.5,0.5-2.1c0.3-0.6,0.8-1.1,1.4-1.4s1.3-0.5,2.1-0.5c0.8,0,1.5,0.2,2,0.5s1.1,0.8,1.4,1.4
		C346.4,739.3,346.5,740,346.5,740.8z M339.9,740.2h5.3c-0.1-0.7-0.4-1.2-0.9-1.7c-0.5-0.4-1.1-0.6-1.7-0.6c-0.7,0-1.3,0.2-1.8,0.7
		C340.3,739,340,739.6,339.9,740.2z"/>
	<path class="st4" d="M348,744l0.6-1.1c0.6,0.6,1.3,0.8,2,0.8c0.4,0,0.8-0.1,1-0.3s0.4-0.5,0.4-0.8c0-0.4-0.2-0.7-0.5-0.9
		c-0.3-0.2-0.7-0.4-1.1-0.6c-0.3-0.2-0.7-0.3-1-0.5c-0.3-0.2-0.6-0.4-0.8-0.7c-0.2-0.3-0.3-0.6-0.3-1.1c0-0.6,0.2-1.1,0.7-1.5
		c0.5-0.4,1.1-0.6,1.8-0.6c0.4,0,0.8,0.1,1.2,0.2c0.4,0.1,0.7,0.3,1,0.5l-0.5,1c-0.3-0.2-0.6-0.3-0.8-0.3c-0.2-0.1-0.5-0.1-0.8-0.1
		c-0.4,0-0.7,0.1-0.9,0.2c-0.2,0.2-0.3,0.4-0.3,0.6c0,0.3,0.1,0.6,0.4,0.8c0.3,0.2,0.6,0.4,1,0.6c0.3,0.2,0.7,0.3,1,0.5
		s0.6,0.4,0.8,0.7c0.2,0.3,0.3,0.7,0.3,1.1c0,0.5-0.1,0.9-0.4,1.2s-0.6,0.6-1,0.8c-0.4,0.2-0.9,0.3-1.4,0.3c-0.5,0-0.9-0.1-1.4-0.2
		C348.8,744.5,348.4,744.2,348,744z"/>
	<path class="st4" d="M356.4,736.9v4.2c0,0.8,0.2,1.4,0.6,1.8c0.4,0.5,0.9,0.7,1.6,0.7c0.4,0,0.8-0.1,1.2-0.3
		c0.3-0.2,0.6-0.5,0.8-0.9s0.3-0.8,0.3-1.3v-4.3h1.3v7.8h-1.2l-0.1-1.2c-0.3,0.4-0.7,0.8-1.1,1c-0.5,0.2-1,0.4-1.5,0.4
		c-0.6,0-1.2-0.2-1.7-0.5c-0.5-0.3-0.9-0.7-1.1-1.3c-0.3-0.5-0.4-1.2-0.4-1.8v-4.4H356.4z"/>
	<path class="st4" d="M366.1,732.7v12h-1.3v-12H366.1z"/>
	<path class="st4" d="M369.4,736.9v-2h1.3v2h2.1v1.2h-2.1v4.2c0,1,0.4,1.4,1.3,1.4c0.1,0,0.3,0,0.4,0c0.1,0,0.3-0.1,0.4-0.1v1.1
		c-0.1,0.1-0.3,0.1-0.5,0.1c-0.2,0-0.4,0.1-0.6,0.1c-0.7,0-1.3-0.2-1.7-0.6c-0.4-0.4-0.6-1-0.6-1.9v-4.3h-1.3v-1.2H369.4z"/>
</g>
<line class="st6" x1="255.7" y1="701.3" x2="134.5" y2="701.3"/>
<polygon class="st4" points="127.6,701.3 138.3,705.2 134.5,701.3 138.3,697.4 "/>
<rect x="182.1" y="692" class="st0" width="64.5" height="18.7"/>
<g class="st3">
	<path class="st4" d="M198.7,704.9l1,1c-0.5,0.5-1.2,1-1.9,1.3c-0.7,0.3-1.6,0.5-2.4,0.5c-0.9,0-1.7-0.2-2.4-0.5s-1.4-0.7-1.9-1.3
		s-1-1.2-1.3-1.9c-0.3-0.7-0.5-1.6-0.5-2.4s0.2-1.7,0.5-2.4c0.3-0.7,0.7-1.4,1.3-1.9s1.2-1,1.9-1.3s1.6-0.5,2.4-0.5
		c0.9,0,1.7,0.2,2.4,0.5c0.7,0.3,1.4,0.7,1.9,1.3l-1,1c-0.4-0.4-0.9-0.8-1.5-1.1c-0.6-0.3-1.2-0.4-1.9-0.4c-0.9,0-1.7,0.2-2.4,0.6
		c-0.7,0.4-1.3,1-1.7,1.7c-0.4,0.7-0.6,1.6-0.6,2.5c0,0.9,0.2,1.8,0.6,2.5c0.4,0.7,1,1.3,1.7,1.7c0.7,0.4,1.5,0.6,2.4,0.6
		c0.7,0,1.3-0.1,1.9-0.4C197.8,705.7,198.3,705.4,198.7,704.9z"/>
</g>
<g class="st3">
	<path class="st4" d="M201.3,705c0-0.8,0.3-1.4,0.9-1.9c0.6-0.5,1.4-0.7,2.5-0.7c0.7,0,1.4,0.1,2.1,0.3v-0.1c0-0.7-0.2-1.2-0.6-1.6
		s-0.9-0.6-1.6-0.6c-0.7,0-1.4,0.2-2.2,0.7l-0.5-1.1c0.5-0.3,1-0.5,1.4-0.6c0.4-0.1,0.9-0.2,1.4-0.2c1,0,1.8,0.3,2.4,0.9
		c0.6,0.6,0.9,1.4,0.9,2.4v4.6h-1.2l-0.1-1.2c-0.3,0.4-0.6,0.7-1.1,1c-0.4,0.2-1,0.3-1.6,0.3c-0.8,0-1.5-0.2-2.1-0.7
		C201.6,706.4,201.3,705.8,201.3,705z M204.8,703.6c-0.7,0-1.2,0.1-1.6,0.4c-0.4,0.2-0.6,0.6-0.6,1c0,0.4,0.2,0.7,0.5,1
		s0.7,0.4,1.2,0.4c0.5,0,0.9-0.1,1.2-0.3c0.4-0.2,0.7-0.5,0.9-0.8c0.2-0.3,0.3-0.7,0.3-1.1V704C206.1,703.8,205.4,703.6,204.8,703.6
		z"/>
	<path class="st4" d="M210.4,707.4v-7.8h1.2l0.1,1.2c0.3-0.4,0.7-0.8,1.1-1c0.4-0.2,0.9-0.4,1.5-0.4c0.6,0,1.2,0.2,1.7,0.5
		c0.5,0.3,0.9,0.7,1.1,1.3c0.3,0.5,0.4,1.2,0.4,1.8v4.4h-1.3v-4.2c0-0.8-0.2-1.4-0.6-1.8c-0.4-0.5-0.9-0.7-1.6-0.7
		c-0.4,0-0.8,0.1-1.2,0.3c-0.3,0.2-0.6,0.5-0.8,0.9s-0.3,0.8-0.3,1.3v4.3H210.4z"/>
	<path class="st4" d="M226.2,706.4c-0.4,0.4-0.8,0.6-1.3,0.9c-0.5,0.2-1,0.3-1.6,0.3c-0.8,0-1.5-0.2-2.1-0.5
		c-0.6-0.4-1.1-0.8-1.4-1.4s-0.5-1.3-0.5-2.1s0.2-1.5,0.5-2.1s0.8-1.1,1.4-1.4c0.6-0.4,1.3-0.5,2.1-0.5c0.6,0,1.1,0.1,1.6,0.3
		c0.5,0.2,0.9,0.5,1.3,0.8l-0.9,0.9c-0.2-0.3-0.5-0.5-0.9-0.6s-0.7-0.2-1.1-0.2c-0.5,0-1,0.1-1.4,0.4c-0.4,0.2-0.7,0.6-1,1
		c-0.2,0.4-0.4,0.9-0.4,1.5c0,0.6,0.1,1,0.4,1.5c0.2,0.4,0.6,0.8,1,1c0.4,0.2,0.9,0.4,1.4,0.4c0.4,0,0.8-0.1,1.1-0.2
		s0.6-0.4,0.9-0.6L226.2,706.4z"/>
	<path class="st4" d="M235.6,703.4v0.5H229c0.1,0.7,0.5,1.3,1,1.7s1.2,0.7,1.9,0.7c0.4,0,0.9-0.1,1.3-0.2s0.9-0.4,1.3-0.8l0.8,1
		c-0.6,0.5-1.1,0.8-1.7,1s-1.1,0.3-1.6,0.3c-0.8,0-1.6-0.2-2.2-0.5s-1.2-0.8-1.5-1.5c-0.4-0.6-0.6-1.3-0.6-2.1
		c0-0.8,0.2-1.5,0.5-2.1c0.3-0.6,0.8-1.1,1.4-1.4s1.3-0.5,2.1-0.5c0.8,0,1.5,0.2,2,0.5s1.1,0.8,1.4,1.4S235.6,702.7,235.6,703.4z
		 M229,702.9h5.3c-0.1-0.7-0.4-1.2-0.9-1.7s-1.1-0.6-1.7-0.6c-0.7,0-1.3,0.2-1.8,0.7C229.4,701.7,229.1,702.2,229,702.9z"/>
	<path class="st4" d="M238.9,695.3v12h-1.3v-12H238.9z"/>
</g>
<g>
	<defs>
		<rect id="SVGID_29_" x="-32.7" y="511.5" width="526.9" height="587.4"/>
	</defs>
	<clipPath id="SVGID_30_">
		<use xlink:href="#SVGID_29_"  style="overflow:visible;"/>
	</clipPath>
	<g class="st22">
		<path class="st0" d="M267.7,586.1h119.8c6.1,0,11,4.9,11,11v20.2c0,6.1-4.9,11-11,11H267.7c-6.1,0-11-4.9-11-11v-20.2
			C256.7,591,261.6,586.1,267.7,586.1z"/>
	</g>
</g>
<g class="st3">
	<path class="st4" d="M280.4,611c0.4,0.4,0.9,0.7,1.4,0.9c0.5,0.2,1,0.3,1.5,0.3c0.5,0,0.9-0.1,1.3-0.2c0.4-0.2,0.7-0.4,1-0.7
		c0.2-0.3,0.4-0.7,0.4-1.1c0-0.4-0.1-0.8-0.4-1.1c-0.3-0.3-0.6-0.6-1-0.8c-0.4-0.2-0.8-0.4-1.3-0.6c-0.4-0.2-0.8-0.4-1.1-0.5
		s-0.7-0.4-1-0.7s-0.5-0.5-0.7-0.9c-0.2-0.3-0.3-0.7-0.3-1.2c0-0.6,0.2-1.2,0.5-1.6c0.3-0.5,0.8-0.8,1.3-1c0.6-0.2,1.2-0.4,1.9-0.4
		c0.5,0,0.9,0.1,1.4,0.2c0.5,0.1,1,0.3,1.5,0.5l-0.6,1.2c-0.4-0.2-0.7-0.4-1.1-0.5s-0.8-0.1-1.1-0.1c-0.7,0-1.2,0.2-1.7,0.5
		c-0.5,0.3-0.7,0.7-0.7,1.3c0,0.4,0.1,0.7,0.4,1c0.2,0.3,0.6,0.5,0.9,0.7c0.4,0.2,0.8,0.4,1.2,0.6c0.4,0.2,0.8,0.4,1.2,0.6
		s0.7,0.4,1.1,0.7c0.3,0.3,0.6,0.6,0.8,0.9s0.3,0.8,0.3,1.3c0,0.7-0.2,1.2-0.5,1.8c-0.4,0.5-0.8,0.9-1.5,1.2
		c-0.6,0.3-1.3,0.4-2.1,0.4c-0.6,0-1.2-0.1-1.8-0.3s-1.2-0.5-1.7-0.9L280.4,611z"/>
	<path class="st4" d="M295.9,612.2c-0.4,0.4-0.8,0.6-1.3,0.9c-0.5,0.2-1,0.3-1.6,0.3c-0.8,0-1.5-0.2-2.1-0.5
		c-0.6-0.4-1.1-0.8-1.4-1.4s-0.5-1.3-0.5-2.1s0.2-1.5,0.5-2.1s0.8-1.1,1.4-1.4c0.6-0.4,1.3-0.5,2.1-0.5c0.6,0,1.1,0.1,1.6,0.3
		c0.5,0.2,0.9,0.5,1.3,0.8l-0.9,0.9c-0.2-0.3-0.5-0.5-0.9-0.6s-0.7-0.2-1.1-0.2c-0.5,0-1,0.1-1.4,0.4c-0.4,0.2-0.7,0.6-1,1
		c-0.2,0.4-0.4,0.9-0.4,1.5c0,0.6,0.1,1,0.4,1.5c0.2,0.4,0.6,0.8,1,1c0.4,0.2,0.9,0.4,1.4,0.4c0.4,0,0.8-0.1,1.1-0.2
		s0.6-0.4,0.9-0.6L295.9,612.2z"/>
	<path class="st4" d="M297.6,610.9c0-0.8,0.3-1.4,0.9-1.9c0.6-0.5,1.4-0.7,2.5-0.7c0.7,0,1.4,0.1,2.1,0.3v-0.1
		c0-0.7-0.2-1.2-0.6-1.6s-0.9-0.6-1.6-0.6c-0.7,0-1.4,0.2-2.2,0.7l-0.5-1.1c0.5-0.3,1-0.5,1.4-0.6c0.4-0.1,0.9-0.2,1.4-0.2
		c1,0,1.8,0.3,2.4,0.9c0.6,0.6,0.9,1.4,0.9,2.4v4.6h-1.2l-0.1-1.2c-0.3,0.4-0.6,0.7-1.1,1c-0.4,0.2-1,0.3-1.6,0.3
		c-0.8,0-1.5-0.2-2.1-0.7C297.9,612.2,297.6,611.6,297.6,610.9z M301.1,609.5c-0.7,0-1.2,0.1-1.6,0.4c-0.4,0.2-0.6,0.6-0.6,1
		c0,0.4,0.2,0.7,0.5,1s0.7,0.4,1.2,0.4c0.5,0,0.9-0.1,1.2-0.3c0.4-0.2,0.7-0.5,0.9-0.8c0.2-0.3,0.3-0.7,0.3-1.1v-0.2
		C302.4,609.6,301.7,609.5,301.1,609.5z"/>
	<path class="st4" d="M306.6,613.2v-7.8h1.2l0.1,1.2c0.3-0.4,0.7-0.8,1.1-1c0.4-0.2,0.9-0.4,1.5-0.4c0.6,0,1.2,0.2,1.7,0.5
		c0.5,0.3,0.9,0.7,1.1,1.3c0.3,0.5,0.4,1.2,0.4,1.8v4.4h-1.3V609c0-0.8-0.2-1.4-0.6-1.8c-0.4-0.5-0.9-0.7-1.6-0.7
		c-0.4,0-0.8,0.1-1.2,0.3c-0.3,0.2-0.6,0.5-0.8,0.9s-0.3,0.8-0.3,1.3v4.3H306.6z"/>
	<path class="st4" d="M320.2,601.5h4c1.3,0,2.3,0.3,3,1s1,1.5,1,2.6c0,1.1-0.3,1.9-1,2.5s-1.7,1-3,1h-2.7v4.7h-1.4V601.5z
		 M321.5,602.8v4.5h2.7c0.9,0,1.5-0.2,1.9-0.6s0.7-1,0.7-1.6c0-0.7-0.2-1.2-0.7-1.6s-1.1-0.6-1.9-0.6H321.5z"/>
	<path class="st4" d="M329.9,613.2v-7.8h1.2l0.1,1.2c0.3-0.4,0.6-0.8,1-1c0.4-0.3,0.9-0.4,1.5-0.4c0.2,0,0.5,0,0.7,0.1l-0.2,1.2
		c-0.3-0.1-0.5-0.1-0.7-0.1c-0.7,0-1.3,0.3-1.7,0.8c-0.4,0.5-0.6,1.2-0.6,2v4H329.9z"/>
	<path class="st4" d="M335.2,609.3c0-0.8,0.2-1.5,0.5-2.1s0.8-1.1,1.4-1.4c0.6-0.4,1.3-0.5,2.1-0.5s1.5,0.2,2.1,0.5
		c0.6,0.4,1.1,0.8,1.4,1.4s0.5,1.3,0.5,2.1s-0.2,1.5-0.5,2.1s-0.8,1.1-1.4,1.4c-0.6,0.4-1.3,0.5-2.1,0.5s-1.5-0.2-2.1-0.5
		c-0.6-0.4-1.1-0.8-1.4-1.4S335.2,610.1,335.2,609.3z M336.5,609.3c0,0.6,0.1,1,0.4,1.5c0.2,0.4,0.6,0.8,1,1
		c0.4,0.2,0.9,0.4,1.4,0.4c0.5,0,1-0.1,1.4-0.4c0.4-0.2,0.7-0.6,1-1c0.2-0.4,0.4-0.9,0.4-1.5c0-0.6-0.1-1.1-0.4-1.5
		c-0.2-0.4-0.6-0.8-1-1c-0.4-0.2-0.9-0.4-1.4-0.4c-0.5,0-1,0.1-1.4,0.4c-0.4,0.2-0.7,0.6-1,1C336.6,608.3,336.5,608.8,336.5,609.3z"
		/>
	<path class="st4" d="M351.7,612.2c-0.4,0.4-0.8,0.6-1.3,0.9c-0.5,0.2-1,0.3-1.6,0.3c-0.8,0-1.5-0.2-2.1-0.5
		c-0.6-0.4-1.1-0.8-1.4-1.4s-0.5-1.3-0.5-2.1s0.2-1.5,0.5-2.1s0.8-1.1,1.4-1.4c0.6-0.4,1.3-0.5,2.1-0.5c0.6,0,1.1,0.1,1.6,0.3
		c0.5,0.2,0.9,0.5,1.3,0.8l-0.9,0.9c-0.2-0.3-0.5-0.5-0.9-0.6s-0.7-0.2-1.1-0.2c-0.5,0-1,0.1-1.4,0.4c-0.4,0.2-0.7,0.6-1,1
		c-0.2,0.4-0.4,0.9-0.4,1.5c0,0.6,0.1,1,0.4,1.5c0.2,0.4,0.6,0.8,1,1c0.4,0.2,0.9,0.4,1.4,0.4c0.4,0,0.8-0.1,1.1-0.2
		s0.6-0.4,0.9-0.6L351.7,612.2z"/>
	<path class="st4" d="M361.1,609.3v0.5h-6.6c0.1,0.7,0.5,1.3,1,1.7s1.2,0.7,1.9,0.7c0.4,0,0.9-0.1,1.3-0.2s0.9-0.4,1.3-0.8l0.8,1
		c-0.6,0.5-1.1,0.8-1.7,1c-0.6,0.2-1.1,0.3-1.6,0.3c-0.8,0-1.6-0.2-2.2-0.5s-1.2-0.8-1.5-1.5c-0.4-0.6-0.6-1.3-0.6-2.1
		c0-0.8,0.2-1.5,0.5-2.1c0.3-0.6,0.8-1.1,1.4-1.4s1.3-0.5,2.1-0.5c0.8,0,1.5,0.2,2,0.5s1.1,0.8,1.4,1.4
		C360.9,607.8,361.1,608.5,361.1,609.3z M354.4,608.7h5.3c-0.1-0.7-0.4-1.2-0.9-1.7c-0.5-0.4-1.1-0.6-1.7-0.6
		c-0.7,0-1.3,0.2-1.8,0.7C354.8,607.5,354.5,608.1,354.4,608.7z"/>
	<path class="st4" d="M362.6,612.5l0.6-1.1c0.6,0.6,1.3,0.8,2,0.8c0.4,0,0.8-0.1,1-0.3s0.4-0.5,0.4-0.8c0-0.4-0.2-0.7-0.5-0.9
		c-0.3-0.2-0.7-0.4-1.1-0.6c-0.3-0.2-0.7-0.3-1-0.5c-0.3-0.2-0.6-0.4-0.8-0.7c-0.2-0.3-0.3-0.6-0.3-1.1c0-0.6,0.2-1.1,0.7-1.5
		c0.5-0.4,1.1-0.6,1.8-0.6c0.4,0,0.8,0.1,1.2,0.2c0.4,0.1,0.7,0.3,1,0.5l-0.5,1c-0.3-0.2-0.6-0.3-0.8-0.3c-0.2-0.1-0.5-0.1-0.8-0.1
		c-0.4,0-0.7,0.1-0.9,0.2c-0.2,0.2-0.3,0.4-0.3,0.6c0,0.3,0.1,0.6,0.4,0.8c0.3,0.2,0.6,0.4,1,0.6c0.3,0.2,0.7,0.3,1,0.5
		s0.6,0.4,0.8,0.7c0.2,0.3,0.3,0.7,0.3,1.1c0,0.5-0.1,0.9-0.4,1.2s-0.6,0.6-1,0.8c-0.4,0.2-0.9,0.3-1.4,0.3c-0.5,0-0.9-0.1-1.4-0.2
		C363.3,613,362.9,612.7,362.6,612.5z"/>
	<path class="st4" d="M369.4,612.5l0.6-1.1c0.6,0.6,1.3,0.8,2,0.8c0.4,0,0.8-0.1,1-0.3s0.4-0.5,0.4-0.8c0-0.4-0.2-0.7-0.5-0.9
		c-0.3-0.2-0.7-0.4-1.1-0.6c-0.3-0.2-0.7-0.3-1-0.5c-0.3-0.2-0.6-0.4-0.8-0.7c-0.2-0.3-0.3-0.6-0.3-1.1c0-0.6,0.2-1.1,0.7-1.5
		c0.5-0.4,1.1-0.6,1.8-0.6c0.4,0,0.8,0.1,1.2,0.2c0.4,0.1,0.7,0.3,1,0.5l-0.5,1c-0.3-0.2-0.6-0.3-0.8-0.3c-0.2-0.1-0.5-0.1-0.8-0.1
		c-0.4,0-0.7,0.1-0.9,0.2c-0.2,0.2-0.3,0.4-0.3,0.6c0,0.3,0.1,0.6,0.4,0.8c0.3,0.2,0.6,0.4,1,0.6c0.3,0.2,0.7,0.3,1,0.5
		s0.6,0.4,0.8,0.7c0.2,0.3,0.3,0.7,0.3,1.1c0,0.5-0.1,0.9-0.4,1.2s-0.6,0.6-1,0.8c-0.4,0.2-0.9,0.3-1.4,0.3c-0.5,0-0.9-0.1-1.4-0.2
		C370.1,613,369.7,612.7,369.4,612.5z"/>
</g>
<g>
	<defs>
		<rect id="SVGID_31_" x="-32.7" y="511.5" width="526.9" height="587.4"/>
	</defs>
	<clipPath id="SVGID_32_">
		<use xlink:href="#SVGID_31_"  style="overflow:visible;"/>
	</clipPath>
	<g class="st23">
		<path class="st6" d="M267.7,586.1h119.8c6.1,0,11,4.9,11,11v20.2c0,6.1-4.9,11-11,11H267.7c-6.1,0-11-4.9-11-11v-20.2
			C256.7,591,261.6,586.1,267.7,586.1z"/>
	</g>
</g>
<line class="st6" x1="327.6" y1="629.3" x2="327.6" y2="671.8"/>
<polygon class="st4" points="327.6,678.7 331.5,668 327.6,671.8 323.7,668 "/>
<rect x="255.7" y="634.3" class="st0" width="143.8" height="19.7"/>
<g class="st3">
	<path class="st4" d="M282.8,648c0.4,0.4,0.9,0.7,1.4,0.9c0.5,0.2,1,0.3,1.5,0.3c0.5,0,0.9-0.1,1.3-0.2c0.4-0.2,0.7-0.4,1-0.7
		c0.2-0.3,0.4-0.7,0.4-1.1c0-0.4-0.1-0.8-0.4-1.1c-0.3-0.3-0.6-0.6-1-0.8c-0.4-0.2-0.8-0.4-1.3-0.6c-0.4-0.2-0.8-0.4-1.1-0.5
		s-0.7-0.4-1-0.7s-0.5-0.5-0.7-0.9c-0.2-0.3-0.3-0.7-0.3-1.2c0-0.6,0.2-1.2,0.5-1.6c0.3-0.5,0.8-0.8,1.3-1c0.6-0.2,1.2-0.4,1.9-0.4
		c0.5,0,0.9,0.1,1.4,0.2c0.5,0.1,1,0.3,1.5,0.5l-0.6,1.2c-0.4-0.2-0.7-0.4-1.1-0.5s-0.8-0.1-1.1-0.1c-0.7,0-1.2,0.2-1.7,0.5
		c-0.5,0.3-0.7,0.7-0.7,1.3c0,0.4,0.1,0.7,0.4,1c0.2,0.3,0.6,0.5,0.9,0.7c0.4,0.2,0.8,0.4,1.2,0.6c0.4,0.2,0.8,0.4,1.2,0.6
		s0.7,0.4,1.1,0.7c0.3,0.3,0.6,0.6,0.8,0.9s0.3,0.8,0.3,1.3c0,0.7-0.2,1.2-0.5,1.8c-0.4,0.5-0.8,0.9-1.5,1.2
		c-0.6,0.3-1.3,0.4-2.1,0.4c-0.6,0-1.2-0.1-1.8-0.3s-1.2-0.5-1.7-0.9L282.8,648z"/>
	<path class="st4" d="M299.3,646.3v0.5h-6.6c0.1,0.7,0.5,1.3,1,1.7s1.2,0.7,1.9,0.7c0.4,0,0.9-0.1,1.3-0.2s0.9-0.4,1.3-0.8l0.8,1
		c-0.6,0.5-1.1,0.8-1.7,1c-0.6,0.2-1.1,0.3-1.6,0.3c-0.8,0-1.6-0.2-2.2-0.5s-1.2-0.8-1.5-1.5c-0.4-0.6-0.6-1.3-0.6-2.1
		c0-0.8,0.2-1.5,0.5-2.1c0.3-0.6,0.8-1.1,1.4-1.4s1.3-0.5,2.1-0.5c0.8,0,1.5,0.2,2,0.5s1.1,0.8,1.4,1.4
		C299.1,644.8,299.3,645.5,299.3,646.3z M292.7,645.7h5.3c-0.1-0.7-0.4-1.2-0.9-1.7c-0.5-0.4-1.1-0.6-1.7-0.6
		c-0.7,0-1.3,0.2-1.8,0.7C293.1,644.5,292.8,645,292.7,645.7z"/>
	<path class="st4" d="M302.6,638.1v12h-1.3v-12H302.6z"/>
	<path class="st4" d="M312.5,646.3v0.5h-6.6c0.1,0.7,0.5,1.3,1,1.7s1.2,0.7,1.9,0.7c0.4,0,0.9-0.1,1.3-0.2s0.9-0.4,1.3-0.8l0.8,1
		c-0.6,0.5-1.1,0.8-1.7,1c-0.6,0.2-1.1,0.3-1.6,0.3c-0.8,0-1.6-0.2-2.2-0.5s-1.2-0.8-1.5-1.5c-0.4-0.6-0.6-1.3-0.6-2.1
		c0-0.8,0.2-1.5,0.5-2.1c0.3-0.6,0.8-1.1,1.4-1.4s1.3-0.5,2.1-0.5c0.8,0,1.5,0.2,2,0.5s1.1,0.8,1.4,1.4
		C312.4,644.8,312.5,645.5,312.5,646.3z M305.9,645.7h5.3c-0.1-0.7-0.4-1.2-0.9-1.7c-0.5-0.4-1.1-0.6-1.7-0.6
		c-0.7,0-1.3,0.2-1.8,0.7C306.3,644.5,306,645,305.9,645.7z"/>
	<path class="st4" d="M320.9,649.2c-0.4,0.4-0.8,0.6-1.3,0.9c-0.5,0.2-1,0.3-1.6,0.3c-0.8,0-1.5-0.2-2.1-0.5
		c-0.6-0.4-1.1-0.8-1.4-1.4s-0.5-1.3-0.5-2.1s0.2-1.5,0.5-2.1s0.8-1.1,1.4-1.4c0.6-0.4,1.3-0.5,2.1-0.5c0.6,0,1.1,0.1,1.6,0.3
		c0.5,0.2,0.9,0.5,1.3,0.8l-0.9,0.9c-0.2-0.3-0.5-0.5-0.9-0.6s-0.7-0.2-1.1-0.2c-0.5,0-1,0.1-1.4,0.4c-0.4,0.2-0.7,0.6-1,1
		c-0.2,0.4-0.4,0.9-0.4,1.5c0,0.6,0.1,1,0.4,1.5c0.2,0.4,0.6,0.8,1,1c0.4,0.2,0.9,0.4,1.4,0.4c0.4,0,0.8-0.1,1.1-0.2
		s0.6-0.4,0.9-0.6L320.9,649.2z"/>
	<path class="st4" d="M323.7,642.4v-2h1.3v2h2.1v1.2H325v4.2c0,1,0.4,1.4,1.3,1.4c0.1,0,0.3,0,0.4,0c0.1,0,0.3-0.1,0.4-0.1v1.1
		c-0.1,0.1-0.3,0.1-0.5,0.1c-0.2,0-0.4,0.1-0.6,0.1c-0.7,0-1.3-0.2-1.7-0.6c-0.4-0.4-0.6-1-0.6-1.9v-4.3h-1.3v-1.2H323.7z"/>
	<path class="st4" d="M333.3,650.2v-7.8h1.2l0.1,1.2c0.3-0.4,0.6-0.8,1-1c0.4-0.3,0.9-0.4,1.5-0.4c0.2,0,0.5,0,0.7,0.1l-0.2,1.2
		c-0.3-0.1-0.5-0.1-0.7-0.1c-0.7,0-1.3,0.3-1.7,0.8c-0.4,0.5-0.6,1.2-0.6,2v4H333.3z"/>
	<path class="st4" d="M346.6,646.3v0.5H340c0.1,0.7,0.5,1.3,1,1.7s1.2,0.7,1.9,0.7c0.4,0,0.9-0.1,1.3-0.2s0.9-0.4,1.3-0.8l0.8,1
		c-0.6,0.5-1.1,0.8-1.7,1c-0.6,0.2-1.1,0.3-1.6,0.3c-0.8,0-1.6-0.2-2.2-0.5s-1.2-0.8-1.5-1.5c-0.4-0.6-0.6-1.3-0.6-2.1
		c0-0.8,0.2-1.5,0.5-2.1c0.3-0.6,0.8-1.1,1.4-1.4s1.3-0.5,2.1-0.5c0.8,0,1.5,0.2,2,0.5s1.1,0.8,1.4,1.4
		C346.4,644.8,346.6,645.5,346.6,646.3z M339.9,645.7h5.3c-0.1-0.7-0.4-1.2-0.9-1.7c-0.5-0.4-1.1-0.6-1.7-0.6
		c-0.7,0-1.3,0.2-1.8,0.7C340.4,644.5,340,645,339.9,645.7z"/>
	<path class="st4" d="M348.1,649.4l0.6-1.1c0.6,0.6,1.3,0.8,2,0.8c0.4,0,0.8-0.1,1-0.3s0.4-0.5,0.4-0.8c0-0.4-0.2-0.7-0.5-0.9
		c-0.3-0.2-0.7-0.4-1.1-0.6c-0.3-0.2-0.7-0.3-1-0.5c-0.3-0.2-0.6-0.4-0.8-0.7c-0.2-0.3-0.3-0.6-0.3-1.1c0-0.6,0.2-1.1,0.7-1.5
		c0.5-0.4,1.1-0.6,1.8-0.6c0.4,0,0.8,0.1,1.2,0.2c0.4,0.1,0.7,0.3,1,0.5l-0.5,1c-0.3-0.2-0.6-0.3-0.8-0.3c-0.2-0.1-0.5-0.1-0.8-0.1
		c-0.4,0-0.7,0.1-0.9,0.2c-0.2,0.2-0.3,0.4-0.3,0.6c0,0.3,0.1,0.6,0.4,0.8c0.3,0.2,0.6,0.4,1,0.6c0.3,0.2,0.7,0.3,1,0.5
		s0.6,0.4,0.8,0.7c0.2,0.3,0.3,0.7,0.3,1.1c0,0.5-0.1,0.9-0.4,1.2s-0.6,0.6-1,0.8c-0.4,0.2-0.9,0.3-1.4,0.3c-0.5,0-0.9-0.1-1.4-0.2
		C348.8,649.9,348.4,649.7,348.1,649.4z"/>
	<path class="st4" d="M356.5,642.4v4.2c0,0.8,0.2,1.4,0.6,1.8c0.4,0.5,0.9,0.7,1.6,0.7c0.4,0,0.8-0.1,1.2-0.3
		c0.3-0.2,0.6-0.5,0.8-0.9s0.3-0.8,0.3-1.3v-4.3h1.3v7.8h-1.2l-0.1-1.2c-0.3,0.4-0.7,0.8-1.1,1c-0.5,0.2-1,0.4-1.5,0.4
		c-0.6,0-1.2-0.2-1.7-0.5c-0.5-0.3-0.9-0.7-1.1-1.3c-0.3-0.5-0.4-1.2-0.4-1.8v-4.4H356.5z"/>
	<path class="st4" d="M366.1,638.1v12h-1.3v-12H366.1z"/>
	<path class="st4" d="M369.4,642.4v-2h1.3v2h2.1v1.2h-2.1v4.2c0,1,0.4,1.4,1.3,1.4c0.1,0,0.3,0,0.4,0c0.1,0,0.3-0.1,0.4-0.1v1.1
		c-0.1,0.1-0.3,0.1-0.5,0.1c-0.2,0-0.4,0.1-0.6,0.1c-0.7,0-1.3-0.2-1.7-0.6c-0.4-0.4-0.6-1-0.6-1.9v-4.3h-1.3v-1.2H369.4z"/>
</g>
<line class="st6" x1="255.7" y1="607.2" x2="134.5" y2="607.2"/>
<polygon class="st4" points="127.6,607.2 138.3,611.1 134.5,607.2 138.3,603.3 "/>
<rect x="182.1" y="597.8" class="st0" width="64.5" height="18.7"/>
<g class="st3">
	<path class="st4" d="M198.7,610.8l1,1c-0.5,0.5-1.2,1-1.9,1.3c-0.7,0.3-1.6,0.5-2.4,0.5c-0.9,0-1.7-0.2-2.4-0.5s-1.4-0.7-1.9-1.3
		s-1-1.2-1.3-1.9c-0.3-0.7-0.5-1.6-0.5-2.4s0.2-1.7,0.5-2.4c0.3-0.7,0.7-1.4,1.3-1.9s1.2-1,1.9-1.3s1.6-0.5,2.4-0.5
		c0.9,0,1.7,0.2,2.4,0.5c0.7,0.3,1.4,0.7,1.9,1.3l-1,1c-0.4-0.4-0.9-0.8-1.5-1.1c-0.6-0.3-1.2-0.4-1.9-0.4c-0.9,0-1.7,0.2-2.4,0.6
		c-0.7,0.4-1.3,1-1.7,1.7c-0.4,0.7-0.6,1.6-0.6,2.5c0,0.9,0.2,1.8,0.6,2.5c0.4,0.7,1,1.3,1.7,1.7c0.7,0.4,1.5,0.6,2.4,0.6
		c0.7,0,1.3-0.1,1.9-0.4C197.8,611.6,198.3,611.2,198.7,610.8z"/>
</g>
<g class="st3">
	<path class="st4" d="M201.3,610.9c0-0.8,0.3-1.4,0.9-1.9c0.6-0.5,1.4-0.7,2.5-0.7c0.7,0,1.4,0.1,2.1,0.3v-0.1
		c0-0.7-0.2-1.2-0.6-1.6s-0.9-0.6-1.6-0.6c-0.7,0-1.4,0.2-2.2,0.7l-0.5-1.1c0.5-0.3,1-0.5,1.4-0.6c0.4-0.1,0.9-0.2,1.4-0.2
		c1,0,1.8,0.3,2.4,0.9c0.6,0.6,0.9,1.4,0.9,2.4v4.6h-1.2l-0.1-1.2c-0.3,0.4-0.6,0.7-1.1,1c-0.4,0.2-1,0.3-1.6,0.3
		c-0.8,0-1.5-0.2-2.1-0.7C201.6,612.2,201.3,611.6,201.3,610.9z M204.8,609.5c-0.7,0-1.2,0.1-1.6,0.4c-0.4,0.2-0.6,0.6-0.6,1
		c0,0.4,0.2,0.7,0.5,1s0.7,0.4,1.2,0.4c0.5,0,0.9-0.1,1.2-0.3c0.4-0.2,0.7-0.5,0.9-0.8c0.2-0.3,0.3-0.7,0.3-1.1v-0.2
		C206.1,609.6,205.4,609.5,204.8,609.5z"/>
	<path class="st4" d="M210.4,613.2v-7.8h1.2l0.1,1.2c0.3-0.4,0.7-0.8,1.1-1c0.4-0.2,0.9-0.4,1.5-0.4c0.6,0,1.2,0.2,1.7,0.5
		c0.5,0.3,0.9,0.7,1.1,1.3c0.3,0.5,0.4,1.2,0.4,1.8v4.4h-1.3V609c0-0.8-0.2-1.4-0.6-1.8c-0.4-0.5-0.9-0.7-1.6-0.7
		c-0.4,0-0.8,0.1-1.2,0.3c-0.3,0.2-0.6,0.5-0.8,0.9s-0.3,0.8-0.3,1.3v4.3H210.4z"/>
	<path class="st4" d="M226.2,612.2c-0.4,0.4-0.8,0.6-1.3,0.9c-0.5,0.2-1,0.3-1.6,0.3c-0.8,0-1.5-0.2-2.1-0.5
		c-0.6-0.4-1.1-0.8-1.4-1.4s-0.5-1.3-0.5-2.1s0.2-1.5,0.5-2.1s0.8-1.1,1.4-1.4c0.6-0.4,1.3-0.5,2.1-0.5c0.6,0,1.1,0.1,1.6,0.3
		c0.5,0.2,0.9,0.5,1.3,0.8l-0.9,0.9c-0.2-0.3-0.5-0.5-0.9-0.6s-0.7-0.2-1.1-0.2c-0.5,0-1,0.1-1.4,0.4c-0.4,0.2-0.7,0.6-1,1
		c-0.2,0.4-0.4,0.9-0.4,1.5c0,0.6,0.1,1,0.4,1.5c0.2,0.4,0.6,0.8,1,1c0.4,0.2,0.9,0.4,1.4,0.4c0.4,0,0.8-0.1,1.1-0.2
		s0.6-0.4,0.9-0.6L226.2,612.2z"/>
	<path class="st4" d="M235.6,609.3v0.5H229c0.1,0.7,0.5,1.3,1,1.7s1.2,0.7,1.9,0.7c0.4,0,0.9-0.1,1.3-0.2s0.9-0.4,1.3-0.8l0.8,1
		c-0.6,0.5-1.1,0.8-1.7,1s-1.1,0.3-1.6,0.3c-0.8,0-1.6-0.2-2.2-0.5s-1.2-0.8-1.5-1.5c-0.4-0.6-0.6-1.3-0.6-2.1
		c0-0.8,0.2-1.5,0.5-2.1c0.3-0.6,0.8-1.1,1.4-1.4s1.3-0.5,2.1-0.5c0.8,0,1.5,0.2,2,0.5s1.1,0.8,1.4,1.4S235.6,608.5,235.6,609.3z
		 M229,608.7h5.3c-0.1-0.7-0.4-1.2-0.9-1.7s-1.1-0.6-1.7-0.6c-0.7,0-1.3,0.2-1.8,0.7C229.4,607.5,229.1,608.1,229,608.7z"/>
	<path class="st4" d="M238.9,601.2v12h-1.3v-12H238.9z"/>
</g>
</svg>
